<?xml version="1.0" encoding="UTF-8"?>
<svg width="317px" height="81px" viewBox="0 0 317 81" version="1.1" xmlns="http://www.w3.org/2000/svg" xmlns:xlink="http://www.w3.org/1999/xlink">
    <!-- Generator: Sketch 52.2 (67145) - http://www.bohemiancoding.com/sketch -->
    <title>Logo</title>
    <desc>Created with Sketch.</desc>
    <g id="Page-1" stroke="none" stroke-width="0" fill="none" fill-rule="evenodd">
        <g id="Group">
            <rect id="Rectangle" fill="#003E87" x="0" y="0" width="157" height="81"></rect>
            <rect id="Rectangle-Copy" fill="#FDE000" x="160" y="0" width="157" height="81"></rect>
            <path d="M12.1486816,10.9068848 L30.7177002,10.9068848 L30.7177002,56.2021729 L59.6984863,56.2021729 L59.6984863,71 L12.1486816,71 L12.1486816,10.9068848 Z M68.8805176,10.9068848 L87.4905273,10.9068848 L87.4905273,71 L68.8805176,71 L68.8805176,10.9068848 Z M100.812671,10.9068848 L119.381689,10.9068848 L119.381689,56.2021729 L148.362476,56.2021729 L148.362476,71 L100.812671,71 L100.812671,10.9068848 Z" id="LIL" fill="#FFFFFF"></path>
            <path d="M215.769336,34.1080566 L225.955518,34.1080566 L225.955518,67 L215.769336,67 L215.769336,34.1080566 Z M229.994092,34.1080566 L240.629004,34.1080566 L248.033057,57.7785889 L255.324927,34.1080566 L265.645728,34.1080566 L253.440259,67 L242.423926,67 L229.994092,34.1080566 Z M268.966333,34.1080566 L296.204272,34.1080566 L296.204272,41.1306885 L279.152515,41.1306885 L279.152515,46.3583984 L294.970264,46.3583984 L294.970264,53.0669189 L279.152515,53.0669189 L279.152515,59.5510742 L296.697876,59.5510742 L296.697876,67 L268.966333,67 L268.966333,34.1080566 Z" id="IVE" fill="#000000"></path>
            <polygon id="Path" fill="#00A35F" points="192.973017 34 182 50.8666667 192.973017 67 212 67 212 54.2473159 196.993568 54.2473159 206.883317 34"></polygon>
        </g>
    </g>
</svg>