<svg width="40" height="38" viewBox="0 0 40 38" xmlns="http://www.w3.org/2000/svg"><g fill="none" fill-rule="evenodd"><path d="M36 22.167C36 30.91 28.837 38 20 38S4 30.911 4 22.167c0-8.745 7.163-15.834 16-15.834s16 7.089 16 15.834" fill="#FCE5A6"/><path d="M22.764 22.958H10.836A1.23 1.23 0 0 1 9.6 21.735V1.223A1.23 1.23 0 0 1 10.836 0h11.928A1.23 1.23 0 0 1 24 1.223v20.512a1.23 1.23 0 0 1-1.236 1.223" fill="#FFB300"/><path d="M16.298 16.686c4.068-.784 6.102 6.272 6.102 6.272h-4.068l-2.034-6.272zM29.048 30.598l-.024.325c-.024.42-.056.839-.072 1.274-.032.887-.056 1.987-.064 3.127-.736.499-1.52.926-2.344 1.29-.92.412-1.896.745-2.904.966-.712.175-1.44.293-2.184.357-.064.008-.128.008-.192.016.12-1.315.136-2.74-.032-3.935 1.192-.095 4.664-.618 7.816-3.42" fill="#8D6E63"/><path d="M29.92 23.235c.016.38-.016.76-.096 1.117-.136.593-.28 1.377-.408 2.32-.04.348-.08.72-.136 1.108a59.3 59.3 0 0 0-.232 2.818c-3.152 2.802-6.624 3.325-7.816 3.42 0-.032-.008-.056-.008-.08 0 0-2.176-2.77-3.568-4.963-.144-.238-.28-.451-.4-.673-.072-.119-.128-.23-.2-.356-.432-.91-.712-2.098-.872-3.27A22.434 22.434 0 0 1 16 22.863v-.008c-.08-1.108-.08-2.018-.08-2.454 0-1.116-.648-2.81-1.312-3.38 0 0 2.648-1.132 3.968 1.124 1.072 1.813.744 3.887 1.976 5.637.352.498.92.783 1.44.942.768.23 1.624.19 2.328-.206 2.216-1.243 1.672-4.52.2-6.373l-.52-.57v-3.34s2.512 1.1 3.168 2.224c.584.981 2.672 4.116 2.752 6.776" fill="#FFF"/></g></svg>