<svg xmlns="http://www.w3.org/2000/svg" viewBox="0 0 435.5 364.66"><defs><style>.cls-1{fill:#ebf6fa;}.cls-1,.cls-10,.cls-3,.cls-4,.cls-5,.cls-6,.cls-7,.cls-8,.cls-9{fill-rule:evenodd;}.cls-2{fill:#e4f3f7;}.cls-3{fill:#e4f3f6;}.cls-4{fill:#fff;}.cls-5{fill:#f4fafa;}.cls-6{fill:#dcf1f6;}.cls-7{fill:#f1f9fa;}.cls-8{fill:#bfc031;}.cls-9{fill:#83983b;}.cls-10{fill:#abb937;}</style></defs><title>bgr</title><g id="Layer_2" data-name="Layer 2"><g id="Layer_1-2" data-name="Layer 1"><polygon class="cls-1" points="434.99 363.76 0.14 363.75 0.14 0 434.99 0 434.99 363.76"/><path class="cls-2" d="M104.61,43.22c76.91,0,152.4,1.7,211.25,1.68q10.5,0,20.25-.09c32.37-.29,69.61-1.16,98.69-2V42c-29.08.8-66.62,1.68-99,2-6.36.06-13,.08-19.92.09-58.13,0-133.79-1.7-211.25-1.68L90,42.44c-36.79.12-66.84.17-89.64.19v.8c22.82,0,52.92-.07,89.76-.19Z"/><path class="cls-2" d="M434.8,44.54l-8.13.25c-33.7,1-77.51,2-117.73,2-13.07,0-25.76-.1-37.56-.34C201.49,45.07,94,44.38,36.73,44.39c-13.25,0-23.79,0-30.67.12l-5.67.07v.81l6.13-.07c6.58-.08,17.05-.12,30.22-.12,56.94,0,164.47.68,233.84,2.09,12.17.25,25.11.35,38.37.35,43.72,0,91.16-1.19,125.85-2.27Z"/><path class="cls-2" d="M434.8,47.23l-9.49.2C388,48.21,337.83,49,286.48,49c-21.8,0-43.79-.12-65.1-.45-37.42-.57-77.92-.77-116.17-.76C66,47.8,29.12,48,.38,48.27v.81c28.68-.25,65.55-.47,104.84-.48,38.12,0,78.43.18,115.57.75,21.57.33,43.74.46,65.69.46,55.86,0,110.15-.92,148.31-1.76Z"/><path class="cls-2" d="M121.31,82.75c16.64,0,80.08.91,139.19.89,22.77,0,44.92-.15,63.72-.54,36.82-.76,79.58-1.44,110.59-1.89v-.81c-31.1.46-74.26,1.14-111.37,1.91-18.37.38-40.33.52-62.94.53-58.85,0-121.8-.89-139.19-.89-16,0-79.84,1-120.92,1.64v.81C41.46,83.74,105.89,82.75,121.31,82.75Z"/><path class="cls-2" d="M260.49,56c22.77,0,44.92-.15,63.72-.54C361,54.66,403.79,54,434.8,53.53v-.81c-31.1.46-74.26,1.14-111.37,1.91-18.37.38-40.33.53-62.94.53-58.85,0-121.8-.89-139.19-.89-16,0-79.84,1-120.92,1.64v.81c41.08-.66,105.5-1.64,120.92-1.65C137.94,55.07,201.39,56,260.49,56Zm174.3,6.29c-12.57.2-26.82.42-42.31.64-56.8.8-129.77,1.61-194.33,1.62-15.57,0-30.64,0-44.9-.14-30-.21-57.53-.28-82.06-.28-27.47,0-51.23.12-70.81.26v.81c19.53-.15,43.29-.26,70.81-.26,24.47,0,51.86.07,81.8.28,14.36.1,29.53.14,45.18.14,82.25,0,177.74-1.31,236.63-2.26Zm0-6.45c-9.66.24-21.41.52-34.72.8-37.69.78-87.61,1.57-136.35,1.58-21.37,0-42.55-.14-62.31-.5-32.76-.59-69.92-.79-106.11-.78-34,0-67.17.2-94.92.44v.81c27.72-.24,60.88-.43,94.94-.44,36,0,73,.19,105.4.77,20.08.36,41.45.51,63,.5,65.9,0,133.57-1.43,171-2.37Zm-208.26-3c15.58.21,31.88.29,48.42.29,57.66,0,118.1-1.13,159.84-2.09v-.82l-15.74.35c-40.36.87-93.43,1.74-144.11,1.75-16.4,0-32.54-.08-47.9-.29-27.29-.36-57.47-.49-87.5-.48-52.17,0-103.86.45-139.16.82v.81c35.22-.38,87-.81,139.18-.82C169.47,52.27,199.49,52.4,226.54,52.76Zm28.2,8.82c14.63,0,28.59-.09,41.1-.28,41.2-.66,99.86-1.18,139-1.49V59c-39.17.31-98.11.84-139.57,1.49-12.22.2-26,.28-40.5.28-64.27,0-141.82-1.51-161.44-1.6H90.37c-15.3,0-54.8.39-90,.76v.81c35.27-.38,74.94-.76,90-.76h2.75C111.95,60.06,190.05,61.59,254.73,61.58ZM139.56,80c29.9,0,59.92.12,87,.48,15.58.21,31.88.29,48.42.29,57.66,0,118.1-1.13,159.84-2.09v-.82l-15.74.35c-40.36.87-93.43,1.74-144.11,1.75-16.4,0-32.54-.08-47.9-.29-27.29-.36-57.47-.49-87.5-.48C87.38,79.17,35.69,79.6.38,80v.81C35.6,80.41,87.35,80,139.56,80Zm295.24-5-9.49.2c-37.31.77-87.49,1.55-138.83,1.56-21.8,0-43.79-.13-65.1-.45-37.42-.58-77.92-.77-116.17-.76C66,75.48,29.12,75.71.38,76v.81c28.68-.24,65.55-.47,104.84-.48,38.12,0,78.43.18,115.57.75,21.57.33,43.74.46,65.69.46,55.86,0,110.15-.92,148.31-1.76ZM305.08,68.28c53.41-.77,97.59-1.5,129.72-2.08v-.81c-32.12.57-76.49,1.31-130.27,2.09-49.43.71-123.62.93-192.17,1-41.68,0-81.22-.05-112-.13v.81c30.76.07,70.34.14,112,.13C181,69.21,255.25,69,305.08,68.28ZM104.61,70.9c76.91,0,152.4,1.69,211.25,1.68q10.5,0,20.25-.08c32.37-.28,69.61-1.16,98.69-2v-.82c-29.08.8-66.62,1.69-99,2-6.36.05-13,.08-19.92.08-58.13,0-133.79-1.7-211.25-1.68L90,70.12c-36.79.12-66.84.17-89.64.19v.8c22.82,0,52.92-.07,89.76-.19ZM434.8,72.22l-8.13.25c-33.7,1-77.51,2-117.73,2-13.07,0-25.76-.1-37.56-.34C201.49,72.74,94,72.05,36.73,72.07c-13.25,0-23.79,0-30.67.13l-5.67.07v.81L6.51,73c6.58-.08,17.05-.12,30.22-.12,56.94,0,164.47.68,233.84,2.09,12.17.25,25.11.35,38.37.35,43.72,0,91.16-1.18,125.85-2.27Z"/><path class="cls-2" d="M434.8.14c-9.66.24-21.41.52-34.72.79-37.69.78-87.61,1.57-136.35,1.59-21.37,0-42.55-.14-62.31-.49-32.76-.59-69.92-.79-106.11-.78-34,0-67.17.2-94.92.44v.81c27.72-.24,60.88-.43,94.94-.44,36,0,73,.19,105.4.78,20.08.36,41.45.51,63,.5,65.9,0,133.57-1.43,171-2.37Z"/><path class="cls-2" d="M254.73,5.92c14.63,0,28.59-.09,41.1-.28C337,5,395.69,4.46,434.8,4.15V3.34c-39.17.31-98.11.84-139.57,1.49-12.22.19-26,.28-40.5.28-64.27,0-141.82-1.51-161.44-1.6H90.37c-15.3,0-54.8.39-90,.76v.81c35.27-.38,74.94-.76,90-.77h2.75C111.95,4.41,190.05,5.94,254.73,5.92Z"/><path class="cls-2" d="M305.08,40.6c53.41-.77,97.59-1.51,129.72-2.08v-.81c-32.12.57-76.49,1.31-130.27,2.09-49.43.71-123.62.93-192.17,1-41.68,0-81.22-.06-112-.12v.81c30.76.07,70.34.13,112,.12C181,41.53,255.25,41.32,305.08,40.6Z"/><path class="cls-2" d="M305.08,12.62c53.41-.77,97.59-1.51,129.72-2.08V9.73c-32.12.57-76.49,1.31-130.27,2.09-49.43.71-123.62.93-192.17,1-41.68,0-81.22-.05-112-.13v.81c30.76.07,70.34.14,112,.12C181,13.56,255.25,13.34,305.08,12.62ZM104.61,15.25c76.91,0,152.4,1.7,211.25,1.68q10.5,0,20.25-.09c32.37-.28,69.61-1.15,98.69-2v-.82c-29.08.8-66.62,1.68-99,2-6.36.06-13,.08-19.92.09-58.13,0-133.79-1.7-211.25-1.68L90,14.47c-36.79.12-66.84.17-89.64.19v.8c22.82,0,52.92-.07,89.76-.19ZM434.8,16.56l-8.13.25c-33.7,1-77.51,2-117.73,2-13.07,0-25.76-.1-37.56-.34C201.49,17.09,94,16.4,36.73,16.41c-13.25,0-23.79,0-30.67.12l-5.67.07v.81l6.13-.07c6.58-.08,17.05-.12,30.22-.12,56.94,0,164.47.68,233.84,2.09,12.17.25,25.11.35,38.37.35,43.72,0,91.16-1.18,125.85-2.27Zm0-10c-12.57.2-26.82.42-42.31.64-56.8.8-129.77,1.61-194.33,1.62-15.57,0-30.64,0-44.9-.13-30-.21-57.53-.28-82.06-.28C43.72,8.45,20,8.56.38,8.71v.81c19.53-.15,43.29-.26,70.81-.26,24.47,0,51.86.07,81.8.28,14.36.1,29.53.14,45.18.14,82.25,0,177.74-1.32,236.63-2.26ZM254.73,33.9c14.63,0,28.59-.09,41.1-.28,41.2-.66,99.86-1.18,139-1.49v-.81c-39.17.31-98.11.84-139.57,1.49-12.22.2-26,.28-40.5.28-64.27,0-141.82-1.51-161.44-1.6H90.37c-15.3,0-54.8.39-90,.76v.81c35.27-.38,74.94-.76,90-.77h2.75C111.95,32.38,190.05,33.92,254.73,33.9ZM434.8,28.12c-9.66.24-21.41.52-34.72.79-37.69.78-87.61,1.57-136.35,1.58-21.37,0-42.55-.14-62.31-.49-32.76-.59-69.92-.79-106.11-.78-34,0-67.17.2-94.92.44v.81C28.11,30.23,61.27,30,95.33,30c36,0,73,.19,105.4.77,20.08.36,41.45.51,63,.5,65.9,0,133.57-1.44,171-2.37ZM198.17,37.64c82.25,0,177.74-1.32,236.63-2.26v-.81c-12.57.2-26.82.42-42.31.64-56.8.8-129.77,1.61-194.33,1.62-15.57,0-30.64,0-44.9-.13-30-.21-57.53-.28-82.06-.28-27.47,0-51.23.12-70.81.26v.81c19.53-.15,43.29-.26,70.81-.27,24.47,0,51.86.07,81.8.28C167.35,37.61,182.52,37.65,198.17,37.64ZM434.8,19.26l-9.49.2C388,20.23,337.83,21,286.48,21c-21.8,0-43.79-.12-65.1-.45C184,20,143.46,19.8,105.21,19.82c-39.24,0-76.09.23-104.83.48v.81c28.68-.24,65.55-.47,104.84-.48,38.12,0,78.43.18,115.57.75,21.57.33,43.74.46,65.69.46,55.86,0,110.15-.93,148.31-1.76ZM226.54,24.78c15.58.21,31.88.29,48.42.29,57.66,0,118.1-1.13,159.84-2.09v-.82l-15.74.35c-40.36.87-93.43,1.74-144.11,1.75-16.4,0-32.54-.08-47.9-.29-27.29-.36-57.47-.49-87.5-.48-52.17,0-103.86.45-139.16.82v.81c35.22-.38,87-.81,139.18-.82C169.47,24.3,199.49,24.42,226.54,24.78Zm34,3.2c22.77,0,44.92-.15,63.72-.54C361,26.68,403.79,26,434.8,25.55v-.81c-31.1.46-74.26,1.14-111.37,1.91-18.37.38-40.33.52-62.94.53-58.85,0-121.8-.89-139.19-.89-16,0-79.84,1-120.92,1.64v.81c41.08-.66,105.5-1.65,120.92-1.65C137.94,27.09,201.39,28,260.49,28Z"/><path class="cls-2" d="M104.61,126.82c76.91,0,152.4,1.7,211.25,1.68q10.5,0,20.25-.09c32.37-.29,69.61-1.16,98.69-2v-.82c-29.08.8-66.62,1.68-99,2-6.36.06-13,.08-19.92.08C257.71,127.72,182,126,104.6,126L90,126c-36.79.12-66.84.17-89.64.19v.8c22.82,0,52.92-.07,89.76-.19Z"/><path class="cls-2" d="M434.8,128.14l-8.13.25c-33.7,1-77.51,2-117.73,2-13.07,0-25.76-.1-37.56-.34C201.49,128.66,94,128,36.73,128c-13.25,0-23.79,0-30.67.12l-5.67.07V129l6.13-.07c6.58-.08,17.05-.12,30.22-.12,56.94,0,164.47.68,233.84,2.09,12.17.25,25.11.35,38.37.35,43.72,0,91.16-1.18,125.85-2.27Z"/><path class="cls-2" d="M434.8,130.83l-9.49.21c-37.31.77-87.49,1.55-138.83,1.56-21.8,0-43.79-.13-65.1-.45-37.42-.58-77.92-.77-116.17-.76-39.24,0-76.09.23-104.83.48v.81c28.68-.24,65.55-.47,104.84-.48,38.12,0,78.43.18,115.57.75,21.57.33,43.74.46,65.69.46,55.86,0,110.15-.93,148.31-1.76Z"/><path class="cls-2" d="M121.31,166.35c16.64,0,80.08.9,139.19.89,22.77,0,44.92-.15,63.72-.54,36.82-.76,79.58-1.44,110.59-1.89V164c-31.1.46-74.26,1.14-111.37,1.91-18.37.38-40.33.52-62.94.53-58.85,0-121.8-.89-139.19-.89-16,0-79.84,1-120.92,1.65V168C41.46,167.34,105.89,166.35,121.31,166.35Z"/><path class="cls-2" d="M260.49,139.56c22.77,0,44.92-.15,63.72-.54,36.82-.76,79.58-1.44,110.59-1.89v-.81c-31.1.46-74.26,1.14-111.37,1.91-18.37.38-40.33.52-62.94.53-58.85,0-121.8-.89-139.19-.89-16,0-79.84,1-120.92,1.65v.81c41.08-.66,105.5-1.64,120.92-1.65C137.94,138.67,201.39,139.57,260.49,139.56Zm174.3,6.29c-12.57.2-26.82.42-42.31.64-56.8.8-129.77,1.61-194.33,1.62-15.57,0-30.64,0-44.9-.13-30-.21-57.53-.28-82.06-.28-27.47,0-51.23.12-70.81.26v.81c19.53-.15,43.29-.25,70.81-.26,24.47,0,51.86.07,81.8.27,14.36.1,29.53.14,45.18.14,82.25,0,177.74-1.31,236.63-2.26Zm0-6.45c-9.66.24-21.41.52-34.72.8-37.69.78-87.61,1.57-136.35,1.58-21.37,0-42.55-.13-62.31-.5-32.76-.59-69.92-.79-106.11-.78-34,0-67.17.21-94.92.44v.81c27.72-.24,60.88-.43,94.94-.44,36,0,73,.19,105.4.77,20.08.36,41.45.5,63,.5,65.9,0,133.57-1.44,171-2.37Zm-208.26-3c15.58.21,31.88.29,48.42.29,57.66,0,118.1-1.13,159.84-2.09v-.82l-15.74.35c-40.36.87-93.43,1.74-144.11,1.76-16.4,0-32.54-.08-47.9-.29-27.29-.36-57.47-.49-87.5-.49-52.17,0-103.86.45-139.16.82v.81c35.22-.38,87-.81,139.18-.82C169.47,135.87,199.49,136,226.54,136.36Zm28.2,8.82c14.63,0,28.59-.09,41.1-.28,41.2-.65,99.86-1.18,139-1.49v-.81c-39.17.31-98.11.83-139.57,1.49-12.22.2-26,.28-40.5.28-64.27,0-141.82-1.51-161.44-1.6H90.37c-15.3,0-54.8.39-90,.77v.81c35.27-.38,74.94-.76,90-.76h2.75C111.95,143.66,190.05,145.19,254.73,145.18ZM139.56,163.56c29.9,0,59.92.12,87,.48,15.58.21,31.88.29,48.42.29,57.66,0,118.1-1.13,159.84-2.09v-.82l-15.74.35c-40.36.87-93.43,1.74-144.11,1.75-16.4,0-32.54-.08-47.9-.29-27.29-.36-57.47-.49-87.5-.48-52.17,0-103.86.45-139.16.82v.81C35.6,164,87.35,163.57,139.56,163.56Zm295.24-5-9.49.2c-37.31.77-87.49,1.55-138.83,1.57-21.8,0-43.79-.13-65.1-.45-37.42-.58-77.92-.77-116.17-.76-39.24,0-76.09.24-104.83.48v.81c28.68-.24,65.55-.46,104.84-.48,38.12,0,78.43.18,115.57.75,21.57.33,43.74.46,65.69.46,55.86,0,110.15-.93,148.31-1.76Zm-129.72-6.63c53.41-.77,97.59-1.51,129.72-2.08V149c-32.12.57-76.49,1.32-130.27,2.09-49.43.71-123.62.93-192.17.95-41.68,0-81.22-.05-112-.12v.81c30.76.07,70.34.13,112,.13C181,152.81,255.25,152.6,305.08,151.88ZM104.61,154.5c76.91,0,152.4,1.69,211.25,1.68q10.5,0,20.25-.09c32.37-.28,69.61-1.15,98.69-2v-.82c-29.08.8-66.62,1.69-99,2-6.36.05-13,.08-19.92.08-58.13,0-133.79-1.7-211.25-1.68l-14.57,0c-36.79.12-66.84.17-89.64.19v.8c22.82,0,52.92-.07,89.76-.19Zm330.19,1.32-8.13.25c-33.7,1-77.51,2-117.73,2-13.07,0-25.76-.1-37.56-.34-69.89-1.43-177.4-2.12-234.65-2.1-13.25,0-23.79,0-30.67.13l-5.67.07v.81l6.13-.07c6.58-.07,17.05-.12,30.22-.12,56.94,0,164.47.68,233.84,2.1,12.17.25,25.11.35,38.37.35,43.72,0,91.16-1.18,125.85-2.27Z"/><path class="cls-2" d="M434.8,83.74c-9.66.24-21.41.52-34.72.79-37.69.78-87.61,1.57-136.35,1.58-21.37,0-42.55-.14-62.31-.49-32.76-.59-69.92-.79-106.11-.79-34,0-67.17.21-94.92.44v.81c27.72-.24,60.88-.43,94.94-.44,36,0,73,.19,105.4.78,20.08.36,41.45.51,63,.5,65.9,0,133.57-1.44,171-2.37Z"/><path class="cls-2" d="M254.73,89.52c14.63,0,28.59-.09,41.1-.28,41.2-.66,99.86-1.18,139-1.49v-.81c-39.17.31-98.11.84-139.57,1.49-12.22.2-26,.28-40.5.28-64.27,0-141.82-1.51-161.44-1.6H90.37c-15.3,0-54.8.39-90,.76v.81c35.27-.38,74.94-.76,90-.77h2.75C111.95,88,190.05,89.54,254.73,89.52Z"/><path class="cls-2" d="M305.08,124.2c53.41-.77,97.59-1.5,129.72-2.08v-.81c-32.12.57-76.49,1.32-130.27,2.09-49.43.71-123.62.93-192.17,1-41.68,0-81.22-.06-112-.13V125c30.76.07,70.34.14,112,.12C181,125.13,255.25,124.92,305.08,124.2Z"/><path class="cls-2" d="M305.08,96.22c53.41-.77,97.59-1.51,129.72-2.08v-.81c-32.12.57-76.49,1.32-130.27,2.09-49.43.71-123.62.94-192.17,1-41.68,0-81.22-.05-112-.13v.81c30.76.07,70.34.13,112,.12C181,97.16,255.25,96.94,305.08,96.22ZM104.61,98.85c76.91,0,152.4,1.69,211.25,1.68q10.5,0,20.25-.09c32.37-.28,69.61-1.16,98.69-2v-.82c-29.08.8-66.62,1.68-99,2-6.36.05-13,.08-19.92.08C257.71,99.74,182,98,104.6,98L90,98.06c-36.79.12-66.84.18-89.64.2v.8c22.82,0,52.92-.07,89.76-.19Zm330.19,1.31-8.13.25c-33.7,1-77.51,2-117.73,2-13.07,0-25.76-.1-37.56-.34C201.49,100.69,94,100,36.73,100c-13.25,0-23.79,0-30.67.12l-5.67.07V101l6.13-.07c6.58-.07,17.05-.12,30.22-.12,56.94,0,164.47.68,233.84,2.1,12.17.25,25.11.35,38.37.35,43.72,0,91.16-1.19,125.85-2.27Zm0-10c-12.57.2-26.82.42-42.31.64-56.8.8-129.77,1.61-194.33,1.62-15.57,0-30.64,0-44.9-.13-30-.21-57.53-.28-82.06-.28-27.47,0-51.23.12-70.81.26v.81c19.53-.15,43.29-.26,70.81-.26,24.47,0,51.86.07,81.8.27,14.36.1,29.53.14,45.18.14,82.25,0,177.74-1.31,236.63-2.26ZM254.73,117.5c14.63,0,28.59-.09,41.1-.29,41.2-.66,99.86-1.18,139-1.49v-.81c-39.17.31-98.11.84-139.57,1.5-12.22.19-26,.27-40.5.28-64.27,0-141.82-1.51-161.44-1.6H90.37c-15.3,0-54.8.39-90,.76v.81c35.27-.38,74.94-.76,90-.77h2.75C111.95,116,190.05,117.51,254.73,117.5Zm180.07-5.78c-9.66.24-21.41.52-34.72.79-37.69.79-87.61,1.57-136.35,1.59-21.37,0-42.55-.14-62.31-.5-32.76-.59-69.92-.79-106.11-.78-34,0-67.17.2-94.92.44v.81c27.72-.23,60.88-.42,94.94-.44,36,0,73,.19,105.4.77,20.08.36,41.45.51,63,.5,65.9,0,133.57-1.44,171-2.37Zm-236.63,9.52c82.25,0,177.74-1.32,236.63-2.26v-.81c-12.57.2-26.82.42-42.31.64-56.8.8-129.77,1.61-194.33,1.63-15.57,0-30.64,0-44.9-.14-30-.21-57.53-.28-82.06-.28-27.47,0-51.23.12-70.81.27v.81c19.53-.14,43.29-.25,70.81-.26,24.47,0,51.86.07,81.8.28C167.35,121.2,182.52,121.25,198.17,121.24ZM434.8,102.86l-9.49.2c-37.31.78-87.49,1.55-138.83,1.57-21.8,0-43.79-.13-65.1-.45-37.42-.58-77.92-.76-116.17-.76-39.24,0-76.09.24-104.83.48v.81c28.68-.24,65.55-.47,104.84-.48,38.12,0,78.43.18,115.57.75,21.57.33,43.74.46,65.69.46,55.86,0,110.15-.93,148.31-1.76Zm-208.26,5.52c15.58.21,31.88.29,48.42.29,57.66,0,118.1-1.13,159.84-2.09v-.82l-15.74.35c-40.36.87-93.43,1.74-144.11,1.75-16.4,0-32.54-.08-47.9-.29-27.29-.36-57.47-.49-87.5-.48-52.17,0-103.86.44-139.16.82v.81c35.22-.38,87-.81,139.18-.82C169.47,107.9,199.49,108,226.54,108.38Zm34,3.2c22.77,0,44.92-.15,63.72-.54,36.82-.76,79.58-1.44,110.59-1.9v-.81c-31.1.46-74.26,1.14-111.37,1.91-18.37.38-40.33.52-62.94.53-58.85,0-121.8-.89-139.19-.89-16,0-79.84,1-120.92,1.64v.81c41.08-.66,105.5-1.64,120.92-1.65C137.94,110.69,201.39,111.6,260.49,111.58Z"/><path class="cls-2" d="M104.61,211.09c76.91,0,152.4,1.7,211.25,1.68q10.5,0,20.25-.09c32.37-.29,69.61-1.16,98.69-2v-.82c-29.08.8-66.62,1.68-99,2-6.36.06-13,.08-19.92.08-58.13,0-133.79-1.7-211.25-1.68l-14.57,0c-36.79.12-66.84.17-89.64.19v.81c22.82,0,52.92-.07,89.76-.19Z"/><path class="cls-2" d="M434.8,212.41l-8.13.25c-33.7,1-77.51,2-117.73,2-13.07,0-25.76-.1-37.56-.34-69.89-1.43-177.4-2.12-234.65-2.1-13.25,0-23.79,0-30.67.12l-5.67.07v.81l6.13-.08c6.58-.08,17.05-.12,30.22-.12,56.94,0,164.47.68,233.84,2.1,12.17.25,25.11.35,38.37.35,43.72,0,91.16-1.19,125.85-2.27Z"/><path class="cls-2" d="M434.8,215.1l-9.49.2c-37.31.78-87.49,1.55-138.83,1.56-21.8,0-43.79-.12-65.1-.45-37.42-.57-77.92-.77-116.17-.76-39.24,0-76.09.23-104.83.47v.81c28.68-.24,65.55-.47,104.84-.48,38.12,0,78.43.18,115.57.75,21.57.33,43.74.46,65.69.46,55.86,0,110.15-.92,148.31-1.76Z"/><path class="cls-2" d="M121.31,250.62c16.64,0,80.08.91,139.19.89,22.77,0,44.92-.15,63.72-.54,36.82-.76,79.58-1.44,110.59-1.9v-.81c-31.1.46-74.26,1.14-111.37,1.91-18.37.38-40.33.53-62.94.53-58.85,0-121.8-.89-139.19-.89-16,0-79.84,1-120.92,1.64v.81C41.46,251.61,105.89,250.62,121.31,250.62Z"/><path class="cls-2" d="M260.49,223.83c22.77,0,44.92-.15,63.72-.54,36.82-.76,79.58-1.44,110.59-1.89v-.81c-31.1.46-74.26,1.14-111.37,1.91-18.37.38-40.33.53-62.94.53-58.85,0-121.8-.89-139.19-.89-16,0-79.84,1-120.92,1.65v.81c41.08-.66,105.5-1.64,120.92-1.65C137.94,222.93,201.39,223.84,260.49,223.83Zm174.3,6.29c-12.57.2-26.82.42-42.31.64-56.8.8-129.77,1.61-194.33,1.62-15.57,0-30.64,0-44.9-.14-30-.21-57.53-.28-82.06-.28-27.47,0-51.23.12-70.81.26V233c19.53-.15,43.29-.25,70.81-.26,24.47,0,51.86.07,81.8.28,14.36.1,29.53.14,45.18.14,82.25,0,177.74-1.32,236.63-2.26Zm0-6.45c-9.66.24-21.41.52-34.72.8-37.69.79-87.61,1.57-136.35,1.58-21.37,0-42.55-.14-62.31-.5-32.76-.59-69.92-.79-106.11-.78-34,0-67.17.21-94.92.44V226c27.72-.23,60.88-.43,94.94-.44,36,0,73,.19,105.4.78,20.08.36,41.45.5,63,.5,65.9,0,133.57-1.44,171-2.37Zm-208.26-3c15.58.21,31.88.29,48.42.29,57.66,0,118.1-1.12,159.84-2.09V218l-15.74.35c-40.36.87-93.43,1.74-144.11,1.76-16.4,0-32.54-.08-47.9-.29-27.29-.36-57.47-.49-87.5-.49-52.17,0-103.86.45-139.16.82V221c35.22-.38,87-.81,139.18-.82C169.47,220.14,199.49,220.27,226.54,220.63Zm28.2,8.82c14.63,0,28.59-.09,41.1-.29,41.2-.65,99.86-1.18,139-1.49v-.81c-39.17.31-98.11.83-139.57,1.49-12.22.2-26,.28-40.5.28-64.27,0-141.82-1.51-161.44-1.6H90.37c-15.3,0-54.8.38-90,.76v.81c35.27-.38,74.94-.76,90-.76h2.75C111.95,227.93,190.05,229.46,254.73,229.44ZM139.56,247.83c29.9,0,59.92.12,87,.48,15.58.21,31.88.29,48.42.29,57.66,0,118.1-1.13,159.84-2.09v-.82l-15.74.35c-40.36.87-93.43,1.74-144.11,1.76-16.4,0-32.54-.08-47.9-.29-27.29-.36-57.47-.49-87.5-.48-52.17,0-103.86.44-139.16.82v.81C35.6,248.27,87.35,247.84,139.56,247.83Zm295.24-5-9.49.2c-37.31.77-87.49,1.55-138.83,1.56-21.8,0-43.79-.12-65.1-.45-37.42-.58-77.92-.77-116.17-.76-39.24,0-76.09.23-104.83.48v.81c28.68-.24,65.55-.47,104.84-.48,38.12,0,78.43.18,115.57.75,21.57.33,43.74.46,65.69.46,55.86,0,110.15-.93,148.31-1.76Zm-129.72-6.64c53.41-.77,97.59-1.51,129.72-2.08v-.81c-32.12.57-76.49,1.32-130.27,2.09-49.43.71-123.62.94-192.17,1-41.68,0-81.22-.05-112-.12V237c30.76.07,70.34.14,112,.13C181,237.08,255.25,236.86,305.08,236.14Zm-200.47,2.63c76.91,0,152.4,1.69,211.25,1.68q10.5,0,20.25-.09c32.37-.29,69.61-1.16,98.69-2v-.83c-29.08.8-66.62,1.69-99,2-6.36.06-13,.08-19.92.09-58.13,0-133.79-1.7-211.25-1.68L90,238c-36.79.12-66.84.17-89.64.19v.8c22.82,0,52.92-.07,89.76-.19Zm330.19,1.31-8.13.25c-33.7,1-77.51,2-117.73,2-13.07,0-25.76-.1-37.56-.34-69.89-1.43-177.4-2.12-234.65-2.1-13.25,0-23.79,0-30.67.12l-5.67.07v.81l6.13-.07c6.58-.08,17.05-.12,30.22-.12,56.94,0,164.47.68,233.84,2.09,12.17.25,25.11.35,38.37.35,43.72,0,91.16-1.18,125.85-2.27Z"/><path class="cls-2" d="M434.8,168c-9.66.24-21.41.52-34.72.79-37.69.79-87.61,1.57-136.35,1.58-21.37,0-42.55-.14-62.31-.49-32.76-.59-69.92-.79-106.11-.78-34,0-67.17.21-94.92.44v.81c27.72-.23,60.88-.43,94.94-.44,36,0,73,.19,105.4.78,20.08.36,41.45.5,63,.5,65.9,0,133.57-1.43,171-2.37Z"/><path class="cls-2" d="M254.73,173.79c14.63,0,28.59-.09,41.1-.29,41.2-.65,99.86-1.18,139-1.49v-.81c-39.17.31-98.11.84-139.57,1.49-12.22.19-26,.28-40.5.28-64.27,0-141.82-1.51-161.44-1.6H90.37c-15.3,0-54.8.39-90,.76V173c35.27-.38,74.94-.76,90-.76h2.75C111.95,172.27,190.05,173.81,254.73,173.79Z"/><path class="cls-2" d="M305.08,208.47c53.41-.77,97.59-1.51,129.72-2.08v-.81c-32.12.57-76.49,1.31-130.27,2.09-49.43.71-123.62.93-192.17,1-41.68,0-81.22-.05-112-.13v.81c30.76.07,70.34.14,112,.12C181,209.4,255.25,209.18,305.08,208.47Z"/><path class="cls-2" d="M305.08,180.49c53.41-.77,97.59-1.5,129.72-2.08v-.81c-32.12.57-76.49,1.31-130.27,2.09-49.43.71-123.62.93-192.17,1-41.68,0-81.22-.05-112-.12v.8c30.76.08,70.34.14,112,.13C181,181.42,255.25,181.21,305.08,180.49Zm-200.47,2.63c76.91,0,152.4,1.7,211.25,1.68q10.5,0,20.25-.09c32.37-.29,69.61-1.16,98.69-2v-.82c-29.08.8-66.62,1.69-99,2-6.36.06-13,.08-19.92.08-58.13,0-133.79-1.7-211.25-1.68l-14.57,0c-36.79.12-66.84.17-89.64.19v.8c22.82,0,52.92-.07,89.76-.19Zm330.19,1.32-8.13.25c-33.7,1-77.51,2-117.73,2-13.07,0-25.76-.1-37.56-.34C201.49,185,94,184.26,36.73,184.28c-13.25,0-23.79,0-30.67.12l-5.67.07v.81l6.13-.07c6.58-.08,17.05-.12,30.22-.12,56.94,0,164.47.68,233.84,2.09,12.17.25,25.11.35,38.37.35,43.72,0,91.16-1.19,125.85-2.27Zm0-10c-12.57.2-26.82.42-42.31.64-56.8.8-129.77,1.61-194.33,1.63-15.57,0-30.64,0-44.9-.14-30-.21-57.53-.28-82.06-.28-27.47,0-51.23.12-70.81.26v.81c19.53-.15,43.29-.26,70.81-.26,24.47,0,51.86.07,81.8.28,14.36.1,29.53.14,45.18.13,82.25,0,177.74-1.31,236.63-2.26Zm-180.07,27.3c14.63,0,28.59-.09,41.1-.29,41.2-.65,99.86-1.18,139-1.48v-.81c-39.17.31-98.11.84-139.57,1.49-12.22.2-26,.27-40.5.28-64.27,0-141.82-1.5-161.44-1.6H90.37c-15.3,0-54.8.39-90,.77v.81c35.27-.38,74.94-.76,90-.77h2.75C111.95,200.25,190.05,201.78,254.73,201.76ZM434.8,196c-9.66.24-21.41.52-34.72.8-37.69.78-87.61,1.57-136.35,1.58-21.37,0-42.55-.14-62.31-.49-32.76-.59-69.92-.79-106.11-.78-34,0-67.17.2-94.92.44v.81c27.72-.23,60.88-.43,94.94-.44,36,0,73,.19,105.4.77,20.08.36,41.45.51,63,.5,65.9,0,133.57-1.44,171-2.37Zm-236.63,9.52c82.25,0,177.74-1.32,236.63-2.26v-.81c-12.57.2-26.82.42-42.31.64-56.8.8-129.77,1.61-194.33,1.62-15.57,0-30.64,0-44.9-.13-30-.21-57.53-.28-82.06-.28-27.47,0-51.23.12-70.81.26v.8c19.53-.15,43.29-.25,70.81-.26,24.47,0,51.86.07,81.8.27C167.35,205.47,182.52,205.51,198.17,205.51ZM434.8,187.12l-9.49.2c-37.31.78-87.49,1.55-138.83,1.57-21.8,0-43.79-.12-65.1-.45-37.42-.58-77.92-.77-116.17-.76-39.24,0-76.09.24-104.83.48V189c28.68-.24,65.55-.47,104.84-.48,38.12,0,78.43.18,115.57.75,21.57.33,43.74.46,65.69.46,55.86,0,110.15-.92,148.31-1.76Zm-208.26,5.53c15.58.21,31.88.29,48.42.29,57.66,0,118.1-1.13,159.84-2.09V190l-15.74.35c-40.36.87-93.43,1.74-144.11,1.75-16.4,0-32.54-.08-47.9-.29-27.29-.36-57.47-.49-87.5-.48-52.17,0-103.86.44-139.16.82V193c35.22-.38,87-.81,139.18-.83C169.47,192.16,199.49,192.29,226.54,192.65Zm34,3.2c22.77,0,44.92-.15,63.72-.54,36.82-.76,79.58-1.44,110.59-1.9v-.81c-31.1.46-74.26,1.14-111.37,1.9-18.37.38-40.33.52-62.94.53-58.85,0-121.8-.89-139.19-.89-16,0-79.84,1-120.92,1.64v.81C41.46,196,105.89,195,121.31,195,137.94,195,201.39,195.86,260.49,195.85Z"/><path class="cls-2" d="M104.61,294.69c76.91,0,152.4,1.69,211.25,1.68q10.5,0,20.25-.09c32.37-.28,69.61-1.16,98.69-2v-.82c-29.08.8-66.62,1.68-99,2-6.36.06-13,.08-19.92.08-58.13,0-133.79-1.7-211.25-1.68l-14.57,0c-36.79.12-66.84.17-89.64.19v.8c22.82,0,52.92-.07,89.76-.19Z"/><path class="cls-2" d="M434.8,296l-8.13.25c-33.7,1-77.51,2-117.73,2-13.07,0-25.76-.1-37.56-.34-69.89-1.43-177.4-2.12-234.65-2.1-13.25,0-23.79,0-30.67.12L.38,296v.81l6.13-.07c6.58-.07,17.05-.12,30.22-.12,56.94,0,164.47.68,233.84,2.1,12.17.25,25.11.35,38.37.35,43.72,0,91.16-1.19,125.85-2.27Z"/><path class="cls-2" d="M434.8,298.7l-9.49.2c-37.31.78-87.49,1.56-138.83,1.57-21.8,0-43.79-.12-65.1-.45-37.42-.58-77.92-.77-116.17-.76-39.24,0-76.09.24-104.83.48v.81c28.68-.25,65.55-.47,104.84-.48,38.12,0,78.43.18,115.57.75,21.57.33,43.74.46,65.69.46,55.86,0,110.15-.93,148.31-1.76Z"/><path class="cls-2" d="M121.31,334.21c16.64,0,80.08.91,139.19.89,22.77,0,44.92-.15,63.72-.54,36.82-.76,79.58-1.44,110.59-1.89v-.81c-31.1.46-74.26,1.14-111.37,1.91-18.37.38-40.33.52-62.94.53-58.85,0-121.8-.89-139.19-.89-16,0-79.84,1-120.92,1.65v.81C41.46,335.21,105.89,334.22,121.31,334.21Z"/><path class="cls-2" d="M260.49,307.42c22.77,0,44.92-.15,63.72-.54,36.82-.76,79.58-1.44,110.59-1.9v-.81c-31.1.46-74.26,1.14-111.37,1.91-18.37.38-40.33.53-62.94.53-58.85,0-121.8-.89-139.19-.89-16,0-79.84,1-120.92,1.65v.81c41.08-.66,105.5-1.65,120.92-1.65C137.94,306.53,201.39,307.44,260.49,307.42Zm174.3,6.29c-12.57.2-26.82.42-42.31.64-56.8.8-129.77,1.61-194.33,1.62-15.57,0-30.64,0-44.9-.14-30-.21-57.53-.28-82.06-.28-27.47,0-51.23.12-70.81.26v.81c19.53-.15,43.29-.26,70.81-.26,24.47,0,51.86.07,81.8.27,14.36.1,29.53.14,45.18.14,82.25,0,177.74-1.32,236.63-2.26Zm0-6.45c-9.66.24-21.41.51-34.72.79-37.69.78-87.61,1.57-136.35,1.58-21.37,0-42.55-.14-62.31-.49-32.76-.59-69.92-.79-106.11-.78-34,0-67.17.21-94.92.44v.81c27.72-.24,60.88-.43,94.94-.44,36,0,73,.19,105.4.78,20.08.36,41.45.5,63,.5,65.9,0,133.57-1.44,171-2.37Zm-208.26-3c15.58.21,31.88.29,48.42.29,57.66,0,118.1-1.13,159.84-2.09v-.82l-15.74.35c-40.36.87-93.43,1.74-144.11,1.76-16.4,0-32.54-.08-47.9-.29-27.29-.36-57.47-.49-87.5-.48-52.17,0-103.86.45-139.16.82v.81c35.22-.38,87-.81,139.18-.82C169.47,303.74,199.49,303.87,226.54,304.23Zm28.2,8.82c14.63,0,28.59-.09,41.1-.28,41.2-.66,99.86-1.18,139-1.49v-.81c-39.17.31-98.11.84-139.57,1.49-12.22.2-26,.28-40.5.28-64.27,0-141.82-1.51-161.44-1.6H90.37c-15.3,0-54.8.39-90,.77v.81c35.27-.38,74.94-.76,90-.77h2.75C111.95,311.53,190.05,313.06,254.73,313ZM139.56,331.43c29.9,0,59.92.12,87,.48,15.58.21,31.88.29,48.42.29,57.66,0,118.1-1.13,159.84-2.09v-.82l-15.74.35c-40.36.87-93.43,1.74-144.11,1.76-16.4,0-32.54-.08-47.9-.29-27.29-.36-57.47-.49-87.5-.48-52.17,0-103.86.45-139.16.82v.81C35.6,331.87,87.35,331.44,139.56,331.43Zm295.24-5.05-9.49.2c-37.31.78-87.49,1.55-138.83,1.56-21.8,0-43.79-.12-65.1-.45-37.42-.58-77.92-.77-116.17-.76-39.24,0-76.09.24-104.83.48v.81c28.68-.24,65.55-.47,104.84-.48,38.12,0,78.43.18,115.57.75,21.57.33,43.74.46,65.69.46,55.86,0,110.15-.93,148.31-1.76Zm-129.72-6.63c53.41-.77,97.59-1.5,129.72-2.08v-.82c-32.12.57-76.49,1.32-130.27,2.09-49.43.71-123.62.93-192.17.95-41.68,0-81.22-.05-112-.12v.81c30.76.07,70.34.13,112,.12C181,320.68,255.25,320.46,305.08,319.74Zm-200.47,2.63c76.91,0,152.4,1.69,211.25,1.68q10.5,0,20.25-.09c32.37-.28,69.61-1.15,98.69-2v-.82c-29.08.8-66.62,1.68-99,2-6.36.06-13,.08-19.92.08-58.13,0-133.79-1.7-211.25-1.68l-14.57,0c-36.79.12-66.84.17-89.64.19v.8c22.82,0,52.92-.07,89.76-.19Zm330.19,1.31-8.13.25c-33.7,1-77.51,2-117.73,2-13.07,0-25.76-.1-37.56-.34-69.89-1.42-177.4-2.12-234.65-2.1-13.25,0-23.79,0-30.67.12l-5.67.07v.81l6.13-.07c6.58-.08,17.05-.12,30.22-.12,56.94,0,164.47.68,233.84,2.1,12.17.25,25.11.35,38.37.35,43.72,0,91.16-1.18,125.85-2.27Z"/><path class="cls-2" d="M434.8,251.61c-9.66.24-21.41.52-34.72.79-37.69.78-87.61,1.57-136.35,1.58-21.37,0-42.55-.13-62.31-.49-32.76-.59-69.92-.79-106.11-.79-34,0-67.17.21-94.92.44V254c27.72-.24,60.88-.43,94.94-.44,36,0,73,.19,105.4.78,20.08.36,41.45.51,63,.5,65.9,0,133.57-1.43,171-2.37Z"/><path class="cls-2" d="M254.73,257.39c14.63,0,28.59-.09,41.1-.28,41.2-.66,99.86-1.18,139-1.49v-.81c-39.17.31-98.11.84-139.57,1.49-12.22.2-26,.28-40.5.28-64.27,0-141.82-1.5-161.44-1.6H90.37c-15.3,0-54.8.39-90,.76v.81c35.27-.38,74.94-.76,90-.77h2.75C111.95,255.87,190.05,257.4,254.73,257.39Z"/><path class="cls-2" d="M305.08,292.06c53.41-.77,97.59-1.5,129.72-2.08v-.81c-32.12.57-76.49,1.31-130.27,2.09-49.43.71-123.62.93-192.17,1-41.68,0-81.22-.05-112-.12v.81c30.76.07,70.34.13,112,.12C181,293,255.25,292.78,305.08,292.06Z"/><path class="cls-2" d="M305.08,264.09c53.41-.77,97.59-1.5,129.72-2.08v-.81c-32.12.57-76.49,1.31-130.27,2.09-49.43.71-123.62.93-192.17,1-41.68,0-81.22-.05-112-.12v.81c30.76.07,70.34.14,112,.13C181,265,255.25,264.81,305.08,264.09Zm-200.47,2.63c76.91,0,152.4,1.69,211.25,1.68q10.5,0,20.25-.09c32.37-.28,69.61-1.15,98.69-1.95v-.82c-29.08.8-66.62,1.68-99,2-6.36.06-13,.08-19.92.08-58.13,0-133.79-1.7-211.25-1.68l-14.57,0c-36.79.12-66.84.17-89.64.19v.81c22.82,0,52.92-.07,89.76-.19ZM434.8,268l-8.13.25c-33.7,1-77.51,2-117.73,2-13.07,0-25.76-.1-37.56-.34-69.89-1.43-177.4-2.12-234.65-2.1-13.25,0-23.79,0-30.67.13l-5.67.07v.81l6.13-.07c6.58-.07,17.05-.12,30.22-.12,56.94,0,164.47.68,233.84,2.09,12.17.25,25.11.35,38.37.35,43.72,0,91.16-1.18,125.85-2.27Zm0-10c-12.57.2-26.82.42-42.31.64-56.8.8-129.77,1.61-194.33,1.62-15.57,0-30.64,0-44.9-.13-30-.21-57.53-.28-82.06-.28-27.47,0-51.23.12-70.81.26V261c19.53-.14,43.29-.26,70.81-.26,24.47,0,51.86.07,81.8.28,14.36.1,29.53.14,45.18.14,82.25,0,177.74-1.32,236.63-2.26Zm-180.07,27.3c14.63,0,28.59-.09,41.1-.29,41.2-.65,99.86-1.18,139-1.49v-.81c-39.17.31-98.11.84-139.57,1.49-12.22.2-26,.28-40.5.28-64.27,0-141.82-1.51-161.44-1.6H90.37c-15.3,0-54.8.39-90,.76v.81c35.27-.38,74.94-.76,90-.76h2.75C111.95,283.85,190.05,285.38,254.73,285.36Zm180.07-5.78c-9.66.24-21.41.52-34.72.79-37.69.78-87.61,1.57-136.35,1.58-21.37,0-42.55-.14-62.31-.49-32.76-.59-69.92-.79-106.11-.78-34,0-67.17.2-94.92.44v.81c27.72-.23,60.88-.43,94.94-.44,36,0,73,.19,105.4.78,20.08.36,41.45.51,63,.5,65.9,0,133.57-1.44,171-2.37Zm-236.63,9.52c82.25,0,177.74-1.32,236.63-2.26V286c-12.57.2-26.82.42-42.31.64-56.8.8-129.77,1.61-194.33,1.62-15.57,0-30.64,0-44.9-.13-30-.21-57.53-.29-82.06-.28-27.47,0-51.23.12-70.81.26V289c19.53-.15,43.29-.26,70.81-.27,24.47,0,51.86.07,81.8.28C167.35,289.07,182.52,289.11,198.17,289.11ZM434.8,270.72l-9.49.2c-37.31.78-87.49,1.55-138.83,1.56-21.8,0-43.79-.12-65.1-.45-37.42-.58-77.92-.77-116.17-.75-39.24,0-76.09.23-104.83.48v.81c28.68-.24,65.55-.47,104.84-.48,38.12,0,78.43.18,115.57.75,21.57.33,43.74.46,65.69.46,55.86,0,110.15-.92,148.31-1.76Zm-208.26,5.53c15.58.21,31.88.29,48.42.29,57.66,0,118.1-1.13,159.84-2.09v-.82l-15.74.35c-40.36.87-93.43,1.74-144.11,1.75-16.4,0-32.54-.08-47.9-.29-27.29-.36-57.47-.49-87.5-.48-52.17,0-103.86.44-139.16.82v.81c35.22-.37,87-.81,139.18-.82C169.47,275.76,199.49,275.89,226.54,276.25Zm34,3.2c22.77,0,44.92-.15,63.72-.54,36.82-.76,79.58-1.44,110.59-1.89v-.81c-31.1.46-74.26,1.14-111.37,1.91-18.37.38-40.33.52-62.94.53-58.85,0-121.8-.89-139.19-.89-16,0-79.84,1-120.92,1.65v.81c41.08-.65,105.5-1.64,120.92-1.65C137.94,278.56,201.39,279.47,260.49,279.45Z"/><path class="cls-3" d="M213.53,303.63c-.51-3.89-6.16-6.64-13.84-7.26-.77-5.23-6.37-8.87-12.59-8.14a12.73,12.73,0,0,0-6.29,2.5,20.11,20.11,0,0,0-10.6-1.5,18.74,18.74,0,0,0-11.61,5.47,13.64,13.64,0,0,0-9.72-3.78c-6.78,0-12.29,4.33-12.29,9.66a7.84,7.84,0,0,0,.68,3.14c-.27.26-.53.53-.78.8a15,15,0,0,0-5.53-1c-6.78,0-12.28,4.32-12.28,9.66s5.5,9.66,12.28,9.66a14.56,14.56,0,0,0,7.14-1.81c3.9,2.91,9.76,4.41,16.06,3.68l.34,0c3.52,3.1,9.27,4.76,15.48,4a22,22,0,0,0,10.47-3.95,16.89,16.89,0,0,0,11.68,4.36c8.34,0,15.1-5.31,15.1-11.87a9.8,9.8,0,0,0-1.34-4.87c5-2.36,8.07-5.55,7.65-8.69Z"/><path class="cls-4" d="M219.21,304.08c-.43-3.28-5.2-5.59-11.67-6.12-.64-4.41-5.36-7.47-10.61-6.86a10.68,10.68,0,0,0-5.3,2.11,17,17,0,0,0-8.93-1.27,15.8,15.8,0,0,0-9.79,4.62,11.48,11.48,0,0,0-8.19-3.18c-5.72,0-10.36,3.65-10.36,8.14a6.6,6.6,0,0,0,.57,2.65c-.23.22-.45.44-.65.67a12.62,12.62,0,0,0-4.67-.88c-5.71,0-10.35,3.65-10.35,8.14s4.64,8.14,10.35,8.14a12.26,12.26,0,0,0,6-1.53c3.29,2.46,8.23,3.72,13.54,3.1l.28,0c3,2.61,7.81,4,13,3.41a18.61,18.61,0,0,0,8.82-3.32,14.24,14.24,0,0,0,9.85,3.67c7,0,12.73-4.48,12.73-10a8.24,8.24,0,0,0-1.13-4.11c4.24-2,6.8-4.68,6.45-7.33Z"/><path class="cls-4" d="M57.08,118.71C54.26,105.53,36,111.36,36,111.36s-1.72-10.54-11.67-11.72-15.07,8.2-15.07,8.2a17.81,17.81,0,0,0-8.88-2.95v28.3a81.86,81.86,0,0,1,9.9.9C22.85,135.8,30,131.8,30,131.8a66.86,66.86,0,0,0,14.89,2.06C52.91,134,60,132.15,57.08,118.71Z"/><path class="cls-5" d="M56.69,120.55c-2.81-12.85-20.93-7.17-20.93-7.17S34,103.11,24.16,102s-15,8-15,8a17.89,17.89,0,0,0-8.81-2.87v27.59a83.74,83.74,0,0,1,9.83.88c12.47,1.67,19.57-2.24,19.57-2.24a67.41,67.41,0,0,0,14.79,2C52.54,135.47,59.55,133.66,56.69,120.55Z"/><path class="cls-3" d="M387,198.27c-.51-3.89-6.16-6.64-13.84-7.26-.77-5.23-6.37-8.87-12.59-8.14a12.73,12.73,0,0,0-6.29,2.5,20.1,20.1,0,0,0-10.6-1.5,18.73,18.73,0,0,0-11.61,5.47,13.64,13.64,0,0,0-9.72-3.78c-6.79,0-12.29,4.33-12.29,9.66a7.84,7.84,0,0,0,.68,3.14c-.27.26-.53.53-.78.8a15,15,0,0,0-5.54-1c-6.78,0-12.28,4.32-12.28,9.66s5.5,9.66,12.28,9.66a14.55,14.55,0,0,0,7.14-1.81c3.91,2.91,9.76,4.41,16.06,3.68l.34,0c3.52,3.1,9.27,4.76,15.47,4A22,22,0,0,0,354,219.35a16.9,16.9,0,0,0,11.68,4.36c8.34,0,15.1-5.31,15.1-11.87A9.8,9.8,0,0,0,379.4,207c5-2.36,8.07-5.55,7.65-8.69Z"/><path class="cls-4" d="M392.73,198.72c-.43-3.28-5.2-5.59-11.68-6.12-.64-4.41-5.36-7.47-10.61-6.86a10.7,10.7,0,0,0-5.3,2.11,17,17,0,0,0-8.93-1.27,15.8,15.8,0,0,0-9.79,4.62,11.48,11.48,0,0,0-8.19-3.18c-5.72,0-10.36,3.65-10.36,8.14a6.63,6.63,0,0,0,.57,2.65q-.34.33-.65.67a12.62,12.62,0,0,0-4.66-.88c-5.71,0-10.35,3.65-10.35,8.14s4.64,8.14,10.35,8.14a12.27,12.27,0,0,0,6-1.52c3.29,2.46,8.23,3.72,13.54,3.1l.28,0c3,2.61,7.81,4,13,3.41a18.6,18.6,0,0,0,8.82-3.33,14.24,14.24,0,0,0,9.85,3.67c7,0,12.73-4.48,12.73-10a8.26,8.26,0,0,0-1.13-4.11c4.23-2,6.8-4.68,6.45-7.33Z"/><path class="cls-6" d="M293.66,71.61c0-3.92,5-7.29,12.07-8.81.06-5.28,4.87-9.54,10.78-9.54a11.69,11.69,0,0,1,6.2,1.75,18,18,0,0,1,9.73-2.72c6.19,0,11.51,2.84,13.85,6.91a24,24,0,0,1,5.53-.64c10,0,18.1,6,18.1,13.51s-8.1,13.51-18.09,13.52h-.32c-2.91,3.48-8.08,5.8-14,5.8-8.38,0-15.3-4.67-16.34-10.72a41.46,41.46,0,0,1-7.05.6c-11.29,0-20.45-4.32-20.45-9.65Z"/><path class="cls-4" d="M302.59,71.35c0-3.59,4.54-6.68,11.06-8.07.07-4.83,4.46-8.74,9.88-8.74a10.75,10.75,0,0,1,5.68,1.6,16.48,16.48,0,0,1,8.91-2.5c5.67,0,10.54,2.6,12.69,6.33a21.79,21.79,0,0,1,5.06-.59c9.15,0,16.58,5.54,16.58,12.37S365,84.16,355.87,84.16h-.3c-2.67,3.19-7.41,5.32-12.81,5.32-7.68,0-14-4.28-15-9.82a37.86,37.86,0,0,1-6.46.55c-10.35,0-18.73-4-18.73-8.84Z"/><path class="cls-7" d="M302.15,74.41c0-3.59,4.54-6.68,11.06-8.07.06-4.83,4.46-8.74,9.88-8.74a10.72,10.72,0,0,1,5.67,1.61,16.5,16.5,0,0,1,8.91-2.5c5.67,0,10.54,2.6,12.69,6.34a21.72,21.72,0,0,1,5.06-.59C364.58,62.46,372,68,372,74.84s-7.42,12.38-16.57,12.38h-.3c-2.67,3.19-7.4,5.32-12.81,5.32-7.68,0-14-4.28-15-9.82a37.91,37.91,0,0,1-6.46.55c-10.34,0-18.73-4-18.73-8.84Z"/><path class="cls-3" d="M196.41,36c-.48-3.68-5.83-6.28-13.1-6.87-.72-4.95-6-8.39-11.91-7.7a12,12,0,0,0-6,2.37,19,19,0,0,0-10-1.42,17.73,17.73,0,0,0-11,5.18,12.89,12.89,0,0,0-9.2-3.57c-6.42,0-11.62,4.09-11.62,9.14a7.41,7.41,0,0,0,.64,3c-.26.25-.5.5-.74.75a14.17,14.17,0,0,0-5.24-1c-6.41,0-11.62,4.09-11.62,9.14s5.2,9.14,11.62,9.14A13.78,13.78,0,0,0,125,52.45c3.69,2.75,9.24,4.17,15.19,3.48l.32,0c3.33,2.93,8.77,4.51,14.64,3.82A20.84,20.84,0,0,0,165.09,56a16,16,0,0,0,11.05,4.12c7.89,0,14.29-5,14.29-11.23a9.28,9.28,0,0,0-1.26-4.61C193.92,42,196.8,39,196.41,36Z"/><path class="cls-4" d="M201.78,36.45c-.41-3.11-4.92-5.29-11-5.79-.61-4.17-5.08-7.07-10-6.49a10.13,10.13,0,0,0-5,2,16.06,16.06,0,0,0-8.45-1.2A15,15,0,0,0,158,29.32a10.87,10.87,0,0,0-7.75-3c-5.41,0-9.8,3.45-9.8,7.7a6.24,6.24,0,0,0,.54,2.51c-.22.21-.43.42-.62.63a12,12,0,0,0-4.41-.83c-5.41,0-9.8,3.45-9.8,7.7s4.39,7.7,9.8,7.7a11.61,11.61,0,0,0,5.69-1.44,18.18,18.18,0,0,0,12.81,2.93l.27,0c2.8,2.47,7.39,3.8,12.34,3.22a17.6,17.6,0,0,0,8.35-3.15,13.47,13.47,0,0,0,9.32,3.47c6.65,0,12-4.24,12-9.47a7.8,7.8,0,0,0-1.07-3.89c4-1.88,6.43-4.43,6.1-6.93Z"/><path class="cls-4" d="M434.95,104.08a18.46,18.46,0,0,0-4.52-.56c-8.21,0-15,5.35-16.21,12.32a12.09,12.09,0,0,0-6-1.54c-6.14,0-11.11,4.41-11.11,9.84s5,9.84,11.11,9.84a12.1,12.1,0,0,0,5.82-1.47,9,9,0,0,0-.06,1c0,5.44,5,9.84,11.11,9.84a11.36,11.36,0,0,0,9.81-5.22V104.08Z"/><path class="cls-8" d="M435.5,323.18c-.12-.64,0-1.3-.15-1.82a46.16,46.16,0,0,0-2.84-7.77,42,42,0,0,1,1.2,6.73,5.15,5.15,0,0,1-.94,3.15,8.9,8.9,0,0,1-.76-4,32.18,32.18,0,0,0-.17-4.27,19.51,19.51,0,0,0-1.2,5.39c-.13,2.7-1.33,1.8-1.33,1.8s-1.6-4-.67-6.07-1.43,1.44-1.6,3.25a12.8,12.8,0,0,1-.58,2.91,1.45,1.45,0,0,1-1.4-.69c-.5-.84-.17-4.73-.17-4.73a10.29,10.29,0,0,0-.91,2.92,10.53,10.53,0,0,0-.08,2.78s-1.82-3.05-.75-5.42,1.49-3.61,1.49-3.61-2.76,1.89-3.16,4.09a17.64,17.64,0,0,0-.23,4.11,6.23,6.23,0,0,1-2.78-2.41c-.74-1.53-.43-4.53-.43-4.53s-.74.14-1.15,2.08a18.52,18.52,0,0,0-.17,4.59,4.37,4.37,0,0,1-1.65-2.22,58,58,0,0,1,.09-6.81s-1.65,3.33-1.65,4.45-.08,3.89-.08,3.89-1.73-3.19-1.31-5,.57-3.19.57-3.19-.66.28-1.32,2.5a36.44,36.44,0,0,0-1,5.42,45.15,45.15,0,0,1-1.07-5.83,15.49,15.49,0,0,1,.58-4.73s-1.56,4-1.89,5.14-2,6.26-2,6.26-1-5.42-.49-7.36,1.65-5.84,1.65-5.84a17.81,17.81,0,0,0-2.72,5c-.5,2.08-1.57,7.36-1.57,7.36s-.58-6.53-.58-7.23-1.07,2.92-1.07,2.92l0,4.47s-1.22-6.43-2.54-8.14-4.88-1.12-4.88-1.12,3.46.34,4.32,3.09a21,21,0,0,1,.76,6s-1.62-4.11-1.93-4.11-1-.68-1-.68a12.39,12.39,0,0,1,1.12,3.34c.1,1.28.1,2.14.1,2.14s-1.84.77-2.14-.69a12.36,12.36,0,0,1,0-3.51,3.44,3.44,0,0,0-1.37,2.14,18.12,18.12,0,0,1-1,2.92,12.94,12.94,0,0,0-.71-5.49c-1-2.31-2-2.4-2-2.4s1.57,3.17,1.63,4.8a11.06,11.06,0,0,1-.87,3.77,24.86,24.86,0,0,0-2.19-5.82c-1.22-1.89-1.62-2.57-1.62-2.57s.56,4.12.56,5.48a9,9,0,0,1-.4,2.57h-.45c-.09-.49-.18-.95-.27-1.35a42.3,42.3,0,0,0-3.06-7.86,42.18,42.18,0,0,1,1.2,6.74,5.76,5.76,0,0,1-.51,2.41h-.63l-.06.11a9.69,9.69,0,0,1-.49-3.4,32.25,32.25,0,0,0-.18-4.27,19.6,19.6,0,0,0-1.2,5.4c-.13,2.69-1.34,1.8-1.34,1.8s-1.6-4-.66-6.06-1.45,1.43-1.61,3.25a12.3,12.3,0,0,1-.58,2.91,1.44,1.44,0,0,1-1.4-.69c-.49-.83-.16-4.73-.16-4.73a10,10,0,0,0-.91,2.92c-.25,1.66-1,.86-1,.86s-.93-1.13.15-3.49,1.48-3.61,1.48-3.61-2.76,1.89-3.15,4.09a17.82,17.82,0,0,0-.23,4.11,6.26,6.26,0,0,1-2.78-2.42c-.74-1.53-.43-4.53-.43-4.53s-.74.14-1.16,2.08a18.48,18.48,0,0,0-.16,4.58,4.33,4.33,0,0,1-1.65-2.22,57.6,57.6,0,0,1,.08-6.81s-1.65,3.33-1.65,4.45-.08,3.89-.08,3.89-1.73-3.2-1.32-5,.57-3.19.57-3.19-.66.27-1.32,2.5a8.94,8.94,0,0,0,0,4.55s-1.94-2.75-2.11-5a15.48,15.48,0,0,1,.58-4.73s-1.56,4-1.9,5.14S357,320.2,357,320.2s-1.24-4.43-.75-6.37,1.65-5.84,1.65-5.84a18,18,0,0,0-2.72,5c-.49,2.08-1.57,7.37-1.57,7.37s-.57-6.53-.57-7.23S352,316,352,316l0,4.47s-1.22-6.42-2.54-8.14-1.83-5.56-1.83-5.56a45.14,45.14,0,0,0,1.27,7.53,21,21,0,0,1,.76,6s-1.63-4.12-1.94-4.12-1-.68-1-.68a12.28,12.28,0,0,1,1.12,3.34c.11,1.29.11,2.14.11,2.14s-1.83.77-2.14-.68a12.38,12.38,0,0,1,0-3.52,3.44,3.44,0,0,0-1.37,2.14,18.13,18.13,0,0,1-1,2.91,13,13,0,0,0-.7-5.48c-1-2.31-2-2.4-2-2.4s1.58,3.17,1.63,4.8a11,11,0,0,1-.87,3.77,25.13,25.13,0,0,0-2.18-5.83c-1.22-1.88-1.63-2.56-1.63-2.56s.55,4.11.55,5.48a8.89,8.89,0,0,1-.23,1.91l0-.12a42.37,42.37,0,0,0-3.07-7.86,42.14,42.14,0,0,1,1.2,6.73,6.09,6.09,0,0,1-.29,1.85l-1.12,0a10.46,10.46,0,0,1-.29-2.72,31.39,31.39,0,0,0-.17-4.27,19.41,19.41,0,0,0-1.2,5.39c-.14,2.7-1.34,1.8-1.34,1.8s-1.6-4-.67-6.07-1.44,1.44-1.6,3.25a12.35,12.35,0,0,1-.58,2.91,1.45,1.45,0,0,1-1.4-.69c-.49-.84-.16-4.73-.16-4.73a10.25,10.25,0,0,0-.91,2.92,10.5,10.5,0,0,0-.08,2.78,13.57,13.57,0,0,1-1.14-4.91c0-2.36.47-4.84.2-4.63-.8.61-2.38,3.56-1.7,8.7a6.24,6.24,0,0,1-2.78-2.41c-.75-1.53-.44-4.53-.44-4.53s-.74.14-1.16,2.08a18.6,18.6,0,0,0-.16,4.59,4.34,4.34,0,0,1-1.65-2.22,57.43,57.43,0,0,1,.08-6.81s-1.65,3.33-1.65,4.45c0,.56,0,1.53,0,2.36-.41-1.19-.92-2.42-1.36-3.44,0,0,0,0,0,0,.41-1.8.58-3.19.58-3.19s-.56.23-1.16,2c-.32-.69-.54-1.12-.54-1.12s.17.67.38,1.61v0a32.48,32.48,0,0,0-.87,4.44c0-.08,0-.15,0-.23a31.88,31.88,0,0,0-.18-4.27,20.33,20.33,0,0,0-.67,2.13c-.15-.86-.29-1.75-.35-2.48a15.47,15.47,0,0,1,.58-4.73s-1.57,4-1.9,5.14c-.16.56-.65,2.1-1.1,3.52a4.8,4.8,0,0,1,.24-2.46c.84-1.82-1,.82-1.5,2.68a16.84,16.84,0,0,1-.12-4.85c.49-1.95,1.65-5.84,1.65-5.84a18,18,0,0,0-2.72,5c-.29,1.25-.8,3.63-1.15,5.35,0-.88.09-1.6.09-1.6a9.59,9.59,0,0,0-.66,1.77c-.09-1-.2-2.26-.28-3.31.49-1.17.69-1.79.69-1.79a9.62,9.62,0,0,0-.78.62c0-.44-.05-.77-.05-.9,0-.4-.35.61-.65,1.55a7.09,7.09,0,0,0-1.37,1.9,14.35,14.35,0,0,0-1.63-4.2c-1.32-1.72-4.88-1.12-4.88-1.12s3.46.34,4.33,3.09a21.05,21.05,0,0,1,.76,6s-1.63-4.11-1.93-4.11a.92.92,0,0,1-.45-.22c0-.78.06-1.35.06-1.35s-.74.14-1.15,2.08a16.66,16.66,0,0,0-.21,4,1.42,1.42,0,0,1-.14-.38,12.28,12.28,0,0,1,0-3.51,3.43,3.43,0,0,0-1.37,2.14c0,.09,0,.18-.07.27l0-.13a58.13,58.13,0,0,1,.08-6.81,22.28,22.28,0,0,0-1.62,4.2l0-.09a6.16,6.16,0,0,0-1.16-1.85c.24-1.25.34-2.12.34-2.12s-.47.2-1,1.63a.77.77,0,0,0-.2-.06l.13.26c-.08.2-.15.43-.23.67a26.86,26.86,0,0,0-.67,3.07c-.1-.22-.21-.45-.31-.65l0,2.49c0,.32-.06.52-.06.52a45,45,0,0,1-1.07-5.83,15.37,15.37,0,0,1,.58-4.73s-1.57,4-1.9,5.14-2,6.26-2,6.26-1-5.42-.49-7.36,1.65-5.84,1.65-5.84a18,18,0,0,0-2.72,5c-.5,2.08-1.57,7.36-1.57,7.36s-.57-6.53-.57-7.23-1.08,2.92-1.08,2.92l0,4.47s-1.22-6.43-2.54-8.14-4.88-1.12-4.88-1.12,3.46.34,4.33,3.09a21,21,0,0,1,.76,6s-1.63-4.11-1.93-4.11-1-.68-1-.68a12.12,12.12,0,0,1,1.11,3.34c.1,1.28.1,2.14.1,2.14s-1.83.77-2.13-.69a12.36,12.36,0,0,1,0-3.51,3.43,3.43,0,0,0-1.37,2.14,18.35,18.35,0,0,1-1,2.92,12.92,12.92,0,0,0-.71-5.49c-1-2.31-2-2.4-2-2.4s1.57,3.17,1.62,4.8a10.93,10.93,0,0,1-.87,3.77,25.07,25.07,0,0,0-2.19-5.82c-1.22-1.89-1.63-2.57-1.63-2.57s.56,4.12.56,5.48a9,9,0,0,1-.41,2.57h-.44c-.09-.49-.18-.95-.27-1.35a42.24,42.24,0,0,0-3.06-7.86,42.3,42.3,0,0,1,1.2,6.74,5.73,5.73,0,0,1-.51,2.41h-.63l-.06.11a9.92,9.92,0,0,1-.5-3.4,31,31,0,0,0-.18-4.27,19.68,19.68,0,0,0-1.2,5.4c-.13,2.69-1.33,1.8-1.33,1.8s-1.6-4-.66-6.06-1.44,1.43-1.61,3.25a12.24,12.24,0,0,1-.58,2.91,1.45,1.45,0,0,1-1.4-.69c-.49-.83-.17-4.73-.17-4.73a10.07,10.07,0,0,0-.9,2.92c-.25,1.66-1,.86-1,.86s-.93-1.13.14-3.49,1.49-3.61,1.49-3.61-2.76,1.89-3.15,4.09a17.89,17.89,0,0,0-.23,4.11,6.24,6.24,0,0,1-2.78-2.42c-.74-1.53-.44-4.53-.44-4.53s-.74.14-1.15,2.08a18.65,18.65,0,0,0-.17,4.58,4.32,4.32,0,0,1-1.64-2.22,57.34,57.34,0,0,1,.08-6.81s-1.65,3.33-1.65,4.45-.08,3.89-.08,3.89-1.73-3.2-1.32-5,.57-3.19.57-3.19-.66.27-1.32,2.5a8.93,8.93,0,0,0,0,4.55s-1.94-2.75-2.11-5a15.31,15.31,0,0,1,.58-4.73s-1.57,4-1.9,5.14-1.72,5.27-1.72,5.27-1.24-4.43-.75-6.37,1.65-5.84,1.65-5.84a17.91,17.91,0,0,0-2.72,5c-.5,2.08-1.57,7.37-1.57,7.37s-.57-6.53-.57-7.23-1.08,2.92-1.08,2.92l0,4.47s-1.22-6.42-2.54-8.14-1.84-5.56-1.84-5.56a45.35,45.35,0,0,0,1.28,7.53,21.12,21.12,0,0,1,.76,6s-1.63-4.12-1.93-4.12-1-.68-1-.68a12.4,12.4,0,0,1,1.12,3.34c.1,1.29.1,2.14.1,2.14s-1.83.77-2.14-.68a12.45,12.45,0,0,1,0-3.52,3.42,3.42,0,0,0-1.37,2.14,18.24,18.24,0,0,1-1,2.91,13,13,0,0,0-.71-5.48c-1-2.31-2-2.4-2-2.4s1.57,3.17,1.63,4.8a11.06,11.06,0,0,1-.87,3.77,25.22,25.22,0,0,0-2.19-5.83c-1.22-1.88-1.63-2.56-1.63-2.56s.56,4.11.56,5.48a8.64,8.64,0,0,1-.23,1.91l0-.12a42.29,42.29,0,0,0-3.07-7.86,42,42,0,0,1,1.2,6.73,5.92,5.92,0,0,1-.29,1.85l-1.11,0a10.47,10.47,0,0,1-.29-2.72,31.93,31.93,0,0,0-.17-4.27,19.6,19.6,0,0,0-1.21,5.39c-.13,2.7-1.33,1.8-1.33,1.8s-1.6-4-.66-6.07-1.44,1.44-1.61,3.25a12.24,12.24,0,0,1-.58,2.91,1.44,1.44,0,0,1-1.4-.69c-.49-.84-.17-4.73-.17-4.73a10.23,10.23,0,0,0-.91,2.92,10.34,10.34,0,0,0-.08,2.78,13.57,13.57,0,0,1-1.15-4.91c0-2.36.47-4.84.2-4.63-.8.61-2.38,3.56-1.7,8.7a6.24,6.24,0,0,1-2.78-2.41c-.74-1.53-.44-4.53-.44-4.53s-.74.14-1.15,2.08a18.56,18.56,0,0,0-.17,4.59,4.34,4.34,0,0,1-1.65-2.22,58,58,0,0,1,.08-6.81s-1.65,3.33-1.65,4.45-.08,3.89-.08,3.89-1.73-3.19-1.32-5,.58-3.19.58-3.19-.66.28-1.32,2.5a36.47,36.47,0,0,0-1,5.42,45.5,45.5,0,0,1-1.08-5.83,15.61,15.61,0,0,1,.58-4.73s-1.57,4-1.9,5.14-2,6.26-2,6.26-1-5.42-.5-7.36,1.65-5.84,1.65-5.84a18,18,0,0,0-2.72,5c-.49,2.08-1.57,7.36-1.57,7.36s-.58-6.53-.58-7.23-1.07,2.92-1.07,2.92l0,4.47s-1.22-6.43-2.54-8.14-4.89-1.12-4.89-1.12,3.46.34,4.32,3.09a20.91,20.91,0,0,1,.76,6s-1.63-4.11-1.93-4.11-1-.68-1-.68a12.34,12.34,0,0,1,1.12,3.34c.1,1.28.1,2.14.1,2.14s-1.83.77-2.13-.69a12.17,12.17,0,0,1,0-3.51,3.42,3.42,0,0,0-1.37,2.14,18.13,18.13,0,0,1-1,2.92,13,13,0,0,0-.71-5.49c-1-2.31-2-2.4-2-2.4s1.58,3.17,1.63,4.8a10.61,10.61,0,0,1-.8,3.6,11.16,11.16,0,0,0-.09-1.33,46.5,46.5,0,0,0-2.84-7.77s.69,2.73,1,4.92v3.25a4.53,4.53,0,0,1-.76,1.7,8.87,8.87,0,0,1-.76-4,31.65,31.65,0,0,0-.17-4.27,19.41,19.41,0,0,0-1.2,5.39c-.13,2.7-1.33,1.8-1.33,1.8s-1.6-4-.67-6.07-1.44,1.44-1.6,3.25a12.41,12.41,0,0,1-.58,2.91,1.44,1.44,0,0,1-1.4-.69c-.5-.84-.16-4.73-.16-4.73a10.19,10.19,0,0,0-.91,2.92,10.49,10.49,0,0,0-.08,2.78s-1.81-3.05-.74-5.42,1.49-3.61,1.49-3.61-2.76,1.89-3.15,4.09a17.76,17.76,0,0,0-.23,4.11,6.24,6.24,0,0,1-2.78-2.41c-.74-1.53-.43-4.53-.43-4.53s-.75.14-1.16,2.08a18.62,18.62,0,0,0-.16,4.59,4.33,4.33,0,0,1-1.65-2.22,58.18,58.18,0,0,1,.08-6.81s-1.65,3.33-1.65,4.45-.08,3.89-.08,3.89-1.73-3.19-1.32-5,.58-3.19.58-3.19-.66.28-1.32,2.5a37.1,37.1,0,0,0-1,5.42,45.68,45.68,0,0,1-1.07-5.83,15.45,15.45,0,0,1,.58-4.73s-1.57,4-1.9,5.14-2,6.26-2,6.26-1-5.42-.5-7.36,1.65-5.84,1.65-5.84a18,18,0,0,0-2.72,5c-.49,2.08-1.57,7.36-1.57,7.36s-.58-6.53-.58-7.23-1.07,2.92-1.07,2.92l0,4.47s-1.22-6.43-2.54-8.14-4.88-1.12-4.88-1.12,3.46.34,4.32,3.09a21,21,0,0,1,.76,6s-1.63-4.11-1.93-4.11-1-.68-1-.68a12.42,12.42,0,0,1,1.12,3.34c.1,1.28.1,2.14.1,2.14s-1.83.77-2.14-.69a12.3,12.3,0,0,1,0-3.51,3.44,3.44,0,0,0-1.37,2.14,18.14,18.14,0,0,1-1,2.92,13,13,0,0,0-.72-5.49,6.85,6.85,0,0,0-1-1.63v-1.5c-.09.21-.18.46-.28.79a.49.49,0,0,0-.16-.06l.1.26,0,.12a1.45,1.45,0,0,0-.7-.39s.23.47.52,1.13c-.2.91-.36,2-.48,2.87-.08-.22-.16-.45-.25-.65l0,2.13c-.12-.32-.24-.66-.37-1-.2-1.22-.44-2.8-.51-4a19.39,19.39,0,0,1,.45-4.73s-1.23,4-1.49,5.14-1.55,6.26-1.55,6.26-.78-5.42-.39-7.36,1.29-5.84,1.29-5.84a19.72,19.72,0,0,0-2.13,5c-.39,2.08-1.23,7.36-1.23,7.36s-.45-6.53-.45-7.23-.84,2.92-.84,2.92l0,4.47s-1-6.43-2-8.14-3.83-1.12-3.83-1.12a4.19,4.19,0,0,1,3.39,3.09,26.63,26.63,0,0,1,.6,6s-1.28-4.11-1.51-4.11-.76-.68-.76-.68a14.43,14.43,0,0,1,.87,3.34c.08,1.28.08,2.14.08,2.14s-1.43.77-1.67-.69a15.67,15.67,0,0,1,0-3.51,3.51,3.51,0,0,0-1.08,2.14,21.83,21.83,0,0,1-.76,2.92,16.39,16.39,0,0,0-.56-5.49c-.8-2.31-1.59-2.4-1.59-2.4a20.47,20.47,0,0,1,1.27,4.8,13.47,13.47,0,0,1-.68,3.77,29.7,29.7,0,0,0-1.71-5.82c-1-1.89-1.27-2.57-1.27-2.57s.44,4.12.44,5.48a11.34,11.34,0,0,1-.32,2.57h-.35c-.07-.49-.14-.95-.21-1.35a49.31,49.31,0,0,0-2.4-7.86A52.74,52.74,0,0,1,108,320a7.13,7.13,0,0,1-.39,2.41h-.49l0,.11a12.28,12.28,0,0,1-.39-3.4,40.33,40.33,0,0,0-.14-4.27,24.18,24.18,0,0,0-.94,5.4c-.1,2.69-1,1.8-1,1.8s-1.25-4-.52-6.06-1.12,1.43-1.25,3.25a15.43,15.43,0,0,1-.45,2.91,1,1,0,0,1-1.1-.69c-.39-.83-.13-4.73-.13-4.73a12.14,12.14,0,0,0-.71,2.92c-.2,1.66-.76.86-.76.86s-.73-1.13.12-3.49,1.16-3.61,1.16-3.61a8,8,0,0,0-2.47,4.09,22.69,22.69,0,0,0-.18,4.11,5.38,5.38,0,0,1-2.18-2.42,14,14,0,0,1-.34-4.53s-.58.14-.91,2.08a23.51,23.51,0,0,0-.13,4.58,4.32,4.32,0,0,1-1.29-2.22c-.19-1.25.06-6.81.06-6.81a22.37,22.37,0,0,0-1.3,4.45c0,1.11-.06,3.89-.06,3.89s-1.36-3.2-1-5,.45-3.19.45-3.19-.52.27-1,2.5a11.35,11.35,0,0,0,0,4.55,14.53,14.53,0,0,1-1.66-5,19.51,19.51,0,0,1,.46-4.73s-1.23,4-1.49,5.14-1.35,5.27-1.35,5.27-1-4.43-.59-6.37S87.2,308,87.2,308a19.76,19.76,0,0,0-2.13,5c-.39,2.08-1.23,7.37-1.23,7.37s-.45-6.53-.45-7.23-.84,2.92-.84,2.92l0,4.47s-1-6.42-2-8.14-1.44-5.56-1.44-5.56a56.6,56.6,0,0,0,1,7.53,26.55,26.55,0,0,1,.6,6s-1.28-4.12-1.51-4.12-.76-.68-.76-.68a14.77,14.77,0,0,1,.88,3.34c.08,1.29.08,2.14.08,2.14s-1.43.77-1.67-.68a15.65,15.65,0,0,1,0-3.52A3.51,3.51,0,0,0,76.62,319a21.53,21.53,0,0,1-.76,2.91,16.49,16.49,0,0,0-.56-5.48c-.8-2.31-1.6-2.4-1.6-2.4A20.47,20.47,0,0,1,75,318.8a13.57,13.57,0,0,1-.68,3.77,29.74,29.74,0,0,0-1.71-5.83c-1-1.88-1.27-2.56-1.27-2.56s.44,4.11.44,5.48a11,11,0,0,1-.18,1.91l0-.12a49.21,49.21,0,0,0-2.4-7.86,52.61,52.61,0,0,1,.94,6.73,7.44,7.44,0,0,1-.22,1.85l-.87,0a13.22,13.22,0,0,1-.24-2.72,40.94,40.94,0,0,0-.13-4.27,24,24,0,0,0-.94,5.39c-.11,2.7-1,1.8-1,1.8s-1.26-4-.52-6.07-1.13,1.44-1.26,3.25a15.48,15.48,0,0,1-.45,2.91,1,1,0,0,1-1.1-.69c-.38-.84-.13-4.73-.13-4.73a12.11,12.11,0,0,0-.71,2.92,13.51,13.51,0,0,0-.06,2.78,16.68,16.68,0,0,1-.9-4.91c0-2.36.37-4.84.16-4.63-.63.61-1.87,3.56-1.33,8.7a5.36,5.36,0,0,1-2.18-2.41,13.91,13.91,0,0,1-.34-4.53s-.58.14-.9,2.08a23.45,23.45,0,0,0-.13,4.59,4.31,4.31,0,0,1-1.3-2.22c-.19-1.25.06-6.81.06-6.81A22.46,22.46,0,0,0,54.27,317c0,1.12-.06,3.89-.06,3.89s-1.35-3.19-1-5,.45-3.19.45-3.19-.51.28-1,2.5a45.87,45.87,0,0,0-.78,5.42,57,57,0,0,1-.84-5.83,19.42,19.42,0,0,1,.45-4.73s-1.23,4-1.49,5.14-1.55,6.26-1.55,6.26-.77-5.42-.39-7.36,1.3-5.84,1.3-5.84a19.74,19.74,0,0,0-2.13,5c-.39,2.08-1.23,7.36-1.23,7.36s-.45-6.53-.45-7.23-.84,2.92-.84,2.92l0,4.47s-1-6.43-2-8.14-3.83-1.12-3.83-1.12a4.19,4.19,0,0,1,3.39,3.09,26.48,26.48,0,0,1,.6,6s-1.28-4.11-1.52-4.11-.76-.68-.76-.68a14.76,14.76,0,0,1,.88,3.34c.08,1.28.08,2.14.08,2.14s-1.44.77-1.67-.69a15.67,15.67,0,0,1,0-3.51,3.52,3.52,0,0,0-1.08,2.14,22.1,22.1,0,0,1-.76,2.92,16.39,16.39,0,0,0-.56-5.49c-.8-2.31-1.6-2.4-1.6-2.4a20.52,20.52,0,0,1,1.28,4.8,13,13,0,0,1-.63,3.6c0-.48,0-.95-.07-1.33a55.28,55.28,0,0,0-2.22-7.77s.55,2.73.8,4.92v3.25a5.15,5.15,0,0,1-.6,1.7,11.07,11.07,0,0,1-.59-4,40.39,40.39,0,0,0-.14-4.27,24.27,24.27,0,0,0-.94,5.39c-.1,2.7-1,1.8-1,1.8s-1.25-4-.52-6.07-1.13,1.44-1.25,3.25a15.66,15.66,0,0,1-.45,2.91,1,1,0,0,1-1.1-.69c-.39-.84-.13-4.73-.13-4.73a12.25,12.25,0,0,0-.71,2.92,13.17,13.17,0,0,0-.06,2.78s-1.42-3.05-.58-5.42S28,313.69,28,313.69a8,8,0,0,0-2.47,4.09,22.8,22.8,0,0,0-.18,4.11,5.35,5.35,0,0,1-2.18-2.41,13.84,13.84,0,0,1-.34-4.53s-.58.14-.9,2.08a23.53,23.53,0,0,0-.13,4.59,4.34,4.34,0,0,1-1.29-2.22c-.19-1.25.06-6.81.06-6.81A22.43,22.43,0,0,0,19.26,317c0,1.12-.07,3.89-.07,3.89s-1.36-3.19-1-5,.45-3.19.45-3.19-.52.28-1,2.5a46.16,46.16,0,0,0-.77,5.42,55.76,55.76,0,0,1-.84-5.83,19.4,19.4,0,0,1,.45-4.73s-1.23,4-1.49,5.14-1.55,6.26-1.55,6.26-.78-5.42-.39-7.36,1.29-5.84,1.29-5.84a19.81,19.81,0,0,0-2.13,5c-.39,2.08-1.23,7.36-1.23,7.36s-.45-6.53-.45-7.23-.84,2.92-.84,2.92l0,4.47s-1-6.43-2-8.14-3.83-1.12-3.83-1.12a4.19,4.19,0,0,1,3.39,3.09,26.55,26.55,0,0,1,.59,6s-1.27-4.11-1.51-4.11-.76-.68-.76-.68a14.78,14.78,0,0,1,.87,3.34c.08,1.28.08,2.14.08,2.14s-1.43.77-1.67-.69a15.71,15.71,0,0,1,0-3.51,3.5,3.5,0,0,0-1.07,2.14,21.53,21.53,0,0,1-.76,2.92,16.4,16.4,0,0,0-.56-5.49c-.8-2.31-1.59-2.4-1.59-2.4a20.56,20.56,0,0,1,1.28,4.8,13.62,13.62,0,0,1-.68,3.77S.68,320.34,0,318.38v12.2L0,335v19H435.5V330.81h0Zm-136-4c0,.19,0,.39,0,.56-.05-.08-.1-.17-.14-.25a6.63,6.63,0,0,1-.48-2.42A8.23,8.23,0,0,1,299.45,319.18ZM293,315.92s0-.08,0-.13a11.4,11.4,0,0,1,1,3.3,5.67,5.67,0,0,1-.07,1C293.41,319,292.7,317.15,293,315.92Zm-162.81,3.17a9.15,9.15,0,0,1-.56,2.94v-5.22A8.23,8.23,0,0,1,130.16,319.09Z"/><path class="cls-9" d="M0,336.8H0v23.14H435.44V341l0-4.39,0-12.2c-.66,2-1.37,4.47-1.37,4.47a13.59,13.59,0,0,1-.68-3.77,20.55,20.55,0,0,1,1.28-4.8s-.79.09-1.59,2.4a16.34,16.34,0,0,0-.56,5.48,21.6,21.6,0,0,1-.76-2.91,3.48,3.48,0,0,0-1.08-2.14,15.63,15.63,0,0,1,0,3.51c-.24,1.45-1.67.69-1.67.69s0-.86.08-2.15a14.55,14.55,0,0,1,.88-3.33s-.52.68-.76.68-1.51,4.11-1.51,4.11a26.52,26.52,0,0,1,.6-6,4.18,4.18,0,0,1,3.39-3.08s-2.79-.6-3.83,1.11-2,8.14-2,8.14l0-4.47s-.85-3.61-.85-2.92-.45,7.22-.45,7.22-.84-5.28-1.23-7.36a19.6,19.6,0,0,0-2.13-5s.91,3.88,1.29,5.83-.38,7.37-.38,7.37-1.3-5.14-1.55-6.25-1.49-5.14-1.49-5.14a19.53,19.53,0,0,1,.45,4.72,55.55,55.55,0,0,1-.84,5.83,45.85,45.85,0,0,0-.78-5.42c-.52-2.23-1-2.5-1-2.5s.13,1.38.45,3.19-1,5-1,5-.06-2.78-.06-3.89a22.35,22.35,0,0,0-1.3-4.45s.26,5.56.06,6.81a4.33,4.33,0,0,1-1.29,2.22,23.88,23.88,0,0,0-.13-4.59c-.32-1.94-.9-2.08-.9-2.08a14,14,0,0,1-.34,4.54,5.35,5.35,0,0,1-2.18,2.41,22.3,22.3,0,0,0-.18-4.11,8,8,0,0,0-2.47-4.09s.32,1.25,1.16,3.62-.58,5.42-.58,5.42a13.31,13.31,0,0,0-.06-2.78,12,12,0,0,0-.71-2.92s.26,3.89-.13,4.73a1,1,0,0,1-1.1.7,15.58,15.58,0,0,1-.45-2.92c-.13-1.81-2-5.27-1.26-3.25s-.52,6.07-.52,6.07-.94.9-1-1.8a24.06,24.06,0,0,0-.95-5.39,41.65,41.65,0,0,0-.14,4.27,11.1,11.1,0,0,1-.59,4,5.2,5.2,0,0,1-.6-1.7V324.5c.26-2.2.8-4.93.8-4.93a55.22,55.22,0,0,0-2.23,7.77,13,13,0,0,0-.07,1.33,12.8,12.8,0,0,1-.63-3.61,20.5,20.5,0,0,1,1.27-4.8s-.79.09-1.59,2.4a16.29,16.29,0,0,0-.55,5.48,22,22,0,0,1-.76-2.91,3.49,3.49,0,0,0-1.08-2.14,15.38,15.38,0,0,1,0,3.51c-.24,1.45-1.67.69-1.67.69s0-.86.08-2.15a14.62,14.62,0,0,1,.87-3.33s-.52.68-.75.68-1.52,4.11-1.52,4.11a26.7,26.7,0,0,1,.6-6,4.18,4.18,0,0,1,3.39-3.08s-2.79-.6-3.83,1.11-2,8.14-2,8.14l0-4.47s-.84-3.61-.84-2.92-.45,7.22-.45,7.22-.84-5.28-1.23-7.36a19.7,19.7,0,0,0-2.13-5s.9,3.88,1.29,5.83-.39,7.37-.39,7.37-1.29-5.14-1.55-6.25-1.49-5.14-1.49-5.14a19.43,19.43,0,0,1,.45,4.72,56.47,56.47,0,0,1-.84,5.83,46.12,46.12,0,0,0-.78-5.42c-.52-2.23-1-2.5-1-2.5s.13,1.38.45,3.19-1,5-1,5-.06-2.78-.06-3.89a22.42,22.42,0,0,0-1.29-4.45s.26,5.56.06,6.81a4.35,4.35,0,0,1-1.29,2.22,23.37,23.37,0,0,0-.13-4.59c-.32-1.94-.91-2.08-.91-2.08a14,14,0,0,1-.34,4.54,5.37,5.37,0,0,1-2.18,2.41c.53-5.14-.7-8.09-1.33-8.7-.22-.21.14,2.27.16,4.63a16.63,16.63,0,0,1-.9,4.91,13.48,13.48,0,0,0-.06-2.78,12.12,12.12,0,0,0-.71-2.92s.26,3.89-.13,4.73a1,1,0,0,1-1.1.7,15.2,15.2,0,0,1-.45-2.92c-.13-1.81-2-5.27-1.26-3.25s-.52,6.07-.52,6.07-.94.9-1-1.8a24.16,24.16,0,0,0-.94-5.39,38.83,38.83,0,0,0-.14,4.27,13.14,13.14,0,0,1-.23,2.72l-.87,0a7.49,7.49,0,0,1-.22-1.85,52.68,52.68,0,0,1,.94-6.74,49.42,49.42,0,0,0-2.4,7.86l0,.12a11.37,11.37,0,0,1-.18-1.92c0-1.38.44-5.49.44-5.49s-.32.69-1.28,2.57a30,30,0,0,0-1.71,5.83,13.68,13.68,0,0,1-.68-3.77,20.35,20.35,0,0,1,1.28-4.8s-.8.09-1.59,2.4a16.24,16.24,0,0,0-.56,5.48,21.09,21.09,0,0,1-.76-2.91,3.48,3.48,0,0,0-1.08-2.14,15.4,15.4,0,0,1,0,3.51c-.24,1.45-1.68.69-1.68.69s0-.86.09-2.15a14.59,14.59,0,0,1,.87-3.34s-.52.68-.76.68-1.51,4.11-1.51,4.11a26.39,26.39,0,0,1,.6-6,56.88,56.88,0,0,0,1-7.52s-.39,3.84-1.43,5.56-2,8.14-2,8.14l0-4.47s-.84-3.62-.84-2.92-.45,7.22-.45,7.22-.84-5.28-1.22-7.36a19.64,19.64,0,0,0-2.14-5s.91,3.89,1.29,5.83-.59,6.38-.59,6.38-1.09-4.15-1.35-5.27-1.49-5.14-1.49-5.14a19.56,19.56,0,0,1,.46,4.73,14.45,14.45,0,0,1-1.65,5,11.34,11.34,0,0,0,0-4.55c-.52-2.22-1-2.5-1-2.5s.13,1.4.45,3.2-1,5-1,5-.06-2.78-.06-3.89a22.34,22.34,0,0,0-1.3-4.45s.26,5.56.06,6.81a4.32,4.32,0,0,1-1.29,2.22,23.59,23.59,0,0,0-.13-4.58c-.32-1.94-.91-2.08-.91-2.08a13.94,13.94,0,0,1-.34,4.53,5.36,5.36,0,0,1-2.18,2.42,22.82,22.82,0,0,0-.18-4.11,8,8,0,0,0-2.47-4.09s.32,1.25,1.16,3.61.12,3.5.12,3.5-.57.81-.76-.85a12.09,12.09,0,0,0-.71-2.92s.25,3.89-.13,4.72a1,1,0,0,1-1.1.7,15.21,15.21,0,0,1-.45-2.92c-.13-1.81-2-5.26-1.26-3.24s-.52,6.06-.52,6.06-.94.9-1-1.79a24.23,24.23,0,0,0-.94-5.4,39.88,39.88,0,0,0-.14,4.27,12.37,12.37,0,0,1-.39,3.4l0-.11-.5,0a7.14,7.14,0,0,1-.39-2.4,52.57,52.57,0,0,1,.94-6.74,49,49,0,0,0-2.4,7.86c-.07.4-.14.86-.21,1.34h-.34a11.18,11.18,0,0,1-.32-2.57c0-1.38.44-5.48.44-5.48s-.32.68-1.28,2.57a30,30,0,0,0-1.71,5.83,13.56,13.56,0,0,1-.68-3.77,20.57,20.57,0,0,1,1.27-4.8s-.8.09-1.59,2.4a16.41,16.41,0,0,0-.56,5.48,22.12,22.12,0,0,1-.76-2.91,3.49,3.49,0,0,0-1.08-2.14,15.63,15.63,0,0,1,0,3.51c-.24,1.45-1.68.69-1.68.69s0-.86.08-2.15a14.38,14.38,0,0,1,.88-3.33s-.52.68-.76.68-1.51,4.11-1.51,4.11a26.58,26.58,0,0,1,.59-6,4.18,4.18,0,0,1,3.39-3.08s-2.79-.6-3.83,1.11-2,8.14-2,8.14l0-4.47s-.84-3.61-.84-2.92-.45,7.22-.45,7.22-.84-5.28-1.23-7.36a19.75,19.75,0,0,0-2.13-5s.91,3.88,1.29,5.83-.38,7.37-.38,7.37-1.29-5.14-1.55-6.25-1.49-5.14-1.49-5.14a19.64,19.64,0,0,1,.45,4.72c-.07,1.19-.3,2.76-.5,4-.13.32-.26.65-.38,1l0-2.14c-.09.21-.17.43-.25.65-.12-.91-.28-2-.48-2.87.29-.66.52-1.13.52-1.13a1.44,1.44,0,0,0-.7.39s0-.09,0-.12l.1-.27a.44.44,0,0,0-.15.07,8.06,8.06,0,0,0-.28-.79V321a6.64,6.64,0,0,0-1,1.63,13,13,0,0,0-.71,5.48,18.16,18.16,0,0,1-1-2.91,3.41,3.41,0,0,0-1.38-2.14,12.09,12.09,0,0,1,0,3.51c-.3,1.45-2.14.69-2.14.69s0-.86.11-2.15a12.44,12.44,0,0,1,1.12-3.33s-.66.68-1,.68-1.93,4.11-1.93,4.11a21.1,21.1,0,0,1,.76-6c.87-2.74,4.33-3.08,4.33-3.08s-3.56-.6-4.88,1.11-2.54,8.14-2.54,8.14l0-4.47s-1.07-3.61-1.07-2.92-.58,7.22-.58,7.22-1.07-5.28-1.57-7.36a17.86,17.86,0,0,0-2.72-5s1.16,3.88,1.65,5.83-.49,7.37-.49,7.37-1.65-5.14-2-6.25-1.89-5.14-1.89-5.14a15.54,15.54,0,0,1,.57,4.72,45.19,45.19,0,0,1-1.07,5.83,36.52,36.52,0,0,0-1-5.42c-.66-2.23-1.32-2.5-1.32-2.5s.16,1.38.58,3.19-1.32,5-1.32,5-.08-2.78-.08-3.89-1.65-4.45-1.65-4.45a57.81,57.81,0,0,1,.08,6.81,4.32,4.32,0,0,1-1.65,2.22A18.44,18.44,0,0,0,280,323c-.41-1.94-1.16-2.08-1.16-2.08s.31,3-.44,4.54a6.23,6.23,0,0,1-2.78,2.41,17.83,17.83,0,0,0-.23-4.11c-.39-2.2-3.15-4.09-3.15-4.09s.41,1.25,1.49,3.62-.74,5.42-.74,5.42a10.28,10.28,0,0,0-.08-2.78A10.15,10.15,0,0,0,272,323s.33,3.89-.16,4.73a1.45,1.45,0,0,1-1.4.7,12.37,12.37,0,0,1-.58-2.92c-.17-1.81-2.54-5.27-1.6-3.25s-.67,6.07-.67,6.07-1.2.9-1.34-1.8a19.35,19.35,0,0,0-1.2-5.39,32.2,32.2,0,0,0-.17,4.27,9,9,0,0,1-.76,4,4.58,4.58,0,0,1-.76-1.7V324.5c.33-2.2,1-4.93,1-4.93a46.4,46.4,0,0,0-2.84,7.77,12.59,12.59,0,0,0-.09,1.33,10.62,10.62,0,0,1-.8-3.61c0-1.63,1.63-4.8,1.63-4.8s-1,.09-2,2.4a13,13,0,0,0-.71,5.48,17.83,17.83,0,0,1-1-2.91,3.42,3.42,0,0,0-1.38-2.14,12.25,12.25,0,0,1,0,3.51c-.3,1.45-2.13.69-2.13.69s0-.86.1-2.15a12.37,12.37,0,0,1,1.12-3.33s-.66.68-1,.68-1.93,4.11-1.93,4.11a21.06,21.06,0,0,1,.77-6c.87-2.74,4.32-3.08,4.32-3.08s-3.56-.6-4.88,1.11-2.55,8.14-2.55,8.14l0-4.47s-1.07-3.61-1.07-2.92-.57,7.22-.57,7.22-1.07-5.28-1.57-7.36a18,18,0,0,0-2.72-5s1.15,3.88,1.65,5.83-.49,7.37-.49,7.37-1.65-5.14-2-6.25-1.9-5.14-1.9-5.14a15.4,15.4,0,0,1,.58,4.72,45.67,45.67,0,0,1-1.07,5.83,36.4,36.4,0,0,0-1-5.42c-.66-2.23-1.32-2.5-1.32-2.5s.17,1.38.58,3.19-1.32,5-1.32,5-.08-2.78-.08-3.89-1.65-4.45-1.65-4.45a57.78,57.78,0,0,1,.08,6.81,4.35,4.35,0,0,1-1.65,2.22,18.5,18.5,0,0,0-.16-4.59c-.42-1.94-1.16-2.08-1.16-2.08s.31,3-.44,4.54a6.22,6.22,0,0,1-2.78,2.41c.69-5.14-.9-8.09-1.7-8.7-.28-.21.18,2.27.2,4.63a13.53,13.53,0,0,1-1.14,4.91,10.28,10.28,0,0,0-.08-2.78,10.15,10.15,0,0,0-.9-2.92s.33,3.89-.17,4.73a1.45,1.45,0,0,1-1.41.7,12.64,12.64,0,0,1-.57-2.92c-.16-1.81-2.54-5.27-1.61-3.25s-.66,6.07-.66,6.07-1.2.9-1.33-1.8a19.54,19.54,0,0,0-1.2-5.39,31.6,31.6,0,0,0-.17,4.27,10.38,10.38,0,0,1-.3,2.72l-1.11,0a5.83,5.83,0,0,1-.29-1.85,42.17,42.17,0,0,1,1.2-6.74,42.06,42.06,0,0,0-3.07,7.86l0,.12a8.86,8.86,0,0,1-.23-1.92c0-1.38.56-5.49.56-5.49s-.41.69-1.63,2.57a25.1,25.1,0,0,0-2.19,5.83,11.11,11.11,0,0,1-.87-3.77c.05-1.63,1.63-4.8,1.63-4.8s-1,.09-2,2.4a12.94,12.94,0,0,0-.71,5.48,18,18,0,0,1-1-2.91,3.4,3.4,0,0,0-1.37-2.14,12.39,12.39,0,0,1,0,3.51c-.3,1.45-2.14.69-2.14.69s0-.86.1-2.15a12.43,12.43,0,0,1,1.12-3.34s-.66.68-1,.68-1.93,4.11-1.93,4.11a21.1,21.1,0,0,1,.76-6,45.19,45.19,0,0,0,1.28-7.52s-.51,3.84-1.83,5.56-2.54,8.14-2.54,8.14l0-4.47s-1.07-3.62-1.07-2.92-.58,7.22-.58,7.22-1.07-5.28-1.57-7.36a17.87,17.87,0,0,0-2.72-5s1.16,3.89,1.65,5.83-.75,6.38-.75,6.38-1.39-4.15-1.72-5.27-1.9-5.14-1.9-5.14a15.55,15.55,0,0,1,.58,4.73c-.17,2.22-2.11,5-2.11,5a9,9,0,0,0,0-4.55c-.66-2.22-1.32-2.5-1.32-2.5s.17,1.4.58,3.2-1.32,5-1.32,5-.08-2.78-.08-3.89-1.65-4.45-1.65-4.45a57.41,57.41,0,0,1,.08,6.81,4.35,4.35,0,0,1-1.65,2.22,18.53,18.53,0,0,0-.17-4.58c-.41-1.94-1.15-2.08-1.15-2.08s.31,3-.44,4.53a6.27,6.27,0,0,1-2.78,2.42,17.62,17.62,0,0,0-.23-4.11c-.39-2.21-3.15-4.09-3.15-4.09s.41,1.25,1.49,3.61.14,3.5.14,3.5-.73.81-1-.85a10,10,0,0,0-.91-2.92s.33,3.89-.17,4.72a1.44,1.44,0,0,1-1.4.7,12.56,12.56,0,0,1-.58-2.92c-.17-1.81-2.54-5.26-1.6-3.24s-.67,6.06-.67,6.06-1.2.9-1.34-1.79a19.65,19.65,0,0,0-1.2-5.4,31.16,31.16,0,0,0-.18,4.27,10,10,0,0,1-.5,3.4l-.06-.11-.63,0a5.7,5.7,0,0,1-.5-2.4,42.09,42.09,0,0,1,1.2-6.74,42,42,0,0,0-3.06,7.86c-.09.4-.17.86-.27,1.34h-.44a9,9,0,0,1-.41-2.57c0-1.38.56-5.48.56-5.48s-.41.68-1.63,2.57a25,25,0,0,0-2.19,5.83,11,11,0,0,1-.87-3.77c.05-1.63,1.63-4.8,1.63-4.8s-1,.09-2,2.4a12.91,12.91,0,0,0-.71,5.48,18,18,0,0,1-1-2.91,3.42,3.42,0,0,0-1.37-2.14,12.23,12.23,0,0,1,0,3.51c-.31,1.45-2.13.69-2.13.69s0-.86.1-2.15a12.34,12.34,0,0,1,1.12-3.33s-.66.68-1,.68-1.93,4.11-1.93,4.11a21.06,21.06,0,0,1,.76-6c.87-2.74,4.32-3.08,4.32-3.08s-3.56-.6-4.89,1.11-2.54,8.14-2.54,8.14l0-4.47s-1.07-3.61-1.07-2.92-.58,7.22-.58,7.22-1.07-5.28-1.57-7.36a17.89,17.89,0,0,0-2.72-5s1.16,3.88,1.65,5.83-.49,7.37-.49,7.37-1.65-5.14-2-6.25-1.9-5.14-1.9-5.14a15.44,15.44,0,0,1,.58,4.72,45,45,0,0,1-1.07,5.83s0-.19-.06-.52l.05-2.48c-.11.21-.21.43-.31.65a26.45,26.45,0,0,0-.67-3.06c-.07-.25-.15-.47-.22-.67l.13-.27a.65.65,0,0,0-.2.07c-.55-1.42-1-1.63-1-1.63s.11.86.35,2.12a6,6,0,0,0-1.16,1.84l0,.09a22.65,22.65,0,0,0-1.63-4.2,58.24,58.24,0,0,1,.08,6.81s0,.09,0,.14,0-.18-.07-.28a3.4,3.4,0,0,0-1.37-2.14,12.13,12.13,0,0,1,0,3.51,1.33,1.33,0,0,1-.14.38,16.84,16.84,0,0,0-.21-4c-.41-1.94-1.15-2.08-1.15-2.08s.06.57.06,1.35a.94.94,0,0,1-.45.22c-.31,0-1.93,4.11-1.93,4.11a21.13,21.13,0,0,1,.77-6c.86-2.74,4.32-3.08,4.32-3.08s-3.56-.6-4.88,1.11a14.49,14.49,0,0,0-1.63,4.21,7,7,0,0,0-1.37-1.9c-.3-.94-.65-2-.65-1.56,0,.13,0,.45-.05.89a9.59,9.59,0,0,0-.78-.62s.2.62.69,1.8c-.08,1.05-.19,2.3-.27,3.31a9.88,9.88,0,0,0-.67-1.77s.06.72.09,1.6c-.36-1.72-.86-4.1-1.15-5.35a18,18,0,0,0-2.72-5s1.15,3.88,1.65,5.83a16.8,16.8,0,0,1-.12,4.86c-.49-1.87-2.34-4.51-1.5-2.68a4.75,4.75,0,0,1,.24,2.45c-.45-1.42-.94-3-1.1-3.51-.33-1.12-1.9-5.14-1.9-5.14a15.49,15.49,0,0,1,.58,4.72,24.65,24.65,0,0,1-.35,2.49,19.41,19.41,0,0,0-.67-2.13,32.14,32.14,0,0,0-.17,4.27c0,.08,0,.16,0,.24a31.94,31.94,0,0,0-.87-4.44v0c.22-.94.38-1.61.38-1.61s-.22.43-.54,1.12c-.6-1.75-1.15-2-1.15-2s.17,1.38.58,3.19c0,0,0,0,0,0-.45,1-1,2.24-1.36,3.44,0-.83,0-1.81,0-2.36,0-1.11-1.65-4.45-1.65-4.45a58.06,58.06,0,0,1,.08,6.81,4.35,4.35,0,0,1-1.65,2.22,18.57,18.57,0,0,0-.17-4.59c-.41-1.94-1.15-2.08-1.15-2.08s.31,3-.44,4.54a6.24,6.24,0,0,1-2.78,2.41c.68-5.14-.9-8.09-1.7-8.7-.27-.21.18,2.27.2,4.63a13.59,13.59,0,0,1-1.14,4.91,10.38,10.38,0,0,0-.09-2.78,10.16,10.16,0,0,0-.91-2.92s.33,3.89-.16,4.73a1.45,1.45,0,0,1-1.4.7,12.48,12.48,0,0,1-.58-2.92c-.16-1.81-2.54-5.27-1.6-3.25s-.67,6.07-.67,6.07-1.2.9-1.33-1.8a19.57,19.57,0,0,0-1.2-5.39,31.59,31.59,0,0,0-.18,4.27,10.18,10.18,0,0,1-.3,2.72l-1.11,0a5.92,5.92,0,0,1-.28-1.85,42.16,42.16,0,0,1,1.2-6.74,42.18,42.18,0,0,0-3.07,7.86l0,.12a8.83,8.83,0,0,1-.23-1.92c0-1.38.56-5.49.56-5.49s-.4.69-1.63,2.57A25,25,0,0,0,94,328.55a11,11,0,0,1-.86-3.77c.05-1.63,1.63-4.8,1.63-4.8s-1,.09-2,2.4a13,13,0,0,0-.71,5.48,17.82,17.82,0,0,1-1-2.91,3.41,3.41,0,0,0-1.37-2.14,12.25,12.25,0,0,1,0,3.51c-.31,1.45-2.14.69-2.14.69s0-.86.1-2.15a12.35,12.35,0,0,1,1.12-3.34s-.66.68-1,.68-1.94,4.11-1.94,4.11a21,21,0,0,1,.77-6,45.37,45.37,0,0,0,1.27-7.52s-.51,3.84-1.83,5.56-2.54,8.14-2.54,8.14l0-4.47s-1.07-3.62-1.07-2.92-.57,7.22-.57,7.22S80.79,321,80.3,319a17.9,17.9,0,0,0-2.72-5s1.15,3.89,1.65,5.83-.75,6.38-.75,6.38-1.39-4.15-1.72-5.27-1.9-5.14-1.9-5.14a15.57,15.57,0,0,1,.58,4.73c-.17,2.22-2.1,5-2.1,5a9,9,0,0,0,0-4.55c-.66-2.22-1.32-2.5-1.32-2.5s.16,1.4.57,3.2-1.32,5-1.32,5-.08-2.78-.08-3.89-1.65-4.45-1.65-4.45a57.47,57.47,0,0,1,.08,6.81A4.33,4.33,0,0,1,68,327.3a18.47,18.47,0,0,0-.17-4.58c-.41-1.94-1.15-2.08-1.15-2.08s.31,3-.43,4.53a6.25,6.25,0,0,1-2.79,2.42,17.59,17.59,0,0,0-.23-4.11c-.39-2.21-3.15-4.09-3.15-4.09s.41,1.25,1.48,3.61.14,3.5.14,3.5-.72.81-1-.85a10,10,0,0,0-.9-2.92s.33,3.89-.17,4.72a1.44,1.44,0,0,1-1.4.7,12.38,12.38,0,0,1-.58-2.92c-.17-1.81-2.54-5.26-1.6-3.24s-.67,6.06-.67,6.06-1.2.9-1.33-1.79a19.53,19.53,0,0,0-1.2-5.4,32.29,32.29,0,0,0-.18,4.27,9.86,9.86,0,0,1-.49,3.4l-.06-.11-.63,0A5.71,5.71,0,0,1,51,326a42,42,0,0,1,1.2-6.74,42.2,42.2,0,0,0-3.07,7.86c-.08.4-.17.86-.26,1.34h-.44a8.94,8.94,0,0,1-.41-2.57c0-1.38.56-5.48.56-5.48s-.41.68-1.63,2.57a25.1,25.1,0,0,0-2.19,5.83,11.07,11.07,0,0,1-.87-3.77c.05-1.63,1.63-4.8,1.63-4.8s-1,.09-2,2.4a13,13,0,0,0-.71,5.48,18,18,0,0,1-1-2.91,3.42,3.42,0,0,0-1.37-2.14,12.21,12.21,0,0,1,0,3.51c-.31,1.45-2.14.69-2.14.69s0-.86.1-2.15a12.42,12.42,0,0,1,1.12-3.33s-.66.68-1,.68-1.93,4.11-1.93,4.11a20.93,20.93,0,0,1,.76-6c.86-2.74,4.32-3.08,4.32-3.08s-3.56-.6-4.88,1.11-2.54,8.14-2.54,8.14l0-4.47s-1.07-3.61-1.07-2.92-.58,7.22-.58,7.22-1.07-5.28-1.57-7.36a17.83,17.83,0,0,0-2.72-5s1.15,3.88,1.65,5.83-.49,7.37-.49,7.37-1.65-5.14-2-6.25-1.89-5.14-1.89-5.14a15.46,15.46,0,0,1,.58,4.72,45.55,45.55,0,0,1-1.07,5.83,36.39,36.39,0,0,0-1-5.42c-.66-2.23-1.32-2.5-1.32-2.5s.17,1.38.58,3.19-1.32,5-1.32,5S22,324.12,22,323s-1.65-4.45-1.65-4.45a58.59,58.59,0,0,1,.08,6.81,4.36,4.36,0,0,1-1.65,2.22A18.58,18.58,0,0,0,18.6,323c-.41-1.94-1.16-2.08-1.16-2.08s.31,3-.44,4.54a6.24,6.24,0,0,1-2.78,2.41,17.79,17.79,0,0,0-.23-4.11c-.39-2.2-3.16-4.09-3.16-4.09s.42,1.25,1.49,3.62-.74,5.42-.74,5.42a10.53,10.53,0,0,0-.08-2.78A10.11,10.11,0,0,0,10.6,323s.33,3.89-.17,4.73a1.44,1.44,0,0,1-1.4.7,12.62,12.62,0,0,1-.58-2.92c-.17-1.81-2.54-5.27-1.6-3.25s-.67,6.07-.67,6.07-1.2.9-1.34-1.8a19.44,19.44,0,0,0-1.2-5.39,31.44,31.44,0,0,0-.17,4.27,9,9,0,0,1-.76,4,5.16,5.16,0,0,1-.94-3.15A42,42,0,0,1,3,319.57a46.2,46.2,0,0,0-2.84,7.77c-.11.52,0,1.17-.15,1.82ZM136.63,323a6.56,6.56,0,0,1-.48,2.42l-.14.25c0-.17,0-.36,0-.57A8.15,8.15,0,0,1,136.63,323Zm5,3a6.1,6.1,0,0,1-.07-1,11.34,11.34,0,0,1,1-3.3s0,.09,0,.13C142.8,323.13,142.09,325,141.61,326.06Zm164.29-3.28V328a9.34,9.34,0,0,1-.56-2.95A8.35,8.35,0,0,1,305.89,322.78Z"/><path class="cls-10" d="M435.5,333.51c-.12-.66,0-1.31-.15-1.84a47,47,0,0,0-2.84-7.87,43,43,0,0,1,1.2,6.82,5.26,5.26,0,0,1-.94,3.18,9.14,9.14,0,0,1-.76-4.09,33,33,0,0,0-.17-4.32,20,20,0,0,0-1.2,5.46c-.13,2.73-1.33,1.82-1.33,1.82s-1.6-4.09-.67-6.14-1.43,1.46-1.6,3.29a13.2,13.2,0,0,1-.58,3,1.44,1.44,0,0,1-1.4-.7c-.5-.84-.17-4.78-.17-4.78a10.45,10.45,0,0,0-.91,3,10.74,10.74,0,0,0-.08,2.81s-1.82-3.09-.75-5.48,1.49-3.66,1.49-3.66-2.76,1.91-3.16,4.14a18,18,0,0,0-.23,4.16,6.22,6.22,0,0,1-2.78-2.44c-.74-1.55-.43-4.59-.43-4.59s-.74.14-1.15,2.11a19,19,0,0,0-.17,4.64,4.4,4.4,0,0,1-1.65-2.25,59.38,59.38,0,0,1,.09-6.89s-1.65,3.37-1.65,4.5-.08,3.94-.08,3.94-1.73-3.23-1.31-5.06.57-3.24.57-3.24-.66.28-1.32,2.53a37.16,37.16,0,0,0-1,5.49,46.22,46.22,0,0,1-1.07-5.91,15.92,15.92,0,0,1,.58-4.79s-1.56,4.08-1.89,5.21-2,6.33-2,6.33-1-5.48-.49-7.45,1.65-5.91,1.65-5.91a18.05,18.05,0,0,0-2.72,5.06c-.5,2.11-1.57,7.46-1.57,7.46s-.58-6.61-.58-7.31-1.07,3-1.07,3l0,4.52s-1.22-6.51-2.54-8.24-4.88-1.12-4.88-1.12,3.46.34,4.32,3.12a21.49,21.49,0,0,1,.76,6.07s-1.62-4.16-1.93-4.16-1-.69-1-.69a12.61,12.61,0,0,1,1.12,3.38c.1,1.3.1,2.17.1,2.17s-1.84.78-2.14-.69a12.66,12.66,0,0,1,0-3.56,3.48,3.48,0,0,0-1.37,2.17,18.35,18.35,0,0,1-1,3,13.21,13.21,0,0,0-.71-5.55c-1-2.35-2-2.43-2-2.43s1.57,3.21,1.63,4.86a11.36,11.36,0,0,1-.87,3.82,25.33,25.33,0,0,0-2.19-5.9c-1.22-1.91-1.62-2.6-1.62-2.6s.56,4.16.56,5.55a9.3,9.3,0,0,1-.4,2.6h-.45c-.09-.5-.18-1-.27-1.36a43,43,0,0,0-3.06-8,43.09,43.09,0,0,1,1.2,6.82,5.87,5.87,0,0,1-.51,2.44h-.63l-.06.1a9.85,9.85,0,0,1-.49-3.44,33.06,33.06,0,0,0-.18-4.32,20,20,0,0,0-1.2,5.46c-.13,2.73-1.34,1.82-1.34,1.82s-1.6-4.09-.66-6.14-1.45,1.46-1.61,3.29a12.58,12.58,0,0,1-.58,2.95,1.44,1.44,0,0,1-1.4-.7c-.49-.85-.16-4.78-.16-4.78a10.25,10.25,0,0,0-.91,3c-.25,1.69-1,.87-1,.87s-.93-1.15.15-3.54,1.48-3.66,1.48-3.66-2.76,1.92-3.15,4.14a18.26,18.26,0,0,0-.23,4.16,6.29,6.29,0,0,1-2.78-2.45c-.74-1.55-.43-4.58-.43-4.58s-.74.13-1.16,2.11a18.91,18.91,0,0,0-.16,4.64,4.38,4.38,0,0,1-1.65-2.25,59,59,0,0,1,.08-6.89s-1.65,3.38-1.65,4.5-.08,3.94-.08,3.94-1.73-3.23-1.32-5.06.57-3.24.57-3.24-.66.28-1.32,2.53a9.18,9.18,0,0,0,0,4.61s-1.94-2.78-2.11-5a15.85,15.85,0,0,1,.58-4.78s-1.56,4.08-1.9,5.2-1.72,5.33-1.72,5.33-1.24-4.48-.75-6.45,1.65-5.91,1.65-5.91a18.28,18.28,0,0,0-2.72,5.06c-.49,2.11-1.57,7.46-1.57,7.46s-.57-6.61-.57-7.31-1.08,3-1.08,3l0,4.52s-1.22-6.51-2.54-8.24-1.83-5.62-1.83-5.62a46.22,46.22,0,0,0,1.27,7.62,21.44,21.44,0,0,1,.76,6.07s-1.63-4.17-1.94-4.17-1-.69-1-.69a12.57,12.57,0,0,1,1.12,3.38c.11,1.3.11,2.17.11,2.17s-1.83.78-2.14-.69a12.63,12.63,0,0,1,0-3.55,3.45,3.45,0,0,0-1.37,2.16,18.43,18.43,0,0,1-1,3,13.3,13.3,0,0,0-.7-5.55c-1-2.34-2-2.43-2-2.43s1.58,3.21,1.63,4.86a11.19,11.19,0,0,1-.87,3.82,25.57,25.57,0,0,0-2.18-5.9c-1.22-1.9-1.63-2.6-1.63-2.6s.55,4.16.55,5.55a9.18,9.18,0,0,1-.23,1.94l0-.12a43.22,43.22,0,0,0-3.07-8,43.14,43.14,0,0,1,1.2,6.82,6.22,6.22,0,0,1-.29,1.87l-1.12,0a10.69,10.69,0,0,1-.29-2.75,32.14,32.14,0,0,0-.17-4.32,19.85,19.85,0,0,0-1.2,5.46c-.14,2.73-1.34,1.82-1.34,1.82s-1.6-4.09-.67-6.14-1.44,1.46-1.6,3.29a12.74,12.74,0,0,1-.58,3,1.45,1.45,0,0,1-1.4-.7c-.49-.84-.16-4.78-.16-4.78a10.41,10.41,0,0,0-.91,3,10.7,10.7,0,0,0-.08,2.81,13.84,13.84,0,0,1-1.14-5c0-2.39.47-4.9.2-4.69-.8.62-2.38,3.61-1.7,8.81a6.23,6.23,0,0,1-2.78-2.44c-.75-1.55-.44-4.59-.44-4.59s-.74.14-1.16,2.11a19,19,0,0,0-.16,4.64,4.37,4.37,0,0,1-1.65-2.25,58.75,58.75,0,0,1,.08-6.89s-1.65,3.37-1.65,4.5c0,.56,0,1.55,0,2.39-.41-1.21-.92-2.46-1.36-3.49,0,0,0,0,0,0,.41-1.83.58-3.24.58-3.24s-.56.24-1.16,2c-.32-.69-.54-1.13-.54-1.13s.17.68.38,1.63v0a33.11,33.11,0,0,0-.87,4.5c0-.08,0-.16,0-.24a32.65,32.65,0,0,0-.18-4.32,20.86,20.86,0,0,0-.67,2.16c-.15-.87-.29-1.77-.35-2.51a15.89,15.89,0,0,1,.58-4.79s-1.57,4.08-1.9,5.21c-.16.56-.65,2.13-1.1,3.56a4.9,4.9,0,0,1,.24-2.49c.84-1.85-1,.83-1.5,2.71a17.27,17.27,0,0,1-.12-4.91c.49-2,1.65-5.91,1.65-5.91a18.23,18.23,0,0,0-2.72,5.06c-.29,1.26-.8,3.68-1.15,5.42,0-.9.09-1.62.09-1.62a9.92,9.92,0,0,0-.66,1.79c-.09-1-.2-2.29-.28-3.35.49-1.19.69-1.81.69-1.81a9.31,9.31,0,0,0-.78.62c0-.45-.05-.78-.05-.9,0-.41-.35.62-.65,1.57a7.23,7.23,0,0,0-1.37,1.92,14.78,14.78,0,0,0-1.63-4.25c-1.32-1.73-4.88-1.12-4.88-1.12s3.46.34,4.33,3.12a21.57,21.57,0,0,1,.76,6.07s-1.63-4.16-1.93-4.16a.91.91,0,0,1-.45-.23c0-.79.06-1.36.06-1.36s-.74.14-1.15,2.11a17.07,17.07,0,0,0-.21,4,1.41,1.41,0,0,1-.14-.39,12.58,12.58,0,0,1,0-3.56,3.47,3.47,0,0,0-1.37,2.17l-.07.28,0-.14a59.46,59.46,0,0,1,.08-6.89,22.52,22.52,0,0,0-1.62,4.24l0-.08a6.21,6.21,0,0,0-1.16-1.88c.24-1.27.34-2.15.34-2.15s-.47.21-1,1.65a.61.61,0,0,0-.2-.06l.13.26c-.08.2-.15.42-.23.68a27.41,27.41,0,0,0-.67,3.1c-.1-.23-.21-.45-.31-.66l0,2.51c0,.33-.06.53-.06.53a46.09,46.09,0,0,1-1.07-5.91,15.79,15.79,0,0,1,.58-4.79s-1.57,4.08-1.9,5.21-2,6.33-2,6.33-1-5.48-.49-7.45,1.65-5.91,1.65-5.91a18.2,18.2,0,0,0-2.72,5.06c-.5,2.11-1.57,7.46-1.57,7.46s-.57-6.61-.57-7.31-1.08,3-1.08,3l0,4.52s-1.22-6.51-2.54-8.24-4.88-1.12-4.88-1.12,3.46.34,4.33,3.12a21.53,21.53,0,0,1,.76,6.07s-1.63-4.16-1.93-4.16-1-.69-1-.69a12.34,12.34,0,0,1,1.11,3.38c.1,1.3.1,2.17.1,2.17s-1.83.78-2.13-.69a12.66,12.66,0,0,1,0-3.56,3.46,3.46,0,0,0-1.37,2.17,18.57,18.57,0,0,1-1,3,13.19,13.19,0,0,0-.71-5.55c-1-2.35-2-2.43-2-2.43s1.57,3.21,1.62,4.86a11.23,11.23,0,0,1-.87,3.82,25.55,25.55,0,0,0-2.19-5.9c-1.22-1.91-1.63-2.6-1.63-2.6s.56,4.16.56,5.55a9.26,9.26,0,0,1-.41,2.6h-.44c-.09-.5-.18-1-.27-1.36a43,43,0,0,0-3.06-8,43.22,43.22,0,0,1,1.2,6.82,5.84,5.84,0,0,1-.51,2.44h-.63l-.06.1a10.09,10.09,0,0,1-.5-3.44,31.74,31.74,0,0,0-.18-4.32,20.07,20.07,0,0,0-1.2,5.46c-.13,2.73-1.33,1.82-1.33,1.82s-1.6-4.09-.66-6.14-1.44,1.46-1.61,3.29a12.53,12.53,0,0,1-.58,2.95,1.44,1.44,0,0,1-1.4-.7c-.49-.85-.17-4.78-.17-4.78a10.28,10.28,0,0,0-.9,3c-.25,1.69-1,.87-1,.87s-.93-1.15.14-3.54,1.49-3.66,1.49-3.66-2.76,1.92-3.15,4.14a18.33,18.33,0,0,0-.23,4.16,6.27,6.27,0,0,1-2.78-2.45c-.74-1.55-.44-4.58-.44-4.58s-.74.13-1.15,2.11a19.09,19.09,0,0,0-.17,4.64,4.38,4.38,0,0,1-1.64-2.25,58.74,58.74,0,0,1,.08-6.89s-1.65,3.38-1.65,4.5-.08,3.94-.08,3.94-1.73-3.23-1.32-5.06.57-3.24.57-3.24-.66.28-1.32,2.53a9.17,9.17,0,0,0,0,4.61s-1.94-2.78-2.11-5a15.68,15.68,0,0,1,.58-4.78s-1.57,4.08-1.9,5.2-1.72,5.33-1.72,5.33-1.24-4.48-.75-6.45,1.65-5.91,1.65-5.91a18.18,18.18,0,0,0-2.72,5.06c-.5,2.11-1.57,7.46-1.57,7.46s-.57-6.61-.57-7.31-1.08,3-1.08,3l0,4.52s-1.22-6.51-2.54-8.24-1.84-5.62-1.84-5.62a46.43,46.43,0,0,0,1.28,7.62,21.6,21.6,0,0,1,.76,6.07s-1.63-4.17-1.93-4.17-1-.69-1-.69a12.69,12.69,0,0,1,1.12,3.38c.1,1.3.1,2.17.1,2.17s-1.83.78-2.14-.69a12.7,12.7,0,0,1,0-3.55,3.44,3.44,0,0,0-1.37,2.16,18.55,18.55,0,0,1-1,3,13.28,13.28,0,0,0-.71-5.55c-1-2.34-2-2.43-2-2.43s1.57,3.21,1.63,4.86a11.28,11.28,0,0,1-.87,3.82,25.67,25.67,0,0,0-2.19-5.9c-1.22-1.9-1.63-2.6-1.63-2.6s.56,4.16.56,5.55a8.92,8.92,0,0,1-.23,1.94l0-.12a43.13,43.13,0,0,0-3.07-8,43,43,0,0,1,1.2,6.82,6,6,0,0,1-.29,1.87l-1.11,0a10.7,10.7,0,0,1-.29-2.75,32.69,32.69,0,0,0-.17-4.32,20,20,0,0,0-1.21,5.46c-.13,2.73-1.33,1.82-1.33,1.82s-1.6-4.09-.66-6.14-1.44,1.46-1.61,3.29a12.62,12.62,0,0,1-.58,3,1.44,1.44,0,0,1-1.4-.7c-.49-.84-.17-4.78-.17-4.78a10.39,10.39,0,0,0-.91,3,10.54,10.54,0,0,0-.08,2.81,13.84,13.84,0,0,1-1.15-5c0-2.39.47-4.9.2-4.69-.8.62-2.38,3.61-1.7,8.81a6.23,6.23,0,0,1-2.78-2.44c-.74-1.55-.44-4.59-.44-4.59s-.74.14-1.15,2.11a19,19,0,0,0-.17,4.64,4.37,4.37,0,0,1-1.65-2.25,59.36,59.36,0,0,1,.08-6.89s-1.65,3.37-1.65,4.5-.08,3.94-.08,3.94-1.73-3.23-1.32-5.06.58-3.24.58-3.24-.66.28-1.32,2.53a37.19,37.19,0,0,0-1,5.49,46.57,46.57,0,0,1-1.08-5.91,16,16,0,0,1,.58-4.79s-1.57,4.08-1.9,5.21-2,6.33-2,6.33-1-5.48-.5-7.45,1.65-5.91,1.65-5.91a18.21,18.21,0,0,0-2.72,5.06c-.49,2.11-1.57,7.46-1.57,7.46s-.58-6.61-.58-7.31-1.07,3-1.07,3l0,4.52s-1.22-6.51-2.54-8.24-4.89-1.12-4.89-1.12,3.46.34,4.32,3.12a21.43,21.43,0,0,1,.76,6.07s-1.63-4.16-1.93-4.16-1-.69-1-.69a12.56,12.56,0,0,1,1.12,3.38c.1,1.3.1,2.17.1,2.17s-1.83.78-2.13-.69a12.46,12.46,0,0,1,0-3.56,3.45,3.45,0,0,0-1.37,2.17,18.35,18.35,0,0,1-1,3,13.22,13.22,0,0,0-.71-5.55c-1-2.35-2-2.43-2-2.43s1.58,3.21,1.63,4.86A10.87,10.87,0,0,1,174,333a11.54,11.54,0,0,0-.09-1.35,47.3,47.3,0,0,0-2.84-7.87s.69,2.77,1,5v3.29a4.65,4.65,0,0,1-.76,1.72,9.1,9.1,0,0,1-.76-4.09,32.41,32.41,0,0,0-.17-4.32,19.85,19.85,0,0,0-1.2,5.46c-.13,2.73-1.33,1.82-1.33,1.82s-1.6-4.09-.67-6.14-1.44,1.46-1.6,3.29a12.8,12.8,0,0,1-.58,3,1.44,1.44,0,0,1-1.4-.7c-.5-.84-.16-4.78-.16-4.78a10.35,10.35,0,0,0-.91,3,10.7,10.7,0,0,0-.08,2.81s-1.81-3.09-.74-5.48,1.49-3.66,1.49-3.66-2.76,1.91-3.15,4.14a18.15,18.15,0,0,0-.23,4.16,6.23,6.23,0,0,1-2.78-2.44c-.74-1.55-.43-4.59-.43-4.59s-.75.14-1.16,2.11a19.07,19.07,0,0,0-.16,4.64,4.36,4.36,0,0,1-1.65-2.25,59.52,59.52,0,0,1,.08-6.89s-1.65,3.37-1.65,4.5-.08,3.94-.08,3.94-1.73-3.23-1.32-5.06.58-3.24.58-3.24-.66.28-1.32,2.53a37.83,37.83,0,0,0-1,5.49A46.75,46.75,0,0,1,147.9,325a15.87,15.87,0,0,1,.58-4.79s-1.57,4.08-1.9,5.21-2,6.33-2,6.33-1-5.48-.5-7.45,1.65-5.91,1.65-5.91a18.24,18.24,0,0,0-2.72,5.06c-.49,2.11-1.57,7.46-1.57,7.46s-.58-6.61-.58-7.31-1.07,3-1.07,3l0,4.52s-1.22-6.51-2.54-8.24-4.88-1.12-4.88-1.12,3.46.34,4.32,3.12a21.51,21.51,0,0,1,.76,6.07s-1.63-4.16-1.93-4.16-1-.69-1-.69a12.64,12.64,0,0,1,1.12,3.38c.1,1.3.1,2.17.1,2.17s-1.83.78-2.14-.69a12.6,12.6,0,0,1,0-3.56,3.47,3.47,0,0,0-1.37,2.17,18.37,18.37,0,0,1-1,3,13.27,13.27,0,0,0-.72-5.55,6.68,6.68,0,0,0-1-1.65v-1.52c-.09.21-.18.47-.28.8a.39.39,0,0,0-.16-.06l.1.26,0,.13a1.41,1.41,0,0,0-.7-.39s.23.47.52,1.14c-.2.92-.36,2-.48,2.9-.08-.23-.16-.45-.25-.66l0,2.16c-.12-.33-.24-.67-.37-1-.2-1.23-.44-2.83-.51-4a19.93,19.93,0,0,1,.45-4.79s-1.23,4.08-1.49,5.21-1.55,6.33-1.55,6.33-.78-5.48-.39-7.45,1.29-5.91,1.29-5.91a20,20,0,0,0-2.13,5.06c-.39,2.11-1.23,7.46-1.23,7.46s-.45-6.61-.45-7.31-.84,3-.84,3l0,4.52s-1-6.51-2-8.24-3.83-1.12-3.83-1.12a4.19,4.19,0,0,1,3.39,3.12,27.29,27.29,0,0,1,.6,6.07s-1.28-4.16-1.51-4.16-.76-.69-.76-.69a14.71,14.71,0,0,1,.87,3.38c.08,1.3.08,2.17.08,2.17s-1.43.78-1.67-.69a16.05,16.05,0,0,1,0-3.56,3.56,3.56,0,0,0-1.08,2.17,22.13,22.13,0,0,1-.76,3,16.73,16.73,0,0,0-.56-5.55c-.8-2.35-1.59-2.43-1.59-2.43a20.92,20.92,0,0,1,1.27,4.86,13.86,13.86,0,0,1-.68,3.82,30.32,30.32,0,0,0-1.71-5.9c-1-1.91-1.27-2.6-1.27-2.6s.44,4.16.44,5.55a11.67,11.67,0,0,1-.32,2.6h-.35c-.07-.5-.14-1-.21-1.36a50.23,50.23,0,0,0-2.4-8,53.9,53.9,0,0,1,.94,6.82,7.27,7.27,0,0,1-.39,2.44h-.49l0,.1a12.5,12.5,0,0,1-.39-3.44,41.35,41.35,0,0,0-.14-4.32,24.69,24.69,0,0,0-.94,5.46c-.1,2.73-1,1.82-1,1.82s-1.25-4.09-.52-6.14-1.12,1.46-1.25,3.29a15.8,15.8,0,0,1-.45,2.95,1,1,0,0,1-1.1-.7c-.39-.85-.13-4.78-.13-4.78a12.41,12.41,0,0,0-.71,3c-.2,1.69-.76.87-.76.87s-.73-1.15.12-3.54,1.16-3.66,1.16-3.66a8.11,8.11,0,0,0-2.47,4.14,23.25,23.25,0,0,0-.18,4.16,5.43,5.43,0,0,1-2.18-2.45,14.3,14.3,0,0,1-.34-4.58s-.58.13-.91,2.11a24.07,24.07,0,0,0-.13,4.64,4.39,4.39,0,0,1-1.29-2.25c-.19-1.26.06-6.89.06-6.89a22.86,22.86,0,0,0-1.3,4.5c0,1.13-.06,3.94-.06,3.94s-1.36-3.23-1-5.06.45-3.24.45-3.24-.52.28-1,2.53a11.66,11.66,0,0,0,0,4.61,14.85,14.85,0,0,1-1.66-5,20,20,0,0,1,.46-4.78s-1.23,4.08-1.49,5.2-1.35,5.33-1.35,5.33-1-4.48-.59-6.45,1.29-5.91,1.29-5.91a20.12,20.12,0,0,0-2.13,5.06c-.39,2.11-1.23,7.46-1.23,7.46s-.45-6.61-.45-7.31-.84,3-.84,3l0,4.52s-1-6.51-2-8.24-1.44-5.62-1.44-5.62a58,58,0,0,0,1,7.62,27.17,27.17,0,0,1,.6,6.07s-1.28-4.17-1.51-4.17-.76-.69-.76-.69a15.14,15.14,0,0,1,.88,3.38c.08,1.3.08,2.17.08,2.17s-1.43.78-1.67-.69a16,16,0,0,1,0-3.55,3.54,3.54,0,0,0-1.08,2.16,21.93,21.93,0,0,1-.76,3,16.89,16.89,0,0,0-.56-5.55c-.8-2.34-1.6-2.43-1.6-2.43A20.9,20.9,0,0,1,75,329.06a13.85,13.85,0,0,1-.68,3.82,30.31,30.31,0,0,0-1.71-5.9c-1-1.9-1.27-2.6-1.27-2.6s.44,4.16.44,5.55a11.33,11.33,0,0,1-.18,1.94l0-.12a50.28,50.28,0,0,0-2.4-8,53.88,53.88,0,0,1,.94,6.82,7.6,7.6,0,0,1-.22,1.87l-.87,0a13.51,13.51,0,0,1-.24-2.75,41.93,41.93,0,0,0-.13-4.32,24.59,24.59,0,0,0-.94,5.46c-.11,2.73-1,1.82-1,1.82s-1.26-4.09-.52-6.14S65,328,64.87,329.81a16,16,0,0,1-.45,3,1,1,0,0,1-1.1-.7c-.38-.84-.13-4.78-.13-4.78a12.32,12.32,0,0,0-.71,3,13.78,13.78,0,0,0-.06,2.81,17,17,0,0,1-.9-5c0-2.39.37-4.9.16-4.69-.63.62-1.87,3.61-1.33,8.81a5.37,5.37,0,0,1-2.18-2.44,14.27,14.27,0,0,1-.34-4.59s-.58.14-.9,2.11a24,24,0,0,0-.13,4.64,4.36,4.36,0,0,1-1.3-2.25c-.19-1.26.06-6.89.06-6.89a22.9,22.9,0,0,0-1.29,4.5c0,1.13-.06,3.94-.06,3.94s-1.35-3.23-1-5.06.45-3.24.45-3.24-.51.28-1,2.53a46.8,46.8,0,0,0-.78,5.49A58.35,58.35,0,0,1,51,325a20,20,0,0,1,.45-4.79s-1.23,4.08-1.49,5.21-1.55,6.33-1.55,6.33-.77-5.48-.39-7.45,1.3-5.91,1.3-5.91a20.05,20.05,0,0,0-2.13,5.06c-.39,2.11-1.23,7.46-1.23,7.46s-.45-6.61-.45-7.31-.84,3-.84,3l0,4.52s-1-6.51-2-8.24-3.83-1.12-3.83-1.12a4.19,4.19,0,0,1,3.39,3.12,27.14,27.14,0,0,1,.6,6.07s-1.28-4.16-1.52-4.16-.76-.69-.76-.69a15,15,0,0,1,.88,3.38c.08,1.3.08,2.17.08,2.17s-1.44.78-1.67-.69a16.05,16.05,0,0,1,0-3.56,3.57,3.57,0,0,0-1.08,2.17,22.4,22.4,0,0,1-.76,3,16.73,16.73,0,0,0-.56-5.55c-.8-2.35-1.6-2.43-1.6-2.43a21,21,0,0,1,1.28,4.86,13.26,13.26,0,0,1-.63,3.65c0-.49,0-1-.07-1.35a56.32,56.32,0,0,0-2.22-7.87s.55,2.77.8,5v3.29a5.29,5.29,0,0,1-.6,1.72,11.37,11.37,0,0,1-.59-4.09,41.36,41.36,0,0,0-.14-4.32,24.84,24.84,0,0,0-.94,5.46c-.1,2.73-1,1.82-1,1.82s-1.25-4.09-.52-6.14S30,328,29.86,329.81a16.16,16.16,0,0,1-.45,3,1,1,0,0,1-1.1-.7c-.39-.84-.13-4.78-.13-4.78a12.46,12.46,0,0,0-.71,3A13.43,13.43,0,0,0,27.4,333S26,330,26.82,327.56,28,323.9,28,323.9A8.08,8.08,0,0,0,25.52,328a23.31,23.31,0,0,0-.18,4.16,5.36,5.36,0,0,1-2.18-2.44,14.2,14.2,0,0,1-.34-4.59s-.58.14-.9,2.11a24.1,24.1,0,0,0-.13,4.64,4.39,4.39,0,0,1-1.29-2.25c-.19-1.26.06-6.89.06-6.89a22.88,22.88,0,0,0-1.29,4.5c0,1.13-.07,3.94-.07,3.94s-1.36-3.23-1-5.06.45-3.24.45-3.24-.52.28-1,2.53a47.1,47.1,0,0,0-.77,5.49A57.1,57.1,0,0,1,16,325a19.94,19.94,0,0,1,.45-4.79s-1.23,4.08-1.49,5.21-1.55,6.33-1.55,6.33-.78-5.48-.39-7.45,1.29-5.91,1.29-5.91a20.13,20.13,0,0,0-2.13,5.06c-.39,2.11-1.23,7.46-1.23,7.46s-.45-6.61-.45-7.31-.84,3-.84,3l0,4.52s-1-6.51-2-8.24-3.83-1.12-3.83-1.12a4.19,4.19,0,0,1,3.39,3.12,27.21,27.21,0,0,1,.59,6.07s-1.27-4.16-1.51-4.16-.76-.69-.76-.69a15.07,15.07,0,0,1,.87,3.38c.08,1.3.08,2.17.08,2.17s-1.43.78-1.67-.69a16.09,16.09,0,0,1,0-3.56,3.54,3.54,0,0,0-1.07,2.17,21.82,21.82,0,0,1-.76,3,16.74,16.74,0,0,0-.56-5.55c-.8-2.35-1.59-2.43-1.59-2.43a21,21,0,0,1,1.28,4.86,14,14,0,0,1-.68,3.82S.68,330.64,0,328.65V341l0,4.45v19.21H435.5V341.24h0Zm-136-4.06c0,.2,0,.39,0,.57l-.14-.26a6.76,6.76,0,0,1-.48-2.45A8.41,8.41,0,0,1,299.45,329.45ZM293,326.15l0-.13a11.57,11.57,0,0,1,1,3.34,5.78,5.78,0,0,1-.07,1C293.41,329.29,292.7,327.4,293,326.15Zm-162.81,3.21a9.45,9.45,0,0,1-.56,3v-5.29A8.4,8.4,0,0,1,130.16,329.37Z"/></g></g></svg>