<svg xmlns="http://www.w3.org/2000/svg" viewBox="0 0 79.2 206.69"><defs><style>.cls-1,.cls-8{fill:#83983b;}.cls-2{fill:#f69127;}.cls-2,.cls-3,.cls-4,.cls-7,.cls-8{fill-rule:evenodd;}.cls-3,.cls-5{fill:#ec7a23;}.cls-4{fill:#f9a64d;}.cls-6,.cls-7{fill:#fcf177;}</style></defs><title>blomst</title><g id="Layer_2" data-name="Layer 2"><g id="Layer_1-2" data-name="Layer 1"><rect class="cls-1" x="42.93" y="45.93" width="3.34" height="160.76"/><path class="cls-2" d="M47,40.62s9.89,21.15,4,25.22S37.46,68,33.94,65.47s-.65-9.15,1.31-13.58,6.12-12,6.12-12Z"/><path class="cls-3" d="M33.84,65.54c3.44,2.44,10.89,4.34,16.7.59-2.58.32-7.83.75-11.24-.35-4.67-1.52-3.45-5.55-1.62-10.74,1.44-4.09,4.15-11.81,5.22-14.87L41.27,40s-4.17,7.58-6.13,12S30.32,63,33.84,65.54Z"/><path class="cls-4" d="M51,63.4s0,1.81-4.47,2.23-6.92-.16-8.52-1.17a3.35,3.35,0,0,1-1.22-2.06,15,15,0,0,0,6.19,1.73A43,43,0,0,0,51,63.4Z"/><path class="cls-2" d="M50.93,37.9s22.73,5.35,22.29,12.47S66.48,62.31,62.35,63.53s-7.58-5.16-9.85-9.45-5.63-12.25-5.63-12.25Z"/><path class="cls-3" d="M62.34,63.65c4.05-1.19,10.15-5.85,10.82-12.73-1.35,2.22-4.27,6.6-7.25,8.6-4.08,2.72-6.49-.73-9.42-5.38L48,40.81,46.87,42s3.36,8,5.62,12.25S58.2,64.86,62.34,63.65Z"/><path class="cls-4" d="M71.28,48.88s1.41,1.12-1,4.89-4.42,5.32-6.21,6a3.35,3.35,0,0,1-2.38-.32,14.91,14.91,0,0,0,5.2-3.78A43.23,43.23,0,0,0,71.28,48.88Z"/><path class="cls-2" d="M51.14,32.81s19.58-12.72,24.42-7.48,4,13.13,2,17-9,1.9-13.63.58-12.74-4.4-12.74-4.4Z"/><path class="cls-3" d="M77.62,42.38c1.95-3.75,2.8-11.39-1.71-16.62.66,2.51,1.82,7.65,1.2,11.19-.86,4.83-5,4.18-10.41,3.08L51.24,36.91v1.64S59.34,41.64,64,43,75.64,46.21,77.62,42.38Z"/><path class="cls-4" d="M73.14,25.71s1.79-.25,2.83,4.12.79,6.88,0,8.6a3.37,3.37,0,0,1-1.87,1.5A15,15,0,0,0,75,33.55,42.87,42.87,0,0,0,73.14,25.71Z"/><path class="cls-2" d="M47.75,27.81S54,5.31,61.12,6s11.66,7.21,12.7,11.39S68.36,24.8,64,26.89,51.52,32,51.52,32Z"/><path class="cls-3" d="M73.95,17.45c-1-4.1-5.43-10.39-12.28-11.32,2.16,1.44,6.43,4.53,8.3,7.6,2.56,4.18-1,6.45-5.76,9.2L50.55,30.8,51.65,32s8.09-3,12.47-5.12S75,21.63,73.95,17.45Z"/><path class="cls-4" d="M59.56,7.92s1.17-1.37,4.84,1.21,5.15,4.63,5.7,6.45a3.34,3.34,0,0,1-.41,2.35,15,15,0,0,0-3.57-5.34A42.85,42.85,0,0,0,59.56,7.92Z"/><path class="cls-2" d="M41.37,27.63S31.45,6.48,37.31,2.42,50.85.28,54.37,2.77s.66,9.15-1.29,13.58-6.11,12-6.11,12Z"/><path class="cls-3" d="M54.47,2.7C51,.25,43.58-1.63,37.77,2.12c2.58-.32,7.83-.76,11.25.35C53.69,4,52.48,8,50.65,13.2,49.21,17.29,46.51,25,45.44,28.08l1.63.22s4.16-7.58,6.11-12S58,5.19,54.47,2.7Z"/><path class="cls-4" d="M37.35,4.86s0-1.8,4.46-2.24,6.93.16,8.53,1.18a3.35,3.35,0,0,1,1.23,2.05,15,15,0,0,0-6.2-1.72A42.5,42.5,0,0,0,37.35,4.86Z"/><path class="cls-2" d="M37.41,30.36S14.67,25,15.11,17.91,21.84,6,26,4.74s7.58,5.15,9.85,9.43,5.63,12.24,5.63,12.24Z"/><path class="cls-3" d="M26,4.62c-4.05,1.19-10.15,5.85-10.81,12.74,1.35-2.22,4.27-6.61,7.25-8.61,4.08-2.73,6.49.72,9.43,5.37,2.32,3.68,6.7,10.58,8.45,13.32l1.18-1.14s-3.36-8-5.63-12.24S30.11,3.4,26,4.62Z"/><path class="cls-4" d="M17,19.39s-1.42-1.11,1-4.89,4.42-5.33,6.21-6a3.35,3.35,0,0,1,2.37.31,15,15,0,0,0-5.19,3.8A42.91,42.91,0,0,0,17,19.39Z"/><path class="cls-2" d="M37.21,35.45S17.63,48.18,12.8,42.94s-4-13.12-2-16.95,9-1.91,13.63-.59,12.74,4.4,12.74,4.4Z"/><path class="cls-3" d="M10.71,25.9c-1.95,3.75-2.79,11.39,1.73,16.62-.67-2.51-1.83-7.65-1.2-11.18.85-4.84,5-4.19,10.4-3.1,4.26.87,12.28,2.47,15.46,3.11V29.71S29,26.63,24.34,25.31,12.69,22.08,10.71,25.9Z"/><path class="cls-4" d="M15.21,42.56s-1.78.25-2.83-4.11-.8-6.88,0-8.61a3.34,3.34,0,0,1,1.87-1.5,14.93,14.93,0,0,0-.85,6.37A43,43,0,0,0,15.21,42.56Z"/><path class="cls-2" d="M40.59,40.45s-6.25,22.5-13.35,21.77S15.58,55,14.53,50.85s5.46-7.37,9.83-9.47,12.46-5.13,12.46-5.13Z"/><path class="cls-3" d="M14.41,50.83c1,4.1,5.44,10.39,12.29,11.32-2.16-1.44-6.43-4.53-8.31-7.59-2.56-4.19,1-6.46,5.75-9.2l13.65-7.9-1.1-1.23s-8.09,3-12.46,5.14S13.36,46.65,14.41,50.83Z"/><path class="cls-4" d="M28.8,60.35S27.64,61.72,24,59.14s-5.15-4.63-5.71-6.44a3.35,3.35,0,0,1,.42-2.36,14.92,14.92,0,0,0,3.58,5.34A43.26,43.26,0,0,0,28.8,60.35Z"/><ellipse class="cls-5" cx="43.27" cy="34.61" rx="12.87" ry="12.71"/><ellipse class="cls-6" cx="49.44" cy="42.13" rx="2.07" ry="2.04"/><path class="cls-7" d="M46.21,37.08a2.07,2.07,0,1,1,2.07,2A2.06,2.06,0,0,1,46.21,37.08Z"/><ellipse class="cls-6" cx="47.7" cy="31.46" rx="2.07" ry="2.04"/><ellipse class="cls-6" cx="51.19" cy="28.15" rx="2.07" ry="2.04"/><path class="cls-7" d="M44.27,25.44a2.07,2.07,0,1,1,2.07,2A2.05,2.05,0,0,1,44.27,25.44Z"/><ellipse class="cls-6" cx="36.84" cy="26.35" rx="2.07" ry="2.05"/><ellipse class="cls-6" cx="34.89" cy="30.09" rx="2.07" ry="2.04"/><ellipse class="cls-6" cx="34.69" cy="35.14" rx="2.07" ry="2.04"/><ellipse class="cls-6" cx="34.31" cy="38.63" rx="2.07" ry="2.04"/><path class="cls-7" d="M42.54,27.77a2.07,2.07,0,1,1,2.07,2A2.06,2.06,0,0,1,42.54,27.77Z"/><ellipse class="cls-6" cx="39.62" cy="30.1" rx="2.07" ry="2.04"/><path class="cls-7" d="M40.39,39.41a2.07,2.07,0,1,1,2.06,2A2.06,2.06,0,0,1,40.39,39.41Z"/><ellipse class="cls-6" cx="44.78" cy="34.36" rx="2.07" ry="2.04"/><ellipse class="cls-6" cx="42.85" cy="30.68" rx="2.07" ry="2.05"/><ellipse class="cls-6" cx="40.84" cy="26.02" rx="2.07" ry="2.04"/><ellipse class="cls-6" cx="37.8" cy="32.81" rx="2.07" ry="2.04"/><path class="cls-7" d="M50.48,37a2.07,2.07,0,1,1,2.07,2A2,2,0,0,1,50.48,37Z"/><ellipse class="cls-6" cx="45.95" cy="40.57" rx="2.07" ry="2.04"/><ellipse class="cls-6" cx="37.41" cy="40.19" rx="2.07" ry="2.04"/><ellipse class="cls-6" cx="39.94" cy="43.68" rx="2.07" ry="2.04"/><ellipse class="cls-6" cx="44.4" cy="45.04" rx="2.07" ry="2.04"/><ellipse class="cls-6" cx="51.19" cy="32.43" rx="2.07" ry="2.04"/><ellipse class="cls-6" cx="40.9" cy="35.73" rx="2.07" ry="2.04"/><path class="cls-8" d="M45,97.91s-1.45-7.14,8.48-12.22,17.2-7.85,17.2-7.85a19,19,0,0,1-6.57,14.7C56.89,98.82,45,97.91,45,97.91Z"/><path class="cls-8" d="M45.49,163.08S43,146.25,27.94,142A113.27,113.27,0,0,0,0,137.65S.36,148,14.33,155.56,45.49,163.08,45.49,163.08Z"/></g></g></svg>