<svg xmlns="http://www.w3.org/2000/svg" viewBox="0 0 490.07 765.98"><defs><style>.cls-1{fill:#fff;}.cls-2{fill:#292648;}.cls-3{fill:#f7931e;}.cls-4{fill:#bec4fc;}.cls-5{fill:#d05c36;}.cls-6{fill:#6d4639;}.cls-7{fill:#932703;}.cls-8{fill:#7d8af9;}.cls-9{fill:#756fa7;}</style></defs><title>EvilBee</title><g id="Layer_2" data-name="Layer 2"><g id="Character"><g id="Bee"><path class="cls-1" d="M375.46,438.55c6.3-2.74,12.2-4.51,17.23-7.65,14.75-9.22,29.35-18.47,45.65-25,8.16-3.27,15.41-9,22.79-14,8.92-6,15-14.83,19.64-24.21,6.24-12.73,9.09-26.61,9.29-40.86A49.88,49.88,0,0,0,488.44,315c-3.65-15.64-13.3-26.2-27.51-33.46-19.42-9.93-38.47-10.12-57.57.37-12.43,6.82-23.22,16.05-33.26,25.74-12.82,12.37-24.17,26.26-36.2,39.46a29.89,29.89,0,0,1-3.57,2.88l-10.85-12.21c3.26-3.71,6.12-7.39,9.41-10.64A51.28,51.28,0,0,0,342,306.36c6.26-19.3,7.58-38.86,3.21-58.82-2.55-11.65-6-23-11.9-33.29-6.24-10.85-13.83-20.35-25-27.22-15-9.19-30.13-17.35-47.5-20.81a7.2,7.2,0,0,1-1.84-1.08c.45-26.19,4.53-52,8.06-77.9a523.76,523.76,0,0,0,4.55-53.36q.47-14,.92-28.09c0-.67.31-1.53,0-2A49,49,0,0,0,269.29,0c-1.1,1.17-3,2.23-3.17,3.54a60,60,0,0,0-.68,12,303.14,303.14,0,0,1-2,52.84c-.84,6.85-2.45,13.62-3.24,20.47-2.69,23.3-5.16,46.62-7.76,69.93-.23,2.11-.79,4.18-1.15,6.07l-21.21,1.71a124.53,124.53,0,0,1-5.41-26.7c-.63-6.89-1.8-13.73-2.55-20.61-1.43-13.09-2.93-26.19-4-39.31C217,67,216.79,54.05,215.4,41.18c-1.13-10.42-3.42-20.71-5.28-31a10.4,10.4,0,0,0-1.56-4.37c-.9-1.19-2.49-1.85-3.78-2.75l-1.34.81a40.38,40.38,0,0,0,.39,5.6,449.07,449.07,0,0,1,8.61,75.76c.12,3.34.45,6.68.87,10,1.75,13.73,3.58,27.45,5.36,41.17,1.15,8.85,2.24,17.7,3.38,26.55.22,1.72.53,3.42.87,5.6-3.65,1.24-7.18,2-10.31,3.58-8.36,4.18-17,8-24.67,13.27-8.38,5.82-15.8,13.05-23.45,19.87a28.56,28.56,0,0,0-6.41,7.66c-4.24,8.09-8.58,16.21-11.81,24.73a84,84,0,0,0-4.37,44.1c3,18.3,8.2,35.59,17.71,51.53,1.56,2.62,3.19,5.2,4.82,7.84l-11.65,12.81a19.34,19.34,0,0,1-2.38-1.84c-7.22-7.92-14.63-15.69-21.56-23.86-9.4-11.08-18.84-22.1-29.89-31.61-12.78-11-26.48-19.23-44.33-19.26-11.25,0-21,3.22-30.44,8.55a32.92,32.92,0,0,0-12.78,12.44C.66,317-1.57,337,.93,357.93a20.92,20.92,0,0,0,1.7,5.77,85.47,85.47,0,0,0,20,28.25c8.46,8,17.19,15.63,26,23.22,6.95,6,14.44,11.31,23,14.79s17.49,6.74,26.21,10.18c4.5,1.78,8.92,3.76,13.74,5.8-.84,2.87-1.44,5-2.07,7.07-1.46,4.88-3.73,9.68-4.25,14.66-1.32,12.62-2,25.31-2.64,38-.35,7.12,1.79,14.54-3,20.09,1.91,3.41,4.11,6,4.93,9.05,2.51,9.26,4.27,18.71,6.74,28,1.73,6.46,4.26,12.7,6.21,19.11,1,3.15.91,6.66,2.19,9.64,3.52,8.15,7.45,16.13,11.33,24.13,1.94,4,4,8,6.22,11.85,10.48,17.82,25.38,31.63,41.09,44.62,13.25,11,28.39,17.62,45.67,19.11,2.85.25,5.66,1,8.17,1.44,3.82,8.21,4.85,16.58,6.28,25,2.55,15,6,29.75,9.06,44.61.43,2.08,1.25,4.33,3.77,3.6,1.24-.35,2.52-2.34,2.83-3.79a87.92,87.92,0,0,0,1.68-11.92,407.05,407.05,0,0,1,7.45-54.36c.74-3.46,2.15-4.77,5.49-5.44,5.66-1.14,11.51-2.19,16.72-4.52a127.79,127.79,0,0,0,37.75-26.15c4.6-4.54,8.66-9.63,12.95-14.48,12.22-13.82,21.94-29.16,28.27-46.55,1.09-3,2.13-5.76,5.63-7,1-.34,2.31-2.86,1.93-3.63-2.43-5,.45-9.1,1.72-13.47,2.62-9,5.7-17.86,7.83-27,1.57-6.68,1.85-13.65,2.85-20.47.53-3.59,1.39-7.14,2-10.37C382.63,490.87,383.32,464.41,375.46,438.55Z"/><path class="cls-2" d="M375.46,438.55c7.86,25.86,7.17,52.33,10.93,78.21-.64,3.24-1.5,6.78-2,10.37-1,6.82-1.29,13.79-2.85,20.47-2.13,9.1-5.21,18-7.83,27-1.27,4.37-4.15,8.48-1.72,13.47.38.77-.93,3.29-1.93,3.63-3.5,1.21-4.54,4-5.63,7-6.33,17.39-16,32.73-28.27,46.55-4.29,4.85-8.35,9.94-12.95,14.48a127.79,127.79,0,0,1-37.75,26.15c-5.22,2.33-11.06,3.38-16.72,4.52-3.33.67-4.75,2-5.49,5.44a407.05,407.05,0,0,0-7.45,54.36A87.92,87.92,0,0,1,254.09,762c-.31,1.45-1.59,3.44-2.83,3.79-2.52.72-3.33-1.52-3.77-3.6-3.07-14.86-6.51-29.66-9.06-44.61-1.43-8.38-2.46-16.75-6.28-25-2.51-.45-5.32-1.19-8.17-1.44-17.28-1.49-32.42-8.15-45.67-19.11-15.72-13-30.61-26.8-41.09-44.62-2.26-3.84-4.27-7.84-6.22-11.85-3.87-8-7.81-16-11.33-24.13-1.28-3-1.23-6.49-2.19-9.64-1.95-6.41-4.48-12.65-6.21-19.11-2.47-9.27-4.24-18.72-6.74-28-.82-3-3-5.64-4.93-9.05,4.76-5.55,2.62-13,3-20.09.62-12.68,1.32-25.37,2.64-38,.52-5,2.79-9.78,4.25-14.66.63-2.1,1.23-4.21,2.07-7.07-4.82-2-9.24-4-13.74-5.8C89.09,436.7,80.28,433.49,71.6,430s-16.07-8.79-23-14.79c-8.79-7.59-17.52-15.27-26-23.22a85.47,85.47,0,0,1-20-28.25,20.92,20.92,0,0,1-1.7-5.77c-2.5-20.9-.27-41,10.46-59.59A32.92,32.92,0,0,1,24.17,285.9c9.46-5.34,19.2-8.57,30.44-8.55,17.85,0,31.55,8.27,44.33,19.26,11.05,9.51,20.49,20.53,29.89,31.61,6.93,8.17,14.34,15.94,21.56,23.86a19.34,19.34,0,0,0,2.38,1.84l11.65-12.81c-1.62-2.64-3.25-5.22-4.82-7.84-9.5-15.94-14.74-33.23-17.71-51.53a84,84,0,0,1,4.37-44.1c3.23-8.51,7.57-16.64,11.81-24.73a28.56,28.56,0,0,1,6.41-7.66c7.65-6.82,15.07-14.05,23.45-19.87,7.62-5.3,16.31-9.09,24.67-13.27,3.13-1.57,6.66-2.34,10.31-3.58-.34-2.17-.65-3.88-.87-5.6-1.14-8.85-2.23-17.7-3.38-26.55-1.78-13.72-3.61-27.44-5.36-41.17-.42-3.32-.75-6.66-.87-10a449.07,449.07,0,0,0-8.61-75.76,40.38,40.38,0,0,1-.39-5.6L204.78,3c1.29.89,2.88,1.56,3.78,2.75a10.4,10.4,0,0,1,1.56,4.37c1.85,10.34,4.15,20.63,5.28,31C216.79,54.05,217,67,218.07,80c1.1,13.12,2.6,26.22,4,39.31.75,6.88,1.92,13.72,2.55,20.61a124.53,124.53,0,0,0,5.41,26.7l21.21-1.71c.37-1.89.92-4,1.15-6.07,2.6-23.31,5.07-46.63,7.76-69.93.79-6.86,2.41-13.62,3.24-20.47a303.14,303.14,0,0,0,2-52.84,60,60,0,0,1,.68-12c.2-1.31,2.06-2.37,3.17-3.54a49,49,0,0,1,3.2,3.83c.31.44,0,1.3,0,2q-.46,14-.92,28.09A523.76,523.76,0,0,1,267,87.25c-3.53,25.85-7.61,51.71-8.06,77.9a7.2,7.2,0,0,0,1.84,1.08c17.37,3.46,32.53,11.61,47.5,20.81,11.19,6.87,18.78,16.37,25,27.22,5.93,10.3,9.35,21.65,11.9,33.29,4.37,20,3.05,39.53-3.21,58.82a51.28,51.28,0,0,1-13.12,20.76c-3.29,3.25-6.15,6.93-9.41,10.64L330.34,350a29.89,29.89,0,0,0,3.57-2.88c12-13.2,23.37-27.1,36.2-39.46,10-9.69,20.84-18.92,33.26-25.74,19.1-10.49,38.15-10.3,57.57-.37,14.21,7.26,23.86,17.82,27.51,33.46a49.88,49.88,0,0,1,1.62,11.87c-.2,14.24-3,28.12-9.29,40.86-4.6,9.38-10.72,18.16-19.64,24.21-7.38,5-14.64,10.69-22.79,14-16.3,6.54-30.9,15.79-45.65,25C387.66,434,381.76,435.8,375.46,438.55ZM230.94,362.71c3.78,0,7.61.39,11.34-.08,9.93-1.25,19.82-2.86,29.73-4.34,10.84-1.62,20.78-5.48,28.87-13,7.32-6.78,14.44-13.81,21.16-21.18a62.27,62.27,0,0,0,10-14.16,82.7,82.7,0,0,0,8.43-43.46c-1.1-14.46-6.25-27.8-10.26-41.49-2-6.84-6.06-12.28-10.67-17.56-8.34-9.57-18.43-16.77-29.41-22.9a100.42,100.42,0,0,0-29.36-11c-13.48-2.7-26.7-.3-39.61,3.32-13.42,3.76-26.07,9.37-36.22,19.39-4.1,4-7.8,8.52-12.07,12.37a69.08,69.08,0,0,0-17.75,25.66c-5.18,12.71-9,25.79-7,39.75,1.09,7.73,2.57,15.4,4,23.07a27.41,27.41,0,0,0,2.26,7c4.77,9.59,9.5,19.22,14.67,28.59a44.58,44.58,0,0,0,19.47,18.84C201.91,358.14,215.85,362.71,230.94,362.71Zm-119,173.69a9.4,9.4,0,0,0-.26,1.94c2.55,16.42,7.77,32.09,13.54,47.59a9.7,9.7,0,0,0,4.15,5c6.36,3.19,12.72,6.89,19.53,8.57,20.2,5,40.84,7.2,61.63,8.5,26.88,1.68,53.56-1.1,80.29-2.68,7.34-.44,14.63-1.64,22-2.22,16.05-1.28,30.77-7.13,45.55-12.88,2.86-1.11,5.22-2.65,6.16-5.67,3.88-12.57,7.94-25.09,11.42-37.78,1.46-5.33,1.76-11,2.36-16.52.2-1.82-.32-3.72-.55-5.91a22.14,22.14,0,0,0-3.31,1c-15.52,8.47-32.64,12-49.64,15.61-11.54,2.45-23.47,3.1-35,5.57-20,4.28-40.34,4.75-60.62,5-16.5.18-33-1.07-49.54-1.67-14.76-.54-29.42-1.72-43.64-6.21C128.08,541.15,120.17,538.88,111.89,536.39ZM373.5,433.23c7.66-3.27,14.57-6,21.07-10,10.45-6.41,20.7-13.45,31.9-18.2a152.91,152.91,0,0,0,27.6-14.75,63.8,63.8,0,0,0,23.27-29.44c3.6-8.94,5.38-18.34,6.61-27.93a43.79,43.79,0,0,0-8.08-31.64c-8.43-12-21.21-17.43-35.06-20.32a47.55,47.55,0,0,0-19.26.38c-12.76,2.58-23,9.82-32.74,17.52a272.07,272.07,0,0,0-33.67,31.49C348,338.2,339.9,345.49,337,356.13a49.31,49.31,0,0,1,4,5.07c1.35,2.22,2,4.88,3.54,7a139.68,139.68,0,0,1,21.12,43C367.82,418.4,370.7,425.38,373.5,433.23ZM148.17,360.51c-1.25-1.77-1.81-2.73-2.53-3.56Q132.77,342,119.86,327C108.14,313.47,96,300.47,80.4,291.12c-15.86-9.51-32.05-10.1-48.57-2.41-7.83,3.65-14,9.06-17.91,17.28-5.37,11.38-7.17,23.21-7.76,35.63-.66,14,4,25.61,12.65,36.32,10.31,12.83,23.67,22.31,35.59,33.36,16.07,14.89,37.16,19.87,56.84,27.54a7.36,7.36,0,0,0,2.24,0,39,39,0,0,0,2.32-5.38c3.62-13.4,9-26.14,14.31-38.9,1.55-3.7,2.73-7.66,4.86-11,3.77-5.92,6.73-12,7.09-18.71ZM110.59,475.43a227.88,227.88,0,0,0-1.77,45.33c.38,5.57,3.17,8.53,7.83,10.41,15.42,6.24,31.38,10.94,47.94,12,29.84,1.86,59.64,3.91,89.68,1.81,19.69-1.38,38.92-5.21,58.41-7.53,9.9-1.18,19.56-4.4,29.36-6.54,12.92-2.82,25.29-6.95,36.8-14.72.64-15.82-1.41-31.66-4.35-48.19-13.82,4.78-27.5,8.37-40.16,14.16-15.57,7.13-31.84,10.47-48.51,11.89-18,1.54-36.14,1.79-54.22,2.47a90.34,90.34,0,0,1-12-.48c-17.12-1.66-34.22-3.43-51.33-5.18-15.12-1.54-30.29-2.75-44.23-9.76C119.88,479,115.5,477.48,110.59,475.43Zm15.49-53.57c-4.92,14.2-10.15,28.62-13.21,43.71-.27,1.32.86,3.45,2,4.43a29.93,29.93,0,0,0,6.39,3.62c13.65,6.65,28.2,9.81,43.23,11.17,18.69,1.69,37.37,3.56,56.07,5.17,6.21.53,12.46.63,18.7.66,3.56,0,7.13-.77,10.69-.74a331.49,331.49,0,0,0,56.73-4.35,77.91,77.91,0,0,0,21.64-6.77,123.08,123.08,0,0,1,12.4-5c4.62-1.64,9.41-2.83,14-4.56,6.22-2.35,12.32-5,18.79-7.68-1.06-8.88.07-18-8.64-23.39,3.22-9.38-3-16.31-5.38-24.74-4.14,1.62-7.5,2.77-10.73,4.22-17,7.64-34.46,13.69-53.06,15.89-7.75.92-15.57,1.31-23.33,2.18-16.2,1.82-32.35,3.46-48.71,3.87a378.61,378.61,0,0,1-43.5-1,73.74,73.74,0,0,1-16.42-3C151.46,431.43,139.4,426.73,126.08,421.86Zm231.09-14.34c-3.62-15.24-14-33.7-22.36-40.54-61.95,23.76-124.28,23.79-187.27,5.16-6.91,13.82-14.14,27.07-18.73,42.07a82.53,82.53,0,0,0,8.06,5c5.44,2.57,11,4.88,16.58,7.19,18.2,7.53,37.49,7.66,56.7,8.08,6.23.13,12.47-.61,18.71-1,9.8-.63,19.61-1.21,29.39-2,5.33-.44,10.63-1.81,15.95-1.86,14.18-.13,28-2.44,41.68-5.85C330.21,420.15,343.66,414.22,357.17,407.53ZM359,596.47c-3.51,1.14-5.8,1.69-7.92,2.61a125.78,125.78,0,0,1-42,10.4c-15.14,1-30.29,2-45.4,3.31a372.54,372.54,0,0,1-92.15-3c-13.33-2.12-26.7-4.19-39.18-9.62-.33.83-.52,1.06-.47,1.21,5.17,14.87,12.12,28.76,22.88,40.45,3.08,3.34,5.6,7.68,11.24,7.34.9-.05,1.83,1.16,2.8,1.7a71.31,71.31,0,0,0,7,3.74c14.06,5.84,28.89,7.61,43.93,7.65,17,.05,33.93-.27,50.89-.65a51.94,51.94,0,0,0,11.87-1.75c8.2-2.15,16.27-4.78,24.44-7.05a90.63,90.63,0,0,1,13.67-3.1,10.65,10.65,0,0,0,6.85-3.49c12.1-12.43,21.45-26.76,29.14-42.22C357.57,602.09,358,599.92,359,596.47ZM313.71,343.31c-1.18,1-2.13,1.95-3.15,2.77-6.78,5.42-13,11.82-21.35,14.76a115.8,115.8,0,0,1-18.67,4.95c-14.12,2.42-27.78,6.28-42.75,4.65-21.46-2.34-40.95-7.81-57.26-22.42-.28-.25-.84-.17-1.26-.24a39.73,39.73,0,0,0-17,18.8c2.24.86,4.43,1.84,6.7,2.55,23.42,7.31,47.56,9.87,71.93,10.59a266.67,266.67,0,0,0,54.61-4.22c13.32-2.37,26.23-7.06,39.27-10.89,2.17-.64,4.09-2.17,6.67-3.59C325.15,354.63,320.9,347.7,313.71,343.31ZM177.13,661.67l-.86,1.4c8.39,6.13,16.24,13.14,26.08,17,10.26,4.06,21.13,4.76,32,6,12.3,1.4,24-.72,35.91-2.15,5-.6,9.76-3,14.55-4.81,10.21-3.81,18.31-11,27.05-17.15a46.25,46.25,0,0,0,5-4.68A5,5,0,0,0,313,657c-8.77,2.63-17.44,5.65-26.33,7.8a102.07,102.07,0,0,1-19.79,2.78c-12.27.49-24.57.21-36.86.38-14.79.21-29.49-.54-43.94-4C183.09,663.25,180.12,662.44,177.13,661.67Zm62.73,31.1c4,16.16,3.84,32.44,10.17,47.67l7.4-47.67Z"/><path class="cls-3" d="M230.94,362.71c-15.08,0-29-4.57-42.35-11.12a44.58,44.58,0,0,1-19.47-18.84c-5.17-9.38-9.9-19-14.67-28.59a27.41,27.41,0,0,1-2.26-7c-1.47-7.67-3-15.34-4-23.07-2-14,1.82-27,7-39.75a69.08,69.08,0,0,1,17.75-25.66c4.27-3.85,8-8.32,12.07-12.37,10.15-10,22.8-15.63,36.22-19.39,12.92-3.62,26.13-6,39.61-3.32a100.42,100.42,0,0,1,29.36,11c11,6.13,21.06,13.33,29.41,22.9,4.61,5.28,8.66,10.72,10.67,17.56,4,13.68,9.16,27,10.26,41.49A82.7,82.7,0,0,1,332.06,310a62.27,62.27,0,0,1-10,14.16c-6.72,7.36-13.85,14.39-21.16,21.18-8.1,7.5-18,11.37-28.87,13-9.91,1.48-19.8,3.09-29.73,4.34C238.55,363.1,234.72,362.71,230.94,362.71Zm38.52-56.09c-6.06,1-11,2.42-15.92,2.54-8.25.2-16.51-.47-24.77-.67-5.33-.13-10.67.06-16-.11-3.52-.11-7.06-1-10.54-.81-7.61.51-15.13.66-22.47-1.8-2.08-.7-4.32-1-5.21,1.21-.52,1.29.08,3.45.88,4.8a75.67,75.67,0,0,0,25.48,26.12c6.42,3.91,14.47,5.51,22,7.08,4.91,1,10.25-.25,15.34.16,13.42,1.08,25.88-2.29,37.22-8.86,9.41-5.46,18-12.32,26.87-18.71a15.31,15.31,0,0,0,4.44-4.93,6.28,6.28,0,0,0,.18-4.89c-.33-.76-2.65-.95-4-.9-4,.13-8,.59-12,.78-3.57.17-7.17-.09-10.71.27C276,308.35,271.79,309,269.46,306.62Zm-89.64-62c.32,7.41,1.8,15,8.47,19.32,9.63,6.25,20.46,5.93,30.9,2,13.53-5.07,14-24.12,8.23-32.08-6.84-9.49-16.52-14-28.15-14.28a9.17,9.17,0,0,0-5.07,1.18C185.83,226.46,180.3,233.92,179.81,244.65Zm97.42,30.6c16.47-.35,28.16-15.41,23.88-31.06-1.53-5.58-4.55-10.79-9.52-13.24-5.65-2.78-12.21-3.69-18.38-5.4a1.39,1.39,0,0,0-.65.12c-9.68,2.69-17.16,7.73-18.88,18.45a58.62,58.62,0,0,0-.87,12.63c.45,7.53,6.94,15.66,13.17,16.95C269.69,274.46,273.48,274.75,277.23,275.25ZM236,268.36c-10-.74-20.36,6.66-18.63,19,.69,5,3,8.82,7.63,10,5.34,1.35,11,1.57,16.52,2.07,2.38.21,4.11-1.41,3.61-3.65-.25-1.14-2.38-2.37-3.83-2.65-2.79-.54-5.76-.15-8.56-.64-4.43-.78-7.63-4.43-7.63-8.12,0-4.21,2.41-7.38,7-8.34,2.49-.51,5.18-.11,7.78,0,2.22.06,4.09-.48,4.57-2.92s-1-3.81-3.19-4.27A43.48,43.48,0,0,0,236,268.36ZM283.22,208c-.34-3.36-2.24-4.1-5.19-2.63-6.33,3.16-12.64,6.36-18.79,9.85-1.19.67-2.52,3-2.19,4.06.77,2.47,3.09,2,5,1.06,6.15-3,12.33-6,18.36-9.22C281.77,210.38,282.61,208.7,283.22,208Zm-57.5,13.76c.85-.83,2.49-1.73,2.44-2.52-.11-1.56-.72-3.73-1.88-4.46-4.71-3-9.69-5.48-14.61-8.11-1.8-1-3.76-2-5.17.57s.25,3.64,2.09,4.78c4.55,2.8,9.05,5.69,13.63,8.47A20.6,20.6,0,0,0,225.72,221.75Z"/><path class="cls-3" d="M111.89,536.39c8.28,2.49,16.19,4.76,24,7.24,14.21,4.49,28.87,5.67,43.64,6.21,16.51.6,33,1.85,49.54,1.67,20.28-.22,40.58-.68,60.62-5,11.54-2.47,23.46-3.12,35-5.57,17-3.6,34.12-7.14,49.64-15.61a22.14,22.14,0,0,1,3.31-1c.23,2.19.75,4.09.55,5.91-.6,5.53-.9,11.2-2.36,16.52-3.48,12.68-7.54,25.21-11.42,37.78-.93,3-3.29,4.56-6.16,5.67-14.77,5.75-29.49,11.6-45.55,12.88-7.34.58-14.63,1.79-22,2.22-26.74,1.59-53.41,4.36-80.29,2.68-20.79-1.3-41.43-3.51-61.63-8.5-6.81-1.68-13.17-5.38-19.53-8.57a9.7,9.7,0,0,1-4.15-5c-5.77-15.5-11-31.17-13.54-47.59A9.4,9.4,0,0,1,111.89,536.39Z"/><path class="cls-4" d="M373.5,433.23c-2.8-7.84-5.68-14.82-7.79-22a139.68,139.68,0,0,0-21.12-43c-1.51-2.08-2.18-4.74-3.54-7a49.31,49.31,0,0,0-4-5.07c2.89-10.64,11-17.93,18.12-25.83a272.07,272.07,0,0,1,33.67-31.49c9.76-7.7,20-14.93,32.74-17.52a47.55,47.55,0,0,1,19.26-.38c13.85,2.88,26.63,8.35,35.06,20.32a43.79,43.79,0,0,1,8.08,31.64c-1.23,9.58-3,19-6.61,27.93a63.8,63.8,0,0,1-23.27,29.44A152.91,152.91,0,0,1,426.47,405c-11.19,4.75-21.45,11.8-31.9,18.2C388.07,427.18,381.16,430,373.5,433.23Z"/><path class="cls-4" d="M148.17,360.51l-6.11,4.38c-.36,6.7-3.33,12.79-7.09,18.71-2.13,3.34-3.31,7.3-4.86,11-5.33,12.76-10.7,25.5-14.31,38.9a39,39,0,0,1-2.32,5.38,7.36,7.36,0,0,1-2.24,0c-19.68-7.67-40.77-12.65-56.84-27.54-11.92-11-25.28-20.53-35.59-33.36-8.6-10.71-13.31-22.28-12.65-36.32.59-12.42,2.39-24.26,7.76-35.63,3.88-8.22,10.09-13.64,17.91-17.28,16.52-7.69,32.72-7.1,48.57,2.41C96,300.47,108.14,313.47,119.86,327q12.94,14.93,25.78,29.95C146.35,357.78,146.92,358.74,148.17,360.51Z"/><path class="cls-2" d="M110.59,475.43c4.92,2,9.3,3.57,13.4,5.64,13.94,7,29.11,8.22,44.23,9.76,17.11,1.75,34.21,3.52,51.33,5.18a90.34,90.34,0,0,0,12,.48c18.08-.67,36.21-.93,54.22-2.47,16.67-1.42,32.94-4.76,48.51-11.89,12.66-5.8,26.34-9.39,40.16-14.16,2.93,16.53,5,32.37,4.35,48.19-11.51,7.77-23.88,11.9-36.8,14.72-9.8,2.14-19.45,5.36-29.36,6.54-19.49,2.33-38.72,6.16-58.41,7.53-30,2.1-59.84.05-89.68-1.81-16.55-1-32.52-5.74-47.94-12-4.66-1.88-7.45-4.84-7.83-10.41A227.88,227.88,0,0,1,110.59,475.43Z"/><path class="cls-3" d="M126.08,421.86c13.33,4.87,25.39,9.57,37.66,13.62a73.74,73.74,0,0,0,16.42,3,378.61,378.61,0,0,0,43.5,1c16.36-.41,32.52-2.05,48.71-3.87,7.76-.87,15.58-1.26,23.33-2.18,18.6-2.2,36.07-8.25,53.06-15.89,3.23-1.45,6.59-2.6,10.73-4.22,2.43,8.43,8.61,15.37,5.38,24.74,8.71,5.43,7.58,14.51,8.64,23.39-6.46,2.66-12.56,5.34-18.79,7.68-4.59,1.73-9.37,2.91-14,4.56a123.08,123.08,0,0,0-12.4,5,77.91,77.91,0,0,1-21.64,6.77,331.49,331.49,0,0,1-56.73,4.35c-3.56,0-7.12.75-10.69.74-6.23,0-12.49-.12-18.7-.66-18.7-1.61-37.37-3.48-56.07-5.17-15-1.36-29.58-4.52-43.23-11.17a29.93,29.93,0,0,1-6.39-3.62c-1.15-1-2.27-3.1-2-4.43C115.93,450.48,121.16,436.06,126.08,421.86Z"/><path class="cls-2" d="M357.17,407.53c-13.51,6.7-27,12.62-41.3,16.2-13.67,3.41-27.5,5.72-41.68,5.85-5.32,0-10.61,1.42-15.95,1.86-9.79.8-19.59,1.38-29.39,2-6.23.4-12.48,1.14-18.71,1-19.2-.41-38.5-.54-56.7-8.08-5.56-2.3-11.14-4.61-16.58-7.19a82.53,82.53,0,0,1-8.06-5c4.59-15,11.82-28.25,18.73-42.07,63,18.63,125.32,18.6,187.27-5.16C343.17,373.83,353.55,392.28,357.17,407.53Z"/><path class="cls-2" d="M359,596.47c-1.09,3.45-1.48,5.62-2.42,7.5-7.69,15.46-17,29.79-29.14,42.22a10.65,10.65,0,0,1-6.85,3.49,90.63,90.63,0,0,0-13.67,3.1c-8.17,2.27-16.24,4.91-24.44,7.05a51.94,51.94,0,0,1-11.87,1.75c-17,.38-33.93.7-50.89.65-15,0-29.87-1.81-43.93-7.65a71.31,71.31,0,0,1-7-3.74c-1-.54-1.91-1.75-2.8-1.7-5.64.33-8.16-4-11.24-7.34-10.76-11.69-17.71-25.58-22.88-40.45-.05-.15.14-.39.47-1.21,12.48,5.43,25.85,7.5,39.18,9.62a372.54,372.54,0,0,0,92.15,3c15.11-1.35,30.26-2.34,45.4-3.31a125.78,125.78,0,0,0,42-10.4C353.25,598.16,355.54,597.61,359,596.47Z"/><path class="cls-3" d="M313.71,343.31c7.19,4.39,11.44,11.32,17.72,17.69-2.59,1.42-4.5,3-6.67,3.59-13,3.83-26,8.51-39.27,10.89a266.67,266.67,0,0,1-54.61,4.22c-24.38-.72-48.51-3.28-71.93-10.59-2.27-.71-4.46-1.69-6.7-2.55a39.73,39.73,0,0,1,17-18.8c.42.07,1,0,1.26.24,16.31,14.61,35.8,20.09,57.26,22.42,15,1.63,28.64-2.23,42.75-4.65a115.8,115.8,0,0,0,18.67-4.95c8.38-2.94,14.57-9.34,21.35-14.76C311.58,345.26,312.53,344.35,313.71,343.31Z"/><path class="cls-3" d="M177.13,661.67c3,.77,6,1.59,9,2.31,14.45,3.46,29.15,4.21,43.94,4,12.29-.17,24.59.11,36.86-.38a102.07,102.07,0,0,0,19.79-2.78c8.89-2.15,17.56-5.17,26.33-7.8a5,5,0,0,1,3.85.29,46.25,46.25,0,0,1-5,4.68c-8.74,6.15-16.85,13.34-27.05,17.15-4.8,1.79-9.58,4.22-14.55,4.81-11.88,1.42-23.6,3.54-35.91,2.15-10.92-1.24-21.79-1.94-32-6-9.84-3.89-17.69-10.9-26.08-17Z"/><path class="cls-5" d="M239.86,692.76h17.57L250,740.43C243.69,725.2,243.84,708.92,239.86,692.76Z"/><path class="cls-2" d="M269.46,306.62c2.33,2.4,6.51,1.73,10.78,1.29,3.54-.37,7.14-.1,10.71-.27,4-.19,8-.65,12-.78,1.4,0,3.72.14,4,.9a6.28,6.28,0,0,1-.18,4.89,15.31,15.31,0,0,1-4.44,4.93c-8.85,6.39-17.46,13.26-26.87,18.71-11.33,6.57-23.8,9.94-37.22,8.86-5.09-.41-10.43.86-15.34-.16-7.54-1.57-15.59-3.17-22-7.08a75.67,75.67,0,0,1-25.48-26.12c-.8-1.35-1.4-3.5-.88-4.8.89-2.21,3.14-1.91,5.21-1.21,7.33,2.46,14.86,2.31,22.47,1.8,3.48-.23,7,.7,10.54.81,5.33.16,10.67,0,16,.11,8.26.19,16.53.87,24.77.67C258.48,309,263.4,307.64,269.46,306.62Zm-19.36,31.32c-4-6.74-8.7-12-14-18.29-3.33,6.81-7.67,11.63-8.85,19C235.06,339,242.18,340.46,250.09,337.93Zm-17.29-23.47c-7.8-.27-14.48-1.76-22,1.08,4.4,6.2,4.16,14.27,10.76,19.16Zm9.1.69c3.41,6.92,7.85,12.06,13.27,17.69l6.06-17.69Zm36.18,13.16L268.61,315c-4.17,6.86-6.09,13.06-7.75,21Zm-80.47-1.08c5.91,6.79,10.1,8.76,16,7.54-3.49-6-4.38-13.26-10-18.95Zm97.64-11.46-.89-1.79c-5.72.12-11.54-1.08-17.14.71l-.72,1.7,9.74,6.19Zm-102.56,8.51L198.3,314H183.59Z"/><path class="cls-5" d="M179.81,244.65c.49-10.72,6-18.19,14.37-23.83a9.17,9.17,0,0,1,5.07-1.18c11.63.26,21.31,4.79,28.15,14.28,5.73,8,5.31,27-8.23,32.08-10.43,3.91-21.27,4.22-30.9-2C181.62,259.65,180.13,252.06,179.81,244.65Zm8.52,1.55c-.08,7.22,1.4,10.56,5.31,12.65a27.24,27.24,0,0,0,22.64,1.53c2.65-.94,5.73-3.37,6.7-5.86,2.48-6.43,2.86-13.11-2.78-18.59-1.92-1.86-3.64-4-5.81-5.51-5.66-3.94-11.92-5.23-18.26-2a11.36,11.36,0,0,0-5.29,5.58C189.36,238.31,189,242.95,188.33,246.2Z"/><path class="cls-5" d="M277.23,275.25c-3.75-.5-7.54-.79-11.24-1.55-6.23-1.28-12.72-9.42-13.17-16.95a58.62,58.62,0,0,1,.87-12.63c1.71-10.72,9.2-15.76,18.88-18.45a1.39,1.39,0,0,1,.65-.12c6.17,1.71,12.74,2.62,18.38,5.4,5,2.45,8,7.65,9.52,13.24C305.39,259.84,293.7,274.9,277.23,275.25Zm-2.91-41.79a18.4,18.4,0,0,0-3.88,0c-4.09.75-8,2.4-9.25,6.66-1.75,5.75-2.81,11.69-1.36,17.77,1.08,4.52,3.89,7.69,8.18,8.88a39.89,39.89,0,0,0,11.86,1.44c12.29-.44,20-14.71,13.8-25.42C289.58,235.7,283,233.17,274.32,233.46Z"/><path class="cls-1" d="M239.62,269.72a56.86,56.86,0,0,0-15.45,3.83c-2.49,1-4.27,3.32-3.49,6.15.65,2.36,3.64,4.53,6.15,3.49a48,48,0,0,1,12.8-3.47c2.68-.31,5-2.08,5-5C244.62,272.26,242.32,269.41,239.62,269.72Z"/><path class="cls-6" d="M236,268.36a43.48,43.48,0,0,1,5.32.49c2.19.46,3.69,1.8,3.19,4.27s-2.36,3-4.57,2.92c-2.6-.07-5.29-.47-7.78,0-4.64,1-7,4.13-7,8.34,0,3.69,3.2,7.34,7.63,8.12,2.81.49,5.77.11,8.56.64,1.45.28,3.58,1.5,3.83,2.65.49,2.24-1.23,3.86-3.61,3.65-5.53-.49-11.18-.71-16.52-2.07-4.64-1.18-6.93-5-7.63-10C215.65,275,226,267.62,236,268.36Z"/><path class="cls-6" d="M283.22,208c-.62.71-1.45,2.39-2.81,3.12-6,3.23-12.21,6.21-18.36,9.22-1.9.93-4.23,1.42-5-1.06-.33-1.07,1-3.39,2.19-4.06,6.15-3.49,12.46-6.69,18.79-9.85C281,203.89,282.89,204.63,283.22,208Z"/><path class="cls-6" d="M225.72,221.75a20.6,20.6,0,0,1-3.5-1.28c-4.57-2.77-9.07-5.67-13.63-8.47-1.85-1.14-3.44-2.34-2.09-4.78s3.37-1.53,5.17-.57c4.91,2.63,9.9,5.16,14.61,8.11,1.16.72,1.77,2.9,1.88,4.46C228.21,220,226.57,220.92,225.72,221.75Z"/><path class="cls-1" d="M250.09,337.93c-7.91,2.53-15,1-22.88.72,1.18-7.38,5.52-12.19,8.85-19C241.39,325.92,246.1,331.19,250.09,337.93Z"/><path class="cls-1" d="M232.81,314.47,221.59,334.7c-6.6-4.88-6.36-13-10.76-19.16C218.33,312.71,225,314.2,232.81,314.47Z"/><path class="cls-1" d="M241.9,315.16h19.34l-6.06,17.69C249.76,327.22,245.31,322.08,241.9,315.16Z"/><path class="cls-1" d="M278.09,328.32,260.86,336c1.66-8,3.58-14.18,7.75-21Z"/><path class="cls-1" d="M197.62,327.23l6-11.41c5.58,5.68,6.47,12.94,10,18.95C207.72,336,203.53,334,197.62,327.23Z"/><path class="cls-1" d="M295.26,315.78l-9,6.81-9.74-6.19.72-1.7c5.6-1.78,11.42-.58,17.14-.71Z"/><path class="cls-1" d="M192.69,324.29,183.59,314H198.3Z"/><path class="cls-1" d="M188.33,246.2c.62-3.25,1-7.89,2.5-12.16a11.36,11.36,0,0,1,5.29-5.58c6.34-3.27,12.6-2,18.26,2,2.17,1.51,3.89,3.64,5.81,5.51,5.64,5.48,5.26,12.16,2.78,18.59-1,2.49-4,4.92-6.7,5.86a27.24,27.24,0,0,1-22.64-1.53C189.74,256.76,188.25,253.42,188.33,246.2Zm8,.07c-.06,3.53,1.75,5.63,5,5.76,3.84.15,7.93-3.12,8-6.39.08-4.18-2.38-7.83-5.49-8.11C200.4,237.2,196.46,241.82,196.38,246.26Z"/><path class="cls-1" d="M274.32,233.46c8.7-.29,15.26,2.24,19.36,9.37,6.16,10.71-1.52,25-13.8,25.42A39.89,39.89,0,0,1,268,266.81c-4.28-1.18-7.09-4.36-8.18-8.88-1.46-6.08-.39-12,1.36-17.77,1.29-4.26,5.15-5.91,9.25-6.66A18.4,18.4,0,0,1,274.32,233.46Zm7.09,16.61a6,6,0,0,0-5.9-5.94c-3.9,0-8,4.94-7.76,9.33a6.25,6.25,0,0,0,6.31,5.61C277.59,258.92,281.56,254.06,281.41,250.07Z"/><path class="cls-7" d="M196.38,246.26c.08-4.45,4-9.07,7.46-8.75,3.11.29,5.58,3.93,5.49,8.11-.07,3.27-4.16,6.55-8,6.39C198.13,251.9,196.32,249.79,196.38,246.26Z"/><path class="cls-7" d="M281.41,250.07c.15,4-3.82,8.85-7.36,9a6.25,6.25,0,0,1-6.31-5.61c-.25-4.39,3.87-9.34,7.76-9.33A6,6,0,0,1,281.41,250.07Z"/><path class="cls-8" d="M97.81,440.14c4.33,1.71,8.6,3.61,13.2,5.57a46.54,46.54,0,0,0,3.53-9.1c-.37.76-.75,1.51-1.07,2.26a7.36,7.36,0,0,1-2.24,0c-19.68-7.67-40.77-12.65-56.84-27.54-11.92-11-25.28-20.53-35.59-33.36-8.6-10.71-13.31-22.28-12.65-36.32.59-12.42,2.39-24.26,7.76-35.63,3.88-8.22,10.09-13.64,17.91-17.28,16.52-7.69,32.72-7.1,48.57,2.41C96,300.47,108.14,313.47,119.86,327q12.94,14.93,25.78,29.95c.62.72,1.13,1.54,2.07,2.91a32.63,32.63,0,0,0,4.78-6.15,14.67,14.67,0,0,1-2.1-1.64c-7.22-7.92-14.63-15.69-21.56-23.86-9.4-11.08-18.84-22.1-29.89-31.61-12.78-11-26.48-19.23-44.33-19.26-11.25,0-21,3.22-30.44,8.55a32.92,32.92,0,0,0-12.78,12.44C.66,317-1.57,337,.93,357.93a20.93,20.93,0,0,0,1.7,5.77,85.48,85.48,0,0,0,20,28.25c8.46,8,17.19,15.63,26,23.22,6.95,6,14.44,11.31,23,14.79S89.09,436.7,97.81,440.14Z"/><path class="cls-8" d="M480.77,367.71c6.24-12.73,9.09-26.61,9.29-40.86A49.88,49.88,0,0,0,488.44,315c-3.65-15.64-13.3-26.2-27.51-33.46-19.42-9.93-38.47-10.12-57.57.37-12.43,6.82-23.22,16.05-33.26,25.74-12.82,12.37-24.17,26.26-36.2,39.46a23.22,23.22,0,0,1-3.18,2.59,46.43,46.43,0,0,0,6.43,6.62l-.14-.17c2.89-10.64,11-17.93,18.12-25.83a272.08,272.08,0,0,1,33.67-31.49c9.76-7.7,20-14.93,32.74-17.52a47.54,47.54,0,0,1,19.26-.38c13.85,2.88,26.63,8.35,35.06,20.32a43.79,43.79,0,0,1,8.08,31.64c-1.23,9.58-3,19-6.61,27.93a63.8,63.8,0,0,1-23.27,29.44A152.91,152.91,0,0,1,426.47,405c-11.19,4.75-21.45,11.8-31.9,18.2-6.4,3.93-13.21,6.68-20.74,9.89a13.83,13.83,0,0,0,1.87,5.36c6.21-2.68,12-4.45,17-7.55,14.75-9.22,29.35-18.47,45.65-25,8.16-3.27,15.41-9,22.79-14C470.05,385.87,476.18,377.09,480.77,367.71Z"/><path class="cls-9" d="M255.22,165.54c1.49.05,3,.14,4.54.15-.25-.17-.51-.36-.8-.54.45-26.19,4.53-52,8.06-77.9a523.76,523.76,0,0,0,4.55-53.36q.47-14,.92-28.09c0-.67.31-1.53,0-2A49,49,0,0,0,269.29,0c-1.1,1.17-3,2.23-3.17,3.54a60,60,0,0,0-.68,12,303.15,303.15,0,0,1-2,52.84c-.84,6.85-2.45,13.62-3.24,20.47-2.69,23.3-5.16,46.62-7.76,69.93-.23,2.11-.79,4.18-1.15,6.07l-2.93.24A44.52,44.52,0,0,0,255.22,165.54Z"/><path class="cls-9" d="M203.44,3.83a40.38,40.38,0,0,0,.39,5.6,449.05,449.05,0,0,1,8.61,75.76c.12,3.34.45,6.69.87,10,1.75,13.73,3.58,27.45,5.36,41.17,1.15,8.85,2.24,17.7,3.38,26.55.22,1.7.52,3.4.86,5.55a73.7,73.7,0,0,0,9.6-2.1l-2.46.2a124.52,124.52,0,0,1-5.41-26.7c-.63-6.89-1.8-13.73-2.55-20.61-1.43-13.09-2.93-26.19-4-39.31C217,67,216.79,54.05,215.4,41.18c-1.13-10.42-3.42-20.71-5.28-31a10.4,10.4,0,0,0-1.56-4.37c-.9-1.19-2.49-1.85-3.78-2.75Z"/></g></g></g></svg>