<svg xmlns="http://www.w3.org/2000/svg" viewBox="0 0 181.89 201.76"><defs><style>.cls-1{fill:gray;}.cls-2{fill:#fc9e01;}</style></defs><title>honning</title><g id="Layer_2" data-name="Layer 2"><g id="Calque_1" data-name="Calque 1"><path class="cls-1" d="M144.31,184.33A174.87,174.87,0,0,0,180.54,101c2.63-18.67,1.9-39-6.71-56.18-4.18-8.32-10.32-13.93-16.78-20.4-.79-.79-9.13-8.86-5-10l-2.34.62c4-.66,7.47,1.37,11.65,0,2.75-.89,6.19-3.83,4.12-7.18-1.48-2.4-6.26-3.1-8.68-3.63-18.08-4-37.51-4.05-56-4.23C100,0,99,.74,98.14.74c12.21.12,24.46.62,36.62,1.65,7.4.63,15.08,1.22,22.25,3.29,1.63.47,4.49,1.09,5.55,2.62,1.84,2.66-.19,6.15-2.88,7.18l2.69-.73c-4,.93-8.14-1.7-12.07.1-2.61,1.19-2.25,2.44-.61,5,4.53,7,12.22,11.51,17.07,18.4,23.35,33.18,10.93,82-5.58,115.18-5.48,11-11.83,22-19.62,31.62.48-.59,2.25-.13,2.75-.74Z"/><path class="cls-1" d="M115.92,198c-15.45,5.08-33.41,4.29-48.94,0-7.84-2.15-19.69-5.62-25.17-11.92-3-3.4-5.21-7.88-7.55-11.71C13.49,140.45-4.57,100.92,6.83,60.59,10,49.23,15.59,36.47,24.58,28.37l-3.14.37c5.27.92,18.67-14.12,12.16-15.95-5.5-1.54-11.95,4.31-12-5.79,0,.1-3.14.22-3.14.37,0,7,6.31,6.75,11.48,5.64,1.91-.41-2.14-.48-.93.1.42.2,1.21-.22,1.63.08.83.6,1.48.33,1.9,1.46,1.57,4.28-8.95,12.13-11.11,14.09l3.14-.37c-2.18-.38-3.26.55-4.64,1.87-4.43,4.2-7.76,10.17-10.45,15.56C-1.32,67.54-2.54,93,4,116.15c6,21.08,16.23,41,27.69,59.57,2.28,3.69,4.5,8.39,7.52,11.55,4,4.17,12.48,7,17.8,9a90.54,90.54,0,0,0,20.82,4.84c13.17,1.48,28.43.74,41.2-3.46-1,.32-2.15,0-3.14.37Z"/><path class="cls-2" d="M174.27,61.5C127.57,75.25,9.5,66.76,9.5,66.76,2.36,141.18,49.61,186.83,49.61,186.83c54.61,16.58,85.08-1.62,85.08-1.62C184.84,120.76,174.27,61.5,174.27,61.5ZM129.6,181.76s-16.36,9.75-46.38,6.82c25.44,0,39.14-8.06,39.14-8.06,30.62-41.61,39-83.38,41.36-103.44C164.08,86.58,164,134.44,129.6,181.76Z"/></g></g></svg>