<svg width="40" height="25" viewBox="0 0 40 25" xmlns="http://www.w3.org/2000/svg"><g fill="none" fill-rule="evenodd"><path d="M15.62 10.857c.915 0 1.656.735 1.656 1.643s-.74 1.643-1.655 1.643a1.649 1.649 0 0 1-1.655-1.643c0-.908.74-1.643 1.655-1.643M20.586 10.857c.915 0 1.655.735 1.655 1.643s-.74 1.643-1.655 1.643a1.649 1.649 0 0 1-1.655-1.643c0-.908.74-1.643 1.655-1.643M25.552 10.857c.914 0 1.655.735 1.655 1.643s-.74 1.643-1.655 1.643a1.649 1.649 0 0 1-1.655-1.643c0-.908.74-1.643 1.655-1.643" fill="#959595"/><path d="M32.172 12.5C32.172 6.175 26.96 1 20.586 1 14.214 1 9 6.175 9 12.5S14.214 24 20.586 24h12l-3.89-3.286c2.235-2.135 3.476-5.093 3.476-8.214z" stroke="#959595" stroke-width="1.5"/></g></svg>