<svg width="40" height="38" viewBox="0 0 40 38" xmlns="http://www.w3.org/2000/svg"><g fill="none" fill-rule="evenodd"><path d="M36.727 22.167C36.727 30.91 29.401 38 20.364 38 11.326 38 4 30.91 4 22.167c0-8.745 7.326-15.834 16.364-15.834 9.037 0 16.363 7.089 16.363 15.834" fill="#B7E9C2"/><path d="M27.727 20.583S14.637 22.167 9.04 33.068c-.059.115-.115.237-.18.34a14.49 14.49 0 0 1-2.315-2.802c.695-7.94 7.887-18.81 13-19.523l8.182 9.5z" fill="#1A912B"/><path d="M40 11.83c0 3.051-1.193 5.83-3.162 7.93-.27.296-.563.574-.87.84-2.17 1.905-5.045 3.058-8.201 3.058a8.91 8.91 0 0 1-.563-.017 11.782 11.782 0 0 1-1.78-.201 12.303 12.303 0 0 1-5.132-2.248 11.664 11.664 0 0 1-.93-.775c-.38-.349-.74-.721-1.07-1.112-.337-.396-.649-.81-.924-1.248a11.482 11.482 0 0 1-1.835-6.228c0-.184.006-.366.018-.55.019-.508.074-1.005.165-1.49a11.601 11.601 0 0 1 2.98-5.892c.207-.23.427-.45.66-.65.068-.07.14-.13.208-.19.238-.206.483-.402.734-.59a12.351 12.351 0 0 1 5.364-2.29 11.319 11.319 0 0 1 1.554-.16c.183-.011.367-.017.55-.017 2.637 0 5.077.804 7.071 2.183.453.307.881.644 1.285 1.01 1.835 1.651 3.138 3.845 3.64 6.317.128.61.208 1.237.226 1.881.012.142.012.29.012.438" fill="#FFF"/><path d="M23.404 19.215l-2.049.707c-1.746-1.042-3.2-2.406-4.215-3.953l.032-.187v-3.586c.845-.433 2-.855 3.441-1.254l2.947 2.989c-.124 1.09-.234 3.072-.156 5.284m10.564-4.383l-.18 3.718c-2.03 1.72-4.645 2.546-5.35 2.747l-3.817-2.03c-.088-2.359.116-4.426.225-5.322l4.07-1.876c.718.431 3.229 1.922 5.052 2.763m-4.446-3.78l-.795-4.228c.829-.575 2.626-1.793 4.017-2.555l3.75 2.039c.415.966 1.083 2.893 1.173 5.444l-3.096 2.06c-1.708-.78-4.19-2.245-5.05-2.76m-7.627 11.123l.175.09c.167.085.338.166.512.244l.177.077a12.526 12.526 0 0 0 3.481.931l.078.008c.285.032.573.055.858.065.192.012.378.018.57.018.094 0 .188-.006.282-.012l.276-.011.837-1.053c1-.315 3.182-1.246 5.126-2.418h2.178l.066-.065a11.695 11.695 0 0 0 3.265-5.915l.016-.072-.899-1.822c-.017-2.903-.731-5.09-1.21-6.237l.427-.206.181-.175-.133-.204c-.16-.245-.328-.484-.544-.768l-.05-.067a11.996 11.996 0 0 0-.594-.701l-.072-.084A12.023 12.023 0 0 0 35.4 2.436l-.19-.14a12.751 12.751 0 0 0-1.606-1.01l-.118-.062a12.557 12.557 0 0 0-1.946-.799L31.106.29l1.075 2.94c-1.489.81-3.397 2.108-4.24 2.693l-4.207-.582c-.188-.761-.502-1.776-.982-2.643L25.935.391 25.764 0c-.334.052-.663.118-.994.196a12.66 12.66 0 0 0-.873.247l-.162.053c-.264.088-.525.184-.78.289l-.083.032a12.086 12.086 0 0 0-1.626.827l-.178.11c-.194.122-.384.25-.571.383l-.191.135c-.11.08-.214.165-.319.25l-.175.14c-.08.064-.163.128-.242.196-.16.138-.313.284-.463.428-.057.055-.737.737-.737.737l.773-.193c.686-.172 1.779-.465 2.495-.661.504.87.814 2.004.965 2.665L20.57 9.767c-.813.22-2.226.65-3.438 1.25l-.991-1.779-.3-.475-.146.654a11.5 11.5 0 0 0-.17 1.055l-.008.098c-.042.413-.062.791-.062 1.157 0 2.215.638 4.377 1.843 6.253l.087.125c.61 1.17 2.408 2.638 3.29 3.337.427.288.818.522 1.219.733z" fill="#222"/></g></svg>