<svg width="40" height="29" viewBox="0 0 40 29" xmlns="http://www.w3.org/2000/svg"><g stroke="#959595" stroke-width="1.5" fill="none" fill-rule="evenodd"><path d="M23.668 23.576a11.856 11.856 0 0 1-6.979-.262c-2.415-.875-4.563-2.45-5.905-4.55a10.767 10.767 0 0 1-1.879-6.125V12.2c.09-6.3 5.458-11.287 11.81-11.2 6.353.088 11.543 5.338 11.453 11.55v.35"/><path d="M20.537 8.876l-3.937 2.8 1.521 4.725h4.832l1.431-4.725zM24.295 1.876l.09.35-3.848 2.8-3.937-2.8.179-.35M32.168 12.989l-.358.175-3.847-2.8 1.61-4.463h.358M10.695 18.764l.179-.263 4.831.088 1.253 4.55-.269.262M13.29 9.926l-4.116 2.538-.269-.175c.09-2.538.984-4.988 2.684-6.913h.358l1.342 4.55zM3.358 28.126l5.995-5.862M3 23.489L7.384 19.2M8.01 28.476l4.474-4.287M26.353 16.576l9.842 9.625M36.195 16.576l-9.842 9.625"/></g></svg>