<svg width="40" height="21" viewBox="0 0 40 21" xmlns="http://www.w3.org/2000/svg"><defs><path id="a" d="M.48.179h.75v3.703H.48z"/></defs><g fill="none" fill-rule="evenodd"><path d="M19.293 3.882L17.793.92M21.576 3.49L21.543.179M23.793 3.882l1.5-2.963M17.899 19.808c-3.75 0-6.75-2.963-6.75-6.667 0-3.703 3-6.666 6.75-6.666h2.25v1.481h3V6.475h11.25l-1.5 4.444c-2.925.074-5.7 1.407-7.5 3.704-2.25 2.963-3.75 5.185-7.5 5.185z" stroke="#959595" stroke-width="1.5" stroke-linejoin="round"/><path d="M18.274 10.178c1.657 0 3 1.327 3 2.963 0 1.637-1.343 2.963-3 2.963s-3-1.326-3-2.963c0-1.636 1.343-2.963 3-2.963zM11 10.919H8.75c-.45 0-.75.296-.75.74v2.223c0 .444.3.74.75.74H11" stroke="#959595" stroke-width="1.5" stroke-linejoin="round"/></g></svg>