<svg xmlns="http://www.w3.org/2000/svg" viewBox="0 0 100 126.02"><defs><style>.cls-1{fill:#e12106;}.cls-2{fill:#960700;}.cls-3{fill:#333;}.cls-4{fill:#5c5c5c;}.cls-5{fill:#f2f2f2;}.cls-6{fill:#d9d9d9;}.cls-7{fill:#1e2815;}.cls-8{fill:#172029;}.cls-9{fill:#2f4021;}.cls-10{fill:#637253;}.cls-11{fill:#fff;}.cls-12{fill:#212121;}.cls-13{fill:#e14b36;}.cls-14{fill:#3b5269;}.cls-15{fill:#8faabf;}.cls-16{fill:#a1a1a1;}.cls-17{fill:#696969;}</style></defs><title>spaceman100</title><g id="Layer_2" data-name="Layer 2"><g id="Layer_7" data-name="Layer 7"><path class="cls-1" d="M95.52,75.09c-.13-2-.26-4-.42-5.93a19.45,19.45,0,0,0-1.17-5.69v0c-.5-1.88-1.3-4.1-2.8-5.4l-.2-.39a.64.64,0,0,0-1.11,0c-1.15,2.74-3.2,4.77-5.31,6.78a26.61,26.61,0,0,0-5.08,7.15A32.44,32.44,0,0,1,74.66,79a12.9,12.9,0,0,1-3.1,2.45c.05-.81.1-1.62.14-2.43q.07-1.59.12-3.19-.87.95-1.7,1.93c-.8.93-1.59,1.9-2.35,2.9a8.78,8.78,0,0,0-1.14,0,.94.94,0,0,0-.68-.14.68.68,0,0,0-1.32-.08l0,.13a.71.71,0,0,0-1,.11l-.17.19a.63.63,0,0,0-.67,0,.74.74,0,0,1-.36.06c-.82-1.11-1.69-2.17-2.57-3.2a107.47,107.47,0,0,0-9.8-9.89c-3.55-3.2-7.15-6.39-10.9-9.34a.89.89,0,0,0-.45-.19,1.12,1.12,0,0,0-.28-.12c-1.57-.44-3.18.09-4.74.27a14.61,14.61,0,0,1-4.48-.21,11.67,11.67,0,0,1-3.74-1.62c-.89-.54-2.37-1.44-3.49-1.09-.07-.49-.13-1-.19-1.46-.29-2.44-.62-5-1.95-7.13a7,7,0,0,0-.74-1,1,1,0,0,1-.43-.13l-.2-.15a1.22,1.22,0,0,1-.27-.34,1.31,1.31,0,0,1-.15-.39,1,1,0,0,1,0-.21,3.49,3.49,0,0,0-.72-.27,1.69,1.69,0,0,0-.8-.76,1.54,1.54,0,0,0-1.63.62,4.38,4.38,0,0,0-.5.69,2.62,2.62,0,0,0-.57,1.43,8,8,0,0,0-.21,1,4.44,4.44,0,0,0-.06.82,2.47,2.47,0,0,0,.24.8.29.29,0,0,0,.22.2q-.1.57-.18,1.15c0,.2-.06.42-.09.64l-1.12-.27a16.87,16.87,0,0,1-3-1.25c0,.07,0,.15-.06.22a3.85,3.85,0,0,1,2.57,2.16,9.58,9.58,0,0,1,.08,7.56,29.51,29.51,0,0,1-2.18,4.25,11.23,11.23,0,0,1-1.84,2.16L8,66.11q-.18.28-.34.56l-.33.62a12.21,12.21,0,0,1,2.74,1.13l.21.05.61.13c.1,0,.75.11.56.09l.4,0c.74.06,1.47,0,2.21,0a5.7,5.7,0,0,1,1.78.34c.34,0,.68-.06,1-.07h.23a.8.8,0,0,0,.17.13,6.1,6.1,0,0,0,1.21.47c2.88,1.1,5.77,2.17,8.66,3.24a60.48,60.48,0,0,1,8.31,3.52,7.77,7.77,0,0,1,2.71,2.23,7.56,7.56,0,0,1,1.19,3.89c.11,1.5,0,3,0,4.5,0,1.72.15,3.43.25,5.14a19.67,19.67,0,0,0,.15,2.54c0,3.85.34,7.69.33,11.54,0,2.17,0,4.33,0,6.49a40.17,40.17,0,0,1-.79,6.36c-.08.55.26,1.31.95,1.23a41.1,41.1,0,0,1,9.93.19,38.63,38.63,0,0,0,8.78.45,11,11,0,0,0,5.9-2.26l.16,0a9.17,9.17,0,0,0,2.82,1.56c.08-.58.16-1.17.23-1.75.18-1.43.31-2.86.44-4.3a18.55,18.55,0,0,1,1.51-2.12c.14-.16.32-.39.52-.59a1.62,1.62,0,0,0,1.36.82,18,18,0,0,1-.5,3.64.72.72,0,0,0,1,.8,3.53,3.53,0,0,0,1.85-2.27,12.05,12.05,0,0,1,.7-1.93,4.85,4.85,0,0,1,.43,1.19,5.46,5.46,0,0,0,.78,1.88.71.71,0,0,0,1.22,0,6,6,0,0,0,.56-2.14,4.52,4.52,0,0,1,.34-1.48,4,4,0,0,1,.43,1.47,5.86,5.86,0,0,0,.62,2.18.76.76,0,0,0,1.31,0,7.68,7.68,0,0,0,.78-3.31,10.51,10.51,0,0,1,.15-1.17,3,3,0,0,0,1.79-.41l.18-.14a8.65,8.65,0,0,1,3.81,2.51,7.59,7.59,0,0,1,.47.63q0-4.11,0-8.22a2.51,2.51,0,0,0,.89-.78c1.62.83,3.78-.74,4.67-2.12A9.41,9.41,0,0,0,94.75,99a40.91,40.91,0,0,0,.53-5q.11-2.46,0-4.93A8.78,8.78,0,0,0,95,86.71c-.1-.33-.22-.67-.34-1s-.37-.57-.53-.89.36-.68.55-.31.37.52.51.81l0,.1c0-.11,0-.21,0-.31,0-.92,0-1.85.07-2.77,0-.08,0-.16,0-.24l0-.05a1.29,1.29,0,0,0,.25-.64A39,39,0,0,0,95.52,75.09ZM87.8,90.94a3.31,3.31,0,0,0-.12.66,5.6,5.6,0,0,0,0,1.13c0,.67-1,.66-1,0a6.42,6.42,0,0,1,.11-1.57,1.65,1.65,0,0,1,.36-1C87.55,89.75,88.28,90.48,87.8,90.94Z"/><path class="cls-2" d="M37.2,72.75a.61.61,0,0,0-.23-.31,7.37,7.37,0,0,0-.35-.89c0,.06-.13.34-.16.4-.12.27-.31.5-.45.76a1.86,1.86,0,0,1-1.82.92,2.51,2.51,0,0,1-.71-.24c-2.23-1.13-10.85-5.4-17.07-4.28l3.64,1.24a120.89,120.89,0,0,1,12.26,4.52,15.19,15.19,0,0,0,2.64,1.93c.32.17.76.37,1.16.61a.61.61,0,0,0,.15.68c.33.33.78.48,1.1.81a.62.62,0,0,0,.16.11c.13.25.24.51.33.69a.48.48,0,0,0,.89-.23A20.45,20.45,0,0,0,37.2,72.75Z"/><path class="cls-2" d="M28.58,58.34s4.82,2.29,8.25,4.28S42,63.79,42,63.79s-2.25-1.71-3-2.46-1.67-1.37-1.8-1.89-.3-1.79-.3-1.79l-5.3.63Z"/><path class="cls-3" d="M15.65,43.93a4.53,4.53,0,0,1,3.43,3,45.85,45.85,0,0,1,2.27,8.77,39.66,39.66,0,0,1-.29,5.15,3.68,3.68,0,0,1-3.34-2.36c-.86-2.36.86-5.08.5-7A28.79,28.79,0,0,0,15.65,43.93Z"/><path class="cls-4" d="M95.67,90.39c0-1-.08-1.91-.08-2.86,0-1.58.33-3.25-.09-4.79-.91-3.33-5.65-1.86-7.87-1.26a.15.15,0,0,0-.09.24,4.2,4.2,0,0,0-.09,1.45c0,.73.07,1.46.09,2.2a34.62,34.62,0,0,1-.14,4.16,14.26,14.26,0,0,0-.74,2.61,25,25,0,0,0-.12,4.69,32.87,32.87,0,0,0,.25,4.28,4.53,4.53,0,0,0,.89,3,3.09,3.09,0,0,0,1.41,1,3,3,0,0,0,2.13-.23.13.13,0,0,0,.08-.18A6.15,6.15,0,0,0,94,102.27c1.53-2.49,1.48-5.46,1.54-8.27,0-.36,0-.73,0-1.09a.2.2,0,0,0,.1-.14A11.8,11.8,0,0,0,95.67,90.39Z"/><path class="cls-1" d="M85.45,50a9.91,9.91,0,0,0-2.13-.86A19.86,19.86,0,0,0,81,48.73c-1.57-.21-3.14-.3-4.72-.41s-3.14-.35-4.72-.5-3.43-.2-5.15-.24-3.47-.16-5.21-.24a45.63,45.63,0,0,0-5.19.11c-1.74.12-3.48.27-5.21.54s-3.31.68-4.95,1.08a35.84,35.84,0,0,1-7.16,1.09,14.22,14.22,0,0,1-3-.18,8,8,0,0,1-2.41-.88l-.35-.4c-.49-.52-1.2.13-.94.72A22.64,22.64,0,0,0,34,52.9a15.71,15.71,0,0,0,2.69,3.15c2.18,1.86,5.18,2.56,8,2.78,3.12.24,6.27-.56,9.29-1.22a40.17,40.17,0,0,1,10-1.37,14.53,14.53,0,0,1,4,.62c1.19.39,2.29,1,3.44,1.53a9.31,9.31,0,0,0,6.19.52C81,58,84.16,55.39,85.07,52A1,1,0,0,0,85.45,50Z"/><path class="cls-2" d="M94.88,47.28h0a9.34,9.34,0,0,1-1,1.48.92.92,0,0,0-1.45-.2,5.87,5.87,0,0,1-4.21,1.74,24.48,24.48,0,0,1-2.47-.22,5.11,5.11,0,0,0-2.38.08.59.59,0,0,0-.33.31l-.32-.07a17.89,17.89,0,0,1-2.48,3.33,8.1,8.1,0,0,1-1.82,1.66c-2,2.16-5.06.05-7.13-.94-7.08-3.38-15.12.35-22.08,2.17a24.22,24.22,0,0,1-6.67,1c-.84,0-1.68-.15-2.52-.15-.19,0-.48,0-.75,0l-.08,0a.16.16,0,0,0-.12.29,18.68,18.68,0,0,0,3.6,1.49l3.84,1.26c1.24.41,2.38,1,3.63,1.43s2.65.67,4,.93a43,43,0,0,0,8,.64,33.07,33.07,0,0,0,8-.52h0A13.19,13.19,0,0,0,72,62.71c.9-.11,1.8-.23,2.69-.39,1.77-.32,3.54-.69,5.28-1.1a38,38,0,0,0,4.88-1.56,9.33,9.33,0,0,0,3.62-2,.31.31,0,0,0,.08-.17l.08-.07a.58.58,0,0,0,.26,0l.16,0a.7.7,0,0,0,.44-.2.69.69,0,0,0,.13-.19.73.73,0,0,0,.1-.61,18.18,18.18,0,0,0,2.72-3.49A19.84,19.84,0,0,0,94.88,47.28Z"/><path class="cls-5" d="M77.13,120.53a49.8,49.8,0,0,0,6.1-.25,21.6,21.6,0,0,0,3.19-.6c.73-.2,1.47-.44,2.21-.57a.46.46,0,0,1-.07-.22,9.62,9.62,0,0,0-1-4.08,7.54,7.54,0,0,0-4.41-3.47,23.94,23.94,0,0,0-7.52-1.06,16.27,16.27,0,0,0-4.08.36,9.44,9.44,0,0,0-3.69,1.8c-2.16,1.79-2.83,4.39-3.06,7.1a28.08,28.08,0,0,0,6,.87C73,120.54,75,120.53,77.13,120.53Z"/><path class="cls-3" d="M87.77,88.22l.14-.19c.23-.29.44-.68.78-.83a.05.05,0,0,1,.08.06,1.11,1.11,0,0,1-.1.33.33.33,0,0,0,.15-.29c0-1.72,0-3.44-.07-5.16a.88.88,0,0,0,0-.45c0-.1,0-.2,0-.3a.49.49,0,0,0,0-.11l-.52.11v.05l-.07,0-.4.06q.13,3.36,0,6.71Z"/><path class="cls-3" d="M89,102.53c0-.54,0-1.08.06-1.62,0-.23.07-.46.1-.69a4.22,4.22,0,0,0,0-.93,3.55,3.55,0,0,0-.46.19,2.15,2.15,0,0,1-.48.1,1.58,1.58,0,0,1-.91-.18l-.06,0,0,0a8.72,8.72,0,0,0-.1,2.41,4.51,4.51,0,0,0,.86,2.49,2.24,2.24,0,0,0,2.21.74A2.87,2.87,0,0,1,89,102.53Z"/><path class="cls-3" d="M95.64,84.94a2,2,0,0,0-.15-.23c0-.77,0-1.53.06-2.3v-.26a3.21,3.21,0,0,0-1.24-.88h0l-.44-.16a3.83,3.83,0,0,0-.06,1.41A15.15,15.15,0,0,0,94,84.76a.27.27,0,0,0,.1.18.3.3,0,0,1,.08-.25,1.5,1.5,0,0,0,.18.36l.11.19,0,.06s0,.07,0,.09a.59.59,0,1,0,1.08-.44Z"/><path class="cls-3" d="M90.63,91.32a.25.25,0,0,0-.2.16,4.87,4.87,0,0,0-.24,1.58,6.51,6.51,0,0,1-.35,2A4.78,4.78,0,0,1,89,96.71a2.7,2.7,0,0,1-.82.59c-.38.19-.81.14-1.19.33l0,0a2.08,2.08,0,0,0,.61,1.21c.41.32,1,.07,1.39-.15a3.26,3.26,0,0,0,1.63-1.94c.5-1.74.16-3.56.07-5.34A.33.33,0,0,1,90.63,91.32Z"/><path class="cls-6" d="M88,115.33a7.47,7.47,0,0,0-4.27-4.08,17.68,17.68,0,0,0-3.9-1v.06l-.15-.08A29.25,29.25,0,0,0,76,110h-.11c.26.06.54.08.8.14a10,10,0,0,1,1.7.56,9.13,9.13,0,0,1,3,2.24A10.75,10.75,0,0,1,84,119.58l-.23.06c-.89.23-1.79.43-2.7.57a31.53,31.53,0,0,1-5.69.3c-1.82,0-3.63-.2-5.44-.29a24.57,24.57,0,0,1-2.66-.28q-.69-.11-1.37-.25a2.21,2.21,0,0,0-1.11-.08.17.17,0,0,0-.11.1v.09a27.52,27.52,0,0,0,6.19.93c2.11.13,4.23.12,6.35.12a47.18,47.18,0,0,0,6.19-.28,20.91,20.91,0,0,0,3.14-.63c.74-.21,1.48-.46,2.24-.61a.47.47,0,0,1-.07-.24A11.23,11.23,0,0,0,88,115.33Z"/><path class="cls-2" d="M95.28,75.63A53.1,53.1,0,0,0,94,63.88l-.05-.21,0-.11,0-.1,0-.15,0-.07,0-.16V63l0-.17v-.05l-.05-.18v0l-.06-.19v0l-.06-.19v0l-.07-.2v0l-.07-.2v0l-.07-.2v0l-.08-.21h0l-.08-.21h0L93,60.84h0l-.09-.21h0l-.1-.21h0l-.1-.21h0l-.11-.2h0l-.11-.2h0l-.12-.2h0l-.12-.2h0l-.13-.19L92,59l-.14-.18-.14-.18-.15-.17-.16-.17-.16-.16-.07-.06a1.07,1.07,0,0,0-.08-.24c.07.16,0,0,0,0L91,57.62a.67.67,0,0,0-.28-.35.52.52,0,0,0-.71.2.68.68,0,0,0-.06.43l0,.16a1,1,0,0,0,.13.4.67.67,0,0,0,.37.27c-.39,1.51-2.41,2.87-3.6,3.78a23.26,23.26,0,0,0-7,8.26A62.19,62.19,0,0,1,76,77.57a13.78,13.78,0,0,1-5.84,4.84,19.27,19.27,0,0,1-5.56,1.3c.93-.1,1.87.2,2.8.07a12.17,12.17,0,0,0,4.68-1.83q.6-.37,1.18-.78a11.68,11.68,0,0,0,2.1-1.78A26.31,26.31,0,0,0,77,77.21c1.08-1.52,2-3.14,3-4.74.52-.88,1.06-1.76,1.62-2.61a25.52,25.52,0,0,1,2.5-3.16,22.94,22.94,0,0,1,2.63-2.3c.53-.16,1.06-.45,1.56-.58a3.05,3.05,0,0,1,2.57.5,5.73,5.73,0,0,1,1.59,1.93l.1.19a33.55,33.55,0,0,1,.88,5.19c.1,1,.17,2.09.22,3.14s0,1.88.09,2.79a22.84,22.84,0,0,1,.14,2.36c0,.28,0,.57,0,.85l.18.06h0l.16.06,0,0,.14.06.05,0,.13.06.07,0,.11.06.08.05.09.06.1.08.07.05.16.14C95.32,79.57,95.33,77.6,95.28,75.63Z"/><path class="cls-2" d="M87.07,102.89A10.9,10.9,0,0,1,87,99a.57.57,0,0,1,0-.13,3.61,3.61,0,0,1-.55-2.15c0-.59-.06-1.17-.09-1.76a3.44,3.44,0,0,1,0-1.11.49.49,0,0,1,.31-.33l.08-.56a.46.46,0,0,1-.33-.47,3.68,3.68,0,0,1,.34-1.87.47.47,0,0,1,.38-.25l.08-.51.39-1.24s-.59-13.44-.59-14.87v0l-.14.13c0-.67-.15-1.37-.09-2a.15.15,0,0,0-.06-.14l.06-.11a.1.1,0,0,0-.14-.14,3.25,3.25,0,0,0-1,1,5.58,5.58,0,0,0-.84,1.68,12.62,12.62,0,0,0-.16,4.12c0,1.62,0,3.24.07,4.87,0,3.17.09,6.33.08,9.5,0,2.76-.05,5.51-.07,8.27,0,2.58.26,5.45-1.89,7.45-.46.43-2.15,2-2.86,1.84l1.44.25,2.61.71,3,2.12,1.27,1.36V105A2.62,2.62,0,0,1,87.07,102.89Z"/><path class="cls-7" d="M36.6,49.68c2.69.28,5.27-.58,7.87-1.15a86.21,86.21,0,0,1,18.46-2h0a85.65,85.65,0,0,1,18.46,2c2.58.57,5.22,1.48,7.9,1.15a7.62,7.62,0,0,0,5.38-3.36,13.46,13.46,0,0,1-.64-3.42,22.8,22.8,0,0,1,.16-4,20.3,20.3,0,0,1,.83-3.77A10.83,10.83,0,0,1,96.47,32l0-.07a.28.28,0,0,1,0-.07,32.31,32.31,0,0,0-1.37-10.21,12.61,12.61,0,0,0-2.25-4.26,20.24,20.24,0,0,0-2-2l-.55-.48-.57-.46C79.66,6.56,65.7,4.68,53.41,7c-6.34,1.21-12.78,3.56-17.81,7.72a18.46,18.46,0,0,0-3.1,3.16,13.27,13.27,0,0,0-2,4.12,26.21,26.21,0,0,0-.91,4.29,40.47,40.47,0,0,0-.31,4.38c0,.38,0,.76,0,1.13a3.5,3.5,0,0,0,.1.72,5.84,5.84,0,0,0,.35.84c.13.3.24.61.35.92s.22.68.33,1a21.38,21.38,0,0,1,.8,3.77,21,21,0,0,1,.12,4A8.74,8.74,0,0,1,31.08,45c-.06.2-.13.4-.21.6A2.31,2.31,0,0,0,31,46l0,.08,0,0A7.67,7.67,0,0,0,36.6,49.68Z"/><path class="cls-8" d="M96.32,31.8A32.15,32.15,0,0,0,95,21.65a12.55,12.55,0,0,0-2.23-4.23,20.16,20.16,0,0,0-2-2l-.21-.18a14.82,14.82,0,0,1,2,4.19,36.4,36.4,0,0,1,1.49,11.33.32.32,0,0,0,0,.08l0,.08a12.12,12.12,0,0,0-1.55,3.53,22.83,22.83,0,0,0-.91,4.18A25.73,25.73,0,0,0,91.43,43a15.16,15.16,0,0,0,.7,3.8,9.19,9.19,0,0,1-2.94,2.76h0a7.58,7.58,0,0,0,5.36-3.34,13.39,13.39,0,0,1-.63-3.4,22.68,22.68,0,0,1,.16-4,20.21,20.21,0,0,1,.83-3.75,10.78,10.78,0,0,1,1.41-3.16l0-.07A.28.28,0,0,1,96.32,31.8Z"/><path class="cls-2" d="M36,50.75c2.58.59,5.08-.14,7.58-.72a82,82,0,0,1,9.6-1.73,92.69,92.69,0,0,1,9.79-.53h0a88.5,88.5,0,0,1,10,.55A84.61,84.61,0,0,1,82.35,50c2.52.58,5.12,1.36,7.71.68A7.66,7.66,0,0,0,94.71,47c0-.11,0-.22-.07-.33a7.31,7.31,0,0,1-4.71,3.21c-2.56.5-5-.18-7.5-.75a82.72,82.72,0,0,0-9.63-1.71,91,91,0,0,0-9.83-.5h0a87.23,87.23,0,0,0-10,.52,86.32,86.32,0,0,0-9.63,1.73c-2.43.56-4.9,1.24-7.4.68a7.39,7.39,0,0,1-4.59-3.15q.05.33.12.65A7.44,7.44,0,0,0,36,50.75Z"/><path class="cls-1" d="M30,35.24c-.31-1-.79-1.93-1.12-2.92-.54.51-1.19.89-1.7,1.44a4.47,4.47,0,0,0-1,1.53c.44.16.71.86.83,1.24a9.22,9.22,0,0,1,.35,2.35s0,0,0,0A11.2,11.2,0,0,0,27,37a2.36,2.36,0,0,0-.83-1.45c0,.07,0,.15,0,.22a14.12,14.12,0,0,0,.39,4.92,10.49,10.49,0,0,0,.91,3.83,3.07,3.07,0,0,0,.21.29c.4-.26.28-1.57.26-1.92a13.6,13.6,0,0,1-.06-2,0,0,0,0,1,0,0,9.06,9.06,0,0,1,.3,2.67c0,.33,0,1.19-.34,1.46a4.8,4.8,0,0,0,2.36,1.21c.18-.5.38-1,.52-1.51a9.67,9.67,0,0,0,.23-2,23.17,23.17,0,0,0-.1-3.78A21.19,21.19,0,0,0,30,35.24Z"/><path class="cls-1" d="M56.51,5.91A49.83,49.83,0,0,1,75.4,7a42.84,42.84,0,0,1,8.43,3.14A39.35,39.35,0,0,1,88.68,13a37.88,37.88,0,0,0-8.2-7.22A32.73,32.73,0,0,0,67.82,1.1a31.2,31.2,0,0,0-10,0,34.45,34.45,0,0,0-9.13,2.66,36.21,36.21,0,0,0-12,9.36c.5-.35,1-.68,1.51-1A44.79,44.79,0,0,1,56.51,5.91Z"/><path class="cls-2" d="M99.26,35.6a2.51,2.51,0,0,0-.86,1.56A12.56,12.56,0,0,0,98,38.89s0,0,0,0a8.6,8.6,0,0,1,.35-2.35c.12-.37.38-1.07.82-1.23a4.33,4.33,0,0,0-1.06-1.65c-.49-.49-1.09-.86-1.59-1.33-.34,1-.86,2-1.17,3.1A21.32,21.32,0,0,0,94.61,39a24.35,24.35,0,0,0-.1,3.78,13.88,13.88,0,0,0,.62,3.51,4.9,4.9,0,0,0,2.51-1.22c-.42-.25-.38-1.24-.37-1.59a9.33,9.33,0,0,1,.3-2.56,0,0,0,0,1,0,0,16,16,0,0,1-.06,2.1c0,.34-.13,1.61.3,1.82a2.64,2.64,0,0,0,.21-.31,11.85,11.85,0,0,0,.88-3.83,13.1,13.1,0,0,0,.39-4.92C99.3,35.74,99.28,35.67,99.26,35.6Z"/><path class="cls-9" d="M95,21.65a12.55,12.55,0,0,0-2.23-4.23,20.16,20.16,0,0,0-2-2l-.55-.47-.57-.46a35.85,35.85,0,0,0-5.24-3.36,18.85,18.85,0,0,1,2.29,3.62c1.67,3.84,2.1,10.28,2,15.4a39,39,0,0,1-1.58,11.42c-1.92,5.66-5.56,4.9-10.73,4.41a56,56,0,0,0-14.46.5H63a85.24,85.24,0,0,1,18.37,2c2.57.57,5.19,1.47,7.86,1.14a7.58,7.58,0,0,0,5.36-3.34,13.39,13.39,0,0,1-.63-3.4,22.68,22.68,0,0,1,.16-4,20.21,20.21,0,0,1,.83-3.75,10.78,10.78,0,0,1,1.41-3.16l0-.07a.28.28,0,0,1,0-.07A32.15,32.15,0,0,0,95,21.65Z"/><path class="cls-2" d="M80.48,5.78A32.73,32.73,0,0,0,67.82,1.1,32.15,32.15,0,0,0,62.67.69l.72.2c.71.19,1.43.32,2.13.51a19.78,19.78,0,0,1,3.62,1.39,20.31,20.31,0,0,1,5.45,4l.81.2a42.84,42.84,0,0,1,8.43,3.14A39.35,39.35,0,0,1,88.68,13,37.88,37.88,0,0,0,80.48,5.78Z"/><path class="cls-10" d="M74.34,42.25c-.08.25-.51.39-1.2.43l-.57,0H71.9l-.75,0-.84,0-.92,0-1,0-.52,0h-.54l-1.12,0c-1.53,0-3.22-.05-5,0s-3.44.09-5,.17l-1.11.07-.54,0-.52,0-1,.07-.46,0-.45,0-.84.05-.75.06-.66,0H49.4c-.69,0-1.13-.12-1.22-.37s.17-.61.75-1.05a5.59,5.59,0,0,1,.5-.34L50,41l.73-.36.83-.33.45-.17c.16-.06.31-.12.48-.16l1-.3.54-.15.57-.13,1.19-.25a35,35,0,0,1,5.34-.5,35.62,35.62,0,0,1,5.35.36l1.19.21.57.11.55.13,1,.27c.33.09.64.2.94.3l.84.3.74.33.63.31a5.61,5.61,0,0,1,.51.32C74.14,41.65,74.42,42,74.34,42.25Z"/><path class="cls-10" d="M45.05,43.9a1,1,0,0,1,.11-.75,1.23,1.23,0,0,1,.64-.54,1.39,1.39,0,0,1,1,0,.84.84,0,0,1,.35.23.7.7,0,0,1,.16.35,1,1,0,0,1,0,.39,1.28,1.28,0,0,1-.14.35,1.17,1.17,0,0,1-.61.51,1.37,1.37,0,0,1-.91,0A.81.81,0,0,1,45.05,43.9Z"/><path class="cls-10" d="M63.85,10.7c0,.2-.54.44-1.55.71l-.84.21-1,.23-1.15.24L58,12.37l-.69.14-.36.07-.36.09L55.12,13l-.39.09-.4.1-.82.21-.84.22-.86.23a44.75,44.75,0,0,0-7.24,2.56,22.2,22.2,0,0,0-3.34,1.93l-.73.55-.67.56a1.43,1.43,0,0,0-.15.15l-.15.15-.29.3-.55.63a15.84,15.84,0,0,0-1.76,2.68A23.28,23.28,0,0,0,35.76,26l-.22.61-.2.59-.09.28-.08.28-.16.53-.5,1.79c-.07.25-.13.47-.2.66s-.12.36-.17.49-.22.4-.32.4-.19-.15-.26-.43a4.3,4.3,0,0,1-.1-.52q0-.31-.07-.71c0-.27,0-.57,0-.89s0-.68,0-1.06l.06-.59,0-.31,0-.32c0-.22.07-.44.11-.66l.14-.7a19,19,0,0,1,1-3.06,15.83,15.83,0,0,1,1.82-3.29c.21-.27.41-.54.63-.81l.35-.4.18-.2a2.19,2.19,0,0,1,.19-.19l.79-.73.84-.67a21.7,21.7,0,0,1,3.78-2.26,30.5,30.5,0,0,1,4-1.55c1.32-.41,2.61-.73,3.83-1l.91-.18.89-.16.86-.14.42-.07.42-.06,1.6-.2.38,0,.37,0,.72-.05,1.34-.08,1.2,0h1l.88,0C63.25,10.37,63.84,10.5,63.85,10.7Z"/><path class="cls-11" d="M43.82,15.39s0,.08-.11.14-.21.13-.38.23c-.33.19-.8.45-1.36.81A17,17,0,0,0,40.11,18c-.33.29-.66.61-1,.95s-.66.71-1,1.1a15.76,15.76,0,0,0-1.59,2.35,13.47,13.47,0,0,0-.94,2.12c-.43,1.25-.51,2.1-.66,2.09s-.06-.05-.09-.16,0-.12,0-.19a1.91,1.91,0,0,1,0-.26A6.63,6.63,0,0,1,35,24.34a10.19,10.19,0,0,1,.8-2.35,13,13,0,0,1,1.63-2.56,14.32,14.32,0,0,1,1.06-1.16,14,14,0,0,1,1.1-1A11.8,11.8,0,0,1,41.63,16a7.16,7.16,0,0,1,1.56-.57,2.26,2.26,0,0,1,.45-.07C43.75,15.34,43.81,15.36,43.82,15.39Z"/><path class="cls-11" d="M51.78,12.53c.06.21-1.52.78-3.47,1.41-1,.32-1.85.61-2.5.8s-1.06.28-1.11.18.3-.36.9-.68a16.25,16.25,0,0,1,2.46-1C50.06,12.57,51.73,12.33,51.78,12.53Z"/><path class="cls-4" d="M44.87,120.19a58,58,0,0,0,6.26.23c2.15,0,4.3,0,6.44-.14a29.7,29.7,0,0,0,6-.85,11.83,11.83,0,0,0-1.29-5,9.09,9.09,0,0,0-7-4.19,31.06,31.06,0,0,0-8.22.37,10.59,10.59,0,0,0-5.71,2.54,8.26,8.26,0,0,0-2.13,5.59.45.45,0,0,1-.07.22c.84.15,1.65.42,2.47.62A24.2,24.2,0,0,0,44.87,120.19Z"/><path class="cls-12" d="M63.94,120.78c0-.38,0-.75-.33-.84a24.44,24.44,0,0,1-6,1c-2.17.15-4.34.13-6.51.14-4.1,0-8.18-.2-12-1.94-.58.06-.47,1.94-.48,2.44s-.13,1,.07,1.32a1.06,1.06,0,0,0,.24.26h0a33,33,0,0,0,12.29,2.6c1.06,0,2.11.09,3.18,0s2.07-.14,3.1-.24a24,24,0,0,0,3.18-.52c.49-.12,1-.24,1.46-.39.3-.09.6-.22.91-.3a.23.23,0,0,1,.11-.07c.33-.11.83-.3.91-.74a6.77,6.77,0,0,0,0-1.35C64,121.68,64,121.23,63.94,120.78Z"/><path class="cls-4" d="M77.34,120.53a52.43,52.43,0,0,0,6.26-.25,22.68,22.68,0,0,0,3.28-.6c.75-.2,1.5-.44,2.27-.57a.45.45,0,0,1-.07-.22,9.42,9.42,0,0,0-1-4.08,7.7,7.7,0,0,0-4.52-3.47,25.17,25.17,0,0,0-7.72-1.06,17.12,17.12,0,0,0-4.18.36,9.8,9.8,0,0,0-3.79,1.8c-2.21,1.79-2.9,4.39-3.14,7.1a29.52,29.52,0,0,0,6.18.87C73,120.54,75.19,120.53,77.34,120.53Z"/><path class="cls-12" d="M76.92,121c-2.2,0-4.39,0-6.58-.15a25.62,25.62,0,0,1-5.87-.92c-.36.1-.33.63-.36,1s-.06.88-.08,1.32-.14,1,.07,1.29a1.46,1.46,0,0,0,.84.54.24.24,0,0,1,.11.07c.31.08.61.2.92.29.49.14,1,.27,1.47.38a25.45,25.45,0,0,0,3.21.51,49.17,49.17,0,0,0,6.34.22A34.82,34.82,0,0,0,89.42,123h.06a.71.71,0,0,0,.21-.25,2.85,2.85,0,0,0,.07-1.29c0-.49.1-2.32-.49-2.38C85.33,120.79,81.13,121,76.92,121Z"/><path class="cls-5" d="M90,57.75a6.74,6.74,0,0,1-1.81,2.62,26,26,0,0,1-3,2.41A24.16,24.16,0,0,0,82,65.36a9.31,9.31,0,0,0-1.26,1.55,7.81,7.81,0,0,0-.5.92,4.82,4.82,0,0,1-.39.85.12.12,0,0,1-.22-.06,3.93,3.93,0,0,1,.74-1.77,9.55,9.55,0,0,1,1.12-1.46,20.09,20.09,0,0,1,3-2.52,33.61,33.61,0,0,0,3.22-2.44,9.37,9.37,0,0,0,1.36-1.51,15.55,15.55,0,0,0,.81-1.39l-.11-.17a12.8,12.8,0,0,1-1.63,1.21.22.22,0,0,1-.11,0c-3.74,2.19-8,3.15-12.24,3.87a77.92,77.92,0,0,1-13.86,1.32,47.69,47.69,0,0,1-10.11-1.11,62,62,0,0,1-9.56-3.18,44.92,44.92,0,0,1-4.46-1.92.48.48,0,0,0-.24-.13l-.18-.1-.05.07v0a.64.64,0,0,0-.56.57,3.44,3.44,0,0,0,1.41,2.6c.44.43.91.84,1.37,1.25a3.11,3.11,0,0,0,1.7.91c.65.52,1.28,1.05,1.88,1.64a22.47,22.47,0,0,1,2.38,2.75c3,4.17,4.39,9.75,8.61,13A15.79,15.79,0,0,0,62.9,83.3,16.42,16.42,0,0,0,72,80.89c4.57-2.9,6-8.36,8.85-12.65a25.22,25.22,0,0,1,5.83-6.12A19.64,19.64,0,0,0,89.27,60a2.91,2.91,0,0,0,.85-1.42A1.46,1.46,0,0,0,90,57.75Zm-45.63,6.8a8.34,8.34,0,0,0-1.91-2l-.42-.29a.49.49,0,0,0,0-.16,2.11,2.11,0,0,0-.11-.28,5.37,5.37,0,0,1,2.48,2.7S44.39,64.57,44.37,64.56ZM70.1,80.89A13.28,13.28,0,0,1,62,82.54a13.44,13.44,0,0,1-6.19-2.32c-3.7-2.64-6.06-6.69-8.17-10.62-.08-.15.15-.28.23-.13,2.06,3.8,4.35,7.87,8,10.36A13.39,13.39,0,0,0,62,82.15a12.58,12.58,0,0,0,4.1-.14,21.84,21.84,0,0,0,3.85-1.44C70.13,80.48,70.31,80.77,70.1,80.89Zm7.35-7.7a18.08,18.08,0,0,1-1.23,2.3,16.54,16.54,0,0,1-1.58,2.12A8.43,8.43,0,0,1,73,79.22c-.11.07-.21-.08-.13-.17.56-.61,1.19-1.13,1.72-1.77A19.58,19.58,0,0,0,76,75.19a20.81,20.81,0,0,0,1.18-2.13c.33-.69.55-1.42.89-2.1,0,0,.09,0,.08,0A8.1,8.1,0,0,1,77.45,73.19Z"/><path class="cls-13" d="M49.62,53.66l-.39-.34c-.53-.56-.82-1-1.65-1.1a8.13,8.13,0,0,0-2.14.33c-1.28.24-2.54.66-3.81.89l-.9.16-2.32.35c-.37.05-1.15.12-.72.68a3.26,3.26,0,0,0,1.19.84c2.3,1.1,4.59.77,7,.37l3-.49a7.81,7.81,0,0,0,1.27-.21C51.19,54.79,50.06,54,49.62,53.66Z"/><path class="cls-3" d="M56.19,110.14l-.24,0-.08,0-.09-.05c-.4-.07-.81-.12-1.22-.15l0,.08-.17-.09c-.58,0-1.17,0-1.74,0a.29.29,0,0,0,.1.09,8.63,8.63,0,0,1,4.11,4.54,16.13,16.13,0,0,1,.87,3.14,15.23,15.23,0,0,1,.19,1.73c0,.09,0,.17,0,.26l-1.27.24a29.44,29.44,0,0,1-6.08.34c-1.95,0-3.9,0-5.84-.12A24.8,24.8,0,0,1,39.12,119h0a.46.46,0,0,1-.08.24c.84.16,1.66.44,2.49.66a23.34,23.34,0,0,0,3.22.6,54.75,54.75,0,0,0,6.33.25c2.17,0,4.34,0,6.5-.14a29,29,0,0,0,6.1-.91,14.93,14.93,0,0,0-.86-4.29A8.86,8.86,0,0,0,56.19,110.14Z"/><path class="cls-3" d="M88,115.22a7.58,7.58,0,0,0-4.38-4.08,18.53,18.53,0,0,0-4-1,.28.28,0,0,0,0,.06l-.16-.08a30.78,30.78,0,0,0-3.79-.27h-.11c.27.06.56.08.82.14a10.46,10.46,0,0,1,1.74.56,9.35,9.35,0,0,1,3,2.24,10.6,10.6,0,0,1,2.73,6.68l-.24.06c-.91.23-1.84.43-2.77.57a33.19,33.19,0,0,1-5.84.3c-1.86,0-3.72-.2-5.59-.29a25.86,25.86,0,0,1-2.73-.28q-.71-.11-1.41-.25a2.33,2.33,0,0,0-1.14-.08.17.17,0,0,0-.12.1v.09a28.93,28.93,0,0,0,6.35.93c2.17.13,4.34.12,6.52.12a49.68,49.68,0,0,0,6.35-.28,22,22,0,0,0,3.22-.63c.76-.21,1.52-.46,2.3-.61a.46.46,0,0,1-.08-.24A11,11,0,0,0,88,115.22Z"/><path class="cls-2" d="M66.32,108.48c-1.49-1.91-1-5.28-.68-7.51.23-1.63.58-3.88,1.83-5.16a.15.15,0,0,0-.16-.25,7.19,7.19,0,0,0-2.5,1.7,1.29,1.29,0,0,1-1.67.13A23.87,23.87,0,0,0,59.38,95a.18.18,0,0,0-.21.27c.82,1.14,3,4.54,3,8,0,1.68.54,4.09-.75,5.43-1.52,1.57-5,1-6.93.95l.85.44.09,0a1,1,0,0,1,.47,0,12.14,12.14,0,0,1,3.37,1.45,6.3,6.3,0,0,1,2.35,2.14,16.14,16.14,0,0,1,1.54,3.32c.32,1.09.51,2.23.91,3.3.12-.52,1.23-5.37,2.06-6.56S70.56,110,73.7,110C71.4,110,68,110.59,66.32,108.48Z"/><path class="cls-6" d="M90,57.15h0a.69.69,0,0,0-.61-.32l-.3.31c-.21.22-.46.41-.67.62a.47.47,0,0,1-.43.14c-.15.1-.31.19-.49.32a7.47,7.47,0,0,1-1.21.82l-.08,0a8.83,8.83,0,0,0-1.69.69c-.61.25-1.28.32-1.89.59a3.35,3.35,0,0,0-1,.57,72,72,0,0,1-15.8,2.45c-13.74.79-28.22-5.95-28.22-5.95s11.31,8.28,25.19,8.29a29.7,29.7,0,0,0,5.09-.34c2.41-.42,5.47-1.76,7.59.07,3.28,2.83,2.23,7.16.19,10.35C74,78.3,70.9,82.19,67.86,83c0,0,3.88-1,5.65-2.81A38.53,38.53,0,0,0,79.62,71a23.86,23.86,0,0,1,7-8.52c3.06-2.51,3.7-2.71,3.78-3.78A2,2,0,0,0,90,57.15Z"/><path class="cls-2" d="M40.09,100.56Z"/><path class="cls-2" d="M43.65,105.14S43.26,88,42.76,82a17.92,17.92,0,0,0-3.7-8.76c-.2-.29-1.91-2.53-2.25-1.69-.07.18.16.26.28.16a.36.36,0,0,1,.1.07h0l.46,1.44c.18,1.25.65,2.44.81,3.69.19,1.45.4,2.91.51,4.36s.15,2.89.24,4.33c0,.66.09,1.32.16,2,0,.26.05.55.09.84A12.93,12.93,0,0,0,39.62,92c.12,1.25.27,2.51.3,3.76,0,1-.08,2,0,3.06,0,.32.07.63.1.95s0,.34,0,.51,0,.11,0,.16a.76.76,0,0,0,0,.11s0,0,.1-.09h0a.25.25,0,0,0,0,.43l.09,8.37,0,5.53,1.75-2.25,4.09-1.72,2.95-.62C43.86,110.23,43.65,105.14,43.65,105.14Z"/><path class="cls-3" d="M24.65,66.68c-2.63.37-5.38,0-8,.39a.43.43,0,0,0-.28-.11c-.14,0-.51.12-.63.07a1.89,1.89,0,0,0-.92,0c-.59.09-1.15.35-1.76.42a8.61,8.61,0,0,1-1.6,0c-.59,0-1.15-.26-1.74-.27a.45.45,0,0,0-.22.83,10.45,10.45,0,0,0,1.47.56,5.78,5.78,0,0,0,1.71.35,4.3,4.3,0,0,0,.54,0,2.5,2.5,0,0,0,1.9-.15l.13-.05a9.33,9.33,0,0,0,2.6,1l0,0a2.26,2.26,0,0,0,.82.29,7,7,0,0,0,2,.64,2.71,2.71,0,0,0,1-.08.3.3,0,0,0,.41.09,7.92,7.92,0,0,0,3-3.46A.35.35,0,0,0,24.65,66.68Z"/><path class="cls-5" d="M64.42,102.3l-.29.07c.07-.3.08-.63.15-.92s.13-.48.2-.71l.09-.31a36.38,36.38,0,0,0,5.68,1.32,57.57,57.57,0,0,0,5.79.39A43.54,43.54,0,0,0,87,101c0,.63,0,1.27,0,1.91A46.45,46.45,0,0,1,76,104a57.45,57.45,0,0,1-5.79-.39A36.65,36.65,0,0,1,64.42,102.3Z"/><path class="cls-5" d="M63.6,100.66h0a36.76,36.76,0,0,1-5.32,1.1c-2.1.23-4.21.35-6.33.39a51.75,51.75,0,0,1-12-1.11c0,.63,0,1.27.05,1.91A55.23,55.23,0,0,0,52,104c2.11,0,4.22-.16,6.33-.39a39.48,39.48,0,0,0,5.67-1.12A13.56,13.56,0,0,1,63.6,100.66Z"/><rect class="cls-5" x="57.68" y="68.94" width="11.04" height="8.15" rx="0.95" ry="0.95"/><path class="cls-6" d="M68.1,69a.94.94,0,0,1,.19.57v6.25a1,1,0,0,1-.95.95H58.2a.94.94,0,0,1-.33-.06.94.94,0,0,0,.76.38h9.15a1,1,0,0,0,.95-.95V69.89A1,1,0,0,0,68.1,69Z"/><path d="M68.83,76.19a1.11,1.11,0,0,1-1.11,1.11H58.57a1.11,1.11,0,0,1-1.11-1.11V69.94a1.11,1.11,0,0,1,1.11-1.11h9.15a1.11,1.11,0,0,1,1.11,1.11Zm-.32-6.25a.79.79,0,0,0-.79-.79H58.57a.79.79,0,0,0-.79.79v6.25a.79.79,0,0,0,.79.79h9.15a.79.79,0,0,0,.79-.79Z"/><rect class="cls-6" x="58.97" y="70.12" width="8.47" height="6.43" rx="0.95" ry="0.95"/><rect class="cls-11" x="58.97" y="69.8" width="8.47" height="6.43" rx="0.95" ry="0.95"/><path class="cls-6" d="M58.51,75.3a25.11,25.11,0,0,0,0-2.68q0-.66,0-1.31a2,2,0,0,0-.12-1.06,0,0,0,0,0,0,0,1.15,1.15,0,0,0-.14.71c0,.49,0,1,0,1.48,0,1,0,1.92,0,2.87C58.24,75.49,58.49,75.47,58.51,75.3Z"/><circle class="cls-7" cx="60.56" cy="71.74" r="0.55"/><circle class="cls-7" cx="62.34" cy="71.74" r="0.55"/><circle class="cls-7" cx="64.09" cy="71.74" r="0.55"/><circle class="cls-7" cx="65.91" cy="71.74" r="0.55"/><circle class="cls-7" cx="60.56" cy="73.89" r="0.55"/><circle class="cls-7" cx="62.34" cy="73.89" r="0.55"/><circle class="cls-7" cx="64.09" cy="73.89" r="0.55"/><circle class="cls-7" cx="65.91" cy="73.89" r="0.55"/><path class="cls-10" d="M60.56,71.19a.55.55,0,0,0-.33,1,.55.55,0,0,1,.77-.77A.55.55,0,0,0,60.56,71.19Zm3.54,0a.55.55,0,0,0-.33,1,.55.55,0,0,1,.77-.77A.55.55,0,0,0,64.09,71.19Zm1.49,1a.55.55,0,0,1,.77-.77.55.55,0,1,0-.77.77Zm-3.24-1a.55.55,0,0,0-.33,1,.55.55,0,0,1,.77-.77A.55.55,0,0,0,62.34,71.19Zm3.57,2.14a.55.55,0,0,0-.33,1,.55.55,0,0,1,.77-.77A.55.55,0,0,0,65.91,73.34Zm-1.82,0a.55.55,0,0,0-.33,1,.55.55,0,0,1,.77-.77A.55.55,0,0,0,64.09,73.34Zm-3.54,0a.55.55,0,0,0-.33,1,.55.55,0,0,1,.77-.77A.55.55,0,0,0,60.56,73.34Zm1.79,0a.55.55,0,0,0-.33,1,.55.55,0,0,1,.77-.77A.55.55,0,0,0,62.34,73.34Z"/><path class="cls-5" d="M39.06,83.2a17.19,17.19,0,0,1,9.72-9.72,33,33,0,0,0,3,4.75s-10.67,6-12,15.47Z"/><path class="cls-3" d="M39.11,83.32H39a.27.27,0,0,1-.17-.34,14.33,14.33,0,0,1,2-3.66,18.08,18.08,0,0,1,7.68-6,.27.27,0,1,1,.21.49,16.94,16.94,0,0,0-9.37,9.36A.27.27,0,0,1,39.11,83.32Z"/><path class="cls-3" d="M39.5,93.48h-.07a.27.27,0,0,1-.19-.33,23.81,23.81,0,0,1,2.53-5.44,28,28,0,0,1,9.78-9.64.27.27,0,0,1,.27.46A27.46,27.46,0,0,0,42.22,88a23.72,23.72,0,0,0-2.47,5.31A.27.27,0,0,1,39.5,93.48Z"/><path class="cls-5" d="M86.81,90.54a12.12,12.12,0,0,0,.45-1.22,20.93,20.93,0,0,0,.33-5.69s0-.06,0-.09a.67.67,0,0,1-.07-.19,4.56,4.56,0,0,1-.07-.83s0,0,0-.05a17,17,0,0,0-9.32-8.77,33,33,0,0,1-3,4.75s8.77,4.9,11.42,12.9A3.69,3.69,0,0,1,86.81,90.54Z"/><path class="cls-3" d="M87.39,82.54a.27.27,0,0,1-.24-.15,16.71,16.71,0,0,0-4.42-5.64A17.87,17.87,0,0,0,78.18,74a.27.27,0,1,1,.21-.49,18.39,18.39,0,0,1,4.69,2.83,17.25,17.25,0,0,1,4.56,5.82.27.27,0,0,1-.13.36Z"/><path class="cls-3" d="M86.55,91.42a.27.27,0,0,1-.25-.16A27.08,27.08,0,0,0,75.1,78.74a.27.27,0,0,1,.28-.46A27.61,27.61,0,0,1,86.8,91a.27.27,0,0,1-.14.35Z"/><path d="M41,60.29c-.81-.53-1.67-1-2.46-1.55-.26-.19-.53.26-.25.43A8.46,8.46,0,0,0,41,60.43a.08.08,0,0,0,.06-.14Z"/><path d="M85.46,60.47a9.8,9.8,0,0,0,4.39-3c.23-.26-.15-.64-.38-.38a16,16,0,0,1-4.09,3.19.1.1,0,0,0,.08.18Z"/><path d="M86.69,60.9a10,10,0,0,0,3.37-3.54c.12-.24-.25-.45-.36-.21a8.33,8.33,0,0,1-1.33,1.89,10.33,10.33,0,0,1-1.76,1.71c-.08.06,0,.19.08.14Z"/><path d="M88.82,82.51a14.84,14.84,0,0,1,4.52-.09.25.25,0,1,0,.07-.5,11.72,11.72,0,0,0-4.64.39.11.11,0,0,0,.06.21Z"/><path d="M56.15,112.3c.5.33,1,.6,1.5,1a6.83,6.83,0,0,1,2.13,3.18,17,17,0,0,1,.35,1.81c.07.32.5.21.53-.07a6.82,6.82,0,0,0-4.43-6.08.11.11,0,0,0-.08.19Z"/><path d="M82.53,112.47c.45.35.94.63,1.37,1a7.11,7.11,0,0,1,1.15,1.4,6.77,6.77,0,0,1,.76,1.64,15.74,15.74,0,0,1,.32,1.69c.07.35.56.24.58-.08a6.06,6.06,0,0,0-1.21-3.52,5.79,5.79,0,0,0-2.87-2.34c-.1,0-.19.11-.1.18Z"/><path d="M43.76,119.42a18.2,18.2,0,0,0,6.45.56c.19,0,.2-.32,0-.31a24.91,24.91,0,0,1-6.42-.36c-.07,0-.09.08,0,.1Z"/><path d="M52.07,119.83a21.39,21.39,0,0,0,3.72,0c.2,0,.2-.32,0-.31-1.24.05-2.48.1-3.72.17a.06.06,0,0,0,0,.11Z"/><path d="M70.2,119.66a15.49,15.49,0,0,0,5.09.27c.22,0,.22-.37,0-.34a31.65,31.65,0,0,1-5.08,0,.05.05,0,0,0,0,.1Z"/><path d="M81.72,119.43c-1.45,0-2.9.06-4.36.13-.28,0-.27.46,0,.43,1.46-.13,2.91-.31,4.36-.46.07,0,.07-.11,0-.1Z"/><path d="M87.91,120.43a2,2,0,0,0-.19.83c0,.22,0,.94-.18,1.06a6.1,6.1,0,0,1-2.19.66c-.35,0-.27.66.08.61a7.55,7.55,0,0,0,1.33-.28,3.11,3.11,0,0,0,1.23-.58,1.19,1.19,0,0,0,.21-.89,3.39,3.39,0,0,0-.11-1.4.11.11,0,0,0-.2,0Z"/><path d="M62.06,121.31a6.11,6.11,0,0,0-.31,1.38c-.09.55-.77.52-1.23.59-.94.13-1.89.1-2.82.27-.35.06-.27.66.08.62a29.79,29.79,0,0,0,3.59-.38c.39-.09.83-.22.88-.68a6.52,6.52,0,0,0,0-1.79c0-.13-.19-.1-.23,0Z"/><path d="M40.26,120.75a11.39,11.39,0,0,0-.12,1.21c0,.21-.12.65.08.83a2.56,2.56,0,0,0,.89.38c.51.17,1,.34,1.53.49.34.1.46-.4.14-.52-.63-.22-1.28-.42-1.92-.62-.38-.12-.29-.41-.32-.76a9.46,9.46,0,0,0-.1-1,.1.1,0,0,0-.19,0Z"/><path d="M65.41,121.38c-.05.28-.09.56-.12.85a2.6,2.6,0,0,0,0,1c.18.49.9.54,1.34.67a22.86,22.86,0,0,0,4.4.8c.35,0,.34-.5,0-.54a29.79,29.79,0,0,1-3.48-.6c-.52-.12-1-.27-1.55-.42-.33-.1-.26-.39-.28-.69s0-.68,0-1c0-.17-.27-.21-.3,0Z"/><path d="M73.6,124.6l0,0-.05.13a4.46,4.46,0,0,0,1.24.06h1.63a.27.27,0,0,0,0-.54,6.28,6.28,0,0,0-2.88.36c-.08,0,0,.17.07.12l0,0a0,0,0,0,0,0-.07Z"/><path d="M79.07,124.48c.32.29.84.15,1.24.12.62,0,1.23-.12,1.85-.18.37,0,.37-.63,0-.58l-1.85.22c-.4,0-1,0-1.24.39a0,0,0,0,0,0,0Z"/><path d="M45.21,123.69a8.67,8.67,0,0,0,2.07.42.27.27,0,1,0,.07-.54,8.68,8.68,0,0,0-2.11-.14.14.14,0,0,0,0,.26Z"/><path d="M49.59,124.27a4.39,4.39,0,0,0,2.08.46,14.56,14.56,0,0,0,2.47,0c.36,0,.37-.58,0-.57-.76,0-1.51,0-2.26,0l-1.23-.08a2.89,2.89,0,0,0-1,0,.09.09,0,0,0,0,.16Z"/><path d="M63.69,117.84a3.85,3.85,0,0,0,0,2.05c0,.19.36.15.34,0a13.77,13.77,0,0,0-.29-2,0,0,0,0,0,0,0Z"/><path d="M93.48,99.88a6.11,6.11,0,0,1-2.34,3.45c-.21.17.09.46.3.3a5.34,5.34,0,0,0,2.28-3.71.12.12,0,0,0-.23,0Z"/><path d="M44.6,108.46a7.35,7.35,0,0,0-3,2A5.72,5.72,0,0,0,40.14,114a.29.29,0,0,0,.58.08c.15-.5.22-1,.4-1.51a7.24,7.24,0,0,1,.84-1.58,6.5,6.5,0,0,1,2.67-2.39c.06,0,0-.13,0-.1Z"/><path d="M83.55,108.7a7.84,7.84,0,0,1,2.55,2,7,7,0,0,1,1.56,2.94.31.31,0,0,0,.6-.17,8.11,8.11,0,0,0-1.67-3,6.53,6.53,0,0,0-1.37-1.18,8.84,8.84,0,0,0-1.62-.73c-.09,0-.13.11,0,.15Z"/><path d="M61.3,109.68a28.62,28.62,0,0,1,1.52,4.58c.19.76.33,1.53.46,2.3a18.63,18.63,0,0,0,.35,2.5c.07.23.47.28.52,0a7.41,7.41,0,0,0-.18-2.29,20.94,20.94,0,0,0-.55-2.47,22.9,22.9,0,0,0-2-4.71c-.06-.1-.2,0-.16.09Z"/><path d="M66.57,109.63a15.85,15.85,0,0,0-1.78,4.63c-.21.83-.38,1.66-.51,2.51a7.67,7.67,0,0,0-.21,2.51c.06.29.46.24.54,0a4.39,4.39,0,0,0,.14-1.06c0-.43.09-.86.15-1.28.12-.85.28-1.69.47-2.52.36-1.6,1-3.13,1.35-4.72a.09.09,0,0,0-.16-.07Z"/><path d="M96.63,69.48c0,3.48.14,7,.39,10.45,0,.32.51.33.5,0-.13-3.49-.4-7-.75-10.45,0-.09-.15-.1-.15,0Z"/><path d="M23.33,66.74c-.37.65-.79,1.26-1.21,1.88-.14.21.18.46.35.27A10.8,10.8,0,0,0,23.76,67a.25.25,0,0,0-.42-.25Z"/><path d="M28.91,34.85l0,0a.11.11,0,0,0,0-.11.35.35,0,0,0-.07-.13.17.17,0,0,0-.24,0c-.25.31,0,.81.08,1.15.17.73.34,1.45.45,2.19a28.09,28.09,0,0,1,.32,4.59.3.3,0,0,0,.61,0,22.29,22.29,0,0,0-.24-3.94c-.1-.67-.24-1.33-.39-2-.08-.33-.16-.66-.25-1q-.06-.2-.13-.39s-.27-.7-.37-.45c0,.1.11.18.17.1Z"/><path d="M69,61.15c5.73-.29,12.07-.95,16.92-4.29.33-.23,0-.76-.31-.54a25.72,25.72,0,0,1-8,3.28c-2.83.67-5.73,1-8.6,1.41-.08,0-.06.15,0,.14Z"/><path d="M91.21,50.34a34.76,34.76,0,0,1-3.86,4.58.29.29,0,0,0,.41.41,25.83,25.83,0,0,0,3.78-4.8c.13-.21-.19-.39-.33-.19Z"/><path d="M97.26,34.74a6.55,6.55,0,0,0-.74,1.65,19,19,0,0,0-.61,2.06,16.7,16.7,0,0,0-.53,4.13.31.31,0,0,0,.61,0,32.76,32.76,0,0,1,.49-4c.13-.64.3-1.27.49-1.89a14.94,14.94,0,0,0,.58-1.85.16.16,0,0,0-.29-.12Z"/><path d="M36.43,52.32a6.85,6.85,0,0,0,3.25.31A27,27,0,0,0,43.5,52a54,54,0,0,1,7.67-1.69c.4,0,.41-.67,0-.63A43.89,43.89,0,0,0,44,51.26a31.15,31.15,0,0,1-4,.82,19.75,19.75,0,0,1-3.49,0c-.11,0-.17.17-.06.22Z"/><path d="M35.44,52.84a12.13,12.13,0,0,0-1.06-1.32c-.46-.56-.89-1.14-1.3-1.73s-.74-1.14-1.08-1.73a19.62,19.62,0,0,0-1-1.8.27.27,0,0,0-.49.21,7.34,7.34,0,0,0,.87,1.72c.37.64.79,1.26,1.23,1.86s.77,1,1.2,1.49a7.12,7.12,0,0,0,1.5,1.41.08.08,0,0,0,.11-.11Z"/><path d="M35.63,51.5c-.76-.78-1.6-1.45-2.34-2.25a19.79,19.79,0,0,1-2.13-2.83c-.21-.33-.74,0-.53.31a18.44,18.44,0,0,0,2.19,2.74,11.31,11.31,0,0,0,2.69,2.2.1.1,0,0,0,.12-.16Z"/><path d="M35.4,50.05a12.4,12.4,0,0,1-2.34-1.79,5.54,5.54,0,0,1-1.69-2c-.12-.29-.55-.07-.49.21a3.94,3.94,0,0,0,1.69,2c.41.32.82.64,1.26.92a11.16,11.16,0,0,0,1.51.75c.07,0,.14-.07.06-.11Z"/><path d="M92.51,50.54a5.33,5.33,0,0,0,1.29-1.75,20.35,20.35,0,0,0,1.14-2.25.29.29,0,1,0-.53-.22c-.31.76-.65,1.5-1,2.23a8.52,8.52,0,0,0-1,1.93s0,.09.08.06Z"/><path d="M29.16,32.6c.3,1,.66,2,.94,3.06a21.45,21.45,0,0,1,.59,3.46A29,29,0,0,1,30.43,46c-.05.37.51.53.57.16a28.34,28.34,0,0,0,.27-7.08,15.32,15.32,0,0,0-1.85-6.62.14.14,0,0,0-.25.11Z"/><path d="M93.5,50a11.51,11.51,0,0,0,1-1.62A2.52,2.52,0,0,0,95,46.76c0-.18-.28-.15-.33,0-.33,1.1-1,2.07-1.29,3.17,0,.07.08.14.13.08Z"/><path class="cls-9" d="M93.2,19.61c-.05,0-.69-.66-2-1.76a36.5,36.5,0,0,0-6-4,43.72,43.72,0,0,0-9.9-3.9A51.07,51.07,0,0,0,69.18,8.7a58.77,58.77,0,0,0-6.75-.49,50,50,0,0,0-6.75.32,41.63,41.63,0,0,0-6.17,1.19,37.22,37.22,0,0,0-5.35,1.92A34.64,34.64,0,0,0,39.79,14a31.72,31.72,0,0,0-5.6,4.49c-1.2,1.21-1.76,2-1.81,1.94a7.72,7.72,0,0,1,1.54-2.2,27.89,27.89,0,0,1,5.51-4.81,33.26,33.26,0,0,1,4.41-2.5,36.38,36.38,0,0,1,5.44-2,40.9,40.9,0,0,1,6.3-1.28,48.85,48.85,0,0,1,6.88-.34,56.87,56.87,0,0,1,6.86.51,49.51,49.51,0,0,1,6.28,1.29,41.79,41.79,0,0,1,10,4.16,31.38,31.38,0,0,1,5.87,4.35A7.93,7.93,0,0,1,93.2,19.61Z"/><path class="cls-9" d="M87.77,48.49A14.28,14.28,0,0,1,85.84,48c-1.23-.34-3-.78-5.29-1.19a106.18,106.18,0,0,0-17.82-1.48c-3.5,0-6.83.08-9.84.33a70,70,0,0,0-8,1.09,43.83,43.83,0,0,0-5.24,1.36,18.25,18.25,0,0,1-1.89.64,5.2,5.2,0,0,1,1.76-1,32,32,0,0,1,5.22-1.68,59.71,59.71,0,0,1,8-1.31,94.24,94.24,0,0,1,9.93-.41,88.37,88.37,0,0,1,17.95,1.78A39.42,39.42,0,0,1,86,47.62,5.63,5.63,0,0,1,87.77,48.49Z"/><path class="cls-4" d="M17.13,46.16c-.24-.76-.39-2.09-1.28-2.37-.46-.15-1,.26-1.22.58a5.17,5.17,0,0,0-.82,1.91l-.19,0c-.3,0-.32.51,0,.49.77-.06,1.57-.11,2.34-.14.31,0,.83.11,1-.19h0A.24.24,0,0,0,17.13,46.16Z"/><path class="cls-4" d="M12.75,52.24a12.63,12.63,0,0,0-3.35-1.6,5,5,0,0,0-3.75.1A7.17,7.17,0,0,0,1.95,55.4a5.3,5.3,0,0,0-.58,1.87,8.86,8.86,0,0,1-.49,2.1,5.41,5.41,0,0,0-.36,1.87.52.52,0,0,0-.14.22,5.53,5.53,0,0,0,.27,3.49C1,66,2,67.21,3.25,67.2,5,67.8,7.14,67,8.67,66a14.71,14.71,0,0,0,4.77-6.06,10.66,10.66,0,0,0,1.2-4.1A4.24,4.24,0,0,0,12.75,52.24Z"/><path class="cls-3" d="M.88,59.47S-.05,64,3.95,65s9.9-7.53,10.43-10.71a4.17,4.17,0,0,1,.36,2,20.81,20.81,0,0,1-2.82,6.68,18.62,18.62,0,0,1-3.49,3.25c-1.62,1-3.77,1.91-5.7,1.08a3.74,3.74,0,0,1-2.4-3.32A21.21,21.21,0,0,1,.88,59.47Z"/><path d="M95.84,88.07a8.06,8.06,0,0,0-.15-.95,5.14,5.14,0,0,0,.12-1.55c0-.7,0-1.39,0-2.09,0-1.74.06-3.47.06-5.21a74.38,74.38,0,0,0-.81-11.79,22,22,0,0,0-1.9-6.42,6.21,6.21,0,0,0-3.31-3.25l-.14-.15a.21.21,0,0,0-.34.06.23.23,0,0,0,0,.42l.22.08a2.55,2.55,0,0,1,.22.31,15.58,15.58,0,0,1-.81,1.39,9.37,9.37,0,0,1-1.36,1.51,33.6,33.6,0,0,1-3.22,2.44,20.09,20.09,0,0,0-3,2.52,9.55,9.55,0,0,0-1.12,1.46,3.93,3.93,0,0,0-.74,1.77.12.12,0,0,0,.22.06,4.82,4.82,0,0,0,.39-.85,7.81,7.81,0,0,1,.5-.92A9.31,9.31,0,0,1,82,65.36a24.16,24.16,0,0,1,3.18-2.57,26,26,0,0,0,3-2.41A6.74,6.74,0,0,0,90,57.75a1.46,1.46,0,0,1,.11.82A2.91,2.91,0,0,1,89.27,60a19.65,19.65,0,0,1-2.54,2.12,25.22,25.22,0,0,0-5.83,6.12C78.06,72.53,76.61,78,72,80.89A16.42,16.42,0,0,1,62.9,83.3a15.79,15.79,0,0,1-8.76-3.11c-4.22-3.26-5.58-8.84-8.61-13a22.46,22.46,0,0,0-2.38-2.75c-.93-.92-2-1.7-3-2.53s-3.63-2.39-3-4c.33,1.4,1.92,2.48,3,3.2.77.5,1.57,1,2.32,1.51a8.34,8.34,0,0,1,1.91,2s0,0,0,0C44,63,42.22,62,40.94,61.21a15.66,15.66,0,0,1-2.17-1.58,5.36,5.36,0,0,1-.88-1,9.79,9.79,0,0,1-.53-1.14l.08-.1c.23-.3-.19-.73-.42-.42l-.1.13h-.09c-1.48.11-2.92.46-4.39.63A13.55,13.55,0,0,1,28,57.45,13.13,13.13,0,0,1,24.5,56a9.31,9.31,0,0,0-2.95-1.24c-.13-.53-.26-1.06-.35-1.6a28.36,28.36,0,0,0-1.57-6.21c-.69-1.63-2-3.27-3.86-3.43-1.45-.13-2,1.35-2.29,2.52-.21,1-.29,2-.43,3.05a5.27,5.27,0,0,1-.66,2.33,2.7,2.7,0,0,0-.52,0,.08.08,0,0,0-.06.14l.15.12a.08.08,0,0,0,.07.13h0a.09.09,0,0,0,.09,0l.21.11a.2.2,0,0,0,.17.08l.62.26a12.12,12.12,0,0,0,1.53.78.24.24,0,0,0,.27-.35,2.27,2.27,0,0,0-1.28-.81c-.21-.08-.45-.17-.69-.25.73-.89.75-2.39.88-3.44a16.94,16.94,0,0,1,.39-2.34,2.22,2.22,0,0,1,.89-1.46c.63-.35,1.51.1,2,.45a5.44,5.44,0,0,1,1.74,2.31,30.75,30.75,0,0,1,1.65,6.25c.24,1,.54,2.07.7,3.13a11.26,11.26,0,0,1,.06,2.16c0,.76-.3,1.51-.28,2.27a.13.13,0,0,0,.25.07,4.84,4.84,0,0,0,.61-2.07,9.05,9.05,0,0,0,0-2.32,12,12,0,0,0-.24-1.33,15.92,15.92,0,0,1,2.84,1.43c.32.17.63.34,1,.49a3,3,0,0,1,1.09,2.45A13.66,13.66,0,0,1,26,64a16.29,16.29,0,0,1-1.8,4.28c-.54.88-1.37,2-2.49,2.17a.22.22,0,0,0-.1,0c-1.92-.61-3.87-1.17-5.8-1.69l-.22-.06.19-.1a7.37,7.37,0,0,0,3-3.08.25.25,0,0,0-.44-.25,7.35,7.35,0,0,1-3,3.12,5,5,0,0,1-3.76,0c-2-.63-4.46-2.27-6.61-1.2a.2.2,0,0,0,.1.38,11.78,11.78,0,0,1,1.87.09,16.23,16.23,0,0,1,1.82.46,30.38,30.38,0,0,0,3.68,1A5.58,5.58,0,0,0,15,69c4.27,1.48,8.64,2.61,12.81,4.35s8.46,3.94,10.81,7.79h0c.28,3.23.32,6.5.5,9.71.19,3.48.46,7,.59,10.43s.09,7.09.1,10.64q0,1.47,0,2.94a10.26,10.26,0,0,0-.76,4v0c-.76.36-.6,1.78-.62,2.49a3.36,3.36,0,0,0,.14,1.66,1.75,1.75,0,0,0,1.11.73h0a22.83,22.83,0,0,0,4.87,1.42A39.81,39.81,0,0,0,51,126a47.25,47.25,0,0,0,6.51-.34,25.54,25.54,0,0,0,3-.48,10.09,10.09,0,0,0,2.31-.64.23.23,0,0,0,.11,0,1.87,1.87,0,0,0,1-.62l.06-.09a1.77,1.77,0,0,0,1.1.72.23.23,0,0,0,.11,0,9.93,9.93,0,0,0,2.12.6,25.24,25.24,0,0,0,3,.51,47.43,47.43,0,0,0,6.5.37,38.62,38.62,0,0,0,6.45-.76,23,23,0,0,0,5.06-1.45h0a1.87,1.87,0,0,0,1-.62,2.85,2.85,0,0,0,.21-1.76c0-.71.14-2.12-.62-2.49v0a10.32,10.32,0,0,0-.66-3.75q0-4.87,0-9.74a4.12,4.12,0,0,0,3.65-.49c2.36-1.48,3-4.2,3.41-6.77a42.59,42.59,0,0,0,.42-5A40.77,40.77,0,0,0,95.84,88.07Zm-7.59,30.81a.43.43,0,0,0,.07.22c-.73.13-1.46.37-2.17.57a20.7,20.7,0,0,1-3,.59,46.86,46.86,0,0,1-6,.27c-2,0-4.1,0-6.14-.12a27.28,27.28,0,0,1-6-.87c.23-2.68.86-5.3,3-7.12s5.13-2.19,7.94-2.16a21.89,21.89,0,0,1,7.49,1.21,7.15,7.15,0,0,1,4.13,3.85A10.35,10.35,0,0,1,88.25,118.88Zm-30.88,1.52c-2,.14-4.1.12-6.15.13a51.86,51.86,0,0,1-6-.24,22.06,22.06,0,0,1-3-.56c-.78-.2-1.56-.47-2.36-.62a.44.44,0,0,0,.07-.23A8.41,8.41,0,0,1,42,113.17a10.42,10.42,0,0,1,5.75-2.5,30.53,30.53,0,0,1,4.1-.4,17.84,17.84,0,0,1,4.18.24,8.39,8.39,0,0,1,6.28,5,14.14,14.14,0,0,1,.81,4.06A27.46,27.46,0,0,1,57.37,120.41Zm6.36,3c-.07.4-.55.58-.88.69a.24.24,0,0,0-.11.07c-.26.07-.52.17-.78.24-.5.15-1,.27-1.52.39a24.78,24.78,0,0,1-3.12.48c-1,.1-2,.16-3,.22s-2,0-3.08,0a33.89,33.89,0,0,1-11.93-2.37l-.06,0a1,1,0,0,1-.25-.26c-.2-.3-.08-.87-.07-1.21s-.09-2.17.46-2.24c3.71,1.57,7.67,1.78,11.66,1.78,2.12,0,4.24,0,6.35-.12a25.51,25.51,0,0,0,5.95-.89c.29.08.28.44.32.77s.06.83.08,1.24A5.84,5.84,0,0,1,63.73,123.39Zm25.5-1.79a2.61,2.61,0,0,1-.07,1.21.7.7,0,0,1-.23.25l-.08,0a34.31,34.31,0,0,1-11.93,2.37,48.72,48.72,0,0,1-6.11-.2,25.24,25.24,0,0,1-3.12-.48c-.45-.1-.89-.21-1.33-.33s-.65-.22-1-.3a.24.24,0,0,0-.1-.07,1.41,1.41,0,0,1-.81-.51c-.2-.3-.08-.87-.07-1.21s0-.83.07-1.24,0-.88.34-1a25.62,25.62,0,0,0,5.73.87c2.12.16,4.24.13,6.36.13,4.05,0,8.08-.18,11.85-1.78C89.33,119.42,89.22,121.16,89.23,121.6Zm-1.45-7.77a7.55,7.55,0,0,0-.58-.8A9.55,9.55,0,0,0,82,110.13a26,26,0,0,0-7.88-.6,13.75,13.75,0,0,0-3.87.95A9.57,9.57,0,0,0,67,112.61,10.21,10.21,0,0,0,64.48,119c.12-5.46.17-10.94,0-16.4a.33.33,0,0,0,0-.07s0-.06,0-.09a7.79,7.79,0,0,1,.18-1.23c.15-.73.42-1.42.52-2.16a.06.06,0,0,0-.09-.05,3.92,3.92,0,0,0-1,2.07l-.08.34v0a6.57,6.57,0,0,0-.69-1.64.14.14,0,0,0-.26.11,11.13,11.13,0,0,0,.41,1.67c.07.24.14.47.21.71s.09.69.18,1c0,5.46,0,10.92-.17,16.38-.21-2.48-.73-5-2.46-6.85A9.24,9.24,0,0,0,58,110.51a11.64,11.64,0,0,0-1.76-.56,14.08,14.08,0,0,0-2-.4,26.64,26.64,0,0,0-7.91.55A9.79,9.79,0,0,0,41,112.94a6.85,6.85,0,0,0-.59.77c0-3.09,0-6.19,0-9.28,0-3.49-.27-7-.49-10.45s-.33-6.75-.51-10.13a45.69,45.69,0,0,0-1.25-9.31,21.88,21.88,0,0,0-1.06-3c-.11-.27-.57-.08-.47.19a33.42,33.42,0,0,1,1.83,8.19c-2.38-3.19-6.17-5.2-9.74-6.75-2.08-.9-4.23-1.69-6.4-2.4a4.86,4.86,0,0,0,2-1.92,15.89,15.89,0,0,0,2-4.7,12.43,12.43,0,0,0,.5-4.83,4,4,0,0,0-.63-1.78c.28.11.56.22.85.31a14.92,14.92,0,0,0,2,.53,9,9,0,0,1,2.65,1,.16.16,0,0,0,.19-.24,2.77,2.77,0,0,0-1.37-.77,16,16,0,0,0,1.63-.06c1.45-.13,2.88-.46,4.33-.57-.55,1.65,1.21,3.09,2.5,4.09A29.91,29.91,0,0,1,45,67.49c3.07,4.16,4.39,9.55,8.46,13a16,16,0,0,0,8.07,3.31,17.11,17.11,0,0,0,8.94-1.48,13.6,13.6,0,0,0,5.76-4.79A61.61,61.61,0,0,0,80,70.76a23,23,0,0,1,6.91-8.18c1.49-1.15,4.31-3,3.47-5,2.07,1.28,3,4.14,3.56,6.35a52.81,52.81,0,0,1,1.27,11.64c0,1.95,0,3.89,0,5.84a4.55,4.55,0,0,0-3.28-1,14.93,14.93,0,0,0-2.36.29c-.61.11-1.25.2-1.86.37,0-.13,0-.27,0-.4-.08-1.53-.2-3.06-.33-4.59-.07-.8-.12-1.6-.2-2.4a13.32,13.32,0,0,0-.28-2.26c0-.11-.22-.13-.24,0a10.59,10.59,0,0,0,0,2.06c0,.8.1,1.6.16,2.4.11,1.59.22,3.19.3,4.78a56.79,56.79,0,0,1-.25,8.64.35.35,0,0,0,0,.17,3.21,3.21,0,0,0-.37,1.19.34.34,0,0,0-.13.23,34.16,34.16,0,0,0-.32,4.94,5.58,5.58,0,0,0,.69,3,7.36,7.36,0,0,0,.33,5.24,2.84,2.84,0,0,0,.69.86.35.35,0,0,0,0,.1Zm7.42-19.88a40.59,40.59,0,0,1-.53,5,9.36,9.36,0,0,1-1.29,3.67c-1,1.59-3.77,3.43-5.41,1.58a4.4,4.4,0,0,1-.85-2.45,8.47,8.47,0,0,1,.11-2.42l.1.06c1.34.73,3.13-.89,3.65-2,.86-1.83.45-4.08.22-6,0-.37-.61-.39-.59,0,.09,1.75.43,3.55-.07,5.27a3.22,3.22,0,0,1-1.62,1.91c-.39.22-1,.47-1.38.15a2.17,2.17,0,0,1-.62-1.28,9.93,9.93,0,0,1-.18-2.14,36.07,36.07,0,0,1,.3-4.26,6.19,6.19,0,0,0,.27-.84,7.11,7.11,0,0,1,.28-.7l0-.08.14-.3c.16-.33.34-.65.53-1a3,3,0,0,0,.54-1,.06.06,0,0,0-.08-.06c-.35.15-.57.52-.8.81l-.25.32c.13-2.24.13-4.49,0-6.74.48,0,1-.17,1.42-.26a22.3,22.3,0,0,1,2.24-.32c1.37-.11,2.91,0,3.81,1.17v.24c0,.92,0,1.85-.07,2.77,0,.1,0,.21,0,.31l0-.1c-.14-.29-.37-.52-.51-.81s-.74-.05-.55.31.41.56.54.89.24.66.35,1A8.72,8.72,0,0,1,95.24,89Q95.33,91.48,95.21,93.95Z"/><path d="M55.76,80.22A13.44,13.44,0,0,0,62,82.54a13.28,13.28,0,0,0,8.14-1.65c.21-.12,0-.41-.18-.32A21.84,21.84,0,0,1,66.06,82a12.58,12.58,0,0,1-4.1.14,13.39,13.39,0,0,1-6.13-2.32c-3.65-2.49-5.94-6.56-8-10.36-.08-.15-.31,0-.23.13C49.71,73.54,52.06,77.59,55.76,80.22Z"/><path d="M73,79.22a8.43,8.43,0,0,0,1.69-1.6,16.54,16.54,0,0,0,1.58-2.12,18.08,18.08,0,0,0,1.23-2.3A8.1,8.1,0,0,0,78.19,71s-.06-.06-.08,0c-.34.68-.57,1.41-.89,2.1A20.81,20.81,0,0,1,76,75.19a19.58,19.58,0,0,1-1.5,2.09c-.53.64-1.16,1.17-1.72,1.77C72.74,79.13,72.84,79.28,73,79.22Z"/><path class="cls-5" d="M6.83,50.14a3.24,3.24,0,0,1,.78-2.34c1.1-1.1,2.63-1.17,4.09-1.25L33,44.73c1.45,0,3-.06,4.09,1s1.15,2.79,1.11,4.21l.36,10.9c0,1.49-.11,3.07-1.27,4.24a6.23,6.23,0,0,1-4.45,1.48L7.9,67.6l-1.31-.32a16,16,0,0,0,6.33-6.05A12.45,12.45,0,0,0,14.66,57a5.85,5.85,0,0,0-.82-4c-.7-1.09-2.06-1.42-3.58-2.26a6.22,6.22,0,0,0-3.42-.57Z"/><path class="cls-6" d="M33.26,44.88a2.68,2.68,0,0,1,3,2.09c.14,1.09.08,2.31.15,3.41.16,2.81.2,5.64.32,8.45,0,.68,0,1.35.07,2,0,0,.26,4.18-2.63,4.47l-26,1.14-1.29.7.8.43,26-1s3.37-.62,4.23-2.17.53-6,.49-7.25,0-9.87-.83-10.76S36,44.56,33.26,44.88Z"/><path class="cls-4" d="M14.65,54.26a26.34,26.34,0,0,1-.27,4.15A43,43,0,0,1,12,63a25.9,25.9,0,0,1-3.69,3.74l-.18,0c-.3.06-.61.1-.91.17a.23.23,0,0,0-.12.36.11.11,0,0,0,0,.18,1.1,1.1,0,0,0,.24.06l-.12.1,4-.32A13.07,13.07,0,0,0,14.65,54.26Z"/><path d="M7.9,67.87H7.83l-1.31-.32A.27.27,0,0,1,6.45,67a15.66,15.66,0,0,0,6-5.68l.18-.29a12.19,12.19,0,0,0,1.71-4.16,5.55,5.55,0,0,0-.78-3.81,4.79,4.79,0,0,0-2.2-1.53c-.41-.19-.83-.39-1.28-.64a5.43,5.43,0,0,0-2.56-.58,5.62,5.62,0,0,0-.7,0,.27.27,0,0,1-.31-.27,3.5,3.5,0,0,1,.86-2.52c1.16-1.16,2.71-1.24,4.21-1.32h.05l21.25-1.82h.48c1.43,0,2.79.09,3.82,1.11s1.24,2.78,1.2,4.4l.37,10.89v0c-.11,1.4-.1,3.15-1.36,4.42a6.41,6.41,0,0,1-4.64,1.56l-24.91,1Zm-.61-.69.64.16,24.87-1h0a6.05,6.05,0,0,0,4.26-1.41c1.11-1.11,1.13-2.67,1.17-4L37.85,50v0a5,5,0,0,0-1-4c-.89-.89-2.07-1-3.43-1H33L11.72,46.82h-.06C10.26,46.9,8.82,47,7.8,48a2.69,2.69,0,0,0-.69,1.86h.46a6,6,0,0,1,2.82.64c.43.24.85.43,1.25.62a5.24,5.24,0,0,1,2.43,1.73,6.12,6.12,0,0,1,.86,4.2,12.75,12.75,0,0,1-1.79,4.36l-.18.28A15.9,15.9,0,0,1,7.29,67.18Z"/><path class="cls-14" d="M31.5,53.71a.59.59,0,0,0-.13-.15.49.49,0,0,0,0-.15.66.66,0,0,0-.94-.23,2,2,0,0,0-.64.73,2.14,2.14,0,0,0-.33,1.85,1.21,1.21,0,0,0,1.8.72A2.08,2.08,0,0,0,31.5,53.71Z"/><path class="cls-15" d="M30.86,53.88a.34.34,0,0,0-.33-.33c-.38,0-.58.36-.7.66a2.78,2.78,0,0,0-.14,1,.47.47,0,0,0,.94,0,3.93,3.93,0,0,1,0-.63C30.71,54.35,30.89,54.12,30.86,53.88Z"/><path class="cls-11" d="M30.39,53.76a1.35,1.35,0,0,0-.42.74,1.16,1.16,0,0,0,0,.81.12.12,0,0,0,.21,0,1.56,1.56,0,0,0,.1-.69,3.28,3.28,0,0,1,.2-.8c0-.06-.06-.1-.1-.06Z"/><path class="cls-16" d="M31.72,57.23a.16.16,0,0,1,0-.12L31.8,57a2.34,2.34,0,0,0,.18-.51c0-.11.06-.25.09-.39l0-.21q0-.11,0-.22a4.45,4.45,0,0,0-.08-1,4.68,4.68,0,0,0-.3-1,4,4,0,0,0-.4-.73l-.1-.13a1.24,1.24,0,0,0-.1-.12l-.17-.2c-.1-.11-.15-.2-.13-.26s.12-.09.3-.07l.14,0,.16.06a1,1,0,0,1,.18.09l.19.12a2.78,2.78,0,0,1,.72.8A3.67,3.67,0,0,1,33,54.43a3.57,3.57,0,0,1,0,1.31l-.07.29-.1.27a2.9,2.9,0,0,1-.23.43,1.24,1.24,0,0,1-.57.52.41.41,0,0,1-.22,0A.11.11,0,0,1,31.72,57.23Z"/><path class="cls-17" d="M29.79,57.71c0,.05-.15,0-.32,0a2,2,0,0,1-.54-.52l-.14-.2-.14-.22-.13-.24-.06-.12-.07-.14a3,3,0,0,1-.2-.65,4.23,4.23,0,0,1-.08-.7,4,4,0,0,1,.18-1.34,2.39,2.39,0,0,1,.6-1,1.54,1.54,0,0,1,.39-.26,1.07,1.07,0,0,1,.34-.09h.13l.09,0c.05,0,.08,0,.09.08s-.3.28-.51.69a2.73,2.73,0,0,0-.26.79,5.2,5.2,0,0,0-.08,1.09,4.4,4.4,0,0,0,.14,1.05l.16.49.14.42c.09.25.17.45.22.59S29.83,57.66,29.79,57.71Z"/><path d="M36.26,46.86q.16,2.73.25,5.47c.07,1.89,0,3.79.1,5.68a.17.17,0,0,0,.33,0c.08-1.81,0-3.65-.08-5.47s-.21-3.79-.42-5.68c0-.11-.19-.12-.18,0Z"/><path d="M36.66,59.72a16.49,16.49,0,0,1-.1,3A3,3,0,0,1,36,63.93c-.36.47-.91.7-1.28,1.13a.18.18,0,0,0,.17.3,3.31,3.31,0,0,0,2-2.23,8.9,8.9,0,0,0,0-3.41.12.12,0,0,0-.25,0Z"/><path d="M30.53,52.83c-1.73.27-2.05,3.16-.66,4,1,.61,2-.27,2.24-1.18s-.22-2.93-1.52-2.87c-.29,0-.29.46,0,.45,1.07-.05,1.26,1.72,1,2.44a1.07,1.07,0,0,1-1.8.54c-.76-.83-.4-2.8.81-3C30.94,53.22,30.82,52.79,30.53,52.83Z"/><path d="M29.64,52.25c-.47,0-.89.45-1.13.8a3,3,0,0,0-.44,1.62c0,1,.41,2.6,1.43,3.08.13.06.27-.1.15-.2a3.76,3.76,0,0,1-1.31-2.65,3.3,3.3,0,0,1,.25-1.56c.23-.53.67-.69,1.05-1.07a0,0,0,0,0,0,0Z"/><path d="M31.07,52.2a2.9,2.9,0,0,1,1,.69,3.45,3.45,0,0,1,.67,1.48,3.77,3.77,0,0,1,0,1.66A2.42,2.42,0,0,1,32,57.24c-.07.07,0,.21.1.18,1.1-.4,1.11-2.07.94-3s-.89-2.47-2-2.3a0,0,0,0,0,0,.09Z"/><path d="M30.36,57.89a1.59,1.59,0,0,0,1.1-.08c.1-.06.07-.25-.06-.23s-.29.07-.43.1a2.77,2.77,0,0,1-.58,0,.08.08,0,0,0,0,.16Z"/><path d="M.88,57.63a16.67,16.67,0,0,0-.8,6.58,4.17,4.17,0,0,0,3.84,3.63c2.29.28,4.37-.93,6-2.42a18.35,18.35,0,0,0,4.13-5.72A9.73,9.73,0,0,0,15,56.5a6.45,6.45,0,0,0-.8-3.51c-.11-.21-.4,0-.32.18A6.6,6.6,0,0,1,14,58a15.77,15.77,0,0,1-1.64,3.16,14.84,14.84,0,0,1-5.07,5.22c-1.81,1-4.65,1.2-6-.7C.12,64,.75,61.38,1,59.46c.09-.59.19-1.18.26-1.77,0-.25-.36-.28-.42-.05Z"/><path d="M14.5,53.94a2.75,2.75,0,0,0-1.14-1.84,9.38,9.38,0,0,0-2.53-1.53,6.59,6.59,0,0,0-5.17-.45,8,8,0,0,0-3.83,4.43A28.22,28.22,0,0,0,0,62.19c-.05.42.6.41.66,0a30.13,30.13,0,0,1,1.57-6.9,8.23,8.23,0,0,1,3.3-4.37c1.53-.86,3.26-.44,4.8.15s3.25,1.4,3.94,2.93a.12.12,0,0,0,.22-.06Z"/><path d="M99.88,35.66a4.68,4.68,0,0,0-1.15-2.2,8.15,8.15,0,0,0-1.87-1.58.3.3,0,0,0,0-.08,34.8,34.8,0,0,0-1.14-9.55A14.84,14.84,0,0,0,94,18.16,16.88,16.88,0,0,0,91.2,15a.35.35,0,0,0-.07-.2A38,38,0,0,0,78,3.48,33.76,33.76,0,0,0,69.41.67,32.18,32.18,0,0,0,59.78.16,34,34,0,0,0,45.53,4.77a38.38,38.38,0,0,0-10.47,9.59,14.6,14.6,0,0,0-4.34,5.37,30.51,30.51,0,0,0-2,12.08v0a6.38,6.38,0,0,0-3.1,3.7c-.44,1.73,0,3.65.35,5.37.25,1.41.25,2.93,1.09,4.16l.14.19.08,0a5.2,5.2,0,0,1,.66-.05l-.07-.07c.36-.27.34-1.13.34-1.46a9.06,9.06,0,0,0-.3-2.67,0,0,0,0,0,0,0,13.6,13.6,0,0,0,.06,2c0,.34.14,1.66-.26,1.92a3.06,3.06,0,0,1-.21-.29,10.49,10.49,0,0,1-.91-3.83,14.12,14.12,0,0,1-.39-4.92c0-.07,0-.15,0-.22A2.36,2.36,0,0,1,27,37a11.2,11.2,0,0,1,.41,1.85s0,0,0,0a9.22,9.22,0,0,0-.35-2.35c-.12-.37-.38-1.08-.83-1.24a4.47,4.47,0,0,1,1-1.53c.51-.55,1.16-.93,1.7-1.44.32,1,.81,1.93,1.12,2.92A21.19,21.19,0,0,1,30.83,39a23.17,23.17,0,0,1,.1,3.78,9.91,9.91,0,0,1-.22,1.91,1.63,1.63,0,0,1,.55.09A9.28,9.28,0,0,0,31.51,43a20.88,20.88,0,0,0-.12-4,21.26,21.26,0,0,0-.79-3.76A16.53,16.53,0,0,0,30,33.62a6.31,6.31,0,0,1-.49-1.83,16.37,16.37,0,0,1,0-2.31,33.32,33.32,0,0,1,.53-4.81A24.55,24.55,0,0,1,30.69,22a13.2,13.2,0,0,1,2-4.1,18.35,18.35,0,0,1,3.09-3.14c5-4.14,11.41-6.48,17.73-7.68,12.23-2.32,26.12-.45,36.17,7.32l.57.46.23.3a.41.41,0,0,0,.32.17,20.16,20.16,0,0,1,2,2A12.56,12.56,0,0,1,95,21.65,32.15,32.15,0,0,1,96.32,31.8a.29.29,0,0,0,0,.1,10.59,10.59,0,0,0-1.44,3.2,20.21,20.21,0,0,0-.83,3.75,22.68,22.68,0,0,0-.16,4,13.39,13.39,0,0,0,.63,3.4,7.58,7.58,0,0,1-5.36,3.34c-2.66.33-5.29-.57-7.86-1.14a85.24,85.24,0,0,0-18.37-2h0a85.79,85.79,0,0,0-18.37,2,34.5,34.5,0,0,1-6.45,1.2,1.62,1.62,0,0,1,.06.3V50a26.93,26.93,0,0,0,5.08-.88,86.32,86.32,0,0,1,9.63-1.73,87.23,87.23,0,0,1,10-.52h0a91,91,0,0,1,9.83.5,82.72,82.72,0,0,1,9.63,1.71c2.49.57,4.94,1.25,7.5.75a7.32,7.32,0,0,0,4.74-3.25l0,.05a.26.26,0,0,0,.13.15,7.72,7.72,0,0,1-4.75,3.91c-2.59.68-5.19-.1-7.71-.68A84.61,84.61,0,0,0,73,48.33a88.5,88.5,0,0,0-10-.55h0a92.69,92.69,0,0,0-9.79.53A82,82,0,0,0,43.54,50a26.8,26.8,0,0,1-5.32.93q0,.15,0,.31a20.4,20.4,0,0,0,4.21-.66A92.7,92.7,0,0,1,52.52,48.7a84.79,84.79,0,0,1,10.41-.58h0a88.18,88.18,0,0,1,10.2.55,89.48,89.48,0,0,1,10.33,1.94c2.32.55,4.67,1,7,.28a7.45,7.45,0,0,0,4.27-3.63,19.83,19.83,0,0,1-2.42,5.68,15.66,15.66,0,0,1-4.83,5.18l-.09,0a29.51,29.51,0,0,1-8.94,3.22,91.06,91.06,0,0,1-9.87,1.49A59.7,59.7,0,0,1,58.32,63,42.64,42.64,0,0,1,48.19,61c-2-.67-4-1.43-6-2.24-1.25-.51-2.56-1-3.8-1.58a2.47,2.47,0,0,1,.15.9,1.27,1.27,0,0,1,0,.19c1.05.47,2.15.87,3.2,1.3a62,62,0,0,0,9.56,3.18,47.69,47.69,0,0,0,10.11,1.11,77.92,77.92,0,0,0,13.86-1.32c4.23-.72,8.5-1.68,12.24-3.87a.22.22,0,0,0,.11,0,16.12,16.12,0,0,0,5-5.29A14.62,14.62,0,0,0,95,46.83a.25.25,0,0,0,.14-.1,4.4,4.4,0,0,0,3.21-1.61c.9-1.19.88-2.83,1.12-4.24A14.9,14.9,0,0,0,99.88,35.66Zm-16-25.5A42.84,42.84,0,0,0,75.4,7a49.83,49.83,0,0,0-18.9-1.11,44.79,44.79,0,0,0-18.24,6.18c-.5.32-1,.65-1.51,1a36.21,36.21,0,0,1,12-9.36,34.45,34.45,0,0,1,9.13-2.66,31.2,31.2,0,0,1,10,0A32.73,32.73,0,0,1,80.48,5.78,37.88,37.88,0,0,1,88.68,13,39.35,39.35,0,0,0,83.84,10.17ZM98.93,40.73A11.85,11.85,0,0,1,98,44.56a2.64,2.64,0,0,1-.21.31c-.42-.2-.3-1.48-.3-1.82A16,16,0,0,0,97.6,41a0,0,0,0,0,0,0,9.33,9.33,0,0,0-.3,2.56c0,.35,0,1.34.37,1.59a4.9,4.9,0,0,1-2.51,1.22,13.89,13.89,0,0,1-.62-3.51,24.38,24.38,0,0,1,.1-3.78,21.32,21.32,0,0,1,.73-3.63c.31-1.06.83-2.05,1.17-3.1.5.47,1.1.84,1.59,1.33a4.33,4.33,0,0,1,1.06,1.65c-.44.17-.69.87-.82,1.23A8.6,8.6,0,0,0,98,38.89s0,0,0,0a12.56,12.56,0,0,1,.38-1.73,2.51,2.51,0,0,1,.86-1.56c0,.07,0,.14.06.22A13.1,13.1,0,0,1,98.93,40.73Z"/><path class="cls-3" d="M5.83,53A13.88,13.88,0,0,0,3.54,57.7,18.25,18.25,0,0,0,2.42,63c0,.34.54.43.61.08.15-.81.22-1.64.37-2.45A26.32,26.32,0,0,1,4,58c.5-1.71,1.33-3.29,1.84-5a0,0,0,0,0,0,0Z"/></g></g></svg>