<svg xmlns="http://www.w3.org/2000/svg" viewBox="0 0 933.06 1175.8"><defs><style>.cls-1{fill:#e12106;}.cls-2{fill:#960700;}.cls-3{fill:#333;}.cls-4{fill:#5c5c5c;}.cls-5{fill:#f2f2f2;}.cls-6{fill:#d9d9d9;}.cls-7{fill:#1e2815;}.cls-8{fill:#172029;}.cls-9{fill:#2f4021;}.cls-10{fill:#637253;}.cls-11{fill:#fff;}.cls-12{fill:#212121;}.cls-13{fill:#e14b36;}.cls-14{fill:#3b5269;}.cls-15{fill:#8faabf;}.cls-16{fill:#a1a1a1;}.cls-17{fill:#696969;}</style></defs><title>spaceman</title><g id="Layer_2" data-name="Layer 2"><g id="Layer_7" data-name="Layer 7"><path class="cls-1" d="M891.28,700.59c-1.21-18.45-2.39-36.94-4-55.37-1.53-18-4.06-36.22-10.88-53.07l-.06-.16c-4.69-17.58-12.09-38.25-26.14-50.41q-.95-1.8-1.87-3.6c-1.91-3.74-8.6-4.22-10.37,0-10.7,25.58-29.83,44.55-49.59,63.29-20,19-34.69,42.41-47.37,66.69s-25.51,48.79-44.43,69a120.41,120.41,0,0,1-28.88,22.86c.5-7.57.94-15.14,1.29-22.71q.68-14.86,1.1-29.72-8.08,8.86-15.88,18c-7.44,8.72-14.82,17.75-21.89,27.1a81.93,81.93,0,0,0-10.63.16,8.78,8.78,0,0,0-6.3-1.29c-.9-6.32-10.72-7.45-12.33-.7-.1.41-.19.83-.28,1.24a6.59,6.59,0,0,0-8.92,1.06c-.54.57-1.06,1.16-1.57,1.75a5.9,5.9,0,0,0-6.28,0,6.87,6.87,0,0,1-3.37.53C575,744.92,566.88,735,558.71,725.39c-28.16-33-59.31-63.21-91.48-92.27-33.1-29.9-66.68-59.59-101.74-87.16a8.26,8.26,0,0,0-4.16-1.77,10.49,10.49,0,0,0-2.58-1.1c-14.62-4.09-29.65.87-44.23,2.48a136.31,136.31,0,0,1-41.8-2c-12.88-2.67-23.75-8.35-34.87-15.11-8.32-5.06-22.11-13.4-32.57-10.14-.62-4.53-1.23-9.07-1.78-13.6-2.75-22.74-5.81-46.68-18.19-66.5a65.68,65.68,0,0,0-6.86-9.11,9,9,0,0,1-4-1.2l-1.84-1.42a11.34,11.34,0,0,1-2.55-3.2,12.26,12.26,0,0,1-1.41-3.6,9.46,9.46,0,0,1-.29-1.92,32.58,32.58,0,0,0-6.73-2.55,15.77,15.77,0,0,0-7.48-7.08c-5.72-2.31-11.57,1.69-15.2,5.81a40.9,40.9,0,0,0-4.63,6.48,24.48,24.48,0,0,0-5.35,13.36,74.82,74.82,0,0,0-1.92,8.94,41.42,41.42,0,0,0-.55,7.68c.12,3,1.27,4.83,2.22,7.49a2.68,2.68,0,0,0,2,1.83q-1,5.36-1.69,10.74c-.25,1.86-.6,3.91-.86,6-3.48-.87-7-1.69-10.45-2.52-9.77-2.33-18.46-7.54-27.55-11.65-.15.69-.32,1.38-.52,2C100,466.8,109,474.47,113.6,484.54c10.12,22.22,10,48.05.77,70.52A275.34,275.34,0,0,1,94,594.7c-4.71,7.66-10.79,13.93-17.2,20.13-.68.65-1.37,1.3-2,2q-1.67,2.57-3.17,5.24c-1,1.86-2.05,3.8-3.1,5.77,9.07,1.73,17.26,6.71,25.56,10.55a14.16,14.16,0,0,0,2,.5c1.9.43,3.79.85,5.71,1.2,1,.18,7,1,5.24.84,1.23.14,2.46.28,3.69.38,6.93.59,13.73,0,20.64.28a53.22,53.22,0,0,1,16.59,3.13c3.18-.34,6.37-.6,9.58-.66.7,0,1.4,0,2.1.06a7.46,7.46,0,0,0,1.62,1.18,56.87,56.87,0,0,0,11.29,4.35c26.87,10.26,53.85,20.25,80.82,30.22,26.22,9.7,53,19.31,77.57,32.86,9.51,5.25,19.06,11.72,25.33,20.77,7.56,10.92,10.17,23.26,11.12,36.3,1,14,.15,28,.42,42,.31,16,1.39,32,2.37,48,.45,7.37-.09,16,1.4,23.67.33,35.9,3.19,71.71,3,107.63-.08,20.22,0,40.38.12,60.6s-4.29,39.43-7.34,59.32c-.79,5.15,2.46,12.25,8.84,11.45,31.12-3.91,61.65-1.83,92.7,1.76,27.1,3.14,54.62,7.32,81.91,4.22,19.88-2.26,39.52-8.12,55.06-21.07a7.57,7.57,0,0,0,1.46.16,85.55,85.55,0,0,0,26.33,14.59c.73-5.46,1.47-10.91,2.16-16.37,1.69-13.33,2.92-26.71,4.09-40.09a173.09,173.09,0,0,1,14-19.75c1.28-1.53,2.95-3.62,4.83-5.53,1.85,4.62,7.11,6.81,12.7,7.65.26,11.31-2.63,22.94-4.69,33.93-1.13,6,4.35,9.64,9.68,7.44,9.32-3.84,13.94-12.17,17.26-21.2,2.12-5.76,3.38-12.54,6.54-18,2,3.38,3,7.52,4,11.13,1.67,6.1,3.39,12.41,7.23,17.55,2.86,3.81,8.77,4.82,11.43,0,3.41-6.17,4.3-13.06,5.24-19.94.56-4.09.94-9.71,3.14-13.81,2.5,4,3.34,9.29,4,13.67,1.12,6.95,2,14.17,5.74,20.3a7.1,7.1,0,0,0,12.23,0c5.47-9.49,6.39-20.2,7.27-30.89a98,98,0,0,1,1.39-10.91c5.79.2,11.86-.48,16.73-3.81.6-.41,1.17-.85,1.71-1.31,13.51,4.88,26.33,12.22,35.54,23.39a70.85,70.85,0,0,1,4.38,5.91q0-38.34-.07-76.68c3.38-1.52,6-4.34,8.32-7.3,15.11,7.72,35.26-6.9,43.6-19.82,6.84-10.59,9.79-21.9,11.9-34.23A381.68,381.68,0,0,0,889,876.57q1.06-23,.28-46c-.25-7.24-.8-14.56-3-21.51-1-3.1-2-6.22-3.21-9.25s-3.5-5.35-5-8.27c-1.69-3.4,3.39-6.35,5.12-2.93,1.36,2.69,3.45,4.85,4.75,7.58.14.3.27.62.4.93.06-1,.11-2,.13-2.92.21-8.62.43-17.24.61-25.87,0-.76,0-1.52,0-2.28-.13-.17-.27-.32-.41-.48a12,12,0,0,0,2.3-6C893,740,892.56,720.24,891.28,700.59ZM819.19,848.53c-.46.44-1,5-1.14,6.15a52.3,52.3,0,0,0-.42,10.59c.36,6.22-9.29,6.18-9.65,0a59.9,59.9,0,0,1,1-14.62c.6-3.15.93-6.62,3.38-8.94C816.87,837.43,823.71,844.25,819.19,848.53Z"/><path class="cls-2" d="M347.07,678.81a5.7,5.7,0,0,0-2.15-2.88,68.79,68.79,0,0,0-3.26-8.33c.28.58-1.23,3.21-1.47,3.74-1.16,2.56-2.86,4.64-4.16,7.08-3.1,5.78-10.56,9.65-17,8.6a23.44,23.44,0,0,1-6.61-2.24c-20.76-10.51-101.26-50.41-159.26-40l34,11.53S246,674,301.51,698.57c7.84,6.63,15.34,13,24.59,18,3,1.59,7.06,3.43,10.86,5.71a5.71,5.71,0,0,0,1.44,6.37c3.08,3,7.25,4.5,10.28,7.55a5.76,5.76,0,0,0,1.47,1.06c1.25,2.32,2.24,4.75,3.07,6.4,2,4,8.3,2.12,8.3-2.19C361.47,719.58,354.24,699.22,347.07,678.81Z"/><path class="cls-2" d="M266.66,544.36s45,21.41,77,39.91,48,10.95,48,10.95-21-15.95-28-22.95-15.54-12.75-16.77-17.63-2.77-16.71-2.77-16.71l-49.46,5.83Z"/><path class="cls-3" d="M146,409.93s20.67,1.73,32,28.2,19.72,71.7,21.19,81.78-2.67,48-2.67,48-23.2,0-31.2-22,8-47.36,4.67-65.36S157.33,429.93,146,409.93Z"/><path class="cls-4" d="M892.63,843.42c-.21-8.9-.72-17.81-.75-26.71,0-14.7,3.05-30.28-.88-44.69-8.5-31.1-52.7-17.33-73.48-11.72a1.44,1.44,0,0,0-.83,2.24c-1.38,4.26-1,9.16-.84,13.54.29,6.84.68,13.64.81,20.49a323.05,323.05,0,0,1-1.29,38.81,133,133,0,0,0-6.92,24.4c-2.55,14.58-1.29,29.11-1.09,43.8.19,13.33.37,26.71,2.29,39.91-.41,9.8,2.25,20,8.26,27.66a28.84,28.84,0,0,0,13.18,8.9c7,2.48,13.24.25,19.86-2.14a1.2,1.2,0,0,0,.75-1.69c10.49-4.29,20-13.37,25.27-22,14.32-23.2,13.78-50.92,14.34-77.15.07-3.4.16-6.79.14-10.19a1.88,1.88,0,0,0,.9-1.29C893.71,858.49,892.81,850.65,892.63,843.42Z"/><path class="cls-1" d="M797.33,466.69c-6.61-3.41-12.68-6.21-19.91-8.07a185.31,185.31,0,0,0-21.63-4c-14.62-1.95-29.34-2.79-44-3.79s-29.32-3.26-44-4.69c-16-1.54-32-1.88-48-2.28-16.23-.41-32.39-1.48-48.61-2.21a425.76,425.76,0,0,0-48.42,1c-16.2,1.13-32.52,2.53-48.57,5-15.57,2.41-30.86,6.36-46.15,10.08-22.19,5.39-44,9.32-66.82,10.19A132.68,132.68,0,0,1,333,466.27c-8.16-1.44-15.38-4.46-22.51-8.26-1.06-1.25-2.14-2.49-3.27-3.69-4.58-4.88-11.19,1.26-8.78,6.68,5.12,11.51,12.13,22.19,19.22,32.58,7.26,10.64,15.31,21,25.14,29.4,20.34,17.36,48.33,23.87,74.38,25.92,29.11,2.28,58.48-5.24,86.7-11.37,30.63-6.65,61.59-14,93.13-12.8,12.29.46,25.31,1.92,37,5.8,11.09,3.68,21.33,9.7,32.06,14.26,18.89,8,37.86,10.08,57.79,4.87,31.54-8.25,61.38-32.81,69.8-64.84C801.74,483.52,806.43,471.38,797.33,466.69Z"/><path class="cls-2" d="M885.29,441.17l0,0A87.19,87.19,0,0,1,875.52,455c-2.78-4.21-8.89-6.46-13.51-1.87a54.75,54.75,0,0,1-39.3,16.23c-7.7-.08-15.38-1.18-23-2-7.14-.8-15.41-1.93-22.24.78a5.53,5.53,0,0,0-3.09,2.91l-3-.69a166.93,166.93,0,0,1-23.1,31,75.62,75.62,0,0,1-17,15.5c-18.91,20.15-47.19.5-66.51-8.73-66-31.53-141.07,3.31-206.05,20.25-20.63,5.38-40.91,9.43-62.23,9-7.85-.17-15.65-1.42-23.52-1.4-1.81,0-4.45-.24-7-.19l-.78-.24a1.51,1.51,0,0,0-1.16,2.75c10.34,6.08,22.24,10.11,33.59,13.86,11.93,3.94,23.89,7.77,35.81,11.74,11.54,3.85,22.25,9.79,33.91,13.31,12.11,3.65,24.7,6.26,37.1,8.71,24.87,4.91,49.51,5.74,74.77,6,25,.24,49.79.91,74.33-4.85l.14-.05c6,.17,12.29-1.07,18.15-1.79,8.4-1,16.78-2.16,25.12-3.65,16.49-2.95,33-6.44,49.3-10.25,15.65-3.66,30.51-8.86,45.5-14.56,12.1-4.6,24.68-9.41,33.78-19a2.86,2.86,0,0,0,.78-1.55l.79-.61a5.39,5.39,0,0,0,2.47.45c.49,0,1-.1,1.46-.18a6.54,6.54,0,0,0,4.11-1.86,6.48,6.48,0,0,0,1.24-1.75,6.77,6.77,0,0,0,.94-5.67A169.66,169.66,0,0,0,862.77,494,185.09,185.09,0,0,0,885.29,441.17Z"/><path class="cls-5" d="M719.66,1124.62c19,0,38-.09,56.91-2.37a201.52,201.52,0,0,0,29.8-5.63c6.8-1.89,13.67-4.08,20.65-5.31a4.27,4.27,0,0,1-.61-2c-.6-13-2.9-26.61-9.07-38.08-8.79-16.33-24.09-26.68-41.11-32.36-22.29-7.44-46.86-9.9-70.21-9.86-12.64,0-25.73.14-38,3.36s-24.41,8.45-34.43,16.77c-20.11,16.72-26.37,40.94-28.58,66.29,18.12,5.23,37.53,6.94,56.23,8.1C680.67,1124.68,700.17,1124.57,719.66,1124.62Z"/><path class="cls-3" d="M818.9,823.1c.43-.59.86-1.18,1.3-1.76,2.1-2.73,4.1-6.34,7.24-7.73a.51.51,0,0,1,.73.59,10.38,10.38,0,0,1-1,3.06,3.1,3.1,0,0,0,1.4-2.69c.17-16,.33-32.09-.64-48.1a8.2,8.2,0,0,0,.22-4.17c-.08-.94-.17-1.86-.34-2.79a4.61,4.61,0,0,0-.35-1c-1.61.35-3.23.71-4.86,1a1.56,1.56,0,0,0,0,.23c0,.09,0,.18,0,.26a4,4,0,0,0-.64-.38c-1.25.22-2.51.41-3.76.53q1.25,31.32-.28,62.6A3.76,3.76,0,0,0,818.9,823.1Z"/><path class="cls-3" d="M830.49,956.63c-.17-5,.33-10.1.6-15.13.12-2.18.68-4.26.89-6.42a39.38,39.38,0,0,0,0-8.67c-1.41.24-2.91,1.33-4.29,1.8a20,20,0,0,1-4.44,1,14.73,14.73,0,0,1-8.52-1.67l-.58-.34-.45.38a81.37,81.37,0,0,0-.92,22.47c.8,7.87,2.6,17.15,8,23.26,5.88,6.69,13.24,8.31,20.64,6.92C833.23,975.08,830.8,966.13,830.49,956.63Z"/><path class="cls-3" d="M892.42,792.55a18.86,18.86,0,0,0-1.4-2.12c.19-7.15.39-14.3.56-21.45q0-1.21.05-2.42a30,30,0,0,0-11.53-8.24l0,.06s0-.05,0-.08a39,39,0,0,0-4.09-1.45c-1.64,3.75-.54,9.6-.55,13.13,0,7,1,14,2,20.91a2.51,2.51,0,0,0,.9,1.65,2.84,2.84,0,0,1,.71-2.34,14,14,0,0,0,1.66,3.36c.35.57.68,1.15,1,1.74.1.19.19.38.29.58-.15-.29.26.66.3.8a5.51,5.51,0,1,0,10.12-4.12Z"/><path class="cls-3" d="M845.62,852.08a2.29,2.29,0,0,0-1.9,1.53c-1.8,4.6-2.07,9.85-2.25,14.74a60.77,60.77,0,0,1-3.26,18.52c-1.92,5.51-4.26,11.1-8.19,15.46a25.17,25.17,0,0,1-7.64,5.47c-3.55,1.78-7.55,1.27-11.12,3.07-.09,0-.17.11-.25.16.94,4.05,2.3,8.65,5.66,11.26,3.82,3,9.35.69,13-1.42,7.29-4.23,12.78-9.78,15.19-18.09,4.71-16.27,1.49-33.24.69-49.8A3.09,3.09,0,0,1,845.62,852.08Z"/><path class="cls-6" d="M821.11,1076.11c-7.57-18.15-21.95-31-39.8-38.08a164.93,164.93,0,0,0-36.41-9.36,2.77,2.77,0,0,0,.13.55l-1.44-.73a272.87,272.87,0,0,0-34.49-2.47h-1c2.46.56,5.08.75,7.46,1.35a93.44,93.44,0,0,1,15.85,5.19c10.62,4.79,19.83,12.23,27.69,20.9,15.33,16.9,23.72,39.42,24.87,62.32l-2.16.57c-8.32,2.14-16.7,4-25.18,5.33-17.6,2.77-35.31,3.22-53.08,2.79-16.95-.41-33.87-1.9-50.8-2.75a229.29,229.29,0,0,1-24.8-2.61q-6.44-1-12.81-2.36c-3.64-.77-6.71-1.74-10.37-.74a1.55,1.55,0,0,0-1.05,1c0,.27,0,.54-.07.81,18.55,5.59,38.52,7.43,57.71,8.63,19.72,1.24,39.49,1.13,59.24,1.16,19.26,0,38.63-.14,57.76-2.63a195.09,195.09,0,0,0,29.31-5.86c6.88-2,13.85-4.32,20.93-5.65a4.37,4.37,0,0,1-.69-2.22C827.33,1099.47,825.66,1087,821.11,1076.11Z"/><path class="cls-2" d="M889,705.72c-.87-36.64-3-74-12-109.71l-.49-1.93-.27-1-.25-.93q-.18-.68-.37-1.37l-.16-.61-.43-1.54-.13-.48-.45-1.57-.14-.47-.5-1.67-.11-.37-.54-1.74-.1-.31q-.29-.9-.58-1.8l-.08-.26q-.3-.92-.62-1.84l-.08-.23q-.32-.94-.66-1.88l-.07-.19c-.23-.63-.46-1.27-.7-1.9l-.06-.17q-.36-1-.74-1.93l-.05-.14-.78-1.94-.05-.12c-.27-.65-.54-1.3-.83-1.94l0-.1q-.42-1-.87-1.95l0-.08q-.45-1-.91-1.94l0-.07q-.47-1-1-1.92l0-.06q-.49-1-1-1.91l0,0q-.51-.95-1-1.88l0,0q-.53-.94-1.09-1.86l0,0c-.37-.62-.75-1.23-1.14-1.83l0,0c-.39-.61-.78-1.2-1.2-1.81s-.82-1.18-1.25-1.77-.85-1.15-1.3-1.72-.88-1.12-1.35-1.67-.92-1.08-1.4-1.62-1-1-1.45-1.55-1-1-1.5-1.49l-.62-.57a9.94,9.94,0,0,0-.73-2.26c.64,1.47,0-.1-.14-.41l-.52-1.39a6.27,6.27,0,0,0-2.64-3.3c-2-1.38-5.7-.48-6.66,1.84a6.33,6.33,0,0,0-.6,4.06c.09.49.19,1,.28,1.46a9.15,9.15,0,0,0,1.18,3.7,6.23,6.23,0,0,0,3.45,2.55c-3.65,14.13-22.53,26.75-33.61,35.29-13.6,10.49-26.53,21.93-37.62,35.07-10.92,12.94-19.8,27.1-27.82,42-11.53,21.36-21.75,43.69-35.92,63.5s-31.85,35.48-54.48,45.13C638,776,620.58,779.1,602.76,781c8.66-.94,17.45,1.89,26.17.68,15.7-2.19,30.33-8.81,43.7-17.1q5.59-3.47,11-7.26c7.08-5,13.84-10.08,19.61-16.61a245.46,245.46,0,0,0,15.64-20.37c10.07-14.16,18.71-29.31,27.6-44.22,4.9-8.21,9.86-16.39,15.14-24.36a238.15,238.15,0,0,1,23.29-29.51c7.48-8.12,16-14.67,24.5-21.48,4.93-1.47,9.87-4.16,14.53-5.39,8.57-2.25,16.81-.27,23.94,4.66,6.41,4.42,11.05,11.36,14.84,18,.33.59.65,1.18,1,1.78a313.07,313.07,0,0,1,8.2,48.42c1,9.75,1.56,19.53,2,29.31.39,8.58-.22,17.56.86,26.07a213.12,213.12,0,0,1,1.32,22c.06,2.64,0,5.29,0,7.93q.85.25,1.69.54l.18.06c.51.18,1,.37,1.51.56l.35.14c.45.19.9.38,1.34.58l.5.24c.4.19.79.38,1.17.59l.63.35c.34.19.68.38,1,.59l.76.49c.28.18.57.36.84.56s.63.46.94.7.42.31.62.47c.51.41,1,.85,1.5,1.3C889.37,742.41,889.46,724.06,889,705.72Z"/><path class="cls-2" d="M812.4,960.06c-3-12.06-1.95-24-.55-36.5a5.33,5.33,0,0,1,.27-1.19C807.74,917,807.24,909,807,902.29c-.19-5.48-.56-10.93-.84-16.4-.17-3.19-.9-7.26.06-10.38a4.55,4.55,0,0,1,2.87-3.09l.78-5.2a4.33,4.33,0,0,1-3.09-4.4c.08-6,.07-12.14,3.19-17.45a4.41,4.41,0,0,1,3.54-2.32l.72-4.79,3.65-11.55S812.41,701.26,812.41,688c0-.08,0-.16,0-.24L811.05,689c.17-6.26-1.41-12.75-.83-18.92a1.42,1.42,0,0,0-.55-1.3l.6-1a1,1,0,0,0-1.31-1.31c-3.88,2-6.73,6.08-9.28,9.48a52.09,52.09,0,0,0-7.88,15.72c-3.95,12.34-1.71,25.75-1.45,38.44.31,15.13.41,30.26.64,45.39.45,29.54.88,59.08.74,88.62-.12,25.73-.48,51.44-.65,77.14-.16,24.08,2.47,50.88-17.62,69.51-4.3,4-20.07,18.35-26.72,17.18l13.44,2.36,24.36,6.58,27.74,19.75,11.89,12.66V980.09C816.89,976.3,813.05,968,812.4,960.06Z"/><path class="cls-7" d="M341.53,463.51c25.08,2.63,49.21-5.39,73.41-10.74A804.39,804.39,0,0,1,587.18,434h.31A799.15,799.15,0,0,1,759.74,452.8c24.06,5.36,48.7,13.81,73.68,10.72,21.44-2.65,37.9-14.08,50.22-31.31a125.6,125.6,0,0,1-5.94-31.92,212.78,212.78,0,0,1,1.48-37.23,189.43,189.43,0,0,1,7.76-35.14c3.22-9.85,6.79-21.24,13.2-29.65.06-.22.12-.45.17-.67a2.65,2.65,0,0,1-.09-.66c-.06-32.06-2.51-64.63-12.74-95.23-4.87-14.56-11-27.89-20.95-39.71A188.9,188.9,0,0,0,848,142.86l-5.14-4.44c-1.75-1.46-3.52-2.9-5.33-4.3C743.29,61.21,613,43.68,498.37,65.46c-59.2,11.24-119.27,33.22-166.21,72-10.56,8.73-20.77,18.41-29,29.45-8.61,11.63-14.12,24.68-18.31,38.49a244.53,244.53,0,0,0-8.45,40.06,377.65,377.65,0,0,0-2.86,40.85c-.07,3.51-.31,7.07-.16,10.59a32.63,32.63,0,0,0,.91,6.71c.7,2.78,2.18,5.21,3.3,7.83,1.2,2.82,2.27,5.7,3.26,8.6,1.08,3.16,2.07,6.34,3,9.53a199.51,199.51,0,0,1,7.45,35.22,195.8,195.8,0,0,1,1.14,37.24c-.45,6-.78,12.16-2.56,17.94-.58,1.89-1.24,3.75-1.92,5.6a21.58,21.58,0,0,0,.94,3.5c.11.24.21.47.3.71a1.51,1.51,0,0,1,.33.34C302.15,448.3,319.07,461.15,341.53,463.51Z"/><path class="cls-8" d="M898.69,296.74c-.06-31.9-2.49-64.32-12.68-94.76-4.85-14.49-11-27.75-20.85-39.51a188.08,188.08,0,0,0-18.48-19l-1.93-1.66c8.62,11.84,14.34,24.93,19,39.07,11.19,34,13.86,70.15,13.93,105.75a3,3,0,0,0,.1.73c-.06.25-.13.5-.19.74-7,9.35-10.92,22-14.43,32.93a213.06,213.06,0,0,0-8.48,39,240.06,240.06,0,0,0-1.61,41.35,141.47,141.47,0,0,0,6.49,35.45c-7.63,10.84-16.71,19.61-27.41,25.71h.07c21.34-2.63,37.72-14,50-31.16a125,125,0,0,1-5.91-31.77,211.62,211.62,0,0,1,1.47-37,188.54,188.54,0,0,1,7.72-35c3.2-9.8,6.76-21.13,13.14-29.51.06-.22.12-.44.17-.67A2.58,2.58,0,0,1,898.69,296.74Z"/><path class="cls-2" d="M335.49,473.57c24.07,5.49,47.37-1.28,70.77-6.67,29.56-6.81,59.37-12.86,89.56-16.12a864.86,864.86,0,0,1,91.37-5l.15,0,.15,0A825.76,825.76,0,0,1,680.78,451c29.53,3.41,58.69,9.2,87.63,15.9,23.49,5.44,47.8,12.73,71.94,6.39,19.18-5,33.64-18.07,43.39-34.79-.18-1-.4-2.06-.68-3.07a68.25,68.25,0,0,1-43.94,29.91c-23.93,4.65-46.79-1.7-70-7-29.66-6.74-59.58-12.76-89.86-15.95a849.15,849.15,0,0,0-91.75-4.67l-.16,0-.16,0a813.89,813.89,0,0,0-93.66,4.86c-30.26,3.4-60.16,9.35-89.82,16.15-22.67,5.2-45.76,11.59-69.09,6.34a69,69,0,0,1-42.79-29.37q.49,3.07,1.13,6.1C302.83,457.23,317.13,469.38,335.49,473.57Z"/><path class="cls-1" d="M280.28,328.79c-2.86-9.24-7.41-18.05-10.43-27.22-5.07,4.72-11.14,8.28-15.89,13.43a41.68,41.68,0,0,0-9,14.32c4.14,1.5,6.6,8.07,7.7,11.54,2.21,7,2.91,14.64,3.23,22,0,.09-.15.11-.16,0a104.52,104.52,0,0,0-3.86-17.25c-1.65-5.08-3.11-10.81-7.75-13.5-.17.67-.33,1.36-.46,2-2.81,15.22,1,30.93,3.62,45.92,2.06,11.89,2,25.16,8.5,35.75a28.67,28.67,0,0,0,1.93,2.74c3.77-2.43,2.58-14.67,2.46-17.88-.22-6.06-1.23-12.46-.54-18.5a.17.17,0,0,1,.32,0c2.42,7.78,2.84,16.87,2.78,25,0,3.11.23,11.12-3.16,13.62,5.8,6,13.81,9.24,22,11.28,1.65-4.67,3.57-9.28,4.81-14.07,1.54-6,1.84-12.16,2.13-18.31a216.18,216.18,0,0,0-1-35.3A197.73,197.73,0,0,0,280.28,328.79Z"/><path class="cls-1" d="M527.24,55.16C586,47.65,646.18,50.52,703.56,65.54a399.72,399.72,0,0,1,78.68,29.33,367.16,367.16,0,0,1,45.17,26.5A353.47,353.47,0,0,0,750.88,54c-35.76-23.09-76.09-37-118.05-43.73A291.08,291.08,0,0,0,539.72,10c-29,4.69-58.54,12.25-85.22,24.8C411.58,55,373.74,86,342.93,122.14c4.68-3.26,9.4-6.35,14.09-9.3C408.42,80.54,467.32,62.83,527.24,55.16Z"/><path class="cls-2" d="M926.14,332.15c-4.84,2.88-6.45,9.21-8,14.52a117.16,117.16,0,0,0-3.53,16.18c0,.09-.16.07-.16,0,.31-7.26.89-15.05,3.22-22,1.16-3.44,3.52-10,7.61-11.52a40.38,40.38,0,0,0-9.89-15.41c-4.61-4.54-10.18-8-14.87-12.37-3.19,9.73-8.07,19-10.93,28.89a198.92,198.92,0,0,0-6.84,33.83,227.22,227.22,0,0,0-1,35.3,129.51,129.51,0,0,0,5.81,32.71c8.48-1.93,17.43-5,23.46-11.41-3.92-2.35-3.51-11.57-3.46-14.86.13-7.81.44-16.4,2.77-23.92a.17.17,0,0,1,.32,0c.73,6.41-.44,13.15-.57,19.59-.07,3.18-1.18,15,2.77,16.95a24.65,24.65,0,0,0,1.93-2.94c6-10.92,6.11-23.69,8.22-35.7,2.59-14.69,6.87-31,3.62-45.92C926.51,333.48,926.32,332.81,926.14,332.15Z"/><path class="cls-9" d="M886,202c-4.85-14.49-11-27.75-20.85-39.51a188.08,188.08,0,0,0-18.48-19L841.57,139c-1.75-1.45-3.51-2.89-5.3-4.28a334.5,334.5,0,0,0-48.92-31.37c8.12,10.9,16.18,21.89,21.35,33.8,15.54,35.81,19.57,96,18.65,143.72-.67,34.48-3.51,73.35-14.75,106.52-17.91,52.83-51.9,45.73-100.14,41.17a522.55,522.55,0,0,0-134.88,4.64q4.81-.07,9.62-.08l.16,0,.16,0a795.31,795.31,0,0,1,171.4,18.73c23.94,5.33,48.46,13.74,73.32,10.67,21.34-2.63,37.72-14,50-31.16a125,125,0,0,1-5.91-31.77,211.62,211.62,0,0,1,1.47-37,188.54,188.54,0,0,1,7.72-35c3.2-9.8,6.76-21.13,13.14-29.51.06-.22.12-.44.17-.67a2.58,2.58,0,0,1-.09-.66C898.62,264.84,896.19,232.43,886,202Z"/><path class="cls-2" d="M750.88,54c-35.76-23.09-76.09-37-118.05-43.73A300,300,0,0,0,584.77,6.4c2.22.64,4.45,1.28,6.68,1.89,6.58,1.8,13.32,3,19.91,4.77a184.54,184.54,0,0,1,33.82,13A189.49,189.49,0,0,1,696,63.64c2.52.61,5,1.24,7.55,1.89a399.72,399.72,0,0,1,78.68,29.33,367.16,367.16,0,0,1,45.17,26.5A353.47,353.47,0,0,0,750.88,54Z"/><path class="cls-10" d="M693.66,394.19c-.75,2.37-4.79,3.67-11.24,4.05-1.62.12-3.36.09-5.29.16s-4,.09-6.22.06-4.55-.11-7-.23-5.11-.09-7.85-.2-5.56-.31-8.54-.38-6.07-.18-9.25-.32c-1.59-.06-3.21-.18-4.85-.23l-5-.12-10.45-.37c-14.32-.3-30-.49-46.48-.38-16.47.28-32.12.88-46.39,1.57l-10.4.67-5,.26-4.82.39q-4.75.38-9.2.63c-1.49.05-2.91.24-4.33.35l-4.15.34c-2.71.21-5.33.35-7.8.49s-4.76.41-7,.53-4.27.19-6.2.21-3.65.14-5.27.1c-6.43-.06-10.54-1.16-11.42-3.48s1.57-5.67,7-9.82a52.12,52.12,0,0,1,4.63-3.2q2.61-1.54,5.75-3.17t6.77-3.35c2.43-1.05,5-2.06,7.79-3.12l4.24-1.58c1.45-.52,2.93-1.1,4.46-1.54q4.58-1.4,9.57-2.8c1.66-.46,3.36-1,5.08-1.38l5.28-1.18c3.58-.77,7.27-1.58,11.07-2.29A326.07,326.07,0,0,1,571,360.24a332.34,332.34,0,0,1,49.91,3.34c3.81.6,7.51,1.29,11.1,2l5.29,1c1.73.37,3.43.81,5.1,1.21q5,1.23,9.62,2.48c3.07.83,6,1.87,8.77,2.78s5.41,1.87,7.87,2.81,4.75,2.05,6.88,3,4.09,2,5.87,2.91a52.31,52.31,0,0,1,4.76,3C691.78,388.6,694.41,391.82,693.66,394.19Z"/><path class="cls-10" d="M420.35,409.64a9.19,9.19,0,0,1,1-7,11.52,11.52,0,0,1,6-5.08,13,13,0,0,1,9-.29,7.84,7.84,0,0,1,3.26,2.19,6.53,6.53,0,0,1,1.51,3.26,9.14,9.14,0,0,1-.17,3.62,12,12,0,0,1-1.32,3.23,11,11,0,0,1-5.67,4.75,12.79,12.79,0,0,1-8.48.38A7.55,7.55,0,0,1,420.35,409.64Z"/><path class="cls-10" d="M595.8,99.85c.16,1.86-5,4.12-14.47,6.61-2.36.63-5,1.24-7.87,1.94s-6,1.42-9.34,2.15-6.94,1.47-10.73,2.23-7.76,1.74-11.94,2.63L535,116.76c-1.09.23-2.2.44-3.31.69l-3.35.81q-6.78,1.63-14.08,3.29l-3.68.83-3.75.94c-2.52.64-5.09,1.25-7.67,1.93l-7.86,2-8,2.16c-21.57,6-45,13.22-67.56,23.9a207.17,207.17,0,0,0-31.13,18l-6.8,5.11-6.21,5.25a13.38,13.38,0,0,0-1.43,1.36l-1.37,1.4-2.73,2.76c-1.75,2-3.45,4-5.17,5.9a147.76,147.76,0,0,0-16.39,25,217.21,217.21,0,0,0-10.87,24.45l-2.07,5.71-1.82,5.5-.88,2.64-.77,2.59-1.52,5-4.68,16.68c-.62,2.32-1.23,4.38-1.83,6.17s-1.08,3.32-1.6,4.55c-1,2.46-2,3.75-3,3.71s-1.76-1.42-2.47-4a40.12,40.12,0,0,1-1-4.86q-.37-2.88-.62-6.64c-.15-2.5-.15-5.28-.16-8.33s.23-6.35.44-9.91l.55-5.51q.15-1.43.31-2.89l.44-3c.31-2,.61-4.08,1-6.2l1.32-6.5a176.93,176.93,0,0,1,8.9-28.56A147.7,147.7,0,0,1,341.15,178c1.92-2.48,3.83-5,5.87-7.52l3.3-3.7,1.68-1.86a20.4,20.4,0,0,1,1.74-1.8c2.42-2.25,4.88-4.52,7.39-6.79l7.81-6.27A202.45,202.45,0,0,1,404.16,129a284.61,284.61,0,0,1,37.55-14.48c12.32-3.82,24.31-6.8,35.76-9.22l8.48-1.71L494.2,102c2.72-.5,5.39-.91,8-1.34l3.92-.62,3.9-.51q7.74-1,14.93-1.87l3.55-.42c1.17-.12,2.34-.19,3.49-.28l6.74-.49q6.59-.45,12.52-.77,5.93-.16,11.16-.19t9.72,0c3,.06,5.71.24,8.17.41C590.15,96.72,595.64,98,595.8,99.85Z"/><path class="cls-11" d="M408.85,143.6c.09.3-.28.74-1.07,1.32s-2,1.24-3.52,2.16c-3.08,1.74-7.5,4.18-12.69,7.6a158.37,158.37,0,0,0-17.28,13.19c-3.08,2.69-6.17,5.67-9.28,8.85s-6.14,6.65-9.12,10.29a147,147,0,0,0-14.8,22,125.72,125.72,0,0,0-8.75,19.78c-4,11.7-4.77,19.57-6.16,19.53-.31,0-.59-.51-.83-1.47-.12-.48-.23-1.08-.33-1.78a17.79,17.79,0,0,1-.22-2.44,61.9,61.9,0,0,1,1.4-15.5,95,95,0,0,1,7.5-21.88,121,121,0,0,1,15.19-23.86,133.6,133.6,0,0,1,9.85-10.84,130.17,130.17,0,0,1,10.23-9,110.08,110.08,0,0,1,19.45-12.35A66.76,66.76,0,0,1,403,143.81a21.07,21.07,0,0,1,4.21-.61C408.2,143.17,408.76,143.3,408.85,143.6Z"/><path class="cls-11" d="M483.18,116.93c.52,2-14.22,7.28-32.36,13.18-9.06,3-17.24,5.71-23.29,7.47s-9.94,2.6-10.35,1.68,2.8-3.32,8.41-6.39a151.66,151.66,0,0,1,23-9.6C467.08,117.25,482.7,115.07,483.18,116.93Z"/><path class="cls-4" d="M418.64,1121.45c19.41,2,38.92,2.24,58.41,2.16,20-.08,40.08.11,60.07-1.27,18.57-1.28,37.73-2.91,55.73-8-1.38-15.86-3.95-32.31-12-46.25-13.2-22.75-39.47-36.89-65.38-39.14a289.77,289.77,0,0,0-76.73,3.48c-19,3.49-39.21,9.59-53.24,23.67-13.84,13.89-18.93,33-19.85,52.14a4.18,4.18,0,0,1-.63,2.05c7.79,1.37,15.39,3.89,23.05,5.78A225.8,225.8,0,0,0,418.64,1121.45Z"/><path class="cls-12" d="M596.62,1126.94c-.34-3.54-.36-7-3.07-7.8-18,6-37.57,7.7-56.18,9-20.21,1.41-40.46,1.26-60.7,1.27-38.28,0-76.35-1.88-112.19-18.11-5.4.55-4.37,18.1-4.52,22.73-.11,3.47-1.26,9.29.67,12.31a9.85,9.85,0,0,0,2.24,2.44,1.67,1.67,0,0,1,.26.08c36,15.87,76,23.14,114.65,24.25,9.93.29,19.72.83,29.66.2,9.64-.61,19.3-1.26,28.92-2.26a223.54,223.54,0,0,0,29.65-4.84c4.55-1.1,9.1-2.24,13.58-3.62,2.81-.86,5.62-2.06,8.49-2.79a2.15,2.15,0,0,1,1-.68c3.06-1,7.77-2.83,8.45-6.94s.07-8.58-.1-12.64C597.23,1135.34,597,1131.12,596.62,1126.94Z"/><path class="cls-4" d="M721.59,1124.62c19.47,0,39-.09,58.4-2.37a211.62,211.62,0,0,0,30.58-5.63c7-1.89,14-4.08,21.19-5.31a4.18,4.18,0,0,1-.63-2c-.62-13-3-26.61-9.31-38.08-9-16.33-24.73-26.68-42.19-32.36-22.87-7.44-48.08-9.9-72-9.86-13,0-26.4.14-39,3.36s-25.05,8.45-35.33,16.77c-20.64,16.72-27.06,40.94-29.33,66.29,18.6,5.23,38.51,6.94,57.71,8.1C681.58,1124.68,701.6,1124.57,721.59,1124.62Z"/><path class="cls-12" d="M717.71,1128.59c-20.48,0-41,.2-61.44-1.38-18.19-1.4-37.21-3-54.78-8.63-3.33,1-3,5.89-3.33,9.65-.32,4.1-.57,8.21-.71,12.32-.12,3.39-1.27,9.08.68,12s4.84,4.07,7.84,5a2.22,2.22,0,0,1,1,.67c2.89.72,5.71,1.9,8.57,2.72,4.55,1.3,9.12,2.49,13.73,3.54a237.48,237.48,0,0,0,30,4.73,458.79,458.79,0,0,0,59.2,2c39.13-1.3,79.37-8.14,115.88-23.68a1.74,1.74,0,0,1,.55-.13,6.6,6.6,0,0,0,2-2.34c1.68-3.47.83-8.24.68-12-.18-4.53.91-21.67-4.57-22.2C796.16,1127,757,1128.68,717.71,1128.59Z"/><path class="cls-5" d="M839.76,538.87c-2.9,9.36-10.16,17.87-16.93,24.46-8.62,8.4-18.16,15.5-27.9,22.53-10.29,7.43-20.76,14.87-29.68,24a86.83,86.83,0,0,0-11.76,14.48,72.88,72.88,0,0,0-4.7,8.54c-1.2,2.64-2,5.61-3.66,8a1.1,1.1,0,0,1-2-.54c.07-5.57,4.07-12,6.94-16.55a89.09,89.09,0,0,1,10.44-13.62c8.36-8.92,18.07-16.37,28-23.48,10.14-7.29,20.86-14.25,30.06-22.73a87.41,87.41,0,0,0,12.73-14.07,145.12,145.12,0,0,0,7.51-12.94c-.31-.53-.65-1-1-1.55a119.45,119.45,0,0,1-15.18,11.33,2.08,2.08,0,0,1-1,.34c-34.91,20.4-74.7,29.39-114.2,36.1-42.76,7.26-85.86,12.8-129.32,12.34-31.62-.33-63.51-3.28-94.37-10.34-30.69-7-60.13-17.82-89.23-29.7-13.85-5.65-28.41-10.74-41.58-17.87a4.44,4.44,0,0,0-2.21-1.22l-1.66-.95c-.17.22-.33.45-.49.67l.08.19a6,6,0,0,0-5.25,5.36c-.69,10.31,6.36,17.52,13.12,24.22,4.08,4,8.48,7.83,12.8,11.63,4.76,4.18,9.69,7.91,15.86,8.52,6,4.88,12,9.81,17.53,15.3a209.65,209.65,0,0,1,22.21,25.7c28.32,38.93,41,91,80.35,121.37,22.56,17.43,53.31,27.94,81.71,29,29.13,1.07,60.6-6.85,85.32-22.53,42.64-27,56.17-78,82.59-118,14.72-22.31,33.24-40.92,54.41-57.13,8.07-6.18,16.76-12.33,23.69-19.81,3.4-3.68,7.09-8.11,7.89-13.24A13.65,13.65,0,0,0,839.76,538.87ZM414,602.34a77.83,77.83,0,0,0-17.78-18.54c-1.28-.93-2.58-1.82-3.88-2.71a4.54,4.54,0,0,0-.19-1.47,19.71,19.71,0,0,0-1-2.62c9.88,6.43,20,14.18,23.16,25.21C414.4,602.41,414.14,602.49,414,602.34ZM654,754.76a123.86,123.86,0,0,1-75.95,15.41c-20.64-2.5-40.77-9.51-57.78-21.63-34.55-24.6-56.51-62.41-76.19-99-.75-1.39,1.38-2.61,2.14-1.21,19.2,35.45,40.57,73.4,74.65,96.63,17.13,11.68,36.48,19.44,57.18,21.64,12.7,1.35,25.78,1.5,38.29-1.34,12.7-2.89,24.08-8.29,36-13.45C654.32,750.9,656,753.65,654,754.76Zm68.61-71.88a168.73,168.73,0,0,1-11.43,21.48,154.32,154.32,0,0,1-14.74,19.82c-4.67,5.27-9.77,11.2-15.78,15-1,.63-2-.78-1.21-1.59,5.22-5.67,11.11-10.57,16-16.56a182.72,182.72,0,0,0,14-19.46,194.19,194.19,0,0,0,11-19.86c3-6.43,5.15-13.26,8.31-19.61.18-.35.82-.21.77.2C728.69,669.38,725.56,676.36,722.64,682.88Z"/><path class="cls-13" d="M463,500.69c-1.69-1.44-3.08-2.59-3.6-3.13-5-5.18-7.63-9.64-15.4-10.29-6.76-.56-13.41,1.82-20,3-11.93,2.23-23.65,6.15-35.5,8.28-2.82.51-5.53,1-8.38,1.45-7.23,1.05-14.45,2.2-21.67,3.24-3.46.5-10.76,1.09-6.68,6.38,2.73,3.54,7.2,5.92,11.14,7.8,21.46,10.27,42.85,7.23,65.55,3.49,9.26-1.53,18.5-3.12,27.77-4.59,3.84-.61,8.17-.7,11.85-2C477.6,511.19,467.06,504.14,463,500.69Z"/><path class="cls-3" d="M524.32,1027.66c-.73-.15-1.46-.3-2.2-.43a3.69,3.69,0,0,0-.72.23l-.83-.5c-3.72-.63-7.51-1.08-11.35-1.37a4.13,4.13,0,0,0-.24.72c-.53-.29-1.07-.57-1.62-.85-5.41-.34-10.88-.42-16.25-.35a2.73,2.73,0,0,0,1,.83,80.54,80.54,0,0,1,38.36,42.37,150.52,150.52,0,0,1,8.16,29.27,142.15,142.15,0,0,1,1.81,16.14c.05.8.09,1.61.13,2.42l-11.86,2.22c-18.81,3.5-37.68,3.59-56.75,3.17-18.15-.4-36.38,0-54.51-1.13s-35.21-5.14-52.46-10.32a.1.1,0,0,0,0,0,4.28,4.28,0,0,1-.71,2.22c7.87,1.46,15.53,4.13,23.27,6.12a217.76,217.76,0,0,0,30,5.56c19.61,2.2,39.35,2.46,59.06,2.38,20.22-.08,40.47.13,60.65-1.29,19-1.34,38.6-3.08,56.94-8.46-1.12-13.56-3-27.33-8-40C575.7,1050.07,551.69,1033.44,524.32,1027.66Z"/><path class="cls-3" d="M820.7,1075.11c-7.77-18.15-22.52-31-40.84-38.08a172.85,172.85,0,0,0-37.37-9.36,2.58,2.58,0,0,0,.14.55l-1.48-.73a287.21,287.21,0,0,0-35.4-2.47h-1.06c2.53.56,5.21.75,7.65,1.35a97.61,97.61,0,0,1,16.26,5.19c10.9,4.79,20.35,12.23,28.42,20.9,15.73,16.9,24.35,39.42,25.52,62.32l-2.22.57c-8.54,2.14-17.14,4-25.84,5.33-18.06,2.77-36.23,3.22-54.47,2.79-17.39-.41-34.76-1.9-52.13-2.75a241.26,241.26,0,0,1-25.45-2.61q-6.6-1-13.15-2.36c-3.74-.77-6.88-1.74-10.65-.74a1.58,1.58,0,0,0-1.08,1l-.07.81c19,5.59,39.53,7.43,59.23,8.63,20.24,1.24,40.52,1.13,60.79,1.16,19.77,0,39.64-.14,59.27-2.63a204.87,204.87,0,0,0,30.08-5.86c7.06-2,14.21-4.32,21.48-5.65a4.32,4.32,0,0,1-.71-2.22C827.09,1098.47,825.37,1086,820.7,1075.11Z"/><path class="cls-2" d="M618.79,1012.19c-13.87-17.79-9.27-49.3-6.31-70.1,2.17-15.2,5.41-36.22,17-48.17a1.43,1.43,0,0,0-1.52-2.33c-5.42,2-13.84,6.42-23.36,15.9A12.08,12.08,0,0,1,589,908.71c-9.89-7.18-25.88-18.27-35-21.95a1.66,1.66,0,0,0-2,2.51c7.63,10.63,28.24,42.38,28.25,75,0,15.72,5.08,38.17-7,50.67-14.16,14.64-46.75,9.19-64.68,8.85l7.9,4.13.8.23a9.18,9.18,0,0,1,4.37.08,113.3,113.3,0,0,1,31.43,13.55c8.49,5.15,16.93,11.16,21.94,20,5.61,9.9,11.15,20,14.4,31,3,10.21,4.73,20.77,8.47,30.75,1.1-4.84,11.49-50.06,19.26-61.24,8.22-11.81,41.16-36.18,70.5-36.09C666.21,1026.11,634.15,1031.88,618.79,1012.19Z"/><path class="cls-6" d="M839.43,533.26l-.08.07a6.46,6.46,0,0,0-5.7-3l-2.79,2.91c-2,2.06-4.27,3.78-6.29,5.8a4.42,4.42,0,0,1-4,1.34c-1.42,1-2.94,1.77-4.56,3-3.85,2.83-6.89,5.49-11.27,7.61l-.77.38c-5.57,1-10.6,4.33-15.8,6.41-5.72,2.29-12,3-17.61,5.51-3.48,1.53-7.16,2.85-9.67,5.34-33,9.52-80.72,19-147.44,22.89C485.21,598.91,350.1,536,350.1,536s105.57,77.28,235.08,77.32c0,0,25,.72,47.47-3.17s51-16.38,70.78.7c30.58,26.41,20.83,66.76,1.74,96.53-14.84,23.16-43.63,59.46-72,66.7,0,0,36.16-9.22,52.7-26.2s42.81-54.38,57.08-85.63,36.48-56.07,65-79.5,34.55-25.33,35.25-35.25S839.43,533.26,839.43,533.26Z"/><path class="cls-2" d="M374.08,938.29Z"/><path class="cls-2" d="M407.31,981.06s-3.65-160-8.37-215.49c-2.61-30.63-17.12-57.14-34.52-81.72-1.89-2.68-17.85-23.58-21-15.76-.68,1.66,1.47,2.4,2.62,1.54a3.39,3.39,0,0,1,.94.63l.07.07,4.29,13.46c1.66,11.62,6,22.74,7.58,34.45,1.77,13.52,3.72,27.11,4.72,40.71s1.42,27,2.28,40.42c.4,6.16.84,12.31,1.54,18.44.28,2.46.49,5.14.88,7.8-2,10.49.37,22.54,1.38,33,1.13,11.63,2.52,23.41,2.82,35.1.25,9.52-.76,19,.29,28.52.33,2.94.65,5.89.93,8.84q.22,2.37.35,4.76,0,.76.07,1.51a7.13,7.13,0,0,0,.13,1c0-.06-.08-.44.92-.84v0c-2,1.13-1.31,3.07-.13,4l.85,78.09.29,51.63,16.37-21,38.12-16,27.51-5.76C409.21,1028.49,407.31,981.06,407.31,981.06Z"/><path class="cls-3" d="M230,622.16c-24.5,3.41-50.24.18-74.82,3.66a4,4,0,0,0-2.65-1c-1.35,0-4.73,1.15-5.87.69-2.57-1-6-.21-8.59.2-5.52.86-10.75,3.28-16.39,4-5,.61-9.9,0-14.9-.33-5.49-.35-10.76-2.42-16.25-2.52-4.17-.07-5.68,5.77-2.06,7.78,4.24,2.35,9.19,3.59,13.74,5.26a54,54,0,0,0,16,3.23,40.08,40.08,0,0,0,5-.06c5.12,2.78,12.72.48,17.73-1.44l1.19-.48c7.47,4.64,15.85,6.75,24.25,9a2.89,2.89,0,0,0,.39.3,21.1,21.1,0,0,0,7.62,2.75c6,2.46,11.95,5.34,18.46,5.93a25.3,25.3,0,0,0,9-.73,2.83,2.83,0,0,0,3.82.84c12.92-8,21.34-18.71,28-32.26C235,624.16,232.81,621.77,230,622.16Z"/><path class="cls-5" d="M601,954.5c-.9.23-1.81.45-2.71.67.66-2.78.72-5.85,1.44-8.57.59-2.23,1.24-4.44,1.89-6.66q.43-1.45.84-2.91c17.48,5,34.9,10.21,53,12.36a537.14,537.14,0,0,0,54,3.6c34.45.59,69.08-2.26,102.65-10.39-.2,5.92-.34,11.85-.44,17.78-33.48,7.63-68,10.31-102.22,9.84a536.06,536.06,0,0,1-54-3.6C636.84,964.47,619,959.62,601,954.5Z"/><path class="cls-5" d="M593.45,939.19h0c-16.37,4.28-32.77,8.38-49.68,10.22-19.59,2.13-39.3,3.29-59,3.6-37.61.59-75.43-2.26-112.09-10.39.22,5.92.37,11.85.48,17.78,36.56,7.63,74.22,10.31,111.61,9.84,19.72-.25,39.42-1.52,59-3.6,18.07-1.91,35.47-6,52.91-10.44C595.46,950.47,593.86,944.88,593.45,939.19Z"/><rect class="cls-5" x="538.18" y="643.28" width="103" height="76" rx="8.83" ry="8.83"/><path class="cls-6" d="M635.42,643.82a8.78,8.78,0,0,1,1.76,5.27v58.33a8.84,8.84,0,0,1-8.83,8.85H543a8.81,8.81,0,0,1-3.08-.56,8.81,8.81,0,0,0,7.08,3.56h85.33a8.84,8.84,0,0,0,8.83-8.85V652.1A8.83,8.83,0,0,0,635.42,643.82Z"/><path d="M642.18,710.94a10.33,10.33,0,0,1-10.33,10.33H546.52a10.33,10.33,0,0,1-10.33-10.33V652.61a10.33,10.33,0,0,1,10.33-10.33h85.33a10.33,10.33,0,0,1,10.33,10.33Zm-3-58.33a7.33,7.33,0,0,0-7.33-7.33H546.52a7.33,7.33,0,0,0-7.33,7.33v58.33a7.33,7.33,0,0,0,7.33,7.33h85.33a7.33,7.33,0,0,0,7.33-7.33Z"/><rect class="cls-6" x="550.18" y="654.28" width="79" height="60" rx="8.83" ry="8.83"/><rect class="cls-11" x="550.18" y="651.28" width="79" height="60" rx="8.83" ry="8.83"/><path class="cls-6" d="M545.92,702.57c.82-8.26.35-16.75.27-25q-.05-6.11-.2-12.22c-.08-3.2.71-7.08-1.08-9.86a.25.25,0,0,0-.39,0c-1.48,2-1.24,4.16-1.32,6.63-.15,4.6-.17,9.19-.07,13.8.18,8.93-.07,17.89.23,26.81C543.41,704.35,545.77,704.18,545.92,702.57Z"/><circle class="cls-7" cx="565.02" cy="669.42" r="5.13"/><circle class="cls-7" cx="581.69" cy="669.42" r="5.13"/><circle class="cls-7" cx="598.02" cy="669.42" r="5.13"/><circle class="cls-7" cx="615.02" cy="669.42" r="5.13"/><circle class="cls-7" cx="565.02" cy="689.42" r="5.13"/><circle class="cls-7" cx="581.69" cy="689.42" r="5.13"/><circle class="cls-7" cx="598.02" cy="689.42" r="5.13"/><circle class="cls-7" cx="615.02" cy="689.42" r="5.13"/><path class="cls-10" d="M565,664.29a5.12,5.12,0,0,0-3.08,9.21,5.11,5.11,0,0,1,7.16-7.16A5.11,5.11,0,0,0,565,664.29Zm33,0a5.12,5.12,0,0,0-3.08,9.21,5.11,5.11,0,0,1,7.16-7.16A5.11,5.11,0,0,0,598,664.29Zm13.92,9.21a5.11,5.11,0,0,1,7.16-7.16,5.12,5.12,0,1,0-7.16,7.16Zm-30.25-9.21a5.12,5.12,0,0,0-3.08,9.21,5.11,5.11,0,0,1,7.16-7.16A5.11,5.11,0,0,0,581.69,664.29Zm33.33,20a5.12,5.12,0,0,0-3.08,9.21,5.11,5.11,0,0,1,7.16-7.16A5.11,5.11,0,0,0,615,684.29Zm-17,0a5.12,5.12,0,0,0-3.08,9.21,5.11,5.11,0,0,1,7.16-7.16A5.11,5.11,0,0,0,598,684.29Zm-33,0a5.12,5.12,0,0,0-3.08,9.21,5.11,5.11,0,0,1,7.16-7.16A5.11,5.11,0,0,0,565,684.29Zm16.67,0a5.12,5.12,0,0,0-3.08,9.21,5.11,5.11,0,0,1,7.16-7.16A5.11,5.11,0,0,0,581.69,684.29Z"/><path class="cls-5" d="M364.47,776.27s22.7-66,90.71-90.67c0,0,13.09,26.06,27.55,44.36,0,0-99.51,55.63-112.2,144.3Z"/><path class="cls-3" d="M364.95,777.47a2.5,2.5,0,0,1-2.38-3.26c.2-.62,5.06-15.52,18.63-34.19a168.66,168.66,0,0,1,71.63-56.21,2.5,2.5,0,1,1,1.93,4.61c-67.77,28.36-87.24,86.73-87.43,87.32A2.5,2.5,0,0,1,364.95,777.47Z"/><path class="cls-3" d="M368.53,872.25a2.5,2.5,0,0,1-2.41-3.17c.25-.91,6.36-22.5,23.59-50.79,15.89-26.09,44.61-62.87,91.24-89.91a2.5,2.5,0,0,1,2.51,4.32c-45.72,26.52-73.9,62.59-89.48,88.19-16.87,27.71-23,49.32-23,49.53A2.5,2.5,0,0,1,368.53,872.25Z"/><path class="cls-5" d="M809.95,844.79a113.13,113.13,0,0,0,4.23-11.4c4.79-17.14,3.1-35.49,3.06-53.07,0-.28,0-.54,0-.81a6.24,6.24,0,0,1-.66-1.81,42.58,42.58,0,0,1-.64-7.77c0-.17,0-.33,0-.49-8.81-18.82-34.3-62.73-87-81.84,0,0-13.09,26.06-27.55,44.36,0,0,81.83,45.75,106.54,120.39A34.46,34.46,0,0,1,809.95,844.79Z"/><path class="cls-3" d="M815.38,770.15a2.5,2.5,0,0,1-2.26-1.43,155.92,155.92,0,0,0-41.2-52.63,166.7,166.7,0,0,0-42.48-25.66,2.5,2.5,0,1,1,1.93-4.61,171.6,171.6,0,0,1,43.75,26.43,161,161,0,0,1,42.52,54.34,2.5,2.5,0,0,1-2.26,3.57Z"/><path class="cls-3" d="M807.57,853a2.5,2.5,0,0,1-2.3-1.52C785.05,804,748.89,763.61,700.7,734.68a2.5,2.5,0,0,1,2.57-4.29c49.11,29.47,86,70.66,106.6,119.12a2.5,2.5,0,0,1-2.3,3.48Z"/><path d="M382.69,562.54c-7.55-5-15.57-9.1-22.91-14.44-2.42-1.76-4.92,2.39-2.37,4.05,7.56,4.9,15.84,9.71,24.72,11.71a.73.73,0,0,0,.56-1.32Z"/><path d="M797.35,564.25c15.91-4.77,30.1-15.52,41-27.87,2.12-2.41-1.4-6-3.54-3.54-11,12.46-23.91,21.4-38.13,29.73a.92.92,0,0,0,.71,1.68Z"/><path d="M808.9,568.27c12.17-7.87,24.74-20,31.4-33,1.15-2.24-2.3-4.19-3.34-2-3,6.55-7.74,12.27-12.43,17.68-5,5.72-10.17,11.58-16.38,16-.77.55-.07,1.81.75,1.28Z"/><path d="M828.7,769.89a138.47,138.47,0,0,1,42.17-.88,2.35,2.35,0,1,0,.63-4.64,109.32,109.32,0,0,0-43.33,3.6,1,1,0,0,0,.53,1.92Z"/><path d="M524,1047.78c4.7,3.12,9.6,5.56,14,9.16a63.69,63.69,0,0,1,19.9,29.63c1.79,5.51,2.13,11.22,3.31,16.85.62,3,4.64,2,4.91-.66,1.22-12-5.4-25.2-12.17-34.62s-17.63-19.62-29.21-22.13a1,1,0,0,0-.75,1.79Z"/><path d="M770.09,1049.43c4.19,3.3,8.78,5.88,12.76,9.51a66.33,66.33,0,0,1,10.76,13.1,63.19,63.19,0,0,1,7.09,15.28c1.66,5.18,2,10.5,3,15.78.66,3.23,5.24,2.23,5.45-.74.78-11.29-5.15-23.7-11.31-32.81-6-8.81-16.25-19-26.82-21.79-.89-.24-1.79,1-1,1.66Z"/><path d="M408.34,1114.24c19.61,5.07,40,7.37,60.15,5.25,1.79-.19,1.86-3,0-2.85-20.1,1.21-40.1.63-59.89-3.34-.61-.12-.87.78-.26.94Z"/><path d="M485.85,1118.12a199.61,199.61,0,0,0,34.67.27c1.86-.14,1.9-3,0-2.93-11.56.49-23.13.91-34.67,1.6a.53.53,0,0,0,0,1.05Z"/><path d="M655,1116.53c15.27,3.92,31.92,3.82,47.52,2.49,2.05-.17,2-3.42,0-3.2-16,1.68-31.45.61-47.39-.25a.49.49,0,0,0-.13,1Z"/><path d="M762.51,1114.39c-13.55.46-27.1.6-40.66,1.24-2.6.12-2.56,4.25,0,4,13.59-1.2,27.11-2.9,40.66-4.29.61-.06.64-1,0-1Z"/><path d="M820.25,1123.7c-1.4,2.44-1.44,4.93-1.75,7.7-.23,2.05.18,8.78-1.7,9.87-6.08,3.51-13.51,5.2-20.39,6.15-3.24.45-2.47,6.12.77,5.72a70.44,70.44,0,0,0,12.41-2.64c3.44-1.07,9-2.7,11.51-5.4,2.24-2.43,1.91-5.15,2-8.32.08-4.25.72-9.12-1-13.08a1.06,1.06,0,0,0-1.82,0Z"/><path d="M579.07,1131.93c-1.67,4-2.17,8.57-2.85,12.87-.8,5.09-7.22,4.89-11.49,5.46-8.76,1.17-17.6.92-26.32,2.52-3.23.59-2.5,6.13.78,5.75,11.14-1.27,22.54-.95,33.5-3.56,3.6-.86,7.72-2.06,8.22-6.31.63-5.42,1.23-11.33.32-16.73-.21-1.22-1.78-.89-2.15,0Z"/><path d="M375.63,1126.68a106.29,106.29,0,0,0-1.15,11.33c-.16,2-1.16,6.1.75,7.72,2.35,2,5.46,2.57,8.35,3.53,4.76,1.58,9.51,3.18,14.32,4.6,3.13.92,4.33-3.76,1.33-4.82-5.91-2.09-11.91-3.92-17.89-5.8-3.53-1.11-2.73-3.81-3-7.07a88.28,88.28,0,0,0-.94-9.48.94.94,0,0,0-1.81,0Z"/><path d="M610.35,1132.54c-.47,2.64-.82,5.27-1.09,7.94s-1.15,6.67-.25,9.14c1.67,4.56,8.37,5.08,12.46,6.25a213.25,213.25,0,0,0,41.05,7.49c3.27.28,3.17-4.68,0-5a278,278,0,0,1-32.43-5.6c-4.85-1.14-9.64-2.51-14.42-3.92-3-.9-2.42-3.65-2.57-6.44-.17-3.15-.07-6.31,0-9.45.06-1.59-2.51-2-2.8-.38Z"/><path d="M686.69,1162.63l-.41-.21-.49,1.17c3.74,1,7.67.61,11.53.59,5.07,0,10.13-.14,15.2-.09,3.23,0,3.22-5,0-5-8.24-.08-19.42-.76-26.88,3.33-.73.4,0,1.58.65,1.11l.41-.29a.36.36,0,0,0,0-.61Z"/><path d="M737.73,1161.46c3,2.72,7.87,1.39,11.57,1.16,5.74-.35,11.49-1.1,17.22-1.64,3.48-.33,3.44-5.84,0-5.43l-17.22,2.07c-3.76.45-9.22.33-11.59,3.67a.13.13,0,0,0,0,.17Z"/><path d="M421.85,1154.13c5.83,2.56,13.06,2.92,19.32,3.92a2.55,2.55,0,1,0,.68-5c-6.31-.68-13.38-2.22-19.69-1.29a1.32,1.32,0,0,0-.31,2.39Z"/><path d="M462.67,1159.51c4.93,3.65,13.46,3.78,19.45,4.31a135.83,135.83,0,0,0,23,.25c3.34-.28,3.44-5.37,0-5.27-7.06.19-14.07.4-21.13.07-3.83-.18-7.66-.46-11.48-.74-3.3-.24-6.48-1-9.7-.08a.81.81,0,0,0-.19,1.46Z"/><path d="M594.29,1099.53c-2,6-1.46,13.12,0,19.16.42,1.75,3.39,1.41,3.18-.43-.69-6.17-1.12-12.73-2.73-18.73a.24.24,0,0,0-.45,0Z"/><path d="M872.26,932c-2.91,13.32-11.35,23.87-21.87,32.17-2,1.57.8,4.28,2.76,2.76,11.1-8.58,20.19-20.23,21.29-34.63a1.12,1.12,0,0,0-2.19-.3Z"/><path d="M416.12,1012c-10.95,4.47-20.38,9.59-28.14,18.72-7.15,8.4-13.77,21.3-13.47,32.6a2.75,2.75,0,0,0,5.37.73c1.37-4.68,2.07-9.44,3.74-14.06a67.6,67.6,0,0,1,7.83-14.75c6.1-9,14.79-18.06,24.94-22.28.57-.24.32-1.18-.26-.94Z"/><path d="M779.59,1014.19c9.06,3.74,17.28,11.77,23.76,18.9a65.23,65.23,0,0,1,14.53,27.44c.95,3.63,6.66,2.06,5.61-1.55a75.67,75.67,0,0,0-15.59-28.35,60.94,60.94,0,0,0-12.82-11c-4.84-3.2-9.88-4.65-15.12-6.82-.84-.35-1.2,1-.37,1.36Z"/><path d="M572,1023.42c6,13.61,10.55,28.34,14.19,42.76,1.78,7.06,3.09,14.24,4.32,21.41,1.29,7.57,1,16,3.31,23.33.69,2.17,4.38,2.6,4.82,0,1.17-6.91-.58-14.49-1.64-21.36a195.42,195.42,0,0,0-5.14-23.05c-4.38-15.59-10.76-29.73-18.41-43.93-.52-1-1.88-.12-1.45.85Z"/><path d="M621.14,1022.92c-8.27,12.9-12.79,28.47-16.57,43.19-2,7.71-3.55,15.53-4.77,23.39-1.13,7.27-3.41,16.19-1.94,23.44.56,2.75,4.29,2.27,5.08,0,1.1-3.14,1-6.56,1.31-9.86.37-4,.86-8,1.42-12,1.11-7.89,2.59-15.74,4.34-23.51,3.37-14.94,9-29.23,12.58-44.08a.8.8,0,0,0-1.46-.62Z"/><path d="M901.66,648.31c.29,32.5,1.32,65.08,3.67,97.49.22,3,4.8,3,4.69,0-1.2-32.54-3.74-65.1-7-97.49-.09-.86-1.37-.9-1.37,0Z"/><path d="M217.73,622.74c-3.46,6-7.37,11.78-11.3,17.5-1.33,1.94,1.72,4.29,3.25,2.51a100.78,100.78,0,0,0,12-17.7c1.41-2.58-2.47-4.86-3.95-2.31Z"/><path d="M269.77,325.18l.25-.27a1,1,0,0,0,.27-1,3.23,3.23,0,0,0-.69-1.24,1.58,1.58,0,0,0-2.24,0c-2.31,2.87,0,7.51.71,10.7,1.6,6.8,3.14,13.56,4.24,20.46a262.11,262.11,0,0,1,3,42.78c0,3.66,5.56,3.64,5.67,0a208,208,0,0,0-2.24-36.73c-.94-6.25-2.23-12.45-3.64-18.61-.71-3.09-1.51-6.15-2.35-9.2q-.53-1.83-1.18-3.62c0,.09-2.52-6.54-3.43-4.21-.36.92,1,1.65,1.63,1Z"/><path d="M643.6,570.57c53.44-2.68,112.6-8.86,157.89-40,3.05-2.1.26-7.06-2.94-5-23.11,14.72-48.26,24.33-74.87,30.59-26.42,6.21-53.44,9.2-80.26,13.12-.77.11-.58,1.38.18,1.34Z"/><path d="M851,469.71a324.3,324.3,0,0,1-36,42.76c-2.46,2.43,1.35,6.24,3.78,3.79a241,241,0,0,0,35.29-44.75c1.21-2-1.76-3.63-3.07-1.79Z"/><path d="M907.51,324.11c-3.28,4.42-5,10.28-6.88,15.4A177.15,177.15,0,0,0,895,358.69c-3,12.46-5.12,25.72-4.95,38.57.05,3.72,5.41,3.62,5.7,0,1-12.5,2.06-24.79,4.58-37.1,1.22-5.94,2.79-11.8,4.54-17.61s4.46-11.44,5.41-17.29a1.51,1.51,0,0,0-2.75-1.16Z"/><path d="M339.95,488.22c9.19,4,20.54,3.68,30.33,2.85,12-1,23.9-3.49,35.63-6.22,23.64-5.49,47.24-13.81,71.54-15.8,3.77-.31,3.79-6.23,0-5.9-22.82,2-44.93,9.37-67,15.12-12.31,3.21-24.74,6.12-37.38,7.69-11,1.37-21.56.74-32.57.18-1.06-.05-1.59,1.62-.56,2.07Z"/><path d="M330.67,493c-2.72-4.46-6.59-8.33-9.91-12.36-4.28-5.2-8.33-10.61-12.17-16.13-3.62-5.21-6.95-10.62-10.09-16.12s-5.31-11.76-8.95-16.79c-1.6-2.22-5.33-1-4.57,1.93,1.48,5.64,5.18,11,8.11,16,3.5,6,7.36,11.74,11.43,17.34,3.5,4.82,7.22,9.48,11.18,13.93,4.15,4.66,8.6,9.9,14,13.17a.73.73,0,0,0,1-1Z"/><path d="M332.42,480.5c-7.07-7.23-15-13.53-21.8-21A184.66,184.66,0,0,1,290.7,433.1c-2-3.11-6.94-.2-4.92,2.88a172,172,0,0,0,20.41,25.53c7.32,7.55,15.69,15.56,25.07,20.49a1,1,0,0,0,1.16-1.5Z"/><path d="M330.34,467c-8-4-15.11-10.89-21.84-16.72-6.5-5.63-12.32-10.75-15.73-18.82-1.15-2.73-5.14-.7-4.57,1.93,1.8,8.32,9.37,14.07,15.73,19,3.84,3,7.68,5.95,11.75,8.6,4.53,3,9.21,4.79,14.07,7,.68.31,1.27-.67.59-1Z"/><path d="M863.19,471.54c5.3-3.54,8.89-10.94,12.07-16.3a189.89,189.89,0,0,0,10.6-21,2.68,2.68,0,1,0-4.93-2.08c-2.87,7.06-6.1,14-9.56,20.77-2.87,5.64-7.7,11.76-9,18-.09.42.36.87.78.59Z"/><path d="M272.1,304.17c2.78,9.54,6.2,18.89,8.74,28.51a200.17,200.17,0,0,1,5.52,32.25c2,21.59.68,43.22-2.45,64.63-.5,3.46,4.74,5,5.31,1.46a264.41,264.41,0,0,0,2.49-66.09c-1.89-20.77-6.07-43.82-17.25-61.76a1.29,1.29,0,0,0-2.36,1Z"/><path d="M872.43,466.62c3.61-4.67,6.36-9.95,9.14-15.14,2.55-4.74,5.83-9.58,4.77-15.16-.31-1.63-2.66-1.42-3.09,0-3.1,10.23-9.11,19.31-12,29.59-.18.65.75,1.3,1.21.7Z"/><path class="cls-9" d="M869.63,183c-.48.4-6.41-6.15-18.59-16.38a340.59,340.59,0,0,0-55.53-37.7,408,408,0,0,0-92.4-36.39,476.5,476.5,0,0,0-57.66-11.34,548.33,548.33,0,0,0-63-4.54,466.34,466.34,0,0,0-63,3,388.46,388.46,0,0,0-57.57,11.15A347.3,347.3,0,0,0,412,108.63a323.18,323.18,0,0,0-40.75,21.85,296,296,0,0,0-52.29,41.89c-11.17,11.32-16.38,18.46-16.9,18.11s3.78-8.25,14.32-20.49,27.38-28.67,51.38-44.84a310.34,310.34,0,0,1,41.12-23.3,339.48,339.48,0,0,1,50.8-19.08,381.58,381.58,0,0,1,58.75-11.92,455.84,455.84,0,0,1,64.19-3.22,530.67,530.67,0,0,1,64,4.8A461.92,461.92,0,0,1,705.26,84.5c36.84,10.11,68.51,24.26,93.39,38.86s43.13,29.47,54.73,40.63S870.12,182.61,869.63,183Z"/><path class="cls-9" d="M819,452.49c-.26.55-6.49-1.66-18-4.82s-28.32-7.29-49.35-11.06c-42-7.62-101-13.57-166.29-13.8-32.64-.24-63.71.76-91.86,3.11a652.9,652.9,0,0,0-74.25,10.2,408.93,408.93,0,0,0-48.85,12.73c-11.33,3.75-17.34,6.49-17.65,6s5.27-4.41,16.39-9.23,27.7-10.65,48.73-15.68a557.15,557.15,0,0,1,74.86-12.24,879.34,879.34,0,0,1,92.69-3.86c65.79.24,125.3,7.25,167.47,16.56a367.85,367.85,0,0,1,49.19,14C813.37,448.56,819.24,451.92,819,452.49Z"/><path class="cls-4" d="M159.85,430.66c-2.2-7.1-3.62-19.49-12-22.16-4.26-1.36-8.88,2.39-11.37,5.37-4.1,4.9-6,11.82-7.68,17.84-.59.06-1.18.12-1.77.19-2.84.37-3,4.8,0,4.57,7.2-.54,14.6-1,21.8-1.28,2.9-.1,7.7,1,9.62-1.8l0-.06A2.22,2.22,0,0,0,159.85,430.66Z"/><path class="cls-4" d="M119,487.42c-9.36-6.88-20.36-11.13-31.25-15a46.81,46.81,0,0,0-35,.93c-17.46,7.38-29.27,25.43-34.63,43.48a49.42,49.42,0,0,0-5.44,17.47,82.68,82.68,0,0,1-4.59,19.55,50.49,50.49,0,0,0-3.38,17.42,4.86,4.86,0,0,0-1.33,2.05C0,583.19,2.29,596.44,6,606s12.92,21.18,24.37,21c16.29,5.61,36.26-1.7,50.61-11.55,20.06-13.77,34.41-34.72,44.52-56.54,5.61-12.12,10.81-24.78,11.22-38.3C137.08,506.78,129.77,495.34,119,487.42Z"/><path class="cls-3" d="M8.18,554.93S-.49,597.6,36.85,606.26s92.33-70.21,97.33-99.94a38.91,38.91,0,0,1,3.33,18.27c-.67,10.33-16.67,51-26.33,62.33,0,0-17.45,21-32.56,30.35s-35.17,17.85-53.14,10.08-20.79-20.47-22.38-31S8.18,554.93,8.18,554.93Z"/><path d="M894.24,821.76a75.2,75.2,0,0,0-1.37-8.83c1.54-4.57,1-9.63,1.09-14.44.13-6.51.28-13,.42-19.52.34-16.2.58-32.41.52-48.61-.13-36.72-1.57-73.69-7.53-110-3.37-20.48-8.27-41.25-17.72-59.86-6.72-13.25-16.63-25.32-30.86-30.3-.42-.46-.86-.92-1.33-1.37a2,2,0,0,0-3.14.52,2.12,2.12,0,0,0,.33,3.89c.7.23,1.38.48,2.06.74a23.77,23.77,0,0,1,2,2.88,145.39,145.39,0,0,1-7.51,12.94,87.39,87.39,0,0,1-12.72,14.07c-9.21,8.48-19.92,15.44-30.06,22.73-9.9,7.12-19.61,14.56-28,23.48A89.09,89.09,0,0,0,750,623.72c-2.88,4.59-6.88,11-6.94,16.55a1.1,1.1,0,0,0,2,.54c1.7-2.36,2.47-5.33,3.66-8a72.88,72.88,0,0,1,4.7-8.54,86.83,86.83,0,0,1,11.76-14.48c8.91-9.09,19.39-16.53,29.68-24,9.74-7,19.28-14.13,27.9-22.53,6.77-6.6,14-15.11,16.93-24.46a13.65,13.65,0,0,1,1,7.68c-.8,5.13-4.48,9.56-7.89,13.24-6.92,7.49-15.61,13.63-23.68,19.81-21.17,16.21-39.7,34.82-54.41,57.13-26.42,40-39.95,91-82.59,118-24.73,15.67-56.2,23.59-85.32,22.53-28.39-1-59.15-11.56-81.71-29-39.34-30.4-52-82.44-80.35-121.37a209.57,209.57,0,0,0-22.21-25.7c-8.71-8.61-18.39-15.84-27.79-23.64-10-8.29-33.9-22.32-28.39-37.68,3.09,13.11,17.93,23.17,28.2,29.83,7.22,4.68,14.64,9,21.62,14.07A77.81,77.81,0,0,1,414,602.34c.1.14.36.07.3-.12-4.22-14.58-20.44-23.42-32.37-31.05-7.05-4.52-14.1-9.08-20.29-14.75a50,50,0,0,1-8.25-9.72c-2.17-3.36-3.24-7.12-5-10.68.22-.32.45-.64.7-1,2.19-2.81-1.74-6.81-4-4-.32.41-.61.82-.89,1.23a3.06,3.06,0,0,0-.81-.05c-13.77,1-27.25,4.32-41,5.9a126.39,126.39,0,0,1-41.7-2.17c-11.68-2.59-21.86-8-32.26-13.66-8.63-4.73-17.61-10.08-27.49-11.6-1.18-4.94-2.41-9.88-3.29-14.89-3.41-19.6-6.86-39.48-14.63-57.92-6.4-15.19-18.37-30.48-36-32-13.54-1.18-19.07,12.64-21.39,23.52-2,9.37-2.67,19-4,28.47-1,6.87-1.84,15.88-6.15,21.73a25.2,25.2,0,0,0-4.82-.46.77.77,0,0,0-.54,1.3,15.39,15.39,0,0,0,1.36,1.09.76.76,0,0,0,.65,1.19l.29.08a.88.88,0,0,0,.81-.17c.62.36,1.27.7,1.93,1a1.86,1.86,0,0,0,1.56.72c2,.86,4,1.61,5.81,2.39,4.8,2,9.26,6,14.23,7.29a2.25,2.25,0,0,0,2.5-3.25c-2.31-4.24-7.65-5.86-11.92-7.52-2-.78-4.19-1.6-6.44-2.31,6.85-8.27,7-22.28,8.19-32.14.87-7.33,1.75-14.68,3.64-21.83,1.35-5.1,3.46-10.94,8.34-13.63,5.88-3.24,14.06.91,18.93,4.16,7.58,5.06,12.5,13.47,16.25,21.54,8.5,18.3,11,38.83,15.39,58.32,2.21,9.7,5,19.32,6.48,29.17a105.07,105.07,0,0,1,.59,20.19c-.32,7.11-2.79,14.07-2.62,21.15a1.24,1.24,0,0,0,2.3.61c3.82-5.49,4.78-12.82,5.73-19.31a84.48,84.48,0,0,0,0-21.62,112.12,112.12,0,0,0-2.2-12.4c9.29,2.82,18.13,8.73,26.51,13.31,3,1.62,5.91,3.15,8.88,4.58,7.41,4.87,9.63,14.13,10.2,22.88.9,13.84-1.58,27.87-5.18,41.18a152,152,0,0,1-16.8,39.91c-5,8.2-12.77,19-23.21,20.25a2.06,2.06,0,0,0-1,.38c-18-5.72-36.07-10.9-54.15-15.79l-2-.55c.58-.28,1.16-.58,1.73-.89a68.8,68.8,0,0,0,27.73-28.72c1.39-2.67-2.57-4.95-4.08-2.31-6.84,11.91-15.54,23-28.13,29.1-11.2,5.47-23.61,3.86-35.07.3C88.71,633,66,617.63,45.92,627.63c-1.72.85-.89,3.51.93,3.51a110,110,0,0,1,17.41.82c5.75.9,11.4,2.72,17,4.28,11.39,3.18,22.64,7.34,34.37,9.08a52,52,0,0,0,24-1.61c39.81,13.8,80.6,24.31,119.56,40.59,37.57,15.7,78.89,36.77,100.89,72.64l.06.1c2.65,30.13,3,60.63,4.69,90.6,1.8,32.45,4.26,64.86,5.53,97.34,1.3,33.07.86,66.19.9,99.28q0,13.71,0,27.41c-5.06,11.7-7.07,24.68-7.12,37.59,0,.06,0,.12,0,.18-7.13,3.39-5.58,16.6-5.82,23.21-.18,5.12-1.08,10.77,1.32,15.49,1.93,3.78,6.55,5.63,10.35,6.77a2.37,2.37,0,0,0,.43.08c14.37,6.51,30.07,10.07,45.44,13.2a371.49,371.49,0,0,0,60,7.41c20.12.78,40.72-1.14,60.74-3.16a238.34,238.34,0,0,0,28.25-4.51c6.63-1.49,15.12-2.69,21.58-6a2.14,2.14,0,0,0,1-.06c3.57-1.07,7.47-2.63,9.69-5.82.19-.28.37-.56.53-.85,2,3.71,6.53,5.54,10.29,6.67a2.11,2.11,0,0,0,1.06.05c6,3,13.63,4.11,19.77,5.56a235.54,235.54,0,0,0,28.22,4.73c19.94,2.24,40.57,4,60.63,3.41a360.33,360.33,0,0,0,60.22-7.12c15.94-3.16,32.29-6.8,47.17-13.55a2.38,2.38,0,0,0,.43-.08c3.57-1.07,7.47-2.63,9.69-5.82,3.3-4.74,2.14-11,2-16.44-.19-6.61,1.29-19.82-5.82-23.21,0-.06,0-.12,0-.18,0-12.16-1.84-24.06-6.17-35q0-45.45.08-90.9c10.51,4.41,23.81,1.82,34-4.61,22-13.83,28.22-39.19,31.78-63.14a397.43,397.43,0,0,0,3.94-46.69C895.54,853.28,895.73,837.33,894.24,821.76Zm-70.82,287.5a4.05,4.05,0,0,0,.67,2.09c-6.85,1.25-13.59,3.44-20.25,5.33a193.12,193.12,0,0,1-28.37,5.53c-18.52,2.35-37.26,2.51-55.9,2.48-19.12,0-38.25.07-57.33-1.1-18.58-1.14-37.91-2.87-55.86-8.14,2.12-25,8-49.44,28-66.4,20.83-17.65,47.84-20.47,74.07-20.14,23.32.29,48,2.92,69.89,11.33,17.28,6.64,31.19,18.8,38.52,35.91C821.28,1086.43,822.9,1098.18,823.42,1109.26Zm-288.1,14.2c-19.11,1.35-38.28,1.15-57.42,1.22-18.67.07-37.35-.17-55.92-2.25a205.83,205.83,0,0,1-28.45-5.27c-7.32-1.89-14.57-4.41-22-5.8a4.06,4.06,0,0,0,.67-2.1c.92-19.5,5.87-39.11,20-53.28s34.49-20,53.64-23.3A284.87,284.87,0,0,1,484,1029c12.74-.42,26.52-.4,39,2.24,25.91,5.48,48.64,21.22,58.59,46.32,4.77,12,6.53,25.08,7.59,37.91C571.86,1120.54,553.28,1122.19,535.32,1123.46Zm59.32,27.81c-.66,3.72-5.11,5.43-8.21,6.4a2.21,2.21,0,0,0-1,.63c-2.47.61-4.87,1.55-7.31,2.28-4.68,1.39-9.43,2.51-14.19,3.6a231.17,231.17,0,0,1-29.09,4.46c-9.39.92-18.83,1.52-28.25,2.07-9.62.56-19.1.07-28.72-.19-37.53-1-76.56-7.65-111.33-22.07a2.34,2.34,0,0,0-.56-.15,9.45,9.45,0,0,1-2.35-2.39c-1.91-2.81-.76-8.13-.65-11.33.14-4-.86-20.28,4.3-20.92,34.65,14.7,71.54,16.61,108.75,16.61,19.77,0,39.55.14,59.28-1.12,18.37-1.18,37.8-2.75,55.47-8.29,2.71.75,2.65,4.12,3,7.21.39,3.85.6,7.71.78,11.58S595.29,1147.57,594.64,1151.27Zm238-16.68c.14,3.56,1,8-.65,11.33a6.5,6.5,0,0,1-2.15,2.37,2.32,2.32,0,0,0-.76.17c-34.88,14.47-73.73,20.85-111.33,22.07a454.58,454.58,0,0,1-57-1.89,235.5,235.5,0,0,1-29.09-4.46c-4.17-.92-8.31-2-12.43-3.1-3-.83-6-2.07-9.09-2.8a2.2,2.2,0,0,0-1-.61c-3-.92-5.74-2.11-7.54-4.75-1.91-2.81-.76-8.13-.65-11.33.14-3.87.38-7.73.68-11.58.27-3.36-.09-8.19,3.18-9.12,17.1,5.35,35.73,6.84,53.49,8.15,19.75,1.45,39.58,1.21,59.37,1.25,37.82.08,75.38-1.67,110.61-16.61C833.49,1114.3,832.45,1130.54,832.61,1134.59Zm-13.51-72.5a70.48,70.48,0,0,0-5.41-7.5c-12.17-14.65-30.59-22.61-48.7-27a242.53,242.53,0,0,0-73.52-5.55c-12,.92-24.92,4.42-36.09,8.84a89.25,89.25,0,0,0-30.29,19.84c-15.76,15.81-21.12,37.69-23.44,59.23,1.13-51,1.55-102.09,0-153a3.06,3.06,0,0,0-.09-.66c0-.27,0-.54,0-.83A72.7,72.7,0,0,1,603.26,944c1.39-6.85,3.89-13.21,4.89-20.16a.53.53,0,0,0-.88-.51c-5.44,5.49-7.33,11.93-9,19.36-.21.94-.46,2-.71,3.16l-.07-.2c-1.7-5.17-3.36-10.72-6.42-15.27a1.33,1.33,0,0,0-2.43,1,103.82,103.82,0,0,0,3.82,15.6c.67,2.21,1.34,4.42,1.94,6.66.81,3,.8,6.39,1.68,9.37-.37,50.95-.27,101.87-1.59,152.81-2-23.18-6.78-46.24-22.95-63.94-8.35-9.15-19.34-16-30.71-20.68a108.65,108.65,0,0,0-16.41-5.2c-6.09-1.45-12.52-3.23-18.77-3.76a248.53,248.53,0,0,0-73.78,5.13c-18.42,4.09-36.57,12.15-49.29,26.46a63.94,63.94,0,0,0-5.5,7.2c.09-28.86.29-57.74,0-86.6-.29-32.54-2.49-65-4.55-97.52-2-31.49-3.1-63-4.79-94.51-1.57-29.15-4.14-58.59-11.67-86.89a204.18,204.18,0,0,0-9.86-28.39c-1.07-2.47-5.32-.73-4.37,1.78,9.32,24.72,14.25,50.39,17.11,76.41-22.21-29.73-57.56-48.53-90.87-63-19.45-8.43-39.45-15.78-59.69-22.41,8.06-3.06,14.3-11.12,18.88-17.88,8.93-13.18,14.82-28.59,19-43.87,4-14.48,6.6-30,4.65-45-.71-5.47-2.46-11.86-5.88-16.63,2.59,1.06,5.23,2,7.92,2.89,6.1,2.27,12.52,3.54,18.89,4.93a83.83,83.83,0,0,1,24.71,9.49,1.46,1.46,0,0,0,1.74-2.29c-3.12-3.67-7.88-5.77-12.76-7.19a149.49,149.49,0,0,0,15.2-.59c13.53-1.2,26.85-4.26,40.39-5.32-5.11,15.4,11.3,28.82,23.33,38.2,20.4,15.9,39.87,32.21,55.32,53.15,28.63,38.8,41,89.12,79,120.94,20.72,17.35,48.79,27.48,75.34,30.93,28.7,3.73,57.1-2.48,83.45-13.78,22.31-9.56,39.71-25,53.71-44.7s24-41.74,35.41-62.88c7.91-14.72,16.66-28.74,27.43-41.56,10.93-13,23.68-24.34,37.09-34.73,13.88-10.75,40.2-28,32.34-46.58,19.36,11.95,28.07,38.65,33.26,59.24,8.9,35.33,11,72.37,11.82,108.65.43,18.16.34,36.34,0,54.51-8-7.52-19.57-9.39-30.61-9.14A139.34,139.34,0,0,0,836,753.37c-5.67,1-11.67,1.91-17.33,3.41-.06-1.26-.11-2.51-.17-3.77-.75-14.28-1.9-28.54-3.08-42.79-.61-7.47-1.13-15-1.89-22.41-.7-7-.72-14.31-2.62-21.08-.29-1.05-2.08-1.22-2.27,0-1,6.32-.17,12.84.12,19.2.35,7.49,1,15,1.5,22.43,1.07,14.87,2.09,29.75,2.75,44.65a529.9,529.9,0,0,1-2.36,80.65,3.24,3.24,0,0,0,.2,1.59,29.92,29.92,0,0,0-3.48,11.09,3.13,3.13,0,0,0-1.17,2.13c-1.81,15.27-3.42,30.65-3,46,.23,8.45.75,20.71,6.4,28.27-4.12,15.61-4.81,34.29,3.05,48.85a26.49,26.49,0,0,0,6.48,8,3.31,3.31,0,0,0-.14.94Zm69.26-185.52a378.7,378.7,0,0,1-5,46.84c-2.12,12.33-5.11,23.64-12,34.23-9.68,14.87-35.13,32-50.45,14.73-5.32-6-7.1-15.1-7.89-22.82A79,79,0,0,1,814,927c.3.19.6.37.91.54,12.54,6.81,29.21-8.26,34-18.55,8-17.06,4.23-38,2.07-56-.41-3.44-5.71-3.64-5.53,0,.8,16.33,4,33.08-.69,49.13-2.39,8.2-7.86,13.68-15.11,17.85-3.62,2.08-9.11,4.34-12.92,1.4-3.57-2.76-4.88-7.75-5.82-11.92-1.47-6.53-1.67-13.34-1.7-20,0-13.27,1.32-26.54,2.84-39.71,1.24-2.47,1.66-5.23,2.54-7.85a66.35,66.35,0,0,1,2.64-6.55,3.46,3.46,0,0,0,.32-.71q.65-1.39,1.31-2.76c1.5-3.11,3.21-6.11,5-9.07s4.58-5.89,5.07-9.36a.52.52,0,0,0-.75-.58c-3.23,1.36-5.28,4.89-7.43,7.56-.8,1-1.57,2-2.33,3,1.17-20.95,1.25-41.9.37-62.86,4.46-.41,9-1.59,13.28-2.4a208.11,208.11,0,0,1,20.86-3c12.79-1.07,27.19.08,35.56,10.9q0,1.14,0,2.29c-.18,8.62-.41,17.25-.62,25.87,0,.95-.07,1.93-.13,2.92-.13-.31-.26-.63-.41-.93-1.31-2.74-3.42-4.89-4.79-7.58-1.74-3.42-6.87-.47-5.16,2.93,1.47,2.93,3.78,5.19,5,8.27s2.27,6.15,3.24,9.25c2.17,7,2.73,14.27,3,21.51Q889.45,853.55,888.36,876.57Z"/><path d="M520.3,748.55c17,12.12,37.15,19.13,57.79,21.63A123.87,123.87,0,0,0,654,754.76c2-1.11.29-3.86-1.7-3-11.87,5.15-23.25,10.56-36,13.45-12.51,2.84-25.59,2.69-38.29,1.34-20.71-2.2-40-10-57.18-21.64-34.08-23.23-55.46-61.18-74.65-96.63-.76-1.4-2.89-.18-2.14,1.21C463.79,686.14,485.75,723.94,520.3,748.55Z"/><path d="M680.68,739.14c6-3.76,11.11-9.69,15.78-15a154.32,154.32,0,0,0,14.74-19.82,168.73,168.73,0,0,0,11.43-21.48c2.92-6.52,6-13.49,7-20.62.05-.41-.59-.55-.77-.2-3.16,6.35-5.27,13.18-8.31,19.61a194.19,194.19,0,0,1-11,19.86,182.72,182.72,0,0,1-14,19.46c-4.94,6-10.83,10.89-16,16.56C678.72,738.36,679.68,739.77,680.68,739.14Z"/><path class="cls-5" d="M63.75,467.82C64,459.73,65.09,451.93,71,446c10.26-10.26,24.55-10.91,38.16-11.66l198.37-17c13.52,0,27.91-.6,38.16,9.66s10.75,26,10.39,39.3L359.53,568c-.38,13.91-1,28.66-11.89,39.53s-27.17,13.85-41.5,13.85L73.68,630.76l-12.25-3c38.42-21.83,50.95-44.11,59-56.49s14-27.26,16.33-39.75-1.1-27.14-7.64-37.36-19.21-13.22-33.43-21-32-5.31-32-5.31Z"/><path class="cls-6" d="M310.33,418.76c12.62-1.5,26.67,6.28,28.4,19.53,1.33,10.17.79,21.52,1.38,31.85,1.51,26.23,1.87,52.58,3,78.84.27,6.31.41,12.63.62,18.95,0,0,2.47,39-24.53,41.67l-243,10.67-12,6.5,7.5,4L314.2,621s31.48-5.74,39.48-20.24,4.92-56.27,4.61-67.64,0-92.09-7.7-100.36S335.47,415.76,310.33,418.76Z"/><path class="cls-4" d="M136.69,506.32s0,30.93-2.51,38.68-15.5,31-22,42.36C107.81,595,89.38,612,77.75,622.3c-.57.08-1.13.16-1.66.26-2.83.53-5.68.94-8.48,1.62a2.15,2.15,0,0,0-1.11,3.38,1,1,0,0,0,.42,1.68,10.24,10.24,0,0,0,2.23.58l-1.14,1,37.17-3C160.18,571.63,136.69,506.32,136.69,506.32Z"/><path d="M73.68,633.26a2.49,2.49,0,0,1-.59-.07l-12.25-3a2.5,2.5,0,0,1-.64-4.6c35.28-20,48.53-40.69,56.45-53l1.72-2.66c7.62-11.67,13.59-26.2,16-38.84,2.13-11.35-.73-25.3-7.29-35.55-4.26-6.65-11.45-10-20.56-14.27-3.83-1.79-7.79-3.64-12-5.94-8.09-4.45-17.45-5.38-23.87-5.38a52.46,52.46,0,0,0-6.53.36,2.5,2.5,0,0,1-2.85-2.55c.26-8.32,1.41-16.92,8-23.53,10.81-10.81,25.29-11.6,39.3-12.36l.5,0,198.29-17h4.49c13.31,0,26.05.79,35.65,10.39,10.45,10.44,11.61,25.9,11.21,41.06l3.47,101.61V568c-1,13.1-.89,29.41-12.7,41.22-9.53,9.53-24.52,14.58-43.26,14.58L73.8,633.26ZM68,626.8l5.93,1.45L306,618.84h.1c12.14,0,28.89-2.28,39.73-13.12,10.39-10.39,10.58-24.92,10.94-37.75l-3.62-101.61v-.15c1-14.06-.31-28.34-9.44-37.46-8.26-8.26-19.32-8.93-32-8.93h-4.11l-198.23,17-.56,0c-13.07.71-26.57,1.44-36,10.9-4.49,4.49-6,10.22-6.42,17.32,1.15-.07,2.59-.13,4.25-.13,7,0,17.26,1,26.28,6,4,2.22,7.92,4,11.67,5.79,9.45,4.42,17.61,8.23,22.66,16.1,7.21,11.26,10.35,26.63,8,39.17-2.49,13.26-8.73,28.46-16.69,40.65l-1.7,2.63C113.1,587.35,100.39,607.15,68,626.8Z"/><path class="cls-14" d="M294,501.16a5.49,5.49,0,0,0-1.24-1.44,4.56,4.56,0,0,0-.45-1.37,6.16,6.16,0,0,0-8.79-2.1c-2.58,1.61-4.44,4.25-5.94,6.83-3.11,5.34-5.3,11.14-3.06,17.26,2.44,6.66,10.27,11.4,16.78,6.72C299.78,520.94,298.67,509.25,294,501.16Z"/><path class="cls-15" d="M288,502.73a3.17,3.17,0,0,0-3.08-3.08c-3.57-.25-5.44,3.39-6.55,6.19s-1.29,6.3-1.3,9.42c0,5.67,8.77,5.67,8.79,0a36.67,36.67,0,0,1,.32-5.89C286.51,507.16,288.22,505,288,502.73Z"/><path class="cls-11" d="M283.53,501.61a12.58,12.58,0,0,0-3.93,6.87c-.58,2.34-1.13,5.41.11,7.59a1.13,1.13,0,0,0,1.95,0c1.11-1.9.77-4.27.93-6.4a30.64,30.64,0,0,1,1.9-7.51c.2-.58-.57-.9-1-.55Z"/><path class="cls-16" d="M295.93,534a1.52,1.52,0,0,1,.1-1.08c.16-.42.44-.83.69-1.43a21.87,21.87,0,0,0,1.68-4.75c.27-1,.55-2.35.8-3.68l.3-1.93q.06-1,.16-2.08a41.51,41.51,0,0,0-.74-9.47,43.68,43.68,0,0,0-2.8-9.16,37.6,37.6,0,0,0-3.78-6.77c-.31-.47-.67-.83-1-1.25a11.57,11.57,0,0,0-.9-1.13c-.62-.63-1.1-1.35-1.58-1.83-.92-1-1.43-1.87-1.22-2.46s1.13-.83,2.8-.67a5.39,5.39,0,0,1,1.32.29c.47.14,1,.32,1.53.52A9.77,9.77,0,0,1,295,488a18.42,18.42,0,0,1,1.77,1.1,25.9,25.9,0,0,1,6.71,7.49,34.23,34.23,0,0,1,4.31,11.34,33.29,33.29,0,0,1,.13,12.2c-.21.94-.43,1.86-.66,2.74s-.62,1.72-.92,2.52a27,27,0,0,1-2.13,4.05,11.58,11.58,0,0,1-5.3,4.84,3.87,3.87,0,0,1-2.05.3A1,1,0,0,1,295.93,534Z"/><path class="cls-17" d="M277.93,538.51c-.35.49-1.41.45-3-.38a18.22,18.22,0,0,1-5.08-4.82q-.62-.86-1.28-1.83c-.43-.65-.83-1.32-1.26-2s-.81-1.44-1.23-2.2l-.6-1.15c-.2-.39-.39-.76-.62-1.28a27.9,27.9,0,0,1-1.89-6.09,39.47,39.47,0,0,1-.72-6.5A37.22,37.22,0,0,1,264,499.71a22.34,22.34,0,0,1,5.57-9.32,14.36,14.36,0,0,1,3.62-2.47,10,10,0,0,1,3.16-.85,9.31,9.31,0,0,1,1.19,0,4.14,4.14,0,0,1,.88.22c.48.18.74.43.8.73.24,1.31-2.77,2.66-4.74,6.43a25.48,25.48,0,0,0-2.45,7.38,48.53,48.53,0,0,0-.71,10.14,41,41,0,0,0,1.34,9.83l1.5,4.53,1.34,3.91c.84,2.35,1.58,4.16,2.07,5.51S278.31,538,277.93,538.51Z"/><path d="M338.33,437.26q1.45,25.49,2.33,51c.63,17.65.17,35.35,1,53a1.56,1.56,0,0,0,3.12,0c.73-16.93-.17-34.09-.79-51q-1-26.58-3.92-53c-.12-1.06-1.76-1.11-1.7,0Z"/><path d="M342,557.26c-.08,9.18.8,18.63-.94,27.71a27.61,27.61,0,0,1-5.18,11.57c-3.32,4.35-8.46,6.51-11.9,10.55a1.68,1.68,0,0,0,1.6,2.79c8.91-2,16.13-12.56,18.64-20.81,3.08-10.15,1.11-21.5.09-31.8a1.15,1.15,0,0,0-2.3,0Z"/><path d="M284.9,493c-16.18,2.49-19.17,29.49-6.19,37.65,9,5.66,18.38-2.5,20.9-11,2.77-9.34-2.09-27.33-14.17-26.74-2.7.13-2.71,4.33,0,4.2,10-.49,11.72,16,9.72,22.79-2.21,7.46-11.21,11.09-16.76,5-7.13-7.79-3.7-26.16,7.57-27.89C288.65,496.61,287.55,492.55,284.9,493Z"/><path d="M276.54,487.55c-4.39-.3-8.34,4.2-10.54,7.51-2.9,4.36-4,9.93-4.06,15.08-.18,9.52,3.84,24.28,13.33,28.76,1.17.55,2.5-.93,1.44-1.9-7.42-6.81-11.47-14.49-12.19-24.73a30.78,30.78,0,0,1,2.3-14.52c2.18-5,6.28-6.48,9.8-10a.11.11,0,0,0-.08-.19Z"/><path d="M289.88,487c3.76,1.88,6.79,3.17,9.64,6.46,3.34,3.86,5.15,8.95,6.3,13.84a35.2,35.2,0,0,1,.16,15.48c-1.06,4.82-3.75,7.87-7.08,11.27-.65.66,0,2,.95,1.65,10.28-3.71,10.39-19.35,8.75-28.05-1.48-7.85-8.29-23.09-18.61-21.48a.45.45,0,0,0-.11.83Z"/><path d="M283.31,540.14c3,.88,7.4.82,10.22-.73,1-.52.62-2.3-.57-2.16-1.38.16-2.69.67-4.05,1a25.84,25.84,0,0,1-5.41.43.76.76,0,0,0-.19,1.5Z"/><path d="M8.25,537.76c-5.5,19.53-10.19,41.05-7.45,61.4C3.39,618.36,17.74,630.7,36.66,633c21.4,2.63,40.8-8.7,56.11-22.6C109,595.67,122,576.78,131.31,557c4.48-9.48,7.77-19.36,8.81-29.83,1.14-11.49-2.37-22.61-7.47-32.77-1-2-3.78-.28-3,1.68,6.26,14.94,6.39,30.13,1.1,45.37-3.6,10.38-9.48,20.23-15.33,29.49-12,19-27.35,37.63-47.29,48.66-16.85,9.32-43.35,11.19-55.7-6.54C1.15,596.82,7,572.69,9.77,554.76c.85-5.5,1.75-11,2.4-16.5.27-2.31-3.33-2.61-3.92-.51Z"/><path d="M135.29,503.26c-.3-7.19-5.51-12.68-10.64-17.18a87.53,87.53,0,0,0-23.58-14.3c-15.13-6.43-32.4-11-48.24-4.24C35.4,475,24.38,492.08,17.11,508.88c-9.69,22.39-13.94,47.34-17,71.39-.5,3.91,5.62,3.86,6.12,0,2.79-21.71,6.85-43.87,14.69-64.39C27,500,36.51,483.65,51.7,475.08,66,467,82.1,471,96.46,476.51c13.79,5.3,30.29,13.1,36.76,27.3a1.11,1.11,0,0,0,2.07-.55Z"/><path d="M931.95,332.77c-1.45-7.78-5.55-14.64-10.71-20.52a76.07,76.07,0,0,0-17.43-14.72,2.77,2.77,0,0,0,.12-.78c0-30-2.32-60.16-10.6-89.14-3.78-13.23-8.66-26.58-16.24-38.13-7.22-11-16.48-20.66-26.18-29.47a3.26,3.26,0,0,0-.69-1.88C818,94.67,776.21,56.94,727.75,32.44,702.63,19.75,675.11,11.73,647.6,6.21a300.26,300.26,0,0,0-89.85-4.75c-46.51,4.75-92.92,18.53-132.91,43-37.76,23.12-71,54.19-97.65,89.5-17,13.85-31.92,30.27-40.48,50.09-15.3,35.44-19,74.45-19.1,112.68,0,.05,0,.1,0,.15-13,7.22-25.19,20-28.91,34.51-4.14,16.16.45,34.07,3.24,50.07,2.3,13.19,2.31,27.33,10.16,38.78q.63.93,1.32,1.79c.24-.06.47-.12.72-.16a48.49,48.49,0,0,1,6.18-.5c-.23-.23-.47-.45-.7-.69,3.39-2.49,3.14-10.51,3.16-13.62.06-8.09-.36-17.17-2.78-25a.17.17,0,0,0-.32,0c-.68,6,.32,12.44.54,18.5.12,3.21,1.31,15.45-2.46,17.88a28.58,28.58,0,0,1-1.93-2.74c-6.51-10.58-6.45-23.86-8.5-35.75-2.6-15-6.43-30.69-3.62-45.92.13-.69.28-1.37.46-2,4.64,2.69,6.09,8.42,7.75,13.5a104.52,104.52,0,0,1,3.86,17.25c0,.09.16.07.16,0-.32-7.33-1-15-3.23-22-1.1-3.48-3.56-10-7.7-11.54A41.68,41.68,0,0,1,254,315c4.75-5.15,10.83-8.71,15.89-13.43,3,9.16,7.57,18,10.43,27.22a197.73,197.73,0,0,1,7.35,35.51,216.18,216.18,0,0,1,1,35.3c-.28,6-.59,12-2,17.84a15.24,15.24,0,0,1,5.1.88c1.54-5.49,1.88-11.31,2.3-17a194.8,194.8,0,0,0-1.13-37.06,198.38,198.38,0,0,0-7.41-35,154.27,154.27,0,0,0-5.25-15.54,58.92,58.92,0,0,1-4.54-17.07c-.74-7.17-.45-14.53-.17-21.57a310.89,310.89,0,0,1,4.94-44.89,229.05,229.05,0,0,1,6-24.49C290.55,192,296,179,304.6,167.4c8.14-11,18.3-20.62,28.81-29.31C380.12,99.47,439.9,77.6,498.81,66.41c114.08-21.67,243.71-4.23,337.46,68.32,1.8,1.39,3.56,2.82,5.3,4.28.71.94,1.43,1.87,2.12,2.81a3.86,3.86,0,0,0,3,1.61,188.08,188.08,0,0,1,18.48,19c9.89,11.76,16,25,20.85,39.51,10.18,30.45,12.61,62.86,12.68,94.76a2.67,2.67,0,0,0,.18,1c-6.55,8.41-10.16,19.93-13.4,29.87a188.54,188.54,0,0,0-7.72,35,211.62,211.62,0,0,0-1.47,37,125,125,0,0,0,5.91,31.77c-12.26,17.15-28.63,28.53-50,31.16-24.85,3.07-49.37-5.34-73.32-10.67a795.31,795.31,0,0,0-171.4-18.73l-.16,0-.15,0a800.43,800.43,0,0,0-171.4,18.7c-19.91,4.4-39.79,10.62-60.19,11.16a15.12,15.12,0,0,1,.59,2.78c0,.41.08.82.13,1.23,16-.52,31.77-4.66,47.39-8.24,29.66-6.8,59.56-12.75,89.82-16.15a813.89,813.89,0,0,1,93.66-4.86l.15,0,.16,0a849.15,849.15,0,0,1,91.75,4.67c30.28,3.19,60.2,9.21,89.86,15.95,23.23,5.28,46.09,11.63,70,7A68.29,68.29,0,0,0,883.36,435c.06.16.1.32.16.48a2.4,2.4,0,0,0,1.18,1.39c-9.75,17.52-24.54,31.23-44.35,36.44-24.13,6.34-48.45-.94-71.94-6.39-28.94-6.71-58.1-12.5-87.63-15.9a825.76,825.76,0,0,0-93.29-5.17l-.15,0-.15,0a864.86,864.86,0,0,0-91.37,5c-30.19,3.26-60,9.3-89.56,16.12-16.5,3.8-33,8.28-49.66,8.67q-.07,1.43-.23,2.86c13.19-.28,26.44-3.11,39.25-6.13,31.19-7.37,62.59-14,94.43-17.87A791.11,791.11,0,0,1,587.18,449h.31a822.73,822.73,0,0,1,95.21,5.16c32.49,3.71,64.54,10.61,96.35,18.1,21.65,5.09,43.59,9.23,65.42,2.6,17.91-5.44,30.89-18.17,39.86-33.9a185,185,0,0,1-22.56,53c-11.74,19.09-26.09,36.21-45.08,48.29a2.25,2.25,0,0,0-.83.3c-25.76,15.13-54.32,23.89-83.4,30a849.67,849.67,0,0,1-92.06,13.92A557,557,0,0,1,544.16,588c-32.22-2.42-63.81-9.25-94.47-19.33-18.92-6.22-37.54-13.35-56-20.88-11.71-4.78-23.87-9.23-35.41-14.7a23.05,23.05,0,0,1,1.39,8.39,11.87,11.87,0,0,1-.14,1.74c9.81,4.38,20,8.11,29.87,12.13,29.1,11.88,58.54,22.67,89.23,29.7,30.86,7.06,62.75,10,94.37,10.34,43.45.46,86.56-5.08,129.32-12.34,39.5-6.71,79.28-15.71,114.2-36.1a2.07,2.07,0,0,0,1-.34c19.75-12.37,34.28-29.81,46.59-49.39,11.33-18,20.89-38.77,22.56-60.26a2.32,2.32,0,0,0,1.32-1c11.91-1.41,22.54-5.16,30-15,8.4-11.1,8.17-26.44,10.41-39.53C931.15,365.5,935,349,931.95,332.77ZM782.24,94.87a399.72,399.72,0,0,0-78.68-29.33C646.18,50.52,586,47.65,527.24,55.16,467.32,62.83,408.42,80.54,357,112.84c-4.69,2.95-9.41,6-14.09,9.3C373.74,86,411.58,55,454.49,34.83c26.69-12.56,56.2-20.12,85.22-24.8a291.08,291.08,0,0,1,93.11.22c42,6.74,82.3,20.64,118.05,43.73a353.47,353.47,0,0,1,76.53,67.39A367.16,367.16,0,0,0,782.24,94.87ZM923,380.07c-2.11,12-2.18,24.78-8.22,35.7a24.65,24.65,0,0,1-1.93,2.94c-4-1.91-2.84-13.76-2.77-16.95.13-6.43,1.3-13.18.57-19.59a.17.17,0,0,0-.32,0c-2.34,7.52-2.65,16.1-2.77,23.92-.05,3.28-.46,12.51,3.46,14.86-6,6.36-15,9.48-23.46,11.41a129.59,129.59,0,0,1-5.82-32.71,227.45,227.45,0,0,1,1-35.3,198.92,198.92,0,0,1,6.84-33.83c2.86-9.88,7.74-19.17,10.93-28.89,4.69,4.38,10.26,7.83,14.87,12.37a40.38,40.38,0,0,1,9.89,15.41c-4.09,1.55-6.44,8.08-7.61,11.52-2.34,6.92-2.91,14.71-3.22,22,0,.09.15.11.16,0a117.16,117.16,0,0,1,3.53-16.18c1.56-5.31,3.17-11.65,8-14.52.18.66.37,1.33.51,2C929.91,349.06,925.62,365.38,923,380.07Z"/><path class="cls-3" d="M54.4,494.81C44,506.89,38,523.39,33,538.33c-5.2,15.52-10.14,33-10.4,49.45-.05,3.21,5.06,4,5.68.77,1.45-7.57,2-15.29,3.45-22.88a245.61,245.61,0,0,1,5.84-24.24C42.2,525.53,49.92,510.78,54.76,495a.22.22,0,0,0-.36-.21Z"/></g></g></svg>