<?xml version="1.0" encoding="utf-8"?>
<!-- Generator: Adobe Illustrator 15.0.0, SVG Export Plug-In . SVG Version: 6.00 Build 0)  -->
<!DOCTYPE svg PUBLIC "-//W3C//DTD SVG 1.1//EN" "http://www.w3.org/Graphics/SVG/1.1/DTD/svg11.dtd">
<svg version="1.1" id="Layer_1" xmlns="http://www.w3.org/2000/svg" xmlns:xlink="http://www.w3.org/1999/xlink" x="0px" y="0px"
	 width="200px" height="193px" viewBox="0 0 200 193" enable-background="new 0 0 200 193" xml:space="preserve">
<g>
	<defs>
		<rect id="SVGID_1_" y="-21" width="200" height="220"/>
	</defs>
	<clipPath id="SVGID_2_">
		<use xlink:href="#SVGID_1_"  overflow="visible"/>
	</clipPath>
	<path clip-path="url(#SVGID_2_)" fill="#4DB0DF" d="M184.445,162.86c0,1.849,1.499,3.348,3.348,3.348
		c1.85,0,3.349-1.499,3.349-3.348c0-1.85-1.499-3.349-3.349-3.349C185.944,159.512,184.445,161.011,184.445,162.86"/>
	
		<circle clip-path="url(#SVGID_2_)" fill="none" stroke="#4DB0DF" stroke-width="0.52" stroke-linecap="round" stroke-linejoin="round" stroke-miterlimit="10" cx="187.793" cy="162.86" r="3.348"/>
	<path clip-path="url(#SVGID_2_)" fill="#4DB0DF" d="M175.536,154.855c0,2.021,1.64,3.66,3.66,3.66c2.022,0,3.66-1.64,3.66-3.66
		c0-2.021-1.638-3.66-3.66-3.66C177.176,151.195,175.536,152.834,175.536,154.855"/>
	
		<circle clip-path="url(#SVGID_2_)" fill="none" stroke="#4DB0DF" stroke-width="0.52" stroke-linecap="round" stroke-linejoin="round" stroke-miterlimit="10" cx="179.196" cy="154.855" r="3.66"/>
	<path clip-path="url(#SVGID_2_)" fill="#4DB0DF" d="M167.856,156.239c0,0,1.191,5.335,3.878,8.21c0,0-4.316,7.906-6.763,16.499
		c-0.333,1.17,0.31,2.396,1.466,2.771l0.292,0.095c1.077,0.349,2.245-0.156,2.729-1.18l1.994-4.225l1.699,0.567l0.704,4.769
		c0.177,1.201,1.274,2.045,2.48,1.907l0.041-0.005c1.037-0.118,1.855-0.935,1.978-1.971l0.813-6.869l0.217,0.369
		c0.4,0.684,1.229,0.985,1.975,0.724l0.4-0.142c0.899-0.316,1.512-1.152,1.532-2.105c0.028-1.387-0.096-3.767-0.777-7.517
		c0,0,2.81,0.058,3.66-2.865c0.852-2.922,0.143-5.958-2.78-7.519s-6.923-0.811-8.2,1.595c0,0-0.27,0.52-0.354,1.044
		c0,0-3.023-3.146-3.563-5.817c-0.117-0.581-0.632-0.993-1.224-0.96l-1.413,0.138L167.856,156.239z"/>
	
		<path clip-path="url(#SVGID_2_)" fill="none" stroke="#4DB0DF" stroke-width="0.52" stroke-linecap="round" stroke-linejoin="round" stroke-miterlimit="10" d="
		M167.856,156.239c0,0,1.191,5.335,3.878,8.21c0,0-4.316,7.906-6.763,16.499c-0.333,1.17,0.31,2.396,1.466,2.771l0.292,0.095
		c1.077,0.349,2.245-0.156,2.729-1.18l1.994-4.225l1.699,0.567l0.704,4.769c0.177,1.201,1.274,2.045,2.48,1.907l0.041-0.005
		c1.037-0.118,1.855-0.935,1.978-1.971l0.813-6.869l0.217,0.369c0.4,0.684,1.229,0.985,1.975,0.724l0.4-0.142
		c0.899-0.316,1.512-1.152,1.532-2.105c0.028-1.387-0.096-3.767-0.777-7.517c0,0,2.81,0.058,3.66-2.865
		c0.852-2.922,0.143-5.958-2.78-7.519s-6.923-0.811-8.2,1.595c0,0-0.27,0.52-0.354,1.044c0,0-3.023-3.146-3.563-5.817
		c-0.117-0.581-0.632-0.993-1.224-0.96l-1.413,0.138L167.856,156.239z"/>
	<path clip-path="url(#SVGID_2_)" fill="#005AA4" d="M180.617,162.549c0,0,1.862,0.335,1.893,1.976l-1.186-0.174
		c-0.303-0.044-0.537-0.287-0.571-0.591L180.617,162.549z"/>
	
		<path clip-path="url(#SVGID_2_)" fill="none" stroke="#005AA4" stroke-width="0.52" stroke-linecap="round" stroke-linejoin="round" stroke-miterlimit="10" d="
		M180.617,162.549c0,0,1.862,0.335,1.893,1.976l-1.186-0.174c-0.303-0.044-0.537-0.287-0.571-0.591L180.617,162.549z"/>
	
		<path clip-path="url(#SVGID_2_)" fill="none" stroke="#005AA4" stroke-width="0.52" stroke-linecap="round" stroke-linejoin="round" stroke-miterlimit="10" d="
		M179.338,176.177c0,0,1.324-1.665,1.324-5.221"/>
	
		<path clip-path="url(#SVGID_2_)" fill="none" stroke="#005AA4" stroke-width="0.52" stroke-linecap="round" stroke-linejoin="round" stroke-miterlimit="10" d="
		M180.133,153.612c0,0,0.313,1.785-0.49,3.334"/>
	
		<line clip-path="url(#SVGID_2_)" fill="none" stroke="#005AA4" stroke-width="0.52" stroke-linecap="round" stroke-linejoin="round" stroke-miterlimit="10" x1="179.338" y1="155.28" x2="178.506" y2="153.933"/>
	
		<line clip-path="url(#SVGID_2_)" fill="none" stroke="#005AA4" stroke-width="0.52" stroke-linecap="round" stroke-linejoin="round" stroke-miterlimit="10" x1="178.922" y1="155.975" x2="178.317" y2="155.734"/>
	
		<path clip-path="url(#SVGID_2_)" fill="none" stroke="#005AA4" stroke-width="0.52" stroke-linecap="round" stroke-linejoin="round" stroke-miterlimit="10" d="
		M189.099,162.86c0,0-1.238-0.908-2.587-0.53"/>
	
		<line clip-path="url(#SVGID_2_)" fill="none" stroke="#005AA4" stroke-width="0.52" stroke-linecap="round" stroke-linejoin="round" stroke-miterlimit="10" x1="187.661" y1="162.86" x2="188.493" y2="163.853"/>
	
		<line clip-path="url(#SVGID_2_)" fill="none" stroke="#005AA4" stroke-width="0.52" stroke-linecap="round" stroke-linejoin="round" stroke-miterlimit="10" x1="186.942" y1="163.087" x2="187.094" y2="163.692"/>
	
		<path clip-path="url(#SVGID_2_)" fill="none" stroke="#005AA4" stroke-width="0.52" stroke-linecap="round" stroke-linejoin="round" stroke-miterlimit="10" d="
		M178.922,164.639c0,0-0.908-0.601-0.681-2.174"/>
	
		<path clip-path="url(#SVGID_2_)" fill="none" stroke="#005AA4" stroke-width="0.52" stroke-linecap="round" stroke-linejoin="round" stroke-miterlimit="10" d="
		M179.761,160.105c0.653-0.343,1.46-0.092,1.803,0.562"/>
	
		<path clip-path="url(#SVGID_2_)" fill="none" stroke="#005AA4" stroke-width="0.52" stroke-linecap="round" stroke-linejoin="round" stroke-miterlimit="10" d="
		M183.658,162.618c0.728,0.127,1.212,0.819,1.084,1.545"/>
	<path clip-path="url(#SVGID_2_)" fill="#DEB48F" d="M173.193,155.492c0,0,0.22-4.063-0.787-6.239
		c-1.008-2.177-2.988,1.626-2.988,1.626l-2.334,3.572c-0.14,0.213-0.121,0.491,0.041,0.685l0.007,0.008
		c0.196,0.232,0.54,0.271,0.782,0.089l1.622-1.213c0.39-0.107,1.636,1.699,0.958,3.324c0,0-1.14,0.772-0.865,1.495
		c0.161,0.43,0.51,0.642,1.282-0.081C172.179,157.571,173.193,155.492,173.193,155.492"/>
	
		<path clip-path="url(#SVGID_2_)" fill="none" stroke="#DEB48F" stroke-width="0.52" stroke-linecap="round" stroke-linejoin="round" stroke-miterlimit="10" d="
		M173.193,155.492c0,0,0.22-4.063-0.787-6.239c-1.008-2.177-2.988,1.626-2.988,1.626l-2.334,3.572
		c-0.14,0.213-0.121,0.491,0.041,0.685l0.007,0.008c0.196,0.232,0.54,0.271,0.782,0.089l1.622-1.213
		c0.39-0.107,1.636,1.699,0.958,3.324c0,0-1.14,0.772-0.865,1.495c0.161,0.43,0.51,0.642,1.282-0.081
		C172.179,157.571,173.193,155.492,173.193,155.492z"/>
	
		<path clip-path="url(#SVGID_2_)" fill="none" stroke="#BC8B5F" stroke-width="0.52" stroke-linecap="round" stroke-linejoin="round" stroke-miterlimit="10" d="
		M171.979,157.506c0,0,0.784-1.169,0.572-2.859"/>
	<path clip-path="url(#SVGID_2_)" fill="#002776" d="M162.12,123.827l0.361,0.156c3.479,1.506,6.041,4.572,6.904,8.264l4.159,17.797
		l-4.855,1.073l-5.365-21.339"/>
	
		<path clip-path="url(#SVGID_2_)" fill="none" stroke="#002776" stroke-width="0.52" stroke-linecap="round" stroke-linejoin="round" stroke-miterlimit="10" d="
		M162.12,123.827l0.361,0.156c3.479,1.506,6.041,4.572,6.904,8.264l4.159,17.797l-4.855,1.073l-5.365-21.339"/>
	<polyline clip-path="url(#SVGID_2_)" fill="#DEB48F" points="163.116,164.677 160.776,183.65 163.896,186.076 158.004,188.372 
		152.503,188.372 148.354,186.076 151.474,183.65 149.136,164.677 	"/>
	
		<polyline clip-path="url(#SVGID_2_)" fill="none" stroke="#DEB48F" stroke-width="0.52" stroke-linecap="round" stroke-linejoin="round" stroke-miterlimit="10" points="
		163.116,164.677 160.776,183.65 163.896,186.076 158.004,188.372 152.503,188.372 148.354,186.076 151.474,183.65 149.136,164.677 
			"/>
	
		<line clip-path="url(#SVGID_2_)" fill="none" stroke="#BC8B5F" stroke-width="0.52" stroke-linecap="round" stroke-linejoin="round" stroke-miterlimit="10" x1="156.125" y1="185.21" x2="156.125" y2="164.937"/>
	<path clip-path="url(#SVGID_2_)" fill="#DEB48F" d="M152.967,117.736v4.191l-5.42,2.81c0,0,9.713,8.404,15.777,0l-5.42-2.81v-4.191
		"/>
	
		<path clip-path="url(#SVGID_2_)" fill="none" stroke="#DEB48F" stroke-width="0.52" stroke-linecap="round" stroke-linejoin="round" stroke-miterlimit="10" d="
		M152.967,117.736v4.191l-5.42,2.81c0,0,9.713,8.404,15.777,0l-5.42-2.81v-4.191"/>
	<path clip-path="url(#SVGID_2_)" fill="#002776" d="M148.638,123.827c0,0-5.109,1.417-3.741,8.781
		c0.491,2.431,1.213,7.116,0.733,11.969c-0.692,7.018-5.718,17.5-5.718,17.5s15.875,9.876,30.934,0c0,0-5.025-10.482-5.718-17.5
		c-0.479-4.853,0.242-9.538,0.733-11.969c1.368-7.364-3.741-8.781-3.741-8.781C160.335,126.314,152.375,128.486,148.638,123.827"/>
	
		<path clip-path="url(#SVGID_2_)" fill="none" stroke="#002776" stroke-width="0.52" stroke-linecap="round" stroke-linejoin="round" stroke-miterlimit="10" d="
		M148.638,123.827c0,0-5.109,1.417-3.741,8.781c0.491,2.431,1.213,7.116,0.733,11.969c-0.692,7.018-5.718,17.5-5.718,17.5
		s15.875,9.876,30.934,0c0,0-5.025-10.482-5.718-17.5c-0.479-4.853,0.242-9.538,0.733-11.969c1.368-7.364-3.741-8.781-3.741-8.781
		C160.335,126.314,152.375,128.486,148.638,123.827z"/>
	<path clip-path="url(#SVGID_2_)" fill="#4DB0DF" d="M154.136,131.495c0,0.718,0.582,1.3,1.3,1.3c0.719,0,1.301-0.582,1.301-1.3
		s-0.582-1.299-1.301-1.299C154.718,130.196,154.136,130.777,154.136,131.495"/>
	
		<circle clip-path="url(#SVGID_2_)" fill="none" stroke="#4DB0DF" stroke-width="0.52" stroke-linecap="round" stroke-linejoin="round" stroke-miterlimit="10" cx="155.436" cy="131.495" r="1.3"/>
	<path clip-path="url(#SVGID_2_)" fill="#4DB0DF" d="M154.136,136.606c0,0.718,0.582,1.3,1.3,1.3c0.719,0,1.301-0.582,1.301-1.3
		c0-0.717-0.582-1.299-1.301-1.299C154.718,135.308,154.136,135.89,154.136,136.606"/>
	
		<circle clip-path="url(#SVGID_2_)" fill="none" stroke="#4DB0DF" stroke-width="0.52" stroke-linecap="round" stroke-linejoin="round" stroke-miterlimit="10" cx="155.436" cy="136.606" r="1.3"/>
	<path clip-path="url(#SVGID_2_)" fill="#002776" d="M156.125,186.693c0,0-2.131,0.942-3.863,0s-3.287-1.1-3.287-1.1l-2.595,0.716
		c-0.799,0.221-1.353,0.946-1.353,1.775v0.023c0,0.492,0.399,0.892,0.892,0.892h5.043h10.326h5.045c0.491,0,0.89-0.398,0.89-0.89
		v-0.023c0-0.831-0.554-1.558-1.354-1.777l-2.594-0.716c0,0-1.554,0.157-3.287,1.1C158.256,187.636,156.125,186.693,156.125,186.693
		"/>
	
		<path clip-path="url(#SVGID_2_)" fill="none" stroke="#002776" stroke-width="0.52" stroke-linecap="round" stroke-linejoin="round" stroke-miterlimit="10" d="
		M156.125,186.693c0,0-2.131,0.942-3.863,0s-3.287-1.1-3.287-1.1l-2.595,0.716c-0.799,0.221-1.353,0.946-1.353,1.775v0.023
		c0,0.492,0.399,0.892,0.892,0.892h5.043h10.326h5.045c0.491,0,0.89-0.398,0.89-0.89v-0.023c0-0.831-0.554-1.558-1.354-1.777
		l-2.594-0.716c0,0-1.554,0.157-3.287,1.1C158.256,187.636,156.125,186.693,156.125,186.693"/>
	<path clip-path="url(#SVGID_2_)" fill="#002776" d="M156.647,116.639c14.819,0,14.125-15.487,14.125-15.487
		c0-8.657-7.017-15.674-15.673-15.674s-15.673,7.017-15.673,15.674c0,0-0.673,15.487,15.304,15.487"/>
	
		<path clip-path="url(#SVGID_2_)" fill="none" stroke="#002776" stroke-width="0.52" stroke-linecap="round" stroke-linejoin="round" stroke-miterlimit="10" d="
		M156.647,116.639c14.819,0,14.125-15.487,14.125-15.487c0-8.657-7.017-15.674-15.673-15.674s-15.673,7.017-15.673,15.674
		c0,0-0.673,15.487,15.304,15.487"/>
	<path clip-path="url(#SVGID_2_)" fill="#DEB48F" d="M155.118,119.177h0.225c6.189,0,11.271-4.897,11.502-11.083l0.537-14.511
		h-24.304l0.537,14.511C143.846,114.279,148.928,119.177,155.118,119.177"/>
	
		<path clip-path="url(#SVGID_2_)" fill="none" stroke="#DEB48F" stroke-width="0.52" stroke-linecap="round" stroke-linejoin="round" stroke-miterlimit="10" d="
		M155.118,119.177h0.225c6.189,0,11.271-4.897,11.502-11.083l0.537-14.511h-24.304l0.537,14.511
		C143.846,114.279,148.928,119.177,155.118,119.177z"/>
	<path clip-path="url(#SVGID_2_)" fill="#002776" d="M167.382,109.466c0,0-0.655-5.313-2.215-7.205c0,0-13.647-0.853-16.377-7.547
		c0,0-0.974,4.615-4.159,8.156c0,0-1.806,1.853-1.553,6.142s-0.852-11.372-0.852-11.372l0.324-4.744h25.519
		C168.069,92.896,167.972,106.348,167.382,109.466"/>
	
		<path clip-path="url(#SVGID_2_)" fill="none" stroke="#002776" stroke-width="0.52" stroke-linecap="round" stroke-linejoin="round" stroke-miterlimit="10" d="
		M167.382,109.466c0,0-0.655-5.313-2.215-7.205c0,0-13.647-0.853-16.377-7.547c0,0-0.974,4.615-4.159,8.156
		c0,0-1.806,1.853-1.553,6.142s-0.852-11.372-0.852-11.372l0.324-4.744h25.519C168.069,92.896,167.972,106.348,167.382,109.466z"/>
	<polygon clip-path="url(#SVGID_2_)" fill="#E1D8AF" points="156.093,112.197 154.71,111.21 153.327,112.197 	"/>
	
		<polygon clip-path="url(#SVGID_2_)" fill="#BC8B5F" stroke="#BC8B5F" stroke-width="0.52" stroke-linecap="round" stroke-linejoin="round" stroke-miterlimit="10" points="
		156.093,112.197 154.71,111.21 153.327,112.197 	"/>
	
		<path clip-path="url(#SVGID_2_)" fill="none" stroke="#008ED2" stroke-width="0.52" stroke-linecap="round" stroke-linejoin="round" stroke-miterlimit="10" d="
		M148.791,108.104c0,0,0.909-1.949,3.054-0.845"/>
	
		<path clip-path="url(#SVGID_2_)" fill="none" stroke="#008ED2" stroke-width="0.52" stroke-linecap="round" stroke-linejoin="round" stroke-miterlimit="10" d="
		M160.582,108.104c0,0-0.909-1.949-3.054-0.845"/>
	<path clip-path="url(#SVGID_2_)" fill="#FFFFFF" d="M150.632,114.081l8.424-0.649C157.996,116.247,153.145,117.763,150.632,114.081
		"/>
	
		<path clip-path="url(#SVGID_2_)" fill="none" stroke="#005AA4" stroke-width="0.52" stroke-linecap="round" stroke-linejoin="round" stroke-miterlimit="10" d="
		M150.632,114.081l8.424-0.649C157.996,116.247,153.145,117.763,150.632,114.081z"/>
	<path clip-path="url(#SVGID_2_)" fill="#005AA4" d="M158.306,114.64l-3.076,0.21l-0.074-0.996l-0.65,0.055l0.049,0.993l-2.94,0.275
		C151.613,115.177,155.094,117.026,158.306,114.64"/>
	
		<path clip-path="url(#SVGID_2_)" fill="none" stroke="#005AA4" stroke-width="0.52" stroke-linecap="round" stroke-linejoin="round" stroke-miterlimit="10" d="
		M158.306,114.64l-3.076,0.21l-0.074-0.996l-0.65,0.055l0.049,0.993l-2.94,0.275C151.613,115.177,155.094,117.026,158.306,114.64z"
		/>
	
		<path clip-path="url(#SVGID_2_)" fill="none" stroke="#002776" stroke-width="0.52" stroke-linecap="round" stroke-linejoin="round" stroke-miterlimit="10" d="
		M147.816,103.728c0,0,1.224-1.44,3.319-1.262"/>
	
		<path clip-path="url(#SVGID_2_)" fill="none" stroke="#002776" stroke-width="0.52" stroke-linecap="round" stroke-linejoin="round" stroke-miterlimit="10" d="
		M161.224,103.728c0,0-1.224-1.44-3.318-1.262"/>
	<path clip-path="url(#SVGID_2_)" fill="#EAE4C7" d="M126.971,124.43c-0.239-0.37-0.491-0.752-0.852-0.959
		c-0.318-0.185-0.689-0.211-1.034-0.321c-0.414-0.131-0.795-0.385-1.096-0.73c-0.071-0.081-0.139-0.169-0.173-0.277
		c-0.046-0.141-0.03-0.301,0.009-0.449c0.145-0.568,0.6-0.99,1.09-1.183c0.49-0.193,1.014-0.192,1.525-0.173
		c0.457,0.018,0.945,0.063,1.298,0.387c0.448,0.416,0.537,1.157,0.557,1.829c0.02,0.633-0.046,1.379-0.513,1.736"/>
	
		<path clip-path="url(#SVGID_2_)" fill="none" stroke="#EAE4C7" stroke-width="0.52" stroke-linecap="round" stroke-linejoin="round" stroke-miterlimit="10" d="
		M126.971,124.43c-0.239-0.37-0.491-0.752-0.852-0.959c-0.318-0.185-0.689-0.211-1.034-0.321c-0.414-0.131-0.795-0.385-1.096-0.73
		c-0.071-0.081-0.139-0.169-0.173-0.277c-0.046-0.141-0.03-0.301,0.009-0.449c0.145-0.568,0.6-0.99,1.09-1.183
		c0.49-0.193,1.014-0.192,1.525-0.173c0.457,0.018,0.945,0.063,1.298,0.387c0.448,0.416,0.537,1.157,0.557,1.829
		c0.02,0.633-0.046,1.379-0.513,1.736"/>
	<path clip-path="url(#SVGID_2_)" fill="#EAE4C7" d="M127.871,121.058l-0.393-0.813l-0.37-3.322l-3.365-0.688
		c-0.287-0.058-0.559,0.192-0.577,0.528l-0.001,0.017c-0.032,0.627,0.327,1.178,0.856,1.312l0.161,0.042
		c0,0-6.007,4.499,1.989,4.622"/>
	
		<path clip-path="url(#SVGID_2_)" fill="none" stroke="#EAE4C7" stroke-width="0.52" stroke-linecap="round" stroke-linejoin="round" stroke-miterlimit="10" d="
		M127.871,121.058l-0.393-0.813l-0.37-3.322l-3.365-0.688c-0.287-0.058-0.559,0.192-0.577,0.528l-0.001,0.017
		c-0.032,0.627,0.327,1.178,0.856,1.312l0.161,0.042c0,0-6.007,4.499,1.989,4.622"/>
	<path clip-path="url(#SVGID_2_)" fill="#002776" d="M147.587,124.441c0,0-11.535,4.082-18.89-3.773c0,0-1.935,1.184-2.119,3.922
		c0,0,4.487,8.739,18.881,8.446"/>
	
		<path clip-path="url(#SVGID_2_)" fill="none" stroke="#002776" stroke-width="0.52" stroke-linecap="round" stroke-linejoin="round" stroke-miterlimit="10" d="
		M147.587,124.441c0,0-11.535,4.082-18.89-3.773c0,0-1.935,1.184-2.119,3.922c0,0,4.487,8.739,18.881,8.446"/>
	<path clip-path="url(#SVGID_2_)" fill="#E1D8AF" d="M121.766,118.289l1.255,0.421c0.48,0.161,1-0.098,1.161-0.578l0.006-0.017
		c0.161-0.48-0.098-1-0.578-1.161l-1.255-0.421c-0.48-0.161-1,0.098-1.161,0.578l-0.006,0.017
		C121.026,117.608,121.286,118.128,121.766,118.289"/>
	
		<path clip-path="url(#SVGID_2_)" fill="none" stroke="#E1D8AF" stroke-width="0.52" stroke-linecap="round" stroke-linejoin="round" stroke-miterlimit="10" d="
		M121.766,118.289l1.255,0.421c0.48,0.161,1-0.098,1.161-0.578l0.006-0.017c0.161-0.48-0.098-1-0.578-1.161l-1.255-0.421
		c-0.48-0.161-1,0.098-1.161,0.578l-0.006,0.017C121.026,117.608,121.286,118.128,121.766,118.289z"/>
	<path clip-path="url(#SVGID_2_)" fill="#E1D8AF" d="M121.092,119.855l1.256,0.422c0.479,0.16,1-0.099,1.16-0.578l0.006-0.018
		c0.161-0.479-0.098-1-0.577-1.161l-1.256-0.421c-0.479-0.161-0.999,0.099-1.16,0.578l-0.006,0.018
		C120.354,119.176,120.613,119.695,121.092,119.855"/>
	
		<path clip-path="url(#SVGID_2_)" fill="none" stroke="#E1D8AF" stroke-width="0.52" stroke-linecap="round" stroke-linejoin="round" stroke-miterlimit="10" d="
		M121.092,119.855l1.256,0.422c0.479,0.16,1-0.099,1.16-0.578l0.006-0.018c0.161-0.479-0.098-1-0.577-1.161l-1.256-0.421
		c-0.479-0.161-0.999,0.099-1.16,0.578l-0.006,0.018C120.354,119.176,120.613,119.695,121.092,119.855z"/>
	<path clip-path="url(#SVGID_2_)" fill="#E1D8AF" d="M120.891,121.438l0.986,0.331c0.377,0.126,0.785-0.077,0.911-0.454l0.005-0.014
		c0.126-0.377-0.077-0.785-0.454-0.911l-0.986-0.331c-0.377-0.126-0.784,0.077-0.911,0.454l-0.005,0.013
		C120.311,120.903,120.514,121.312,120.891,121.438"/>
	
		<path clip-path="url(#SVGID_2_)" fill="none" stroke="#E1D8AF" stroke-width="0.52" stroke-linecap="round" stroke-linejoin="round" stroke-miterlimit="10" d="
		M120.891,121.438l0.986,0.331c0.377,0.126,0.785-0.077,0.911-0.454l0.005-0.014c0.126-0.377-0.077-0.785-0.454-0.911l-0.986-0.331
		c-0.377-0.126-0.784,0.077-0.911,0.454l-0.005,0.013C120.311,120.903,120.514,121.312,120.891,121.438z"/>
	<path clip-path="url(#SVGID_2_)" fill="#002776" d="M101.576,58.51c5.379,1.006,9.36-1.854,9.36-1.854
		c3.603,1.104,7.955-1.583,7.955-1.583c-3.086-0.682-5.647-6.02-5.67-9.784l-0.049-7.604c-0.055-8.718-6.937-16.046-15.653-16.23
		c-9.044-0.191-16.406,7.111-16.35,16.098l0.048,7.603c0.023,3.765-2.47,9.135-5.548,9.854c0,0,4.386,2.633,7.974,1.484
		c0,0,4.017,2.81,9.382,1.737C93.025,58.231,97.43,60.615,101.576,58.51"/>
	
		<path clip-path="url(#SVGID_2_)" fill="none" stroke="#002776" stroke-width="0.52" stroke-linecap="round" stroke-linejoin="round" stroke-miterlimit="10" d="
		M101.576,58.51c5.379,1.006,9.36-1.854,9.36-1.854c3.603,1.104,7.955-1.583,7.955-1.583c-3.086-0.682-5.647-6.02-5.67-9.784
		l-0.049-7.604c-0.055-8.718-6.937-16.046-15.653-16.23c-9.044-0.191-16.406,7.111-16.35,16.098l0.048,7.603
		c0.023,3.765-2.47,9.135-5.548,9.854c0,0,4.386,2.633,7.974,1.484c0,0,4.017,2.81,9.382,1.737
		C93.025,58.231,97.43,60.615,101.576,58.51z"/>
	<path clip-path="url(#SVGID_2_)" fill="#DEB48F" d="M98.046,57.007l-0.221,0.001c-6.103,0.039-11.13-4.784-11.344-10.883
		l-0.617-15.606l23.879,1.017l-0.49,14.447C109.114,52.084,104.15,56.968,98.046,57.007"/>
	
		<path clip-path="url(#SVGID_2_)" fill="none" stroke="#DEB48F" stroke-width="0.476" stroke-linecap="round" stroke-linejoin="round" stroke-miterlimit="10" d="
		M98.046,57.007l-0.221,0.001c-6.103,0.039-11.13-4.784-11.344-10.883l-0.617-15.606l23.879,1.017l-0.49,14.447
		C109.114,52.084,104.15,56.968,98.046,57.007z"/>
	<path clip-path="url(#SVGID_2_)" fill="#008ED2" d="M92.774,45.936h-0.02c-0.514,0.003-0.935-0.412-0.938-0.927l-0.022-3.528
		c-0.003-0.515,0.412-0.936,0.927-0.939h0.019c0.515-0.003,0.935,0.412,0.938,0.927l0.023,3.528
		C93.705,45.512,93.29,45.933,92.774,45.936"/>
	<path clip-path="url(#SVGID_2_)" fill="#008ED2" d="M102.977,45.872h-0.019c-0.516,0.003-0.936-0.412-0.938-0.927l-0.021-3.528
		c-0.003-0.515,0.412-0.936,0.926-0.939h0.02c0.515-0.003,0.936,0.412,0.938,0.927l0.021,3.528
		C103.907,45.449,103.493,45.869,102.977,45.872"/>
	<polygon clip-path="url(#SVGID_2_)" fill="#BC8B5F" points="100.489,48.292 97.873,46.814 95.272,48.325 	"/>
	
		<polygon clip-path="url(#SVGID_2_)" fill="none" stroke="#BC8B5F" stroke-width="0.476" stroke-linecap="round" stroke-linejoin="round" stroke-miterlimit="10" points="
		100.489,48.292 97.873,46.814 95.272,48.325 	"/>
	
		<path clip-path="url(#SVGID_2_)" fill="none" stroke="#008ED2" stroke-width="0.52" stroke-linecap="round" stroke-linejoin="round" stroke-miterlimit="10" d="
		M101.852,51.1c-1.357,1.005-4.513,2.238-7.905,0.266"/>
	
		<path clip-path="url(#SVGID_2_)" fill="none" stroke="#002776" stroke-width="0.52" stroke-linecap="round" stroke-linejoin="round" stroke-miterlimit="10" d="
		M101.711,37.659c0,0,1.756-0.459,3.618,0.68"/>
	
		<path clip-path="url(#SVGID_2_)" fill="none" stroke="#002776" stroke-width="0.52" stroke-linecap="round" stroke-linejoin="round" stroke-miterlimit="10" d="
		M93.8,37.481c0,0-1.802-0.214-3.49,1.171"/>
	<path clip-path="url(#SVGID_2_)" fill="#002776" d="M85.359,28.681l-1.353,6.449c0,0,1.861,13.018,1.826,7.405
		c-0.036-5.612,1.727-8.46,1.727-8.46c4.565,2.386,10.928,3.511,15.34,0.903c0,0,2.792,1.235,5.431,0.359
		c0,0,1.706,2.868,1.575,6.755c-0.132,3.887,1.78-2.015,1.78-2.015l-1.447-9.71L85.359,28.681z"/>
	
		<path clip-path="url(#SVGID_2_)" fill="none" stroke="#002776" stroke-width="0.52" stroke-linecap="round" stroke-linejoin="round" stroke-miterlimit="10" d="
		M85.359,28.681l-1.353,6.449c0,0,1.861,13.018,1.826,7.405c-0.036-5.612,1.727-8.46,1.727-8.46
		c4.565,2.386,10.928,3.511,15.34,0.903c0,0,2.792,1.235,5.431,0.359c0,0,1.706,2.868,1.575,6.755
		c-0.132,3.887,1.78-2.015,1.78-2.015l-1.447-9.71L85.359,28.681z"/>
	<path clip-path="url(#SVGID_2_)" fill="#DEB48F" d="M106.031,63.102c0.295-0.046,0.593-0.093,0.892-0.08
		c0.232,0.011,0.464,0.058,0.683,0.142c1.155,0.44,1.727,1.807,1.668,3.043c-0.058,1.235-0.601,2.388-1.068,3.533
		c-1.227,3.013-1.978,6.198-3.102,9.251c-1.124,3.053-2.687,6.05-5.181,8.138c-0.201,0.168-0.427,0.337-0.689,0.342
		c-0.242,0.005-0.462-0.134-0.665-0.267c-1.09-0.716-2.187-1.438-3.131-2.339c-0.828-0.79-1.525-1.706-2.164-2.656
		c-3.104-4.621-4.83-10.029-6.067-15.458c0.977-0.576,1.955-1.152,2.932-1.729"/>
	
		<path clip-path="url(#SVGID_2_)" fill="none" stroke="#EAE4C7" stroke-width="0.476" stroke-linecap="round" stroke-linejoin="round" stroke-miterlimit="10" d="
		M106.031,63.102c0.295-0.046,0.593-0.093,0.892-0.08c0.232,0.011,0.464,0.058,0.683,0.142c1.155,0.44,1.727,1.807,1.668,3.043
		c-0.058,1.235-0.601,2.388-1.068,3.533c-1.227,3.013-1.978,6.198-3.102,9.251c-1.124,3.053-2.687,6.05-5.181,8.138
		c-0.201,0.168-0.427,0.337-0.689,0.342c-0.242,0.005-0.462-0.134-0.665-0.267c-1.09-0.716-2.187-1.438-3.131-2.339
		c-0.828-0.79-1.525-1.706-2.164-2.656c-3.104-4.621-4.83-10.029-6.067-15.458c0.977-0.576,1.955-1.152,2.932-1.729"/>
	<path clip-path="url(#SVGID_2_)" fill="#DEB48F" d="M94.873,55.461c0,0,0.396,2.675-0.579,5.792l-6.739,1.413l-0.22,1.69
		c8.317,7.993,18.521,4.159,21.575-1.69l-6.74-1.413c-0.976-3.117-0.578-5.792-0.578-5.792"/>
	
		<path clip-path="url(#SVGID_2_)" fill="none" stroke="#DEB48F" stroke-width="0.476" stroke-linecap="round" stroke-linejoin="round" stroke-miterlimit="10" d="
		M94.873,55.461c0,0,0.396,2.675-0.579,5.792l-6.739,1.413l-0.22,1.69c8.317,7.993,18.521,4.159,21.575-1.69l-6.74-1.413
		c-0.976-3.117-0.578-5.792-0.578-5.792"/>
	<path clip-path="url(#SVGID_2_)" fill="#DEB48F" d="M66.429,106.292c1.109-2.646,2.091-4.842,2.937-6.639
		c2.386-5.074,3.684-6.981,3.684-6.981c1.825-6.168,3.124-12.825,3.124-12.825L83.196,80l-4.57,13.842
		c-0.14,0.425-0.338,0.828-0.588,1.2l-6.707,9.979l-1.343,1.998"/>
	
		<path clip-path="url(#SVGID_2_)" fill="none" stroke="#DEB48F" stroke-width="0.476" stroke-linecap="round" stroke-linejoin="round" stroke-miterlimit="10" d="
		M66.429,106.292c1.109-2.646,2.091-4.842,2.937-6.639c2.386-5.074,3.684-6.981,3.684-6.981c1.825-6.168,3.124-12.825,3.124-12.825
		L83.196,80l-4.57,13.842c-0.14,0.425-0.338,0.828-0.588,1.2l-6.707,9.979l-1.343,1.998"/>
	<path clip-path="url(#SVGID_2_)" fill="#BC8B5F" d="M66.429,106.292c1.109-2.646,2.091-4.842,2.937-6.639l1.965,5.367l-1.343,1.998
		"/>
	
		<path clip-path="url(#SVGID_2_)" fill="none" stroke="#BC8B5F" stroke-width="0.52" stroke-linecap="round" stroke-linejoin="round" stroke-miterlimit="10" d="
		M66.429,106.292c1.109-2.646,2.091-4.842,2.937-6.639l1.965,5.367l-1.343,1.998"/>
	<path clip-path="url(#SVGID_2_)" fill="#C94096" d="M82.946,64.297c0,0-5.758,2.239-7.161,15.545c0,0,4.775,2.242,6.789,2.435
		c2.014,0.193,2.299-15.587,2.299-15.587L82.946,64.297z"/>
	
		<path clip-path="url(#SVGID_2_)" fill="none" stroke="#C94096" stroke-width="0.52" stroke-linecap="round" stroke-linejoin="round" stroke-miterlimit="10" d="
		M82.946,64.297c0,0-5.758,2.239-7.161,15.545c0,0,4.775,2.242,6.789,2.435c2.014,0.193,2.299-15.587,2.299-15.587L82.946,64.297z"
		/>
	<path clip-path="url(#SVGID_2_)" fill="#DEB48F" d="M110.069,122.729c0.391,7.88-1.17,21.885-2.21,28.557
		c-1.039,6.672-3.379,21.272-3.897,29.331c0,0,3.768,2.209,9.401,4.852l-3.034,2.448l-19.105-1.083l-2.599-0.846
		c0,0,2.989-2.512,3.898-5.371c-0.519-8.059-3.379-22.659-4.419-29.331c-1.039-6.672-2.599-20.677-2.209-28.557"/>
	
		<path clip-path="url(#SVGID_2_)" fill="none" stroke="#DEB48F" stroke-width="0.52" stroke-linecap="round" stroke-linejoin="round" stroke-miterlimit="10" d="
		M110.069,122.729c0.391,7.88-1.17,21.885-2.21,28.557c-1.039,6.672-3.379,21.272-3.897,29.331c0,0,3.768,2.209,9.401,4.852
		l-3.034,2.448l-19.105-1.083l-2.599-0.846c0,0,2.989-2.512,3.898-5.371c-0.519-8.059-3.379-22.659-4.419-29.331
		c-1.039-6.672-2.599-20.677-2.209-28.557"/>
	
		<polyline clip-path="url(#SVGID_2_)" fill="none" stroke="#BC8B5F" stroke-width="0.52" stroke-linecap="round" stroke-linejoin="round" stroke-miterlimit="10" points="
		98.167,140.097 98.167,180.627 99.29,184.386 	"/>
	<path clip-path="url(#SVGID_2_)" fill="#002776" d="M87.779,189h28.719c0.304,0,0.563-0.218,0.614-0.517l0.021-0.122
		c0.232-1.335-0.583-2.63-1.888-2.996l-3.487-0.979c0,0-1.576,4.036-11.835,2.151c0,0-1.551-2.151-6.295-2.151
		C88.883,184.386,86.609,185.881,87.779,189"/>
	
		<path clip-path="url(#SVGID_2_)" fill="none" stroke="#002776" stroke-width="0.52" stroke-linecap="round" stroke-linejoin="round" stroke-miterlimit="10" d="
		M87.779,189h28.719c0.304,0,0.563-0.218,0.614-0.517l0.021-0.122c0.232-1.335-0.583-2.63-1.888-2.996l-3.487-0.979
		c0,0-1.576,4.036-11.835,2.151c0,0-1.551-2.151-6.295-2.151C88.883,184.386,86.609,185.881,87.779,189z"/>
	<path clip-path="url(#SVGID_2_)" fill="#C94096" d="M97.657,84.209c0,0-6.771-12.178-9.261-22.16
		c-4.014,0.445-7.376,3.867-7.376,3.867c-0.195,10.528,6.818,30.98,6.818,30.98s-5.784,6.91-6.65,15.509
		c-0.867,8.597,1.906,27.014,1.906,27.014s14.508,3.644,29.126,0c0,0,2.771-18.417,1.905-27.014
		c-0.866-8.599-6.65-15.509-6.65-15.509s7.013-20.844,6.817-31.372c0,0-4.049-3.047-7.376-3.476
		C104.429,72.031,97.657,84.209,97.657,84.209"/>
	
		<path clip-path="url(#SVGID_2_)" fill="none" stroke="#C94096" stroke-width="0.52" stroke-linecap="round" stroke-linejoin="round" stroke-miterlimit="10" d="
		M97.657,84.209c0,0-6.771-12.178-9.261-22.16c-4.014,0.445-7.376,3.867-7.376,3.867c-0.195,10.528,6.818,30.98,6.818,30.98
		s-5.784,6.91-6.65,15.509c-0.867,8.597,1.906,27.014,1.906,27.014s14.508,3.644,29.126,0c0,0,2.771-18.417,1.905-27.014
		c-0.866-8.599-6.65-15.509-6.65-15.509s7.013-20.844,6.817-31.372c0,0-4.049-3.047-7.376-3.476
		C104.429,72.031,97.657,84.209,97.657,84.209z"/>
	<path clip-path="url(#SVGID_2_)" fill="#C94096" d="M113.301,96.173c0,8.719-7.068,15.787-15.787,15.787
		c-8.72,0-15.788-7.068-15.788-15.787c0-8.719,7.068-15.788,15.788-15.788C106.232,80.385,113.301,87.454,113.301,96.173"/>
	
		<circle clip-path="url(#SVGID_2_)" fill="none" stroke="#C94096" stroke-width="0.621" stroke-linecap="round" stroke-linejoin="round" stroke-miterlimit="10" cx="97.513" cy="96.173" r="15.787"/>
	<path clip-path="url(#SVGID_2_)" fill="#DEB48F" d="M124.389,108.89c-2.84-10.601-4.727-14.388-4.727-14.388
		c-0.979-6.358-1.369-13.128-1.369-13.128l-6.978-0.795l2.664,14.332c0.081,0.439,0.223,0.866,0.42,1.269l6.365,12.951"/>
	
		<path clip-path="url(#SVGID_2_)" fill="none" stroke="#DEB48F" stroke-width="0.476" stroke-linecap="round" stroke-linejoin="round" stroke-miterlimit="10" d="
		M124.389,108.89c-2.84-10.601-4.727-14.388-4.727-14.388c-0.979-6.358-1.369-13.128-1.369-13.128l-6.978-0.795l2.664,14.332
		c0.081,0.439,0.223,0.866,0.42,1.269l6.365,12.951"/>
	<path clip-path="url(#SVGID_2_)" fill="#C94096" d="M113.676,65.053c0,0,5.404,2.994,5.003,16.368c0,0-5.034,1.579-7.056,1.499
		c-2.021-0.08-0.178-15.755-0.178-15.755L113.676,65.053z"/>
	
		<path clip-path="url(#SVGID_2_)" fill="none" stroke="#C94096" stroke-width="0.52" stroke-linecap="round" stroke-linejoin="round" stroke-miterlimit="10" d="
		M113.676,65.053c0,0,5.404,2.994,5.003,16.368c0,0-5.034,1.579-7.056,1.499c-2.021-0.08-0.178-15.755-0.178-15.755L113.676,65.053z
		"/>
	<path clip-path="url(#SVGID_2_)" fill="#DEB48F" d="M126.265,116.331c0,0-0.737-5.849-2.556-8.861s-3.689,2.742-3.689,2.742
		l-2.517,4.944c-0.165,0.324-0.097,0.718,0.166,0.968l0.011,0.01c0.325,0.31,0.837,0.301,1.151-0.019l2.002-2.034
		c0.552-0.218,2.521,2.905,1.794,5.384c0,0-1.537,1.309-1.022,2.318c0.307,0.6,0.849,0.853,1.858-0.325
		C125.12,119.526,126.265,116.331,126.265,116.331"/>
	
		<path clip-path="url(#SVGID_2_)" fill="none" stroke="#DEB48F" stroke-width="0.476" stroke-linecap="round" stroke-linejoin="round" stroke-miterlimit="10" d="
		M126.265,116.331c0,0-0.737-5.849-2.556-8.861s-3.689,2.742-3.689,2.742l-2.517,4.944c-0.165,0.324-0.097,0.718,0.166,0.968
		l0.011,0.01c0.325,0.31,0.837,0.301,1.151-0.019l2.002-2.034c0.552-0.218,2.521,2.905,1.794,5.384c0,0-1.537,1.309-1.022,2.318
		c0.307,0.6,0.849,0.853,1.858-0.325C125.12,119.526,126.265,116.331,126.265,116.331z"/>
	
		<path clip-path="url(#SVGID_2_)" fill="none" stroke="#BC8B5F" stroke-width="0.52" stroke-linecap="round" stroke-linejoin="round" stroke-miterlimit="10" d="
		M124.819,119.463c0,0,0.955-1.831,0.376-4.261"/>
	<path clip-path="url(#SVGID_2_)" fill="#BC8B5F" d="M64.52,116.437c-0.86-0.698-1.448-1.577-1.827-2.305
		c-0.398-0.762-0.192-1.697,0.494-2.215l1.591-1.203l-2.846,0.393c-0.404,0.056-0.794-0.173-0.944-0.554l-0.005-0.013
		c-0.154-0.393-0.01-0.84,0.346-1.068l4.192-2.689c0,0,3.067-4.593,4.155-1.247c0.742,2.285,0.695,5.744,0.589,7.708
		c-0.069,1.306-0.656,2.557-1.7,3.345C67.566,117.344,66.157,117.767,64.52,116.437"/>
	
		<path clip-path="url(#SVGID_2_)" fill="none" stroke="#BC8B5F" stroke-width="0.52" stroke-linecap="round" stroke-linejoin="round" stroke-miterlimit="10" d="
		M64.52,116.437c-0.86-0.698-1.448-1.577-1.827-2.305c-0.398-0.762-0.192-1.697,0.494-2.215l1.591-1.203l-2.846,0.393
		c-0.404,0.056-0.794-0.173-0.944-0.554l-0.005-0.013c-0.154-0.393-0.01-0.84,0.346-1.068l4.192-2.689c0,0,3.067-4.593,4.155-1.247
		c0.742,2.285,0.695,5.744,0.589,7.708c-0.069,1.306-0.656,2.557-1.7,3.345C67.566,117.344,66.157,117.767,64.52,116.437z"/>
	<path clip-path="url(#SVGID_2_)" fill="#BC8B5F" d="M68.564,116.588c-0.999,0.756-2.408,1.179-4.045-0.15
		c-0.86-0.699-1.448-1.578-1.827-2.306c-0.004-0.008-0.008-0.016-0.012-0.022c-0.522-1.037,0.587-2.162,1.672-1.748l0.079,0.03
		l0.006-0.011c0.382-0.546,1.078-0.777,1.711-0.568l0.327,0.107c0.482,0.159,0.852,0.55,0.984,1.039l0.069,0.255l0.518,0.046
		c0.58,0.05,1.049,0.533,1.028,1.115C69.075,114.375,69.101,115.685,68.564,116.588"/>
	
		<path clip-path="url(#SVGID_2_)" fill="none" stroke="#BC8B5F" stroke-width="0.52" stroke-linecap="round" stroke-linejoin="round" stroke-miterlimit="10" d="
		M68.564,116.588c-0.999,0.756-2.408,1.179-4.045-0.15c-0.86-0.699-1.448-1.578-1.827-2.306c-0.004-0.008-0.008-0.016-0.012-0.022
		c-0.522-1.037,0.587-2.162,1.672-1.748l0.079,0.03l0.006-0.011c0.382-0.546,1.078-0.777,1.711-0.568l0.327,0.107
		c0.482,0.159,0.852,0.55,0.984,1.039l0.069,0.255l0.518,0.046c0.58,0.05,1.049,0.533,1.028,1.115
		C69.075,114.375,69.101,115.685,68.564,116.588z"/>
	<path clip-path="url(#SVGID_2_)" fill="#DEB48F" d="M70.858,113.285c0,0-0.761-6.361-2.914-9.466
		c-2.154-3.104-4.197,3.334-4.197,3.334l-2.651,6.178c-0.158,0.366-0.056,0.794,0.251,1.05l0.011,0.01
		c0.368,0.307,0.911,0.274,1.239-0.074l2.187-2.323c0.576-0.271,2.999,2.193,2.389,4.898c0,0-1.558,1.508-0.938,2.555
		c0.368,0.622,0.967,0.857,1.97-0.474C69.849,116.788,70.858,113.285,70.858,113.285"/>
	
		<path clip-path="url(#SVGID_2_)" fill="none" stroke="#DEB48F" stroke-width="0.52" stroke-linecap="round" stroke-linejoin="round" stroke-miterlimit="10" d="
		M70.858,113.285c0,0-0.761-6.361-2.914-9.466c-2.154-3.104-4.197,3.334-4.197,3.334l-2.651,6.178
		c-0.158,0.366-0.056,0.794,0.251,1.05l0.011,0.01c0.368,0.307,0.911,0.274,1.239-0.074l2.187-2.323
		c0.576-0.271,2.999,2.193,2.389,4.898c0,0-1.558,1.508-0.938,2.555c0.368,0.622,0.967,0.857,1.97-0.474
		C69.849,116.788,70.858,113.285,70.858,113.285z"/>
	<path clip-path="url(#SVGID_2_)" fill="#002776" d="M47.434,66.388l15.422,41.095l6.365-2.624L55.012,62.854
		c-1.541-4.554-5.126-8.124-9.686-9.646l-0.074-0.025"/>
	
		<path clip-path="url(#SVGID_2_)" fill="none" stroke="#002776" stroke-width="0.52" stroke-linecap="round" stroke-linejoin="round" stroke-miterlimit="10" d="
		M47.434,66.388l15.422,41.095l6.365-2.624L55.012,62.854c-1.541-4.554-5.126-8.124-9.686-9.646l-0.074-0.025"/>
	
		<path clip-path="url(#SVGID_2_)" fill="none" stroke="#BC8B5F" stroke-width="0.52" stroke-linecap="round" stroke-linejoin="round" stroke-miterlimit="10" d="
		M69.522,116.74c-0.154,0.348,0.854-2.175,0.112-4.591"/>
	<path clip-path="url(#SVGID_2_)" fill="#DEB48F" d="M8.936,119.433c0,0-0.494-6.388,1.014-9.853
		c1.507-3.465,4.766,2.452,4.766,2.452l3.804,5.543c0.226,0.329,0.209,0.768-0.042,1.078l-0.009,0.012
		c-0.301,0.373-0.839,0.447-1.229,0.169l-2.598-1.853c-0.618-0.154-2.514,2.735-1.389,5.271c0,0,1.823,1.175,1.418,2.323
		c-0.24,0.682-0.781,1.029-2.024-0.081C10.609,122.671,8.936,119.433,8.936,119.433"/>
	
		<path clip-path="url(#SVGID_2_)" fill="none" stroke="#DEB48F" stroke-width="0.52" stroke-linecap="round" stroke-linejoin="round" stroke-miterlimit="10" d="
		M8.936,119.433c0,0-0.494-6.388,1.014-9.853c1.507-3.465,4.766,2.452,4.766,2.452l3.804,5.543c0.226,0.329,0.209,0.768-0.042,1.078
		l-0.009,0.012c-0.301,0.373-0.839,0.447-1.229,0.169l-2.598-1.853c-0.618-0.154-2.514,2.735-1.389,5.271
		c0,0,1.823,1.175,1.418,2.323c-0.24,0.682-0.781,1.029-2.024-0.081C10.609,122.671,8.936,119.433,8.936,119.433z"/>
	<path clip-path="url(#SVGID_2_)" fill="#002776" d="M22.771,68.87l-7.118,43.312L8.9,110.85l5.75-43.969
		c0.623-4.767,3.444-8.968,7.621-11.349l0.067-0.038"/>
	
		<path clip-path="url(#SVGID_2_)" fill="none" stroke="#002776" stroke-width="0.52" stroke-linecap="round" stroke-linejoin="round" stroke-miterlimit="10" d="
		M22.771,68.87l-7.118,43.312L8.9,110.85l5.75-43.969c0.623-4.767,3.444-8.968,7.621-11.349l0.067-0.038"/>
	
		<path clip-path="url(#SVGID_2_)" fill="none" stroke="#BC8B5F" stroke-width="0.52" stroke-linecap="round" stroke-linejoin="round" stroke-miterlimit="10" d="
		M10.919,122.561c-0.157-0.222-1.32-1.391-1.005-4.48"/>
	<path clip-path="url(#SVGID_2_)" fill="#DEB48F" d="M41.17,46.86c0,0-0.666,3.833-0.375,6.899l-3.806,2.129l-5.028-2.129
		c0.29-3.066-0.375-6.899-0.375-6.899"/>
	
		<path clip-path="url(#SVGID_2_)" fill="none" stroke="#DEB48F" stroke-width="0.52" stroke-linecap="round" stroke-linejoin="round" stroke-miterlimit="10" d="
		M41.17,46.86c0,0-0.666,3.833-0.375,6.899l-3.806,2.129l-5.028-2.129c0.29-3.066-0.375-6.899-0.375-6.899"/>
	<path clip-path="url(#SVGID_2_)" fill="#DEB48F" d="M23.91,30.836c-1.324-2.759-4.027-1.358-4.112,1.107
		c-0.085,2.466,2.054,7.577,4.306,5.447"/>
	
		<path clip-path="url(#SVGID_2_)" fill="none" stroke="#DEB48F" stroke-width="0.52" stroke-linecap="round" stroke-linejoin="round" stroke-miterlimit="10" d="
		M23.91,30.836c-1.324-2.759-4.027-1.358-4.112,1.107c-0.085,2.466,2.054,7.577,4.306,5.447"/>
	<path clip-path="url(#SVGID_2_)" fill="#DEB48F" d="M48.923,30.836c1.324-2.759,4.027-1.358,4.112,1.107
		c0.085,2.466-2.054,7.577-4.306,5.447"/>
	
		<path clip-path="url(#SVGID_2_)" fill="none" stroke="#DEB48F" stroke-width="0.52" stroke-linecap="round" stroke-linejoin="round" stroke-miterlimit="10" d="
		M48.923,30.836c1.324-2.759,4.027-1.358,4.112,1.107c0.085,2.466-2.054,7.577-4.306,5.447"/>
	<path clip-path="url(#SVGID_2_)" fill="#DEB48F" d="M36.703,49.399h-0.252c-6.95,0-12.64-5.527-12.841-12.474l-0.661-22.276h27.255
		l-0.66,22.276C49.343,43.873,43.653,49.399,36.703,49.399"/>
	
		<path clip-path="url(#SVGID_2_)" fill="none" stroke="#DEB48F" stroke-width="0.52" stroke-linecap="round" stroke-linejoin="round" stroke-miterlimit="10" d="
		M36.703,49.399h-0.252c-6.95,0-12.64-5.527-12.841-12.474l-0.661-22.276h27.255l-0.66,22.276
		C49.343,43.873,43.653,49.399,36.703,49.399z"/>
	<polygon clip-path="url(#SVGID_2_)" fill="#BC8B5F" points="37.026,36.049 37.019,36.049 34.278,37.971 39.7,37.971 	"/>
	
		<polygon clip-path="url(#SVGID_2_)" fill="none" stroke="#BC8B5F" stroke-width="0.52" stroke-linecap="round" stroke-linejoin="round" stroke-miterlimit="10" points="
		37.026,36.049 37.019,36.049 34.278,37.971 39.7,37.971 	"/>
	<path clip-path="url(#SVGID_2_)" fill="#008ED2" d="M31.451,34.925h0.021c0.558-0.001,1.01-0.456,1.008-1.015l-0.013-4.534
		c-0.001-0.559-0.456-1.011-1.015-1.009h-0.02c-0.559,0.001-1.011,0.455-1.009,1.015v4.534
		C30.425,34.475,30.892,34.926,31.451,34.925"/>
	<path clip-path="url(#SVGID_2_)" fill="#008ED2" d="M42.525,34.925h0.021c0.558-0.001,1.01-0.456,1.008-1.015l-0.013-4.534
		c-0.001-0.559-0.456-1.011-1.015-1.009h-0.02c-0.559,0.001-1.011,0.455-1.009,1.015v4.534C41.5,34.475,41.966,34.926,42.525,34.925
		"/>
	
		<path clip-path="url(#SVGID_2_)" fill="none" stroke="#005AA4" stroke-width="0.52" stroke-linecap="round" stroke-linejoin="round" stroke-miterlimit="10" d="
		M41.058,42.35c0,0-4.652,1.992-8.138-0.799"/>
	<path clip-path="url(#SVGID_2_)" fill="#002776" d="M23.49,32.875l0.615-10.646c0,0,1.395-2.555,2.673-6.473
		c0,0,15.617,9.171,22.23,4.824c6.613-4.348,1.623-10.701-1.955-13.171c-3.577-2.47-15.245-5.281-19.589,0.767
		c0,0-4.515,0.17-5.281,7.324C21.417,22.655,23.49,32.875,23.49,32.875"/>
	
		<path clip-path="url(#SVGID_2_)" fill="none" stroke="#002776" stroke-width="0.52" stroke-linecap="round" stroke-linejoin="round" stroke-miterlimit="10" d="
		M23.49,32.875l0.615-10.646c0,0,1.395-2.555,2.673-6.473c0,0,15.617,9.171,22.23,4.824c6.613-4.348,1.623-10.701-1.955-13.171
		c-3.577-2.47-15.245-5.281-19.589,0.767c0,0-4.515,0.17-5.281,7.324C21.417,22.655,23.49,32.875,23.49,32.875z"/>
	<path clip-path="url(#SVGID_2_)" fill="#002776" d="M50.975,15.5c0.767,7.155-1.307,17.375-1.307,17.375l-0.615-10.646
		c0,0-1.395-2.555-2.673-6.473"/>
	
		<path clip-path="url(#SVGID_2_)" fill="none" stroke="#002776" stroke-width="0.52" stroke-linecap="round" stroke-linejoin="round" stroke-miterlimit="10" d="
		M50.975,15.5c0.767,7.155-1.307,17.375-1.307,17.375l-0.615-10.646c0,0-1.395-2.555-2.673-6.473"/>
	<path clip-path="url(#SVGID_2_)" fill="#002776" d="M33.475,23.519c0,0-3.231-0.682-5.02,1.022
		C28.455,24.541,31.17,20.197,33.475,23.519"/>
	
		<path clip-path="url(#SVGID_2_)" fill="none" stroke="#002776" stroke-width="0.52" stroke-linecap="round" stroke-linejoin="round" stroke-miterlimit="10" d="
		M33.475,23.519c0,0-3.231-0.682-5.02,1.022C28.455,24.541,31.17,20.197,33.475,23.519z"/>
	<path clip-path="url(#SVGID_2_)" fill="#002776" d="M40.475,24.03c0,0,3.231-0.681,5.02,1.022
		C45.495,25.052,42.78,20.708,40.475,24.03"/>
	
		<path clip-path="url(#SVGID_2_)" fill="none" stroke="#002776" stroke-width="0.52" stroke-linecap="round" stroke-linejoin="round" stroke-miterlimit="10" d="
		M40.475,24.03c0,0,3.231-0.681,5.02,1.022C45.495,25.052,42.78,20.708,40.475,24.03z"/>
	<polygon clip-path="url(#SVGID_2_)" fill="#DEB48F" points="40.326,50.465 45.524,54.104 44.452,56.314 27.994,56.362 
		26.922,54.153 32.12,50.514 	"/>
	
		<polygon clip-path="url(#SVGID_2_)" fill="none" stroke="#DEB48F" stroke-width="0.52" stroke-linecap="round" stroke-linejoin="round" stroke-miterlimit="10" points="
		40.326,50.465 45.524,54.104 44.452,56.314 27.994,56.362 26.922,54.153 32.12,50.514 	"/>
	<path clip-path="url(#SVGID_2_)" fill="#DEB48F" d="M25.005,174.638c0,0,0.179,2.946-1.511,5.286
		c-1.69,2.339,7.452,3.292,7.452,3.292l0.693-1.551c0,0-1.43-3.345-1.43-7.417"/>
	
		<path clip-path="url(#SVGID_2_)" fill="none" stroke="#DEB48F" stroke-width="0.52" stroke-linecap="round" stroke-linejoin="round" stroke-miterlimit="10" d="
		M25.005,174.638c0,0,0.179,2.946-1.511,5.286c-1.69,2.339,7.452,3.292,7.452,3.292l0.693-1.551c0,0-1.43-3.345-1.43-7.417"/>
	<path clip-path="url(#SVGID_2_)" fill="#DEB48F" d="M47.383,174.638c0,0-0.057,3.206,2.551,4.766
		c2.938,3.423-8.491,3.813-8.491,3.813l-0.694-1.551c0,0,1.43-3.345,1.43-7.417"/>
	
		<path clip-path="url(#SVGID_2_)" fill="none" stroke="#DEB48F" stroke-width="0.52" stroke-linecap="round" stroke-linejoin="round" stroke-miterlimit="10" d="
		M47.383,174.638c0,0-0.057,3.206,2.551,4.766c2.938,3.423-8.491,3.813-8.491,3.813l-0.694-1.551c0,0,1.43-3.345,1.43-7.417"/>
	<path clip-path="url(#SVGID_2_)" fill="#008ED2" d="M61.52,189h-9.537c-1.274,0-2.54-0.208-3.747-0.616l-1.253-0.424l-0.736,0.804
		c-0.138,0.15-0.333,0.236-0.537,0.236h-4.993c-0.402,0-0.728-0.326-0.728-0.728v-1.438l22.396,0.802l-0.086,0.678
		C62.249,188.706,61.916,189,61.52,189"/>
	
		<path clip-path="url(#SVGID_2_)" fill="none" stroke="#008ED2" stroke-width="0.52" stroke-linecap="round" stroke-linejoin="round" stroke-miterlimit="10" d="
		M61.52,189h-9.537c-1.274,0-2.54-0.208-3.747-0.616l-1.253-0.424l-0.736,0.804c-0.138,0.15-0.333,0.236-0.537,0.236h-4.993
		c-0.402,0-0.728-0.326-0.728-0.728v-1.438l22.396,0.802l-0.086,0.678C62.249,188.706,61.916,189,61.52,189z"/>
	<path clip-path="url(#SVGID_2_)" fill="#008ED2" d="M27.328,187.636h-9.959l0.086,0.678c0.05,0.393,0.384,0.687,0.779,0.687h13.411
		c0.395,0,0.729-0.294,0.779-0.687l0.151-1.36l-2.829,0.479C28.947,187.567,28.139,187.636,27.328,187.636"/>
	
		<path clip-path="url(#SVGID_2_)" fill="none" stroke="#008ED2" stroke-width="0.52" stroke-linecap="round" stroke-linejoin="round" stroke-miterlimit="10" d="
		M27.328,187.636h-9.959l0.086,0.678c0.05,0.393,0.384,0.687,0.779,0.687h13.411c0.395,0,0.729-0.294,0.779-0.687l0.151-1.36
		l-2.829,0.479C28.947,187.567,28.139,187.636,27.328,187.636z"/>
	<path clip-path="url(#SVGID_2_)" fill="#008ED2" d="M50.186,103.586c0.347,14.384,0.506,45.924-1.74,68.279l-7.618,0.693
		c0,0,0.533-39.339-2.333-55.975l-5.076-0.044c0,0-2.566,31.93-2.072,55.759l-7.741,0.26c0,0-1.797-45.23-1.559-70.879"/>
	
		<path clip-path="url(#SVGID_2_)" fill="none" stroke="#008ED2" stroke-width="0.52" stroke-linecap="round" stroke-linejoin="round" stroke-miterlimit="10" d="
		M50.186,103.586c0.347,14.384,0.506,45.924-1.74,68.279l-7.618,0.693c0,0,0.533-39.339-2.333-55.975l-5.076-0.044
		c0,0-2.566,31.93-2.072,55.759l-7.741,0.26c0,0-1.797-45.23-1.559-70.879"/>
	
		<polyline clip-path="url(#SVGID_2_)" fill="none" stroke="#002776" stroke-width="0.52" stroke-linecap="round" stroke-linejoin="round" stroke-miterlimit="10" points="
		43.688,116.589 39.333,116.589 48.042,120.098 	"/>
	
		<line clip-path="url(#SVGID_2_)" fill="none" stroke="#002776" stroke-width="0.52" stroke-linecap="round" stroke-linejoin="round" stroke-miterlimit="10" x1="39.983" y1="117.953" x2="45.182" y2="121.918"/>
	
		<polyline clip-path="url(#SVGID_2_)" fill="none" stroke="#002776" stroke-width="0.52" stroke-linecap="round" stroke-linejoin="round" stroke-miterlimit="10" points="
		26.791,116.589 32.445,116.589 29.618,118.863 	"/>
	
		<path clip-path="url(#SVGID_2_)" fill="none" stroke="#002776" stroke-width="0.52" stroke-linecap="round" stroke-linejoin="round" stroke-miterlimit="10" d="
		M34.134,106.775c0,0,0.325,6.256-0.585,9.765"/>
	
		<path clip-path="url(#SVGID_2_)" fill="none" stroke="#002776" stroke-width="0.52" stroke-linecap="round" stroke-linejoin="round" stroke-miterlimit="10" d="
		M38.417,116.584c0.91-3.51,0.584-9.809,0.584-9.809"/>
	
		<line clip-path="url(#SVGID_2_)" fill="none" stroke="#002776" stroke-width="0.52" stroke-linecap="round" stroke-linejoin="round" stroke-miterlimit="10" x1="22.762" y1="109.765" x2="27.506" y2="105.086"/>
	
		<line clip-path="url(#SVGID_2_)" fill="none" stroke="#002776" stroke-width="0.52" stroke-linecap="round" stroke-linejoin="round" stroke-miterlimit="10" x1="49.276" y1="110.902" x2="45.183" y2="105.932"/>
	<polygon clip-path="url(#SVGID_2_)" fill="#4DB0DF" points="32.055,176.133 22.762,176.133 22.415,171.519 32.51,171.844 	"/>
	
		<polygon clip-path="url(#SVGID_2_)" fill="none" stroke="#4DB0DF" stroke-width="0.52" stroke-linecap="round" stroke-linejoin="round" stroke-miterlimit="10" points="
		32.055,176.133 22.762,176.133 22.415,171.519 32.51,171.844 	"/>
	<polygon clip-path="url(#SVGID_2_)" fill="#4DB0DF" points="40.179,176.133 49.472,175.625 49.819,171.519 39.724,171.519 	"/>
	
		<polygon clip-path="url(#SVGID_2_)" fill="none" stroke="#4DB0DF" stroke-width="0.52" stroke-linecap="round" stroke-linejoin="round" stroke-miterlimit="10" points="
		40.179,176.133 49.472,175.625 49.819,171.519 39.724,171.519 	"/>
	
		<line clip-path="url(#SVGID_2_)" fill="none" stroke="#002776" stroke-width="0.52" stroke-linecap="round" stroke-linejoin="round" stroke-miterlimit="10" x1="27.96" y1="116.589" x2="39.703" y2="116.589"/>
	<path clip-path="url(#SVGID_2_)" fill="#002776" d="M40.939,180.162l6.174,1.754c0,0,1.039-2.275,2.924-3.119l6.076,3.114
		c1.094,0.561,2.29,0.893,3.516,0.974l0.019,0.002c0.866,0.058,1.643,0.436,2.214,1.016c0.826,0.84,1,2.646,0.527,3.723
		l-0.005,0.011l-22.396-0.802C39.989,186.834,39.445,182.891,40.939,180.162"/>
	
		<path clip-path="url(#SVGID_2_)" fill="none" stroke="#002776" stroke-width="0.52" stroke-linecap="round" stroke-linejoin="round" stroke-miterlimit="10" d="
		M40.939,180.162l6.174,1.754c0,0,1.039-2.275,2.924-3.119l6.076,3.114c1.094,0.561,2.29,0.893,3.516,0.974l0.019,0.002
		c0.866,0.058,1.643,0.436,2.214,1.016c0.826,0.84,1,2.646,0.527,3.723l-0.005,0.011l-22.396-0.802
		C39.989,186.834,39.445,182.891,40.939,180.162z"/>
	<path clip-path="url(#SVGID_2_)" fill="#002776" d="M17.369,187.636l0.146-2.424c0.104-1.724,1.39-3.145,3.095-3.421l0.029-0.005
		c0,0,0.953-2.826,3.596-2.989c3.492-0.215,4.419,0.735,6.022,3.119l1.646-0.866c0,0,1.127,3.098,0.672,5.903l-3.818,0.534
		c-0.674,0.094-1.353,0.142-2.033,0.142L17.369,187.636z"/>
	
		<path clip-path="url(#SVGID_2_)" fill="none" stroke="#002776" stroke-width="0.52" stroke-linecap="round" stroke-linejoin="round" stroke-miterlimit="10" d="
		M17.369,187.636l0.146-2.424c0.104-1.724,1.39-3.145,3.095-3.421l0.029-0.005c0,0,0.953-2.826,3.596-2.989
		c3.492-0.215,4.419,0.735,6.022,3.119l1.646-0.866c0,0,1.127,3.098,0.672,5.903l-3.818,0.534c-0.674,0.094-1.353,0.142-2.033,0.142
		L17.369,187.636z"/>
	
		<path clip-path="url(#SVGID_2_)" fill="none" stroke="#008ED2" stroke-width="0.52" stroke-linecap="round" stroke-linejoin="round" stroke-miterlimit="10" d="
		M21.299,181.689c0,0,4.066-0.341,6.17,1.527"/>
	<path clip-path="url(#SVGID_2_)" fill="#002776" d="M51.54,103.326l-1.199-16.117c2.079-12.131-0.884-31.716-0.884-31.716
		l-6.355-3.615c-1.782,5.21-12.109,3.753-14.185,0l-6.579,3.615c0,0-2.739,19.585-0.659,31.716l-1.2,16.117
		C26.444,106.618,43.049,109.479,51.54,103.326"/>
	
		<path clip-path="url(#SVGID_2_)" fill="none" stroke="#002776" stroke-width="0.52" stroke-linecap="round" stroke-linejoin="round" stroke-miterlimit="10" d="
		M51.54,103.326l-1.199-16.117c2.079-12.131-0.884-31.716-0.884-31.716l-6.355-3.615c-1.782,5.21-12.109,3.753-14.185,0
		l-6.579,3.615c0,0-2.739,19.585-0.659,31.716l-1.2,16.117C26.444,106.618,43.049,109.479,51.54,103.326z"/>
	
		<line clip-path="url(#SVGID_2_)" fill="none" stroke="#99D2ED" stroke-width="0.52" stroke-linecap="round" stroke-linejoin="round" stroke-miterlimit="10" x1="38.445" y1="54.621" x2="38.185" y2="69.143"/>
	<path clip-path="url(#SVGID_2_)" fill="#4DB0DF" d="M36.936,59.612c0,0.718-0.582,1.3-1.3,1.3c-0.718,0-1.3-0.582-1.3-1.3
		s0.582-1.3,1.3-1.3C36.354,58.312,36.936,58.894,36.936,59.612"/>
	
		<circle clip-path="url(#SVGID_2_)" fill="none" stroke="#4DB0DF" stroke-width="0.52" stroke-linecap="round" stroke-linejoin="round" stroke-miterlimit="10" cx="35.636" cy="59.612" r="1.3"/>
	<path clip-path="url(#SVGID_2_)" fill="#4DB0DF" d="M36.799,66.024c0,0.718-0.582,1.299-1.3,1.299c-0.718,0-1.3-0.581-1.3-1.299
		c0-0.718,0.582-1.3,1.3-1.3C36.217,64.724,36.799,65.306,36.799,66.024"/>
	
		<circle clip-path="url(#SVGID_2_)" fill="none" stroke="#4DB0DF" stroke-width="0.52" stroke-linecap="round" stroke-linejoin="round" stroke-miterlimit="10" cx="35.499" cy="66.024" r="1.3"/>
	
		<path clip-path="url(#SVGID_2_)" fill="none" stroke="#A20076" stroke-width="0.52" stroke-linecap="round" stroke-linejoin="round" stroke-miterlimit="10" d="
		M89.885,83.882c0,0,7.12-3.904,15.618-0.229"/>
	
		<path clip-path="url(#SVGID_2_)" fill="none" stroke="#A20076" stroke-width="0.52" stroke-linecap="round" stroke-linejoin="round" stroke-miterlimit="10" d="
		M105.503,108.582c0,0-7.12,3.904-15.618,0.229"/>
</g>
</svg>
