
<svg viewBox="0 0 175 175" version="1.1" xmlns="http://www.w3.org/2000/svg" xmlns:xlink="http://www.w3.org/1999/xlink">
  <circle fill="#f8f8f8" cx="87.5" cy="87.5" r="87.5"/>
  <path fill="#509bf5" fill-rule="evenodd" d="M140.44,53.16,47.83,133.48l4.64-31.58L12.6,132.75A87.53,87.53,0,0,0,138.08,158.9l9.69-39.28-28.68,17.09Z"/>
  <path fill-rule="evenodd" d="M113.1,68.87l.37-9.9L77.39,64.85,77,74.7h0l-1,27.7a8.22,8.22,0,1,0,2.48,6.2c0-.25,0-.49,0-.73l1.22-32.41,30.71-5-1,26a8.22,8.22,0,1,0,2.44,6.2h0v0h0l1.27-33.79Z"/>
  <circle fill="#509bf5" cx="53.27" cy="71.85" r="15.89"/>
  <path fill="#ffffff" d="M59.82,72.37a1.77,1.77,0,0,0-2.5,0L55,74.65V65.23a1.77,1.77,0,1,0-3.53,0v9.42l-2.28-2.28a1.77,1.77,0,1,0-2.5,2.5l6.54,6.54,6.54-6.54A1.77,1.77,0,0,0,59.82,72.37Z"/>
</svg>
