
<svg viewBox="0 0 175 175" version="1.1" xmlns="http://www.w3.org/2000/svg" xmlns:xlink="http://www.w3.org/1999/xlink">
  <circle fill="#f8f8f8" cx="87.5" cy="87.5" r="87.5"/>
  <path d="M128.19,37.89H45.94a9.5,9.5,0,0,0-9.62,9.63v111a87.59,87.59,0,0,0,7.44,4.82V57.14h87.5V163.29q3.34-1.93,6.48-4.14l.08-.07V48A9.87,9.87,0,0,0,128.19,37.89ZM95.38,49.27H79.63a1.31,1.31,0,0,1,0-2.62H95.38a1.31,1.31,0,0,1,0,2.63Z"/>
  <path fill="#509bf5" d="M115.06,144.41H59.94c-3.87,0-6.56-3.13-6.56-7v-42c0-3.87,2.7-7,6.56-7h55.13c3.87,0,6.56,3.13,6.56,7v42c0,3.87-2.7,7-6.56,7"/>
  <polygon fill="#ffffff" points="90.23 122.54 91.98 99.79 83.67 99.79 85.42 122.54 90.23 122.54"/>
  <circle fill="#ffffff" cx="87.82" cy="129.76" r="3.72"/>
  <path fill="#509bf5" fill-rule="evenodd" d="M150.31,62.85A15.75,15.75,0,1,1,134.56,47.1a15.75,15.75,0,0,1,15.75,15.75"/>
  <path fill="#ffffff" d="M136.85,62.85l4-4a1.62,1.62,0,1,0-2.28-2.29l-4,4-4-4a1.62,1.62,0,1,0-2.28,2.29l4,4-4,4a1.62,1.62,0,1,0,2.28,2.29l4-4,4,4a1.62,1.62,0,1,0,2.28-2.29Z"/>
</svg>
