
<svg viewBox="0 0 175 175" version="1.1" xmlns="http://www.w3.org/2000/svg" xmlns:xlink="http://www.w3.org/1999/xlink">
  <circle fill="#f7f8f9" cx="87.5" cy="87.5" r="87.5"/>
  <path fill="#509bf5" d="M89.89,26.15A40.65,40.65,0,0,0,53.42,84.74c-.3,0-.59,0-.89,0A18.3,18.3,0,1,0,70.84,103c0-.1,0-.21,0-.31A40.65,40.65,0,1,0,89.89,26.15Z"/>
  <circle cx="127.89" cy="92.59" r="15.4"/>
  <circle cx="37.36" cy="76.19" r="5.86"/>
  <path fill="#ffffff" d="M134.56,93.12l-9.28,5.36a.73.73,0,0,1-1.09-.63V87.13a.73.73,0,0,1,1.09-.63l9.28,5.36a.73.73,0,0,1,0,1.26"/>
  <circle cx="87.43" cy="121.88" r="25.06"/>
  <path fill-rule="evenodd" fill="#509bf5" d="M93.64,127,83.34,107.23l-1.58.84,9,17.32A5.66,5.66,0,1,0,93.64,127Z"/>
  <path fill-rule="evenodd" fill="#ffffff" d="M105.32,46,78.85,50.35l-.27,7.23h0L77.82,77.9a6,6,0,1,0,1.82,4.32c0-.08,0-.16,0-.24l.9-23.85,22.53-3.67-.72,19.11a6,6,0,1,0,1.79,4.55h0l.93-24.82h0Z"/>
</svg>
