
<svg viewBox="0 0 175 175" version="1.1" xmlns="http://www.w3.org/2000/svg" xmlns:xlink="http://www.w3.org/1999/xlink">
  <circle fill="#f8f8f8" cx="87.5" cy="87.5" r="87.5"/>
  <path d="M128.19,37.89H45.94a9.5,9.5,0,0,0-9.62,9.63v111a87.59,87.59,0,0,0,7.44,4.82V57.14h87.5V163.29q3.34-1.93,6.48-4.14l.08-.07V48A9.87,9.87,0,0,0,128.19,37.89ZM95.38,49.27H79.63a1.31,1.31,0,0,1,0-2.62H95.38a1.31,1.31,0,0,1,0,2.63Z"/>
  <circle fill="#509BF5" cx="87.06" cy="116.2" r="28"/>
  <path fill="#ffffff" d="M91.37,117.52,75.9,126.45a1,1,0,0,1-1.5-.87V107.71a1,1,0,0,1,1.5-.87l15.47,8.93a1,1,0,0,1,0,1.74"/>
  <path fill="#ffffff" d="M98,106.36a1.67,1.67,0,0,0-1.75,1.57v16.86a1.76,1.76,0,0,0,3.5,0V107.93A1.67,1.67,0,0,0,98,106.36Z"/>
</svg>
