<svg id="Layer_1" data-name="Layer 1" xmlns="http://www.w3.org/2000/svg" viewBox="0 0 25 25"><defs><style>.cls-1,.cls-2{fill:#fff;}.cls-1{fill-rule:evenodd;}</style></defs><title>paper</title><path class="cls-1" d="M23.6,8.4H20.53l-.13,0-.08,0h-1c-.05,0-.1,0-.15,0h-3.3l0,0,0,0H14.21a0,0,0,0,0,0,0v0h0s0,0,0,0l-.06,0H14c-.15,0-.31,0-.46,0h0l0,0H9.7l0,0s0,0,0,0a.08.08,0,0,0-.1,0H2.41l0,0H2.34a.23.23,0,0,0-.14,0h0l0,0H1.49a.58.58,0,0,0-.14,0h0l0,0H0v.86a.69.69,0,0,0,.25,0l.19,0H.55a1.7,1.7,0,0,0,1-.06l.5,0a.41.41,0,0,0,.25.06c.11,0,.27,0,.36-.11a.58.58,0,0,1,.19,0,.69.69,0,0,0,.25,0A.21.21,0,0,0,3.25,9L3.4,9c.1,0,.2.11.32.07a2.37,2.37,0,0,1,.53,0h.1l.1,0h0a.19.19,0,0,0,.15,0h0a.26.26,0,0,0,.2,0h.24a.71.71,0,0,0,.21,0H5.6a.69.69,0,0,0,.35,0,.42.42,0,0,1,.25,0l.11,0h.14a.15.15,0,0,0,.1,0H7L7,9h.11c.1,0,.16,0,.16-.1l.1-.06a.45.45,0,0,1,.29-.05h.15a.36.36,0,0,0,.4,0l.1,0h0l.2,0c.09,0,.18,0,.25,0A.37.37,0,0,0,9,8.66h.1a.69.69,0,0,1,.25,0,.7.7,0,0,0,.29,0l.16,0,0,0a.19.19,0,0,0,.18,0l.2,0h.06l.11,0,0,0h0a.6.6,0,0,0,.4,0c.24-.06.51,0,.75,0a.43.43,0,0,0,.25,0H12a.16.16,0,0,0,.15,0h.2l0,0h0l.06,0h0s.14,0,.18,0h.09s.09,0,.14,0h0l.22,0h.21a.22.22,0,0,0,.14,0c0,.06,0,.11.16.11l.1.08H14a.61.61,0,0,0,.3,0,.44.44,0,0,0,.3,0h0l.15-.06.2,0,.05,0c.09,0,.14.12.3.08V9l.15,0,.05,0s0,0,0,0h0v0h0s0,0,0,0v0a.22.22,0,0,1,.15,0L15.8,9,16,9h.1c0-.08.12-.05.2-.05h.1s.06,0,.1,0l.1,0a.82.82,0,0,0,.35,0c.1.06.2,0,.3,0s.11,0,.15,0h.19l0,0h.07l.21.05h0V9h0a0,0,0,0,0,0,0c0,.06.18,0,.25.09a1.36,1.36,0,0,0,.2,0h.09a.18.18,0,0,0,.11,0h.1v0c0,.07.11.05.19.05a.39.39,0,0,0,.16,0h.14l.05,0c.13,0,.27,0,.4,0l.29,0a0,0,0,0,1,0,0h0s0,.11.15.11l.06.05a.13.13,0,0,0,.1,0,1.37,1.37,0,0,0,.42-.07l.11,0a.18.18,0,0,1,.12,0,.7.7,0,0,1,.39.06.66.66,0,0,0,.36.07.14.14,0,0,0,.15-.05h.05c.07,0,.13,0,.2,0h.25a.47.47,0,0,0,.31,0c.05,0,.11,0,.14,0a.32.32,0,0,0,.2-.06l.15,0h.4l.26,0h.54a.4.4,0,0,0,.25.05h.1a.25.25,0,0,0,.16,0,.47.47,0,0,0,.24,0V8.4Z"/><path class="cls-1" d="M25,16.6v-.77l-.15,0-.05,0c-.08-.09-.26-.07-.39-.11l0,0a.56.56,0,0,0-.23.05v.05s-.1,0-.1.09h0a.7.7,0,0,0-.21.11h0a.69.69,0,0,0-.32,0s0,0,0,0a0,0,0,0,0,0,0s0,0-.06,0,0,0,0,0l-.12,0-.11-.05H23l-.15,0a.13.13,0,0,0-.1,0H22.2a.59.59,0,0,0-.3,0h0a4.62,4.62,0,0,1-.65-.07h-.05l-.35,0c-.07,0-.11.06-.2.05h0s-.12,0-.15,0H20.4a.43.43,0,0,1-.25,0c-.1,0-.21,0-.3,0H19.8c-.05,0-.06,0-.06,0h-.09a.93.93,0,0,1-.29,0l-.11,0a2.58,2.58,0,0,1-.4,0,1.34,1.34,0,0,0-.35,0,.69.69,0,0,0-.25,0v0h-.08c0,.05-.14.05-.17.1h-.25c-.17-.1-.33,0-.5,0h-.39a.73.73,0,0,0-.36,0l-.1,0h-.35v0a.3.3,0,0,0-.26,0,1.94,1.94,0,0,1-.59,0c-.11-.09-.23,0-.34,0s0-.06-.11-.07l-.05,0h-.15l-.15,0c-.07-.05-.16,0-.25,0v0h0s0,0,0,0a.49.49,0,0,1-.25-.08s0,0,0,0h-.23l-.07.07a.41.41,0,0,0-.19,0l-.4-.09s-.05-.06-.1-.08h-.05l-.2,0c-.05,0-.1,0-.15,0a.28.28,0,0,0-.2,0c-.16,0-.16.06-.21.11s-.31,0-.39.1a.54.54,0,0,0-.31,0L11.3,16H11c-.05,0-.09,0-.15,0l-.15,0h0a.37.37,0,0,0-.2.05c-.08,0-.17,0-.25,0s-.13,0-.2,0H9.93a0,0,0,0,0,0,0,.23.23,0,0,0-.17,0,.15.15,0,0,0-.1,0L9.6,16c-.06,0-.15,0-.2,0s-.24,0-.35,0H9a.21.21,0,0,1-.2,0,1.57,1.57,0,0,0-.23,0l-.09,0h0a.12.12,0,0,0-.12,0,.59.59,0,0,0-.2.06h0L8,16l-.09,0H7.84s0,0,0,0H7.71s0,0,0,0a.62.62,0,0,1-.33,0h0a.36.36,0,0,1-.15,0l-.2,0-.13,0a.3.3,0,0,0-.16,0,.37.37,0,0,0-.31,0c-.15,0-.28-.1-.44,0a.27.27,0,0,1-.16,0l0,0A1.11,1.11,0,0,0,5.52,16a.77.77,0,0,1-.37,0l-.1,0-.06,0-.14,0h-.1c-.06-.09-.17,0-.25,0a1.75,1.75,0,0,0-.33,0,.29.29,0,0,1-.22,0c-.05,0-.09-.1-.16,0l-.14,0-.1,0-.3,0s-.1,0-.15,0H3.05c-.07,0-.15,0-.2,0s0,0,0,0h0l-.05,0h0c-.05,0-.12,0-.17,0h0c-.06.08-.25.07-.35.13s-.21,0-.33,0h0a.2.2,0,0,0-.12,0H1.4v0H1.31a.55.55,0,0,0-.26,0L1,16.3H.49a.76.76,0,0,1-.26,0,.36.36,0,0,0-.23,0v.28Z"/><rect class="cls-2" x="-0.02" y="16.58" width="25.02" height="8.42"/><rect class="cls-2" width="25" height="8.4"/></svg>